<?xml version="1.0" encoding="UTF-8"?>
<!DOCTYPE svg PUBLIC "-//W3C//DTD SVG 1.1//EN" "http://www.w3.org/Graphics/SVG/1.1/DTD/svg11.dtd">
<svg xmlns="http://www.w3.org/2000/svg" version="1.1" width="299px" height="300px" style="shape-rendering:geometricPrecision; text-rendering:geometricPrecision; image-rendering:optimizeQuality; fill-rule:evenodd; clip-rule:evenodd" xmlns:xlink="http://www.w3.org/1999/xlink">
<g><path style="opacity:1" fill="#b0956d" d="M 131.5,-0.5 C 143.5,-0.5 155.5,-0.5 167.5,-0.5C 241.29,13.6231 284.956,57.6231 298.5,131.5C 298.5,143.5 298.5,155.5 298.5,167.5C 287.462,232.385 250.462,274.885 187.5,295C 180.053,296.625 172.72,298.125 165.5,299.5C 154.5,299.5 143.5,299.5 132.5,299.5C 81.4691,292.067 42.9691,266.067 17,221.5C 8.06159,204.38 2.22825,186.38 -0.5,167.5C -0.5,155.5 -0.5,143.5 -0.5,131.5C 9.97078,68.1835 45.6374,26.0168 106.5,5C 114.874,2.69463 123.207,0.861293 131.5,-0.5 Z M 137.5,5.5 C 197.243,3.78076 242.743,28.1141 274,78.5C 298.667,125.833 298.667,173.167 274,220.5C 240.655,273.755 192.489,297.588 129.5,292C 70.9824,281.661 31.8157,248.495 12,192.5C -3.67756,132.361 11.1558,81.1942 56.5,39C 80.2611,19.9153 107.261,8.74864 137.5,5.5 Z M 170.5,20.5 C 175.663,20.1068 177.33,22.2734 175.5,27C 171.872,28.316 169.539,27.1493 168.5,23.5C 169.193,22.4822 169.859,21.4822 170.5,20.5 Z M 135.5,45.5 C 133.5,48.1667 131.167,50.5 128.5,52.5C 129.833,49.1667 132.167,46.8333 135.5,45.5 Z M 76.5,39.5 C 77.7562,39.4614 78.7562,39.9614 79.5,41C 78.0337,41.6355 76.7003,42.4688 75.5,43.5C 74.6919,43.1924 74.0253,42.6924 73.5,42C 74.5707,41.1482 75.5707,40.3149 76.5,39.5 Z M 62.5,51.5 C 62.1744,54.0014 60.8411,55.1681 58.5,55C 59.7051,53.6244 61.0384,52.4577 62.5,51.5 Z M 185.5,51.5 C 189.474,52.6209 193.14,54.4543 196.5,57C 206.387,65.2096 214.387,74.8763 220.5,86C 224.833,86.3333 229.167,86.6667 233.5,87C 229.247,87.1998 225.08,87.6998 221,88.5C 210.248,87.513 199.415,87.1797 188.5,87.5C 189.327,91.8072 189.993,96.1405 190.5,100.5C 189.047,96.7085 187.881,92.7085 187,88.5C 185.266,87.7511 183.433,87.2511 181.5,87C 182.793,86.51 184.127,86.3433 185.5,86.5C 185.5,85.1667 185.5,83.8333 185.5,82.5C 186.434,83.5676 186.768,84.901 186.5,86.5C 197.187,86.832 207.854,86.4987 218.5,85.5C 210.164,71.4989 199.164,60.1656 185.5,51.5 Z M 110.5,52.5 C 110.027,53.9063 109.027,54.573 107.5,54.5C 107.973,53.0937 108.973,52.427 110.5,52.5 Z M 127.5,53.5 C 127.573,55.0269 126.906,56.0269 125.5,56.5C 125.427,54.9731 126.094,53.9731 127.5,53.5 Z M 235.5,53.5 C 235.26,56.2933 234.26,56.7933 232.5,55C 233.244,53.9614 234.244,53.4614 235.5,53.5 Z M 107.5,54.5 C 104.461,57.5398 101.127,60.2065 97.5,62.5C 99.9626,58.6998 103.296,56.0332 107.5,54.5 Z M 67.5,56.5 C 66.1827,59.7532 64.1827,60.5865 61.5,59C 63.2166,57.4412 65.2166,56.6079 67.5,56.5 Z M 125.5,56.5 C 125.573,58.0269 124.906,59.0269 123.5,59.5C 123.427,57.9731 124.094,56.9731 125.5,56.5 Z M 122.5,61.5 C 122.573,63.0269 121.906,64.0269 120.5,64.5C 120.427,62.9731 121.094,61.9731 122.5,61.5 Z M 94.5,65.5 C 93.5806,68.0892 91.914,70.0892 89.5,71.5C 90.4194,68.9108 92.086,66.9108 94.5,65.5 Z M 170.5,65.5 C 171.376,65.3691 172.043,65.7025 172.5,66.5C 171.415,69.773 171.248,73.1064 172,76.5C 174.628,81.8814 176.128,87.5481 176.5,93.5C 176.418,100.77 173.418,106.604 167.5,111C 166.167,111.667 164.833,111.667 163.5,111C 166.543,108.407 168.71,105.24 170,101.5C 168.607,91.5133 167.774,81.5133 167.5,71.5C 157.353,76.8128 148.186,83.4794 140,91.5C 136.465,97.3448 134.631,103.678 134.5,110.5C 132.5,110.5 130.5,110.5 128.5,110.5C 126.423,100.474 128.59,91.4737 135,83.5C 140.298,78.3556 145.965,73.6889 152,69.5C 152.048,72.3294 153.048,74.6627 155,76.5C 159.794,72.1971 164.961,68.5304 170.5,65.5 Z M 88.5,72.5 C 88.2624,74.4044 87.2624,75.7377 85.5,76.5C 85.7376,74.5956 86.7376,73.2623 88.5,72.5 Z M 85.5,76.5 C 85.573,78.0269 84.9063,79.0269 83.5,79.5C 83.427,77.9731 84.0937,76.9731 85.5,76.5 Z M 83.5,79.5 C 83.573,81.0269 82.9063,82.0269 81.5,82.5C 81.427,80.9731 82.0937,79.9731 83.5,79.5 Z M 161.5,80.5 C 170.628,102.696 163.295,112.696 139.5,110.5C 139.643,100.715 143.643,92.8812 151.5,87C 155.069,85.0583 158.402,82.8916 161.5,80.5 Z M 80.5,84.5 C 85.2876,85.8279 90.4543,86.4946 96,86.5C 106.323,85.6656 116.489,85.8323 126.5,87C 121.511,87.4993 116.511,87.6659 111.5,87.5C 111.737,88.791 111.404,89.791 110.5,90.5C 110.5,89.5 110.5,88.5 110.5,87.5C 99.6536,87.1722 88.9869,87.5056 78.5,88.5C 61.3064,87.3465 61.3064,86.5131 78.5,86C 79.0442,85.2828 79.7109,84.7828 80.5,84.5 Z M 260.5,91.5 C 264.613,89.9666 265.113,90.6333 262,93.5C 261.722,92.5842 261.222,91.9175 260.5,91.5 Z M 128.5,132.5 C 122.83,127.667 116.997,123 111,118.5C 109.564,115.526 108.564,112.526 108,109.5C 116.687,115.561 123.521,123.228 128.5,132.5 Z M 169.5,132.5 C 174.479,123.228 181.313,115.561 190,109.5C 189.436,112.526 188.436,115.526 187,118.5C 181.003,123 175.17,127.667 169.5,132.5 Z M 126.5,114.5 C 141.848,114.167 157.181,114.501 172.5,115.5C 164.833,115.833 157.167,116.167 149.5,116.5C 141.47,116.498 133.803,115.831 126.5,114.5 Z M 131.5,142.5 C 119.753,138.129 108.086,133.463 96.5,128.5C 94.8358,124.51 93.1691,120.51 91.5,116.5C 91.8333,116.167 92.1667,115.833 92.5,115.5C 107.449,121.799 120.449,130.799 131.5,142.5 Z M 204.5,115.5 C 205.376,115.369 206.043,115.702 206.5,116.5C 204.831,120.51 203.164,124.51 201.5,128.5C 190.169,133.344 178.835,137.844 167.5,142C 178.173,130.68 190.506,121.847 204.5,115.5 Z M 130.5,122.5 C 142.673,121.175 155.006,121.175 167.5,122.5C 155.252,134.413 142.918,134.413 130.5,122.5 Z M 79.5,128.5 C 79.56,127.957 79.8933,127.624 80.5,127.5C 100.248,135.638 119.915,143.972 139.5,152.5C 139.833,151.333 140.167,150.167 140.5,149C 140.011,143.927 139.344,138.927 138.5,134C 140.788,134.053 143.121,134.386 145.5,135C 146.565,145.851 147.898,156.684 149.5,167.5C 151.016,156.885 152.016,146.218 152.5,135.5C 154.806,135.007 157.139,134.674 159.5,134.5C 159.16,140.415 158.494,146.248 157.5,152C 158,152.167 158.5,152.333 159,152.5C 178.797,143.91 198.63,135.744 218.5,128C 210.456,149.302 202.123,170.469 193.5,191.5C 181.5,196.833 169.5,202.167 157.5,207.5C 156.419,202.518 155.419,197.518 154.5,192.5C 153.808,193.025 153.308,193.692 153,194.5C 152.331,205.2 151.331,215.867 150,226.5C 149,227.833 148,227.833 147,226.5C 145.614,215.204 144.781,203.87 144.5,192.5C 143.5,192.5 142.5,192.5 141.5,192.5C 141.827,197.544 141.494,202.544 140.5,207.5C 128.082,202.027 115.749,196.36 103.5,190.5C 95.4504,169.753 87.4504,149.087 79.5,128.5 Z M 234.5,171.5 C 235.089,164.515 235.422,157.515 235.5,150.5C 210.167,150.167 210.167,149.833 235.5,149.5C 235.334,145.486 235.501,141.486 236,137.5C 236.499,141.152 236.665,144.818 236.5,148.5C 259.167,148.833 259.167,149.167 236.5,149.5C 236.843,157.071 236.177,164.404 234.5,171.5 Z M 45.5,148.5 C 57.5046,148.333 69.5046,148.5 81.5,149C 69.5238,149.825 57.6904,150.325 46,150.5C 45.5357,149.906 45.369,149.239 45.5,148.5 Z M 234.5,171.5 C 234.678,175.122 234.011,178.456 232.5,181.5C 232.549,177.922 233.215,174.589 234.5,171.5 Z M 271.5,173.5 C 273.665,173.116 275.332,173.783 276.5,175.5C 275.332,177.217 273.665,177.884 271.5,177.5C 271.5,176.167 271.5,174.833 271.5,173.5 Z M 26.5,187.5 C 30.2434,187.459 30.4101,188.126 27,189.5C 26.5357,188.906 26.369,188.239 26.5,187.5 Z M 107.5,200.5 C 108.472,199.249 109.139,199.582 109.5,201.5C 110.118,204.813 111.118,207.979 112.5,211C 121.575,211.085 130.575,211.752 139.5,213C 130.406,212.876 121.572,213.709 113,215.5C 107.746,214.193 102.246,213.526 96.5,213.5C 90.9212,213.511 85.4212,213.844 80,214.5C 79.5,214 79,213.5 78.5,213C 74.5,212.667 70.5,212.333 66.5,212C 70.4213,211.797 74.2546,211.297 78,210.5C 88.7517,211.487 99.585,211.82 110.5,211.5C 109.945,207.603 108.945,203.937 107.5,200.5 Z M 263.5,199.5 C 266.95,198.756 268.616,200.09 268.5,203.5C 266.833,203.5 265.167,203.5 263.5,203.5C 263.5,202.167 263.5,200.833 263.5,199.5 Z M 222.5,208.5 C 226.044,210.268 230.044,211.102 234.5,211C 229.376,211.849 224.376,213.015 219.5,214.5C 214.544,213.172 209.211,212.505 203.5,212.5C 198.167,212.667 192.833,212.833 187.5,213C 186.868,215.415 185.868,217.582 184.5,219.5C 184.993,217.194 185.326,214.861 185.5,212.5C 177.826,212.666 170.159,212.5 162.5,212C 171.095,212.092 179.429,211.259 187.5,209.5C 192.624,210.829 198.124,211.495 204,211.5C 209.5,211.167 215,210.833 220.5,210.5C 220.855,209.478 221.522,208.811 222.5,208.5 Z M 257.5,209.5 C 259.973,209.947 260.14,210.947 258,212.5C 257.517,211.552 257.351,210.552 257.5,209.5 Z M 219.5,214.5 C 212.554,228.446 202.22,239.113 188.5,246.5C 200.877,237.79 211.21,227.124 219.5,214.5 Z M 83.5,219.5 C 84.9063,219.973 85.573,220.973 85.5,222.5C 84.0937,222.027 83.427,221.027 83.5,219.5 Z M 90.5,228.5 C 91.9063,228.973 92.573,229.973 92.5,231.5C 91.0937,231.027 90.427,230.027 90.5,228.5 Z M 180.5,229.5 C 180.539,232.089 179.539,234.089 177.5,235.5C 177.992,233.181 178.992,231.181 180.5,229.5 Z M 145.5,237.5 C 143.549,237.227 142.049,237.893 141,239.5C 140.517,238.552 140.351,237.552 140.5,236.5C 142.415,236.216 144.081,236.549 145.5,237.5 Z M 248.5,227.5 C 249.289,227.783 249.956,228.283 250.5,229C 249.184,229.528 248.517,229.028 248.5,227.5 Z M 134.5,237.5 C 135.629,239.628 135.796,241.961 135,244.5C 134.749,242.567 134.249,240.734 133.5,239C 134.056,238.617 134.389,238.117 134.5,237.5 Z M 145.5,237.5 C 147.273,238.314 147.773,239.648 147,241.5C 146.722,240.584 146.222,239.918 145.5,239.5C 145.5,238.833 145.5,238.167 145.5,237.5 Z M 99.5,238.5 C 101.027,238.427 102.027,239.094 102.5,240.5C 100.973,240.573 99.9731,239.906 99.5,238.5 Z M 156.5,238.5 C 157.613,239.946 157.78,241.613 157,243.5C 155.384,244.801 153.884,244.801 152.5,243.5C 155.91,243.616 157.244,241.95 156.5,238.5 Z M 175.5,239.5 C 175.573,241.027 174.906,242.027 173.5,242.5C 173.427,240.973 174.094,239.973 175.5,239.5 Z M 124.5,240.5 C 125.906,240.973 126.573,241.973 126.5,243.5C 125.094,243.027 124.427,242.027 124.5,240.5 Z M 104.5,242.5 C 106.027,242.427 107.027,243.094 107.5,244.5C 105.973,244.573 104.973,243.906 104.5,242.5 Z M 173.5,242.5 C 173.262,244.404 172.262,245.738 170.5,246.5C 170.738,244.596 171.738,243.262 173.5,242.5 Z M 126.5,243.5 C 127.906,243.973 128.573,244.973 128.5,246.5C 127.094,246.027 126.427,245.027 126.5,243.5 Z M 168.5,248.5 C 168.5,249.833 167.833,250.5 166.5,250.5C 166.833,249.5 167.5,248.833 168.5,248.5 Z M 134.5,252.5 C 135.756,252.461 136.756,252.961 137.5,254C 136.002,254.585 135.002,254.085 134.5,252.5 Z M 67.5,254.5 C 67.7038,251.482 68.0371,248.482 68.5,245.5C 70.604,245.201 72.604,245.534 74.5,246.5C 72.7789,249.876 70.4455,252.543 67.5,254.5 Z M 93.5,266.5 C 92.2438,266.539 91.2438,266.039 90.5,265C 91.9976,264.415 92.9976,264.915 93.5,266.5 Z M 104.5,267.5 C 105.773,268.077 105.773,268.743 104.5,269.5C 103.537,269.03 103.537,268.363 104.5,267.5 Z M 200.5,259.5 C 203.199,262.272 202.866,262.772 199.5,261C 200.056,260.617 200.389,260.117 200.5,259.5 Z M 213.5,258.5 C 216.001,258.511 216.168,259.178 214,260.5C 213.536,259.906 213.369,259.239 213.5,258.5 Z M 181.5,271.5 C 182.289,271.783 182.956,272.283 183.5,273C 182.184,273.528 181.517,273.028 181.5,271.5 Z M 122.5,271.5 C 124.484,271.484 125.484,272.484 125.5,274.5C 124.167,278.5 122.833,278.5 121.5,274.5C 121.685,273.416 122.018,272.416 122.5,271.5 Z"/></g>
<g><path style="opacity:1" fill="#b0956d" d="M 128.5,13.5 C 130.821,15.0897 131.821,17.4231 131.5,20.5C 129.833,20.5 128.167,20.5 126.5,20.5C 126.531,23.9588 127.198,27.2921 128.5,30.5C 126.667,32.05 124.501,33.05 122,33.5C 121.358,29.5092 120.858,25.5092 120.5,21.5C 118.516,21.3832 116.85,22.0499 115.5,23.5C 113.997,21.2042 113.663,18.8709 114.5,16.5C 115.167,16.8333 115.833,17.1667 116.5,17.5C 120.113,16.4772 123.779,15.6438 127.5,15C 128.056,14.6174 128.389,14.1174 128.5,13.5 Z"/></g>
<g><path style="opacity:0.996" fill="#b0956d" d="M 132.5,13.5 C 135.167,13.5 137.833,13.5 140.5,13.5C 141.572,20.0919 142.572,20.0919 143.5,13.5C 145.924,13.1924 148.257,13.5258 150.5,14.5C 148.674,17.9826 147.008,21.4826 145.5,25C 145.844,26.3651 146.511,27.5318 147.5,28.5C 145.314,29.2208 143.147,29.8875 141,30.5C 140.667,28.5 140.333,26.5 140,24.5C 137.48,20.7757 134.98,17.1091 132.5,13.5 Z"/></g>
<g><path style="opacity:0.714" fill="#b0956d" d="M 107.5,19.5 C 108.873,19.3433 110.207,19.51 111.5,20C 110.978,20.5613 110.645,21.228 110.5,22C 112.09,26.939 113.757,31.7723 115.5,36.5C 112.989,36.838 110.655,36.838 108.5,36.5C 108.709,35.914 109.043,35.414 109.5,35C 108.164,30.4795 106.164,26.3128 103.5,22.5C 104.624,21.1408 105.958,20.1408 107.5,19.5 Z"/></g>
<g><path style="opacity:1" fill="#b1956d" d="M 185.5,20.5 C 185.735,19.9033 186.235,19.5699 187,19.5C 191.714,21.3503 196.547,22.6837 201.5,23.5C 201.496,25.8421 200.663,27.8421 199,29.5C 196.919,27.5175 194.419,26.1842 191.5,25.5C 191.167,25.8333 190.833,26.1667 190.5,26.5C 192.51,28.1713 194.843,28.838 197.5,28.5C 197.617,30.4835 196.95,32.1502 195.5,33.5C 193.382,32.0541 191.049,31.3874 188.5,31.5C 188.5,33.1667 188.5,34.8333 188.5,36.5C 186.194,36.0074 183.861,35.6741 181.5,35.5C 182.865,30.573 184.531,25.7397 186.5,21C 186.272,20.6012 185.938,20.4346 185.5,20.5 Z"/></g>
<g><path style="opacity:1" fill="#b1956d" d="M 93.5,31.5 C 96.4686,30.6713 99.4686,30.5046 102.5,31C 105.201,34.5339 104.867,37.8672 101.5,41C 98.2277,42.7228 94.8944,43.2228 91.5,42.5C 90.7542,41.2638 90.4208,39.9305 90.5,38.5C 93.7341,38.7954 96.7341,38.1287 99.5,36.5C 99.1667,36.1667 98.8333,35.8333 98.5,35.5C 90.195,39.9074 86.695,37.5741 88,28.5C 91.1471,26.169 94.6471,24.5023 98.5,23.5C 99.4656,25.396 99.7989,27.396 99.5,29.5C 96.9899,29.0535 94.9899,29.7202 93.5,31.5 Z"/></g>
<g><path style="opacity:1" fill="#b0956d" d="M 169.5,15.5 C 173.694,15.1767 177.527,16.1767 181,18.5C 184.065,26.6998 181.231,31.3665 172.5,32.5C 165,31.8389 162.167,27.8389 164,20.5C 165.73,18.5981 167.563,16.9314 169.5,15.5 Z M 170.5,20.5 C 169.859,21.4822 169.193,22.4822 168.5,23.5C 169.539,27.1493 171.872,28.316 175.5,27C 177.33,22.2734 175.663,20.1068 170.5,20.5 Z"/></g>
<g><path style="opacity:1" fill="#b0956d" d="M 221.5,53.5 C 214.336,52.2757 213.336,49.4424 218.5,45C 216.667,43.8333 214.833,42.6667 213,41.5C 211.561,43.2746 210.561,45.2746 210,47.5C 207.833,46 205.667,44.5 203.5,43C 204.931,42.5348 206.097,41.7014 207,40.5C 209.541,36.7546 211.374,33.0879 212.5,29.5C 214.413,30.373 216.247,31.373 218,32.5C 218.333,34.0468 217.833,35.3801 216.5,36.5C 217.865,37.941 219.365,39.2744 221,40.5C 222.482,34.4467 224.982,34.1133 228.5,39.5C 225.709,43.5819 223.042,47.7485 220.5,52C 221.056,52.3826 221.389,52.8826 221.5,53.5 Z"/></g>
<g><path style="opacity:0.998" fill="#af936c" d="M 143.5,37.5 C 199.29,38.7841 236.79,65.4508 256,117.5C 267.221,161.796 256.721,199.962 224.5,232C 192.835,258.869 156.835,266.869 116.5,256C 77.2306,242.397 52.064,215.564 41,175.5C 31.1323,117.07 52.299,74.237 104.5,47C 117.152,41.8418 130.152,38.6751 143.5,37.5 Z M 135.5,45.5 C 133.5,48.1667 131.167,50.5 128.5,52.5C 129.833,49.1667 132.167,46.8333 135.5,45.5 Z M 185.5,51.5 C 189.474,52.6209 193.14,54.4543 196.5,57C 206.387,65.2096 214.387,74.8763 220.5,86C 224.833,86.3333 229.167,86.6667 233.5,87C 229.247,87.1998 225.08,87.6998 221,88.5C 210.248,87.513 199.415,87.1797 188.5,87.5C 189.327,91.8072 189.993,96.1405 190.5,100.5C 189.047,96.7085 187.881,92.7085 187,88.5C 185.266,87.7511 183.433,87.2511 181.5,87C 182.793,86.51 184.127,86.3433 185.5,86.5C 185.5,85.1667 185.5,83.8333 185.5,82.5C 186.434,83.5676 186.768,84.901 186.5,86.5C 197.187,86.832 207.854,86.4987 218.5,85.5C 210.164,71.4989 199.164,60.1656 185.5,51.5 Z M 110.5,52.5 C 110.027,53.9063 109.027,54.573 107.5,54.5C 107.973,53.0937 108.973,52.427 110.5,52.5 Z M 127.5,53.5 C 127.573,55.0269 126.906,56.0269 125.5,56.5C 125.427,54.9731 126.094,53.9731 127.5,53.5 Z M 107.5,54.5 C 104.461,57.5398 101.127,60.2065 97.5,62.5C 99.9626,58.6998 103.296,56.0332 107.5,54.5 Z M 125.5,56.5 C 125.573,58.0269 124.906,59.0269 123.5,59.5C 123.427,57.9731 124.094,56.9731 125.5,56.5 Z M 122.5,61.5 C 122.573,63.0269 121.906,64.0269 120.5,64.5C 120.427,62.9731 121.094,61.9731 122.5,61.5 Z M 94.5,65.5 C 93.5806,68.0892 91.914,70.0892 89.5,71.5C 90.4194,68.9108 92.086,66.9108 94.5,65.5 Z M 170.5,65.5 C 164.961,68.5304 159.794,72.1971 155,76.5C 153.048,74.6627 152.048,72.3294 152,69.5C 145.965,73.6889 140.298,78.3556 135,83.5C 128.59,91.4737 126.423,100.474 128.5,110.5C 130.5,110.5 132.5,110.5 134.5,110.5C 134.631,103.678 136.465,97.3448 140,91.5C 148.186,83.4794 157.353,76.8128 167.5,71.5C 167.774,81.5133 168.607,91.5133 170,101.5C 168.71,105.24 166.543,108.407 163.5,111C 164.833,111.667 166.167,111.667 167.5,111C 173.418,106.604 176.418,100.77 176.5,93.5C 176.128,87.5481 174.628,81.8814 172,76.5C 171.248,73.1064 171.415,69.773 172.5,66.5C 172.043,65.7025 171.376,65.3691 170.5,65.5 Z M 88.5,72.5 C 88.2624,74.4044 87.2624,75.7377 85.5,76.5C 85.7376,74.5956 86.7376,73.2623 88.5,72.5 Z M 85.5,76.5 C 85.573,78.0269 84.9063,79.0269 83.5,79.5C 83.427,77.9731 84.0937,76.9731 85.5,76.5 Z M 83.5,79.5 C 83.573,81.0269 82.9063,82.0269 81.5,82.5C 81.427,80.9731 82.0937,79.9731 83.5,79.5 Z M 161.5,80.5 C 158.402,82.8916 155.069,85.0583 151.5,87C 143.643,92.8812 139.643,100.715 139.5,110.5C 163.295,112.696 170.628,102.696 161.5,80.5 Z M 80.5,84.5 C 85.2876,85.8279 90.4543,86.4946 96,86.5C 106.323,85.6656 116.489,85.8323 126.5,87C 121.511,87.4993 116.511,87.6659 111.5,87.5C 111.737,88.791 111.404,89.791 110.5,90.5C 110.5,89.5 110.5,88.5 110.5,87.5C 99.6536,87.1722 88.9869,87.5056 78.5,88.5C 61.3064,87.3465 61.3064,86.5131 78.5,86C 79.0442,85.2828 79.7109,84.7828 80.5,84.5 Z M 128.5,132.5 C 123.521,123.228 116.687,115.561 108,109.5C 108.564,112.526 109.564,115.526 111,118.5C 116.997,123 122.83,127.667 128.5,132.5 Z M 169.5,132.5 C 175.17,127.667 181.003,123 187,118.5C 188.436,115.526 189.436,112.526 190,109.5C 181.313,115.561 174.479,123.228 169.5,132.5 Z M 126.5,114.5 C 133.803,115.831 141.47,116.498 149.5,116.5C 157.167,116.167 164.833,115.833 172.5,115.5C 157.181,114.501 141.848,114.167 126.5,114.5 Z M 131.5,142.5 C 120.449,130.799 107.449,121.799 92.5,115.5C 92.1667,115.833 91.8333,116.167 91.5,116.5C 93.1691,120.51 94.8358,124.51 96.5,128.5C 108.086,133.463 119.753,138.129 131.5,142.5 Z M 204.5,115.5 C 190.506,121.847 178.173,130.68 167.5,142C 178.835,137.844 190.169,133.344 201.5,128.5C 203.164,124.51 204.831,120.51 206.5,116.5C 206.043,115.702 205.376,115.369 204.5,115.5 Z M 130.5,122.5 C 142.918,134.413 155.252,134.413 167.5,122.5C 155.006,121.175 142.673,121.175 130.5,122.5 Z M 79.5,128.5 C 87.4504,149.087 95.4504,169.753 103.5,190.5C 115.749,196.36 128.082,202.027 140.5,207.5C 141.494,202.544 141.827,197.544 141.5,192.5C 142.5,192.5 143.5,192.5 144.5,192.5C 144.781,203.87 145.614,215.204 147,226.5C 148,227.833 149,227.833 150,226.5C 151.331,215.867 152.331,205.2 153,194.5C 153.308,193.692 153.808,193.025 154.5,192.5C 155.419,197.518 156.419,202.518 157.5,207.5C 169.5,202.167 181.5,196.833 193.5,191.5C 202.123,170.469 210.456,149.302 218.5,128C 198.63,135.744 178.797,143.91 159,152.5C 158.5,152.333 158,152.167 157.5,152C 158.494,146.248 159.16,140.415 159.5,134.5C 157.139,134.674 154.806,135.007 152.5,135.5C 152.016,146.218 151.016,156.885 149.5,167.5C 147.898,156.684 146.565,145.851 145.5,135C 143.121,134.386 140.788,134.053 138.5,134C 139.344,138.927 140.011,143.927 140.5,149C 140.167,150.167 139.833,151.333 139.5,152.5C 119.915,143.972 100.248,135.638 80.5,127.5C 79.8933,127.624 79.56,127.957 79.5,128.5 Z M 234.5,171.5 C 236.177,164.404 236.843,157.071 236.5,149.5C 259.167,149.167 259.167,148.833 236.5,148.5C 236.665,144.818 236.499,141.152 236,137.5C 235.501,141.486 235.334,145.486 235.5,149.5C 210.167,149.833 210.167,150.167 235.5,150.5C 235.422,157.515 235.089,164.515 234.5,171.5 Z M 45.5,148.5 C 45.369,149.239 45.5357,149.906 46,150.5C 57.6904,150.325 69.5238,149.825 81.5,149C 69.5046,148.5 57.5046,148.333 45.5,148.5 Z M 234.5,171.5 C 234.678,175.122 234.011,178.456 232.5,181.5C 232.549,177.922 233.215,174.589 234.5,171.5 Z M 107.5,200.5 C 108.945,203.937 109.945,207.603 110.5,211.5C 99.585,211.82 88.7517,211.487 78,210.5C 74.2546,211.297 70.4213,211.797 66.5,212C 70.5,212.333 74.5,212.667 78.5,213C 79,213.5 79.5,214 80,214.5C 85.4212,213.844 90.9212,213.511 96.5,213.5C 102.246,213.526 107.746,214.193 113,215.5C 121.572,213.709 130.406,212.876 139.5,213C 130.575,211.752 121.575,211.085 112.5,211C 111.118,207.979 110.118,204.813 109.5,201.5C 109.139,199.582 108.472,199.249 107.5,200.5 Z M 222.5,208.5 C 226.044,210.268 230.044,211.102 234.5,211C 229.376,211.849 224.376,213.015 219.5,214.5C 214.544,213.172 209.211,212.505 203.5,212.5C 198.167,212.667 192.833,212.833 187.5,213C 186.868,215.415 185.868,217.582 184.5,219.5C 184.993,217.194 185.326,214.861 185.5,212.5C 177.826,212.666 170.159,212.5 162.5,212C 171.095,212.092 179.429,211.259 187.5,209.5C 192.624,210.829 198.124,211.495 204,211.5C 209.5,211.167 215,210.833 220.5,210.5C 220.855,209.478 221.522,208.811 222.5,208.5 Z M 219.5,214.5 C 212.554,228.446 202.22,239.113 188.5,246.5C 200.877,237.79 211.21,227.124 219.5,214.5 Z M 83.5,219.5 C 84.9063,219.973 85.573,220.973 85.5,222.5C 84.0937,222.027 83.427,221.027 83.5,219.5 Z M 90.5,228.5 C 91.9063,228.973 92.573,229.973 92.5,231.5C 91.0937,231.027 90.427,230.027 90.5,228.5 Z M 180.5,229.5 C 180.539,232.089 179.539,234.089 177.5,235.5C 177.992,233.181 178.992,231.181 180.5,229.5 Z M 145.5,237.5 C 144.081,236.549 142.415,236.216 140.5,236.5C 140.351,237.552 140.517,238.552 141,239.5C 142.049,237.893 143.549,237.227 145.5,237.5 Z M 134.5,237.5 C 134.389,238.117 134.056,238.617 133.5,239C 134.249,240.734 134.749,242.567 135,244.5C 135.796,241.961 135.629,239.628 134.5,237.5 Z M 145.5,237.5 C 147.273,238.314 147.773,239.648 147,241.5C 146.722,240.584 146.222,239.918 145.5,239.5C 145.5,238.833 145.5,238.167 145.5,237.5 Z M 99.5,238.5 C 101.027,238.427 102.027,239.094 102.5,240.5C 100.973,240.573 99.9731,239.906 99.5,238.5 Z M 156.5,238.5 C 157.613,239.946 157.78,241.613 157,243.5C 155.384,244.801 153.884,244.801 152.5,243.5C 155.91,243.616 157.244,241.95 156.5,238.5 Z M 175.5,239.5 C 175.573,241.027 174.906,242.027 173.5,242.5C 173.427,240.973 174.094,239.973 175.5,239.5 Z M 124.5,240.5 C 125.906,240.973 126.573,241.973 126.5,243.5C 125.094,243.027 124.427,242.027 124.5,240.5 Z M 104.5,242.5 C 106.027,242.427 107.027,243.094 107.5,244.5C 105.973,244.573 104.973,243.906 104.5,242.5 Z M 173.5,242.5 C 173.262,244.404 172.262,245.738 170.5,246.5C 170.738,244.596 171.738,243.262 173.5,242.5 Z M 126.5,243.5 C 127.906,243.973 128.573,244.973 128.5,246.5C 127.094,246.027 126.427,245.027 126.5,243.5 Z M 168.5,248.5 C 168.5,249.833 167.833,250.5 166.5,250.5C 166.833,249.5 167.5,248.833 168.5,248.5 Z M 134.5,252.5 C 135.002,254.085 136.002,254.585 137.5,254C 136.756,252.961 135.756,252.461 134.5,252.5 Z"/></g>
<g><path style="opacity:0.99" fill="#b1956d" d="M 62.5,51.5 C 65.1667,52.1667 66.8333,53.8333 67.5,56.5C 68.9663,55.653 69.7996,54.3197 70,52.5C 71.9827,53.7657 72.9827,55.4324 73,57.5C 68.8104,60.9336 64.8104,64.6002 61,68.5C 58.4294,63.7578 54.9294,59.7578 50.5,56.5C 54.8062,52.8604 58.8062,48.8604 62.5,44.5C 64.1667,45.5 65.5,46.8333 66.5,48.5C 64.8164,49.1497 63.4831,50.1497 62.5,51.5 Z M 62.5,51.5 C 61.0384,52.4577 59.7051,53.6244 58.5,55C 60.8411,55.1681 62.1744,54.0014 62.5,51.5 Z M 67.5,56.5 C 65.2166,56.6079 63.2166,57.4412 61.5,59C 64.1827,60.5865 66.1827,59.7532 67.5,56.5 Z"/></g>
<g><path style="opacity:0.821" fill="#b1966e" d="M 221.5,53.5 C 227.311,52.0115 232.478,49.3448 237,45.5C 239.308,46.6411 241.141,48.3078 242.5,50.5C 240.162,56.3485 238.328,62.3485 237,68.5C 235.045,67.5467 233.378,66.2134 232,64.5C 231.689,63.2575 232.189,62.2575 233.5,61.5C 232.352,59.8513 231.019,58.3513 229.5,57C 228.004,56.4926 226.837,56.9926 226,58.5C 223.8,57.3492 222.3,55.6825 221.5,53.5 Z M 235.5,53.5 C 234.244,53.4614 233.244,53.9614 232.5,55C 234.26,56.7933 235.26,56.2933 235.5,53.5 Z"/></g>
<g><path style="opacity:0.975" fill="#b1956e" d="M 77.5,33.5 C 83.5845,33.5104 85.5845,36.3438 83.5,42C 85.8422,43.1711 88.1756,44.3378 90.5,45.5C 88.7721,47.2255 86.7721,48.5589 84.5,49.5C 82.7399,46.9788 80.4066,46.1455 77.5,47C 78.376,48.586 79.376,50.086 80.5,51.5C 78.8067,53.0267 76.9734,54.3601 75,55.5C 74.3828,54.5509 74.5494,53.7175 75.5,53C 72.2488,49.5806 69.5821,45.7473 67.5,41.5C 70.903,38.8141 74.2363,36.1474 77.5,33.5 Z M 76.5,39.5 C 75.5707,40.3149 74.5707,41.1482 73.5,42C 74.0253,42.6924 74.6919,43.1924 75.5,43.5C 76.7003,42.4688 78.0337,41.6355 79.5,41C 78.7562,39.9614 77.7562,39.4614 76.5,39.5 Z"/></g>
<g><path style="opacity:0.998" fill="#b1956d" d="M 250.5,85.5 C 248.187,84.1751 246.521,82.1751 245.5,79.5C 247.34,77.8152 248.673,75.8152 249.5,73.5C 246.976,73.4287 244.976,74.4287 243.5,76.5C 241.367,74.9095 239.701,72.9095 238.5,70.5C 242.551,66.7364 245.885,62.403 248.5,57.5C 250.375,58.5403 251.708,60.0403 252.5,62C 251.33,64.6682 249.663,67.0016 247.5,69C 250.296,68.9034 252.963,68.0701 255.5,66.5C 256.833,68.1667 258.167,69.8333 259.5,71.5C 257.493,73.0082 255.826,74.8416 254.5,77C 257.235,77.0474 259.401,75.8807 261,73.5C 262.659,74.8168 263.826,76.4835 264.5,78.5C 259.471,80.3477 254.805,82.681 250.5,85.5 Z"/></g>
<g><path style="opacity:1" fill="#b0956d" d="M 47.5,69.5 C 47.0801,66.3236 45.7467,64.4903 43.5,64C 44.9958,62.6693 46.3291,61.1693 47.5,59.5C 49.6667,63.1667 51.8333,66.8333 54,70.5C 58.103,73.4932 57.7697,76.4932 53,79.5C 48.2629,76.4204 43.0963,74.4204 37.5,73.5C 37.918,70.5611 39.418,68.2278 42,66.5C 43.1739,68.6709 45.0072,69.6709 47.5,69.5 Z"/></g>
<g><path style="opacity:0.959" fill="#b0956d" d="M 34.5,75.5 C 39.2881,78.7327 44.2881,81.7327 49.5,84.5C 47.8076,86.3586 46.3076,88.3586 45,90.5C 41.6138,86.7936 37.6138,83.7936 33,81.5C 32.6667,81.8333 32.3333,82.1667 32,82.5C 32.2373,80.0111 33.0707,77.6778 34.5,75.5 Z"/></g>
<g><path style="opacity:1" fill="#bc9f75" d="M 187.5,82.5 C 196.912,84.2701 206.578,85.1035 216.5,85C 206.839,85.4998 197.172,85.6665 187.5,85.5C 187.5,84.5 187.5,83.5 187.5,82.5 Z"/></g>
<g><path style="opacity:1" fill="#bc9f75" d="M 78.5,88.5 C 88.8387,88.3335 99.172,88.5002 109.5,89C 99.2565,89.1794 89.0898,89.6794 79,90.5C 78.5357,89.9056 78.369,89.2389 78.5,88.5 Z"/></g>
<g><path style="opacity:0.983" fill="#b1956d" d="M 250.5,85.5 C 256.319,86.3825 262.152,86.0491 268,84.5C 269.786,85.8966 270.952,87.7299 271.5,90C 267.544,94.7499 263.711,99.5833 260,104.5C 258.779,103.226 257.946,101.726 257.5,100C 259.77,96.6026 259.27,93.4359 256,90.5C 255,91.8333 254,91.8333 253,90.5C 251.906,88.9221 251.072,87.2554 250.5,85.5 Z M 260.5,91.5 C 261.222,91.9175 261.722,92.5842 262,93.5C 265.113,90.6333 264.613,89.9666 260.5,91.5 Z"/></g>
<g><path style="opacity:1" fill="#b0946d" d="M 27.5,87.5 C 32.0327,88.5678 36.366,90.2345 40.5,92.5C 41.891,91.3554 43.2243,91.3554 44.5,92.5C 43.376,93.914 42.376,95.414 41.5,97C 37.7235,97.5921 34.0569,98.5921 30.5,100C 33.3343,101.6 36.3343,102.766 39.5,103.5C 38.4981,105.51 37.4981,107.51 36.5,109.5C 31.6152,106.891 26.6152,104.557 21.5,102.5C 22.6005,100.358 23.6005,98.1917 24.5,96C 32.7947,96.1059 33.1281,94.9393 25.5,92.5C 26.4565,90.9246 27.1231,89.258 27.5,87.5 Z"/></g>
<g><path style="opacity:0.671" fill="#af946d" d="M 274.5,100.5 C 275.586,100.62 276.253,101.287 276.5,102.5C 277.362,104.51 277.862,106.51 278,108.5C 272.503,108.045 267.337,109.379 262.5,112.5C 260.545,110.332 259.879,107.998 260.5,105.5C 261.086,105.709 261.586,106.043 262,106.5C 266.416,104.765 270.583,102.765 274.5,100.5 Z"/></g>
<g><path style="opacity:1" fill="#b0956d" d="M 19.5,108.5 C 22.8976,110.223 26.5643,111.389 30.5,112C 35.0983,117.035 34.7649,122.035 29.5,127C 25.703,127.59 22.0363,127.09 18.5,125.5C 16.8333,127.167 15.8333,126.833 15.5,124.5C 16,122.5 16.5,120.5 17,118.5C 21.2088,121.858 25.3755,122.024 29.5,119C 25.8032,116.908 21.8032,115.741 17.5,115.5C 17.767,113.035 18.4336,110.701 19.5,108.5 Z"/></g>
<g><path style="opacity:0.747" fill="#b2966e" d="M 273.5,111.5 C 277.401,110.857 280.734,111.857 283.5,114.5C 280.125,115.027 276.791,115.861 273.5,117C 272.248,115.172 272.248,113.339 273.5,111.5 Z"/></g>
<g><path style="opacity:0.735" fill="#b0956d" d="M 279.5,118.5 C 281.821,120.09 282.821,122.423 282.5,125.5C 277.023,125.729 271.689,126.729 266.5,128.5C 265.708,126.535 265.041,124.535 264.5,122.5C 268.959,121.913 273.626,121.08 278.5,120C 279.056,119.617 279.389,119.117 279.5,118.5 Z"/></g>
<g><path style="opacity:1" fill="#b89b72" d="M 65.5,127.5 C 66.0183,133.65 66.0183,139.983 65.5,146.5C 71.1764,146.334 76.8431,146.501 82.5,147C 76.5092,147.499 70.5092,147.666 64.5,147.5C 64.4542,140.809 64.7875,134.143 65.5,127.5 Z"/></g>
<g><path style="opacity:0.518" fill="#b0956d" d="M 119.5,172.5 C 119.051,169.71 119.051,167.044 119.5,164.5C 121.167,164.833 122.167,165.833 122.5,167.5C 123.064,169.819 123.564,172.153 124,174.5C 125,175.167 126,175.833 127,176.5C 127.689,173.592 128.855,170.925 130.5,168.5C 132.662,172.824 134.829,177.158 137,181.5C 137.487,178.202 138.653,175.202 140.5,172.5C 141.919,174.336 143.086,176.336 144,178.5C 144.36,176.579 145.194,174.912 146.5,173.5C 148.849,176.847 150.016,180.514 150,184.5C 149.586,184.957 149.086,185.291 148.5,185.5C 147.376,183.631 146.543,181.631 146,179.5C 144.221,184.768 142.555,184.768 141,179.5C 140.572,184.296 138.405,185.462 134.5,183C 133.696,181.229 132.529,179.729 131,178.5C 130.667,179.5 130.333,180.5 130,181.5C 124.737,179.79 120.237,176.957 116.5,173C 114.892,172.342 113.725,172.842 113,174.5C 111.829,173.107 110.329,172.273 108.5,172C 107.601,170.348 106.601,168.848 105.5,167.5C 105.631,168.376 105.298,169.043 104.5,169.5C 103.108,168.395 101.941,167.061 101,165.5C 100.716,167.886 99.7165,168.552 98,167.5C 96.3938,163.55 96.2271,159.55 97.5,155.5C 99.4986,157.493 100.999,159.827 102,162.5C 102.333,160.833 102.667,159.167 103,157.5C 105.698,161.367 108.198,165.367 110.5,169.5C 111.635,167.293 112.301,164.96 112.5,162.5C 111.5,162.5 110.5,162.5 109.5,162.5C 109.5,161.167 109.5,159.833 109.5,158.5C 114.222,158.3 115.889,160.3 114.5,164.5C 116.192,167.231 117.858,169.898 119.5,172.5 Z"/></g>
<g><path style="opacity:0.359" fill="#b1956d" d="M 272.5,182.5 C 271.791,181.596 270.791,181.263 269.5,181.5C 265.165,172.656 267.832,168.822 277.5,170C 281.105,173.315 281.439,176.982 278.5,181C 276.655,182.128 274.655,182.628 272.5,182.5 Z M 271.5,173.5 C 271.5,174.833 271.5,176.167 271.5,177.5C 273.665,177.884 275.332,177.217 276.5,175.5C 275.332,173.783 273.665,173.116 271.5,173.5 Z"/></g>
<g><path style="opacity:0.456" fill="#af946d" d="M 200.5,155.5 C 201.421,158.14 202.088,160.973 202.5,164C 201.985,168.094 200.318,168.927 197.5,166.5C 195.128,169.37 192.295,171.703 189,173.5C 188.667,172.167 188.333,170.833 188,169.5C 187.385,171.116 186.385,172.449 185,173.5C 184.667,172.833 184.333,172.167 184,171.5C 182.833,173.167 181.667,174.833 180.5,176.5C 179.038,175.529 177.705,175.862 176.5,177.5C 175.833,176.833 175.167,176.167 174.5,175.5C 172.541,176.748 171.041,178.415 170,180.5C 169.667,180.167 169.333,179.833 169,179.5C 166.543,182.384 163.377,184.051 159.5,184.5C 158.579,182.244 156.912,181.244 154.5,181.5C 154.105,185.302 153.105,185.469 151.5,182C 152.501,178.166 154.167,174.666 156.5,171.5C 158.615,175 160.448,178.667 162,182.5C 162.774,178.853 163.441,175.186 164,171.5C 165.183,170.269 166.349,170.269 167.5,171.5C 166.626,173.747 166.292,176.08 166.5,178.5C 167.675,178.719 168.675,178.386 169.5,177.5C 171.344,173.136 173.677,169.136 176.5,165.5C 177.253,168.273 178.253,170.94 179.5,173.5C 181.758,169.984 183.758,166.318 185.5,162.5C 186.281,163.729 186.781,165.062 187,166.5C 188.268,164.283 189.768,162.283 191.5,160.5C 192.314,162.766 192.814,165.1 193,167.5C 195.725,163.615 198.225,159.615 200.5,155.5 Z"/></g>
<g><path style="opacity:0.067" fill="#b0956d" d="M 27.5,168.5 C 29.7409,169.3 30.7409,170.966 30.5,173.5C 27.4824,173.704 24.4824,174.037 21.5,174.5C 21.5,175.5 21.5,176.5 21.5,177.5C 24.836,177.533 28.0027,176.866 31,175.5C 31.6811,177.529 32.0144,179.529 32,181.5C 27.9737,181.466 23.807,181.299 19.5,181C 16.5749,177.304 16.9083,173.971 20.5,171C 23.0037,170.302 25.337,169.469 27.5,168.5 Z"/></g>
<g><path style="opacity:0.876" fill="#b2966e" d="M 269.5,181.5 C 270.209,182.404 271.209,182.737 272.5,182.5C 274.044,183.914 275.711,184.247 277.5,183.5C 278.747,185.006 278.747,186.506 277.5,188C 275.048,188.29 272.715,188.956 270.5,190C 272.101,190.273 273.601,190.773 275,191.5C 275.333,191.167 275.667,190.833 276,190.5C 276.624,192.464 276.124,194.131 274.5,195.5C 270.776,193.3 266.943,192.3 263,192.5C 262.82,190.512 262.986,188.512 263.5,186.5C 265.527,186.662 267.527,186.495 269.5,186C 268.007,184.632 266.507,184.465 265,185.5C 264.283,181.375 265.783,180.042 269.5,181.5 Z"/></g>
<g><path style="opacity:1" fill="#b1956d" d="M 19.5,183.5 C 24.4376,184.392 29.4376,184.726 34.5,184.5C 34.8333,186.5 35.1667,188.5 35.5,190.5C 31.0948,191.553 27.4282,193.886 24.5,197.5C 21.8062,194.794 22.1395,192.961 25.5,192C 24.6634,190.989 24.33,189.822 24.5,188.5C 21.2984,188.463 19.6317,186.797 19.5,183.5 Z M 26.5,187.5 C 26.369,188.239 26.5357,188.906 27,189.5C 30.4101,188.126 30.2434,187.459 26.5,187.5 Z"/></g>
<g><path style="opacity:0.988" fill="#b1966d" d="M 262.5,207.5 C 259.647,205.132 258.481,202.132 259,198.5C 261.161,194.876 264.328,193.709 268.5,195C 274.67,201.493 273.504,205.993 265,208.5C 264.329,207.748 263.496,207.414 262.5,207.5 Z M 263.5,199.5 C 263.5,200.833 263.5,202.167 263.5,203.5C 265.167,203.5 266.833,203.5 268.5,203.5C 268.616,200.09 266.95,198.756 263.5,199.5 Z"/></g>
<g><path style="opacity:1" fill="#b1966e" d="M 33.5,206.5 C 31.9557,206.703 30.6223,207.37 29.5,208.5C 28.0256,207.564 27.0256,206.23 26.5,204.5C 30.2843,203.429 33.951,201.429 37.5,198.5C 40.5752,200.416 40.9085,202.583 38.5,205C 41.9317,203.721 43.9317,205.054 44.5,209C 40.7815,211.614 36.9482,214.114 33,216.5C 31.9164,215.335 31.0831,214.002 30.5,212.5C 31.8368,212.26 33.5035,211.76 35.5,211C 33.8333,210.667 32.1667,210.333 30.5,210C 31.7101,208.961 32.7101,207.794 33.5,206.5 Z"/></g>
<g><path style="opacity:0.955" fill="#b2966e" d="M 262.5,207.5 C 264.079,210.1 263.745,212.433 261.5,214.5C 262.833,215.167 264.167,215.833 265.5,216.5C 264.469,217.7 263.635,219.034 263,220.5C 259.574,217.535 255.741,215.202 251.5,213.5C 253.41,207.869 257.076,205.869 262.5,207.5 Z M 257.5,209.5 C 257.351,210.552 257.517,211.552 258,212.5C 260.14,210.947 259.973,209.947 257.5,209.5 Z"/></g>
<g><path style="opacity:0.997" fill="#b1956d" d="M 43.5,214.5 C 46.7916,214.12 49.1249,215.453 50.5,218.5C 47.2714,221.943 44.2714,225.61 41.5,229.5C 40.5,228.167 39.5,226.833 38.5,225.5C 39.8333,224.5 39.8333,223.5 38.5,222.5C 36.2632,221.868 34.5965,220.535 33.5,218.5C 36.928,217.156 40.2613,215.822 43.5,214.5 Z"/></g>
<g><path style="opacity:0.872" fill="#b1966e" d="M 51.5,221.5 C 53.1454,222.479 54.4787,223.812 55.5,225.5C 52.5593,226.773 50.226,228.773 48.5,231.5C 48.8333,231.833 49.1667,232.167 49.5,232.5C 52.0094,231.079 54.3428,229.412 56.5,227.5C 57.8333,228.167 58.8333,229.167 59.5,230.5C 56.7019,232.13 54.0352,233.963 51.5,236C 45.6667,236.833 43.1667,234.333 44,228.5C 46.4786,226.034 48.9786,223.701 51.5,221.5 Z"/></g>
<g><path style="opacity:0.855" fill="#b1956d" d="M 244.5,221.5 C 248.998,223.555 253.664,225.222 258.5,226.5C 256.694,228.608 254.527,230.274 252,231.5C 252.497,233.198 252.33,234.865 251.5,236.5C 249.517,237.982 247.684,239.649 246,241.5C 241.153,238.56 240.653,238.893 244.5,242.5C 243.564,243.974 242.23,244.974 240.5,245.5C 237.782,241.781 234.449,238.781 230.5,236.5C 232.149,235.352 233.649,234.019 235,232.5C 235.29,234.044 235.956,235.377 237,236.5C 237.651,234.765 237.485,233.098 236.5,231.5C 237.167,230.167 238.167,229.167 239.5,228.5C 240.125,234.626 243.459,237.126 249.5,236C 247.415,232.499 245.082,229.166 242.5,226C 243.044,224.415 243.711,222.915 244.5,221.5 Z M 248.5,227.5 C 248.517,229.028 249.184,229.528 250.5,229C 249.956,228.283 249.289,227.783 248.5,227.5 Z"/></g>
<g><path style="opacity:1" fill="#b2966e" d="M 224.5,243.5 C 226.379,243.393 226.712,243.893 225.5,245C 227.645,248.312 230.312,251.146 233.5,253.5C 232.564,254.974 231.23,255.974 229.5,256.5C 227.358,252.525 224.358,249.358 220.5,247C 221.731,245.595 223.064,244.429 224.5,243.5 Z"/></g>
<g><path style="opacity:0.987" fill="#b1956d" d="M 67.5,254.5 C 65.6064,253.952 63.9397,252.952 62.5,251.5C 64.2562,249.809 64.7562,247.809 64,245.5C 61.8524,249.398 59.6857,249.398 57.5,245.5C 61.2119,242.789 64.2119,239.456 66.5,235.5C 70.4121,237.553 70.4121,239.72 66.5,242C 68.6886,242.209 70.6886,241.875 72.5,241C 75.4411,245.648 79.4411,249.148 84.5,251.5C 82.3921,253.054 80.2254,254.72 78,256.5C 76.6068,255.385 75.1068,254.885 73.5,255C 75.0821,257.085 77.0821,258.585 79.5,259.5C 78.8333,260.833 77.8333,261.833 76.5,262.5C 74.0072,260.42 71.3405,258.586 68.5,257C 67.7476,256.329 67.4142,255.496 67.5,254.5 Z M 67.5,254.5 C 70.4455,252.543 72.7789,249.876 74.5,246.5C 72.604,245.534 70.604,245.201 68.5,245.5C 68.0371,248.482 67.7038,251.482 67.5,254.5 Z"/></g>
<g><path style="opacity:0.786" fill="#b0956d" d="M 93.5,266.5 C 94.209,267.404 95.209,267.737 96.5,267.5C 96.5674,268.959 96.2341,270.292 95.5,271.5C 91.191,271.178 87.5244,269.511 84.5,266.5C 87.3929,263.381 89.2262,259.714 90,255.5C 93.846,258.029 97.6793,259.695 101.5,260.5C 100.5,261.833 99.5,263.167 98.5,264.5C 97.8076,263.975 97.3076,263.308 97,262.5C 96.5017,264.544 95.335,265.878 93.5,266.5 Z M 93.5,266.5 C 92.9976,264.915 91.9976,264.415 90.5,265C 91.2438,266.039 92.2438,266.539 93.5,266.5 Z"/></g>
<g><path style="opacity:1" fill="#b1966e" d="M 95.5,271.5 C 99.0878,268.741 102.254,265.408 105,261.5C 108.518,263.285 110.018,266.285 109.5,270.5C 109.167,272.833 108.833,275.167 108.5,277.5C 107.264,276.754 105.93,276.421 104.5,276.5C 104.206,272.292 102.54,271.625 99.5,274.5C 97.517,274.185 96.1837,273.185 95.5,271.5 Z M 104.5,267.5 C 103.537,268.363 103.537,269.03 104.5,269.5C 105.773,268.743 105.773,268.077 104.5,267.5 Z"/></g>
<g><path style="opacity:0.894" fill="#b3976e" d="M 178.5,266.5 C 177.566,265.432 177.232,264.099 177.5,262.5C 178.93,262.579 180.264,262.246 181.5,261.5C 182.731,262.651 182.731,263.817 181.5,265C 185.081,268.302 188.081,272.135 190.5,276.5C 187.588,277.068 184.588,277.068 181.5,276.5C 181.833,279.5 180.5,280.833 177.5,280.5C 178.127,275.859 178.46,271.193 178.5,266.5 Z M 181.5,271.5 C 181.517,273.028 182.184,273.528 183.5,273C 182.956,272.283 182.289,271.783 181.5,271.5 Z"/></g>
<g><path style="opacity:0.46" fill="#b0956d" d="M 189.5,262.5 C 190.5,262.5 191.5,262.5 192.5,262.5C 192.828,266.816 194.161,270.816 196.5,274.5C 195.15,275.95 193.484,276.617 191.5,276.5C 190.777,272.331 189.444,268.331 187.5,264.5C 188.243,263.818 188.909,263.151 189.5,262.5 Z"/></g>
<g><path style="opacity:0.455" fill="#b0956d" d="M 201.5,267.5 C 201.877,269.258 202.544,270.925 203.5,272.5C 202.264,273.357 200.931,274.023 199.5,274.5C 198.025,270.217 196.025,266.217 193.5,262.5C 195.73,261.217 198.063,260.217 200.5,259.5C 201.406,258.035 202.739,257.035 204.5,256.5C 206.329,260.158 208.162,263.824 210,267.5C 210.48,263.395 209.98,259.395 208.5,255.5C 209.436,254.026 210.77,253.026 212.5,252.5C 215.999,255.414 219.666,258.081 223.5,260.5C 222.564,261.974 221.23,262.974 219.5,263.5C 218.167,262.167 216.833,262.167 215.5,263.5C 212.128,270.216 207.462,271.55 201.5,267.5 Z M 200.5,259.5 C 200.389,260.117 200.056,260.617 199.5,261C 202.866,262.772 203.199,262.272 200.5,259.5 Z M 213.5,258.5 C 213.369,259.239 213.536,259.906 214,260.5C 216.168,259.178 216.001,258.511 213.5,258.5 Z"/></g>
<g><path style="opacity:0.315" fill="#b0946d" d="M 172.5,267.5 C 174.549,267.706 174.883,268.539 173.5,270C 175.658,271.312 175.991,272.978 174.5,275C 173.552,275.483 172.552,275.649 171.5,275.5C 171.279,272.721 171.612,270.054 172.5,267.5 Z"/></g>
<g><path style="opacity:0.968" fill="#b2966e" d="M 120.5,267.5 C 127.632,267.802 130.465,271.469 129,278.5C 124.601,282.654 120.601,282.321 117,277.5C 116.333,275.5 116.333,273.5 117,271.5C 118.376,270.295 119.542,268.962 120.5,267.5 Z M 122.5,271.5 C 122.018,272.416 121.685,273.416 121.5,274.5C 122.833,278.5 124.167,278.5 125.5,274.5C 125.484,272.484 124.484,271.484 122.5,271.5 Z"/></g>
<g><path style="opacity:1" fill="#b1956d" d="M 138.5,269.5 C 140.117,270.038 141.784,270.371 143.5,270.5C 143.343,271.873 143.51,273.207 144,274.5C 144.739,272.779 145.573,271.113 146.5,269.5C 148.235,270.057 149.902,270.39 151.5,270.5C 149.959,272.204 148.625,274.037 147.5,276C 148.8,278.437 149.8,280.937 150.5,283.5C 148.833,283.5 147.167,283.5 145.5,283.5C 144.386,278.371 143.719,278.371 143.5,283.5C 141.833,283.5 140.167,283.5 138.5,283.5C 138.891,278.741 138.891,274.075 138.5,269.5 Z"/></g>
<g><path style="opacity:0.987" fill="#b0956d" d="M 154.5,269.5 C 156.5,269.5 158.5,269.5 160.5,269.5C 161.052,273.941 162.719,277.941 165.5,281.5C 163.049,282.519 160.549,282.519 158,281.5C 156.449,282.054 154.949,282.72 153.5,283.5C 152.833,283.167 152.167,282.833 151.5,282.5C 153.29,278.342 154.29,274.009 154.5,269.5 Z"/></g>
<g><path style="opacity:0.436" fill="#ad926b" d="M 228.5,282.5 C 232.226,282.177 235.893,282.511 239.5,283.5C 241.223,288.605 242.557,288.605 243.5,283.5C 244.325,282.614 245.325,282.281 246.5,282.5C 246.833,285.833 247.167,289.167 247.5,292.5C 246.5,292.5 245.5,292.5 244.5,292.5C 244.657,291.127 244.49,289.793 244,288.5C 242.221,293.768 240.555,293.768 239,288.5C 238.71,290.044 238.044,291.377 237,292.5C 236.5,292 236,291.5 235.5,291C 236.406,289.301 236.739,287.467 236.5,285.5C 235.5,285.5 234.5,285.5 233.5,285.5C 232.833,294.833 232.167,294.833 231.5,285.5C 230.5,285.5 229.5,285.5 228.5,285.5C 228.5,284.5 228.5,283.5 228.5,282.5 Z"/></g>
</svg>
