<?xml version="1.0" encoding="UTF-8"?>
<!DOCTYPE svg PUBLIC "-//W3C//DTD SVG 1.1//EN" "http://www.w3.org/Graphics/SVG/1.1/DTD/svg11.dtd">
<svg xmlns="http://www.w3.org/2000/svg" version="1.1" width="300px" height="300px" style="shape-rendering:geometricPrecision; text-rendering:geometricPrecision; image-rendering:optimizeQuality; fill-rule:evenodd; clip-rule:evenodd" xmlns:xlink="http://www.w3.org/1999/xlink">
<g><path style="opacity:0.926" fill="#ff5861" d="M 147.5,-0.5 C 148.833,-0.5 150.167,-0.5 151.5,-0.5C 154.171,2.1606 157.171,4.49394 160.5,6.5C 164.5,4.5 168.5,2.5 172.5,0.5C 176.151,3.65082 179.651,6.98415 183,10.5C 187.281,8.29184 191.781,7.12517 196.5,7C 199.333,10.5 202.167,14 205,17.5C 209.41,15.7978 213.91,15.4644 218.5,16.5C 220.167,19.8333 221.833,23.1667 223.5,26.5C 228.456,27.4941 233.456,27.8275 238.5,27.5C 239.332,31.8296 240.665,35.9963 242.5,40C 247.072,41.3731 251.739,42.2065 256.5,42.5C 256.626,46.9229 257.293,51.2562 258.5,55.5C 262.304,57.5483 266.304,59.215 270.5,60.5C 271.328,65.1315 271.828,69.7982 272,74.5C 275.667,76.5 279.333,78.5 283,80.5C 283.342,85.1064 282.842,89.6064 281.5,94C 285,96.8333 288.5,99.6667 292,102.5C 291.862,107.216 290.696,111.716 288.5,116C 292.016,119.349 295.349,122.849 298.5,126.5C 296.62,130.428 294.62,134.261 292.5,138C 294.483,141.484 296.816,144.651 299.5,147.5C 299.5,148.833 299.5,150.167 299.5,151.5C 296.816,154.349 294.483,157.516 292.5,161C 294.11,165.054 296.11,168.887 298.5,172.5C 295.349,176.151 292.016,179.651 288.5,183C 291.103,187.606 292.103,192.44 291.5,197.5C 288.833,199.5 286.167,201.5 283.5,203.5C 282.91,208.468 282.743,213.468 283,218.5C 279.333,220.5 275.667,222.5 272,224.5C 271.667,229.167 271.333,233.833 271,238.5C 267.214,239.907 263.381,241.24 259.5,242.5C 257.857,247.02 256.857,251.687 256.5,256.5C 251.687,256.857 247.02,257.857 242.5,259.5C 241.461,263.452 240.127,267.285 238.5,271C 233.798,271.172 229.132,271.672 224.5,272.5C 222.374,275.919 220.374,279.419 218.5,283C 213.869,283.528 209.369,283.028 205,281.5C 202.132,284.736 199.632,288.236 197.5,292C 192.461,291.541 187.461,290.874 182.5,290C 179.62,293.217 176.453,296.05 173,298.5C 169.261,296.38 165.428,294.38 161.5,292.5C 158.1,294.856 154.767,297.189 151.5,299.5C 150.167,299.5 148.833,299.5 147.5,299.5C 144.829,296.839 141.829,294.506 138.5,292.5C 134.5,294.5 130.5,296.5 126.5,298.5C 122.849,295.349 119.349,292.016 116,288.5C 111.719,290.708 107.219,291.875 102.5,292C 100.167,289 97.8333,286 95.5,283C 90.468,283.257 85.468,283.09 80.5,282.5C 78.8793,278.756 76.8793,275.256 74.5,272C 69.7982,271.828 65.1315,271.328 60.5,270.5C 59.0592,266.677 57.7259,262.843 56.5,259C 51.8824,257.842 47.2158,257.008 42.5,256.5C 42.3739,252.077 41.7072,247.744 40.5,243.5C 36.6962,241.452 32.6962,239.785 28.5,238.5C 27.6717,233.868 27.1717,229.202 27,224.5C 23.3333,222.5 19.6667,220.5 16,218.5C 16.0602,213.768 16.3935,209.101 17,204.5C 13.3025,201.629 9.80245,198.629 6.5,195.5C 7.63388,191.432 8.96721,187.432 10.5,183.5C 7.34918,179.849 4.01585,176.349 0.5,173C 2.76362,169.139 4.76362,165.139 6.5,161C 4.70354,157.38 2.3702,154.213 -0.5,151.5C -0.5,150.167 -0.5,148.833 -0.5,147.5C 2.3702,144.787 4.70354,141.62 6.5,138C 4.76362,133.861 2.76362,129.861 0.5,126C 4.01585,122.651 7.34918,119.151 10.5,115.5C 8.96721,111.568 7.63388,107.568 6.5,103.5C 9.96864,100.205 13.6353,97.0381 17.5,94C 15.7978,89.5898 15.4644,85.0898 16.5,80.5C 19.9511,78.2437 23.6178,76.577 27.5,75.5C 27.1725,70.456 27.5059,65.456 28.5,60.5C 32.1667,59.1667 35.8333,57.8333 39.5,56.5C 41.1426,51.98 42.1426,47.3134 42.5,42.5C 46.7553,42.4158 50.922,41.7491 55,40.5C 57.4889,36.8959 59.3223,32.8959 60.5,28.5C 65.1315,27.6717 69.7982,27.1717 74.5,27C 76.5,23.3333 78.5,19.6667 80.5,16C 85.2507,15.9079 89.9173,16.2413 94.5,17C 96.9284,12.9537 99.9284,9.45366 103.5,6.5C 107.457,7.54096 111.29,8.8743 115,10.5C 118.349,6.98415 121.849,3.65082 125.5,0.5C 129.5,2.5 133.5,4.5 137.5,6.5C 141.25,4.63669 144.583,2.30335 147.5,-0.5 Z"/></g>
<g><path style="opacity:1" fill="#ffd6d8" d="M 132.5,18.5 C 189.741,14.3699 233.574,36.3699 264,84.5C 281.349,116.532 285.349,150.199 276,185.5C 257.468,241.356 218.968,273.189 160.5,281C 105.391,283.368 63.5578,261.201 35,214.5C 18.2105,183.519 13.8772,150.853 22,116.5C 39.3323,61.6588 76.1656,28.9922 132.5,18.5 Z"/></g>
<g><path style="opacity:1" fill="#ff5962" d="M 138.5,19.5 C 199.137,18.0451 242.637,44.3784 269,98.5C 287.43,147.827 280.43,193.161 248,234.5C 211.338,273.384 166.838,286.884 114.5,275C 64.4846,258.651 33.6513,224.818 22,173.5C 14.0509,115.58 34.2176,70.4129 82.5,38C 99.9362,27.6875 118.603,21.5209 138.5,19.5 Z"/></g>
<g><path style="opacity:1" fill="#ff9fa4" d="M 161.5,260.5 C 160.432,261.434 159.099,261.768 157.5,261.5C 157.5,263.5 157.5,265.5 157.5,267.5C 156.532,265.393 156.198,263.059 156.5,260.5C 158.167,260.5 159.833,260.5 161.5,260.5 Z"/></g>
<g><path style="opacity:1" fill="#ffe6e7" d="M 161.5,260.5 C 159.833,260.5 158.167,260.5 156.5,260.5C 156.198,263.059 156.532,265.393 157.5,267.5C 159.604,267.201 161.604,267.534 163.5,268.5C 160.734,270.129 157.734,270.795 154.5,270.5C 154.106,263.504 153.773,256.504 153.5,249.5C 156.167,249.5 158.833,249.5 161.5,249.5C 161.5,250.5 161.5,251.5 161.5,252.5C 159.833,252.5 158.167,252.5 156.5,252.5C 156.5,254.5 156.5,256.5 156.5,258.5C 158.781,258.077 160.448,258.744 161.5,260.5 Z"/></g>
<g><path style="opacity:1" fill="#ffebec" d="M 126.5,247.5 C 136.02,248.088 138.02,252.254 132.5,260C 130.527,260.495 128.527,260.662 126.5,260.5C 126.838,263.157 126.171,265.49 124.5,267.5C 124.167,266.5 123.833,265.5 123.5,264.5C 124.394,258.801 125.394,253.134 126.5,247.5 Z"/></g>
<g><path style="opacity:1" fill="#ff656c" d="M 128.5,250.5 C 129.822,250.33 130.989,250.663 132,251.5C 132.334,253.847 132.167,256.181 131.5,258.5C 130.5,258.5 129.5,258.5 128.5,258.5C 128.5,255.833 128.5,253.167 128.5,250.5 Z"/></g>
<g><path style="opacity:1" fill="#ffedee" d="M 179.5,245.5 C 180.496,245.414 181.329,245.748 182,246.5C 184.095,251.347 185.595,256.347 186.5,261.5C 194.342,260.716 194.342,261.716 186.5,264.5C 183.204,258.62 180.87,252.287 179.5,245.5 Z"/></g>
<g><path style="opacity:1" fill="#ffe9ea" d="M 202.5,233.5 C 206.489,237.177 209.822,241.51 212.5,246.5C 214.724,247.78 216.724,247.447 218.5,245.5C 219.833,246.5 219.833,247.5 218.5,248.5C 216.76,250.211 214.76,251.044 212.5,251C 209,246.167 205.5,241.333 202,236.5C 201.53,235.423 201.697,234.423 202.5,233.5 Z"/></g>
<g><path style="opacity:1" fill="#ffeaeb" d="M 101.5,238.5 C 104.406,239.787 107.406,240.787 110.5,241.5C 110.719,242.675 110.386,243.675 109.5,244.5C 108.109,243.355 106.776,243.355 105.5,244.5C 103.324,249.528 100.657,254.194 97.5,258.5C 96.4173,257.635 96.2506,256.635 97,255.5C 99.1667,251.167 101.333,246.833 103.5,242.5C 102.37,241.378 101.703,240.044 101.5,238.5 Z"/></g>
<g><path style="opacity:1" fill="#ffecec" d="M 79.5,222.5 C 81.2517,222.418 82.2517,223.251 82.5,225C 76.3568,237.104 77.3568,238.104 85.5,228C 86.3317,227.312 86.9984,227.479 87.5,228.5C 83.511,233.821 79.1777,238.821 74.5,243.5C 73.5,243.167 72.8333,242.5 72.5,241.5C 74.9497,237.286 76.783,232.952 78,228.5C 75.5374,231.965 72.7041,235.131 69.5,238C 68.6683,238.688 68.0016,238.521 67.5,237.5C 71.5236,232.481 75.5236,227.481 79.5,222.5 Z"/></g>
<g><path style="opacity:1" fill="#ffe8e9" d="M 222.5,217.5 C 227.441,221.265 232.274,225.265 237,229.5C 237.749,230.635 237.583,231.635 236.5,232.5C 231.052,228.555 226.052,224.055 221.5,219C 222.056,218.617 222.389,218.117 222.5,217.5 Z"/></g>
<g><path style="opacity:1" fill="#ffebec" d="M 60.5,202.5 C 65.85,201.863 68.0166,204.197 67,209.5C 63.4338,212.699 59.6004,215.533 55.5,218C 50.1778,218.34 48.0112,215.84 49,210.5C 53.0125,207.97 56.8459,205.304 60.5,202.5 Z"/></g>
<g><path style="opacity:1" fill="#ff6169" d="M 60.5,205.5 C 61.8333,205.5 63.1667,205.5 64.5,205.5C 64.7035,207.39 64.0368,208.89 62.5,210C 59.1403,212.546 55.4736,214.379 51.5,215.5C 51.238,214.022 51.5713,212.689 52.5,211.5C 55.4921,209.829 58.1587,207.829 60.5,205.5 Z"/></g>
<g><path style="opacity:1" fill="#ffebec" d="M 237.5,195.5 C 238.756,195.461 239.756,195.961 240.5,197C 239.624,198.586 238.624,200.086 237.5,201.5C 239.001,202.752 240.668,203.752 242.5,204.5C 243.281,203.263 244.281,202.263 245.5,201.5C 245.92,203.353 246.253,205.187 246.5,207C 247.609,207.638 248.775,208.138 250,208.5C 251.709,207.43 253.209,206.097 254.5,204.5C 255.281,207.642 254.281,210.309 251.5,212.5C 246.08,209.373 240.58,206.373 235,203.5C 235.429,200.829 236.263,198.162 237.5,195.5 Z"/></g>
<g><path style="opacity:1" fill="#ffb1b5" d="M 40.5,185.5 C 42.6282,184.371 44.9615,184.204 47.5,185C 46.255,185.791 44.9217,186.291 43.5,186.5C 42.791,185.596 41.791,185.263 40.5,185.5 Z"/></g>
<g><path style="opacity:1" fill="#ffeced" d="M 43.5,186.5 C 44.9217,186.291 46.255,185.791 47.5,185C 44.9615,184.204 42.6282,184.371 40.5,185.5C 38.8333,185.5 37.1667,185.5 35.5,185.5C 35.9633,182.745 37.6299,181.078 40.5,180.5C 42.1401,179.68 43.8068,178.847 45.5,178C 43.2251,177.595 41.2251,178.095 39.5,179.5C 37.9397,179.519 36.4397,179.852 35,180.5C 33.1739,179.99 33.0072,179.156 34.5,178C 40.6712,175.707 47.0046,174.207 53.5,173.5C 53.67,174.822 53.3366,175.989 52.5,177C 49.3388,178.413 46.3388,180.08 43.5,182C 47.8206,182.499 52.1539,182.666 56.5,182.5C 56.5,183.5 56.5,184.5 56.5,185.5C 49.8498,187.164 43.1831,188.831 36.5,190.5C 36.5,189.5 36.5,188.5 36.5,187.5C 38.861,187.326 41.1944,186.993 43.5,186.5 Z"/></g>
<g><path style="opacity:1" fill="#ff9298" d="M 40.5,180.5 C 40.5,179.833 40.1667,179.5 39.5,179.5C 41.2251,178.095 43.2251,177.595 45.5,178C 43.8068,178.847 42.1401,179.68 40.5,180.5 Z"/></g>
<g><path style="opacity:1" fill="#ff9ba1" d="M 262.5,173.5 C 263.833,173.5 265.167,173.5 266.5,173.5C 266.737,174.791 266.404,175.791 265.5,176.5C 264.9,175.1 263.9,174.1 262.5,173.5 Z"/></g>
<g><path style="opacity:1" fill="#ffe8e9" d="M 262.5,173.5 C 263.9,174.1 264.9,175.1 265.5,176.5C 262.5,176.5 259.5,176.5 256.5,176.5C 256.5,177.5 256.5,178.5 256.5,179.5C 259.167,179.833 261.833,180.167 264.5,180.5C 264.5,181.5 264.5,182.5 264.5,183.5C 257.792,182.375 251.125,181.042 244.5,179.5C 244.07,176.138 245.07,173.305 247.5,171C 252.422,172.056 257.422,172.889 262.5,173.5 Z"/></g>
<g><path style="opacity:1" fill="#ff6b72" d="M 248.5,173.5 C 252.192,173.324 254.192,174.991 254.5,178.5C 252.409,178.682 250.409,178.348 248.5,177.5C 247.374,176.192 247.374,174.858 248.5,173.5 Z"/></g>
<g><path style="opacity:1" fill="#ffe2e3" d="M 258.5,146.5 C 262.692,146.403 264.025,148.236 262.5,152C 257.728,152.81 256.395,150.977 258.5,146.5 Z"/></g>
<g><path style="opacity:1" fill="#ffe3e4" d="M 37.5,146.5 C 41.35,146.701 42.35,148.534 40.5,152C 35.2894,152.546 34.2894,150.713 37.5,146.5 Z"/></g>
<g><path style="opacity:1" fill="#ffebec" d="M 34.5,114.5 C 39.3711,116.134 44.3711,117.301 49.5,118C 53.1044,119.334 54.271,121.834 53,125.5C 52.044,126.894 50.7106,127.561 49,127.5C 43.5595,126.121 38.0595,125.121 32.5,124.5C 32.5,123.5 32.5,122.5 32.5,121.5C 38.7041,123.301 45.0375,124.301 51.5,124.5C 51.719,123.325 51.3857,122.325 50.5,121.5C 45.8438,120.336 41.1771,119.169 36.5,118C 35.0267,117.29 34.3601,116.124 34.5,114.5 Z"/></g>
<g><path style="opacity:1" fill="#ff9ba0" d="M 263.5,113.5 C 264.791,113.263 265.791,113.596 266.5,114.5C 265.494,114.938 265.494,115.604 266.5,116.5C 265.833,117.5 265.167,118.5 264.5,119.5C 264.483,117.435 264.15,115.435 263.5,113.5 Z"/></g>
<g><path style="opacity:1" fill="#ffebec" d="M 266.5,114.5 C 269.167,115.167 269.167,115.833 266.5,116.5C 265.494,115.604 265.494,114.938 266.5,114.5 Z"/></g>
<g><path style="opacity:1" fill="#ffebec" d="M 263.5,113.5 C 264.15,115.435 264.483,117.435 264.5,119.5C 262.259,118.7 261.259,117.034 261.5,114.5C 256.475,113.918 254.808,115.918 256.5,120.5C 255.675,121.386 254.675,121.719 253.5,121.5C 253.5,119.833 253.5,118.167 253.5,116.5C 251.173,116.665 249.007,117.331 247,118.5C 247.498,120.527 247.331,122.527 246.5,124.5C 244.629,121.77 243.962,118.936 244.5,116C 249.945,114.296 255.445,112.796 261,111.5C 262.376,111.684 263.209,112.351 263.5,113.5 Z"/></g>
<g><path style="opacity:1" fill="#ffecec" d="M 50.5,87.5 C 52.914,88.9326 55.5806,89.4326 58.5,89C 57.0899,87.6283 55.4233,86.795 53.5,86.5C 52.3117,85.6364 51.1451,84.6364 50,83.5C 49.3123,82.6683 49.479,82.0016 50.5,81.5C 56.4586,84.8065 62.1253,88.4732 67.5,92.5C 66.3333,92.8333 65.1667,93.1667 64,93.5C 52.0415,90.2562 51.5415,91.4229 62.5,97C 63.9928,98.1562 63.8261,98.9896 62,99.5C 56.9313,96.3806 51.7647,93.3806 46.5,90.5C 45.6143,89.675 45.281,88.675 45.5,87.5C 47.1667,87.5 48.8333,87.5 50.5,87.5 Z"/></g>
<g><path style="opacity:1" fill="#ff878c" d="M 53.5,86.5 C 55.4233,86.795 57.0899,87.6283 58.5,89C 55.5806,89.4326 52.914,88.9326 50.5,87.5C 51.791,87.7373 52.791,87.404 53.5,86.5 Z"/></g>
<g><path style="opacity:1" fill="#ffeaeb" d="M 245.5,78.5 C 247.624,79.0312 249.124,80.3645 250,82.5C 252.292,87.0074 251.458,88.0074 247.5,85.5C 242.833,88.5 238.167,91.5 233.5,94.5C 232.167,93.5 232.167,92.5 233.5,91.5C 238.008,88.7467 242.341,85.7467 246.5,82.5C 245.754,81.2638 245.421,79.9305 245.5,78.5 Z"/></g>
<g><path style="opacity:1" fill="#ffd4d6" d="M 142.5,57.5 C 188.761,57.2922 220.261,78.6255 237,121.5C 248.57,168.845 233.737,205.345 192.5,231C 148.622,250.588 110.456,242.755 78,207.5C 50.4897,168.218 50.8231,129.218 79,90.5C 96.0529,71.3916 117.22,60.3916 142.5,57.5 Z"/></g>
<g><path style="opacity:1" fill="#ffe8e9" d="M 68.5,59.5 C 73.7405,63.233 78.5738,67.5663 83,72.5C 83.6013,73.9653 83.1013,74.9653 81.5,75.5C 78.1824,71.6819 74.6824,68.0152 71,64.5C 69.9055,62.9221 69.0722,61.2554 68.5,59.5 Z"/></g>
<g><path style="opacity:1" fill="#ffe8e9" d="M 226.5,57.5 C 229.716,57.8724 230.216,59.2057 228,61.5C 224.131,65.0338 220.631,68.8672 217.5,73C 216.365,73.7494 215.365,73.5827 214.5,72.5C 218.547,67.4621 222.547,62.4621 226.5,57.5 Z"/></g>
<g><path style="opacity:1" fill="#ff5963" d="M 137.5,59.5 C 183.069,57.0169 215.236,76.3502 234,117.5C 246.39,156.979 237.557,190.812 207.5,219C 180.995,239.361 151.662,244.694 119.5,235C 81.0069,218.827 61.0069,189.827 59.5,148C 63.7503,99.2537 89.7503,69.7537 137.5,59.5 Z"/></g>
<g><path style="opacity:1" fill="#ffa9ae" d="M 218.5,174.5 C 222.515,175.895 226.515,177.395 230.5,179C 226.925,178.816 223.425,177.982 220,176.5C 218.97,176.164 218.47,175.497 218.5,174.5 Z"/></g>
<g><path style="opacity:1" fill="#ffa3a8" d="M 78.5,174.5 C 79.7733,175.077 79.7733,175.743 78.5,176.5C 76.9017,177.485 75.235,177.651 73.5,177C 75.3146,176.243 76.9812,175.41 78.5,174.5 Z"/></g>
<g><path style="opacity:1" fill="#ffacb0" d="M 213.5,160.5 C 220.684,161.436 227.684,162.936 234.5,165C 228.35,164.455 222.183,163.622 216,162.5C 214.624,162.316 213.791,161.649 213.5,160.5 Z"/></g>
<g><path style="opacity:1" fill="#ffb0b4" d="M 80.5,160.5 C 81.9778,160.238 83.3112,160.571 84.5,161.5C 77.8446,163.572 71.178,164.572 64.5,164.5C 70.0094,163.369 75.3427,162.036 80.5,160.5 Z"/></g>
<g><path style="opacity:1" fill="#ff9b9f" d="M 208.5,148.5 C 217.525,148.168 226.525,148.502 235.5,149.5C 231,149.833 226.5,150.167 222,150.5C 217.114,150.493 212.614,149.826 208.5,148.5 Z"/></g>
<g><path style="opacity:1" fill="#ff9ca0" d="M 63.5,148.5 C 72.1922,148.169 80.8589,148.502 89.5,149.5C 85.1667,149.833 80.8333,150.167 76.5,150.5C 71.7784,150.492 67.4451,149.825 63.5,148.5 Z"/></g>
<g><path style="opacity:1" fill="#ffd3d5" d="M 217.5,137.5 C 218.167,137.5 218.5,137.833 218.5,138.5C 214.825,139.057 211.159,139.724 207.5,140.5C 206.833,140.167 206.167,139.833 205.5,139.5C 209.355,137.997 213.355,137.33 217.5,137.5 Z"/></g>
<g><path style="opacity:1" fill="#ffdadb" d="M 85.5,139.5 C 85.5,139.167 85.5,138.833 85.5,138.5C 87.9892,138.298 90.3225,138.798 92.5,140C 90.1527,140.334 87.8194,140.167 85.5,139.5 Z"/></g>
<g><path style="opacity:1" fill="#ffa7ac" d="M 218.5,138.5 C 218.5,137.833 218.167,137.5 217.5,137.5C 222.912,135.6 228.579,134.766 234.5,135C 229.241,136.488 223.907,137.655 218.5,138.5 Z"/></g>
<g><path style="opacity:1" fill="#ffaaaf" d="M 85.5,138.5 C 85.5,138.833 85.5,139.167 85.5,139.5C 78.3892,138.472 71.3892,136.972 64.5,135C 71.7243,135.315 78.7243,136.482 85.5,138.5 Z"/></g>
<g><path style="opacity:1" fill="#ffdbdd" d="M 209.5,127.5 C 210.167,127.5 210.5,127.833 210.5,128.5C 207.702,129.1 205.035,130.1 202.5,131.5C 201.167,130.833 201.167,130.167 202.5,129.5C 204.729,128.423 207.063,127.756 209.5,127.5 Z"/></g>
<g><path style="opacity:1" fill="#ffd1d3" d="M 83.5,126.5 C 83.5,126.167 83.5,125.833 83.5,125.5C 87.9847,126.539 92.318,128.039 96.5,130C 91.8974,129.968 87.5641,128.801 83.5,126.5 Z"/></g>
<g><path style="opacity:1" fill="#ffb6ba" d="M 210.5,128.5 C 210.5,127.833 210.167,127.5 209.5,127.5C 216.133,124.562 222.966,121.896 230,119.5C 230.591,120.483 230.257,121.15 229,121.5C 222.766,123.743 216.599,126.077 210.5,128.5 Z"/></g>
<g><path style="opacity:1" fill="#ffacb0" d="M 83.5,125.5 C 83.5,125.833 83.5,126.167 83.5,126.5C 78.3307,124.889 73.3307,122.889 68.5,120.5C 68.6667,120.167 68.8333,119.833 69,119.5C 73.8762,121.619 78.7095,123.619 83.5,125.5 Z"/></g>
<g><path style="opacity:1" fill="#ffd6d8" d="M 210.5,114.5 C 210.5,114.833 210.5,115.167 210.5,115.5C 206.611,117.697 202.778,120.03 199,122.5C 198.833,122.167 198.667,121.833 198.5,121.5C 201.993,118.349 205.993,116.016 210.5,114.5 Z"/></g>
<g><path style="opacity:1" fill="#ffcacd" d="M 86.5,114.5 C 86.5,113.833 86.8333,113.5 87.5,113.5C 91.8059,115.988 96.1392,118.488 100.5,121C 95.5605,119.701 90.8938,117.534 86.5,114.5 Z"/></g>
<g><path style="opacity:1" fill="#ffb3b7" d="M 210.5,115.5 C 210.5,115.167 210.5,114.833 210.5,114.5C 212.927,112.442 215.593,110.609 218.5,109C 220.402,107.699 222.402,107.032 224.5,107C 219.972,110.096 215.305,112.929 210.5,115.5 Z"/></g>
<g><path style="opacity:1" fill="#ffa4a9" d="M 87.5,113.5 C 86.8333,113.5 86.5,113.833 86.5,114.5C 82.3845,112.225 78.3845,109.725 74.5,107C 79.1272,108.431 83.4606,110.598 87.5,113.5 Z"/></g>
<g><path style="opacity:1" fill="#ffd1d3" d="M 203.5,104.5 C 203.5,104.833 203.5,105.167 203.5,105.5C 200.853,107.811 198.186,110.144 195.5,112.5C 195.167,112.167 194.833,111.833 194.5,111.5C 197.227,108.768 200.227,106.434 203.5,104.5 Z"/></g>
<g><path style="opacity:1" fill="#ffced1" d="M 148.5,76.5 C 149.167,84.1667 149.833,91.8333 150.5,99.5C 150.666,104.844 150.499,110.177 150,115.5C 149.333,116.833 148.667,116.833 148,115.5C 148.327,102.523 148.493,89.5231 148.5,76.5 Z"/></g>
<g><path style="opacity:1" fill="#ffacb0" d="M 203.5,105.5 C 203.5,105.167 203.5,104.833 203.5,104.5C 206.725,100.09 210.725,96.9232 215.5,95C 211.332,98.3362 207.332,101.836 203.5,105.5 Z"/></g>
<g><path style="opacity:1" fill="#ffb3b7" d="M 83.5,95.5 C 83.8966,94.475 84.5632,94.3083 85.5,95C 91.3778,100.383 97.3778,105.55 103.5,110.5C 102.998,111.521 102.332,111.688 101.5,111C 95.6279,105.624 89.6279,100.457 83.5,95.5 Z"/></g>
<g><path style="opacity:1" fill="#ffc8ca" d="M 198.5,91.5 C 196.241,94.9378 193.741,98.2711 191,101.5C 192.043,97.2616 194.543,93.9283 198.5,91.5 Z"/></g>
<g><path style="opacity:1" fill="#ffb4b8" d="M 93.5,84.5 C 94.1894,83.2264 95.0228,83.2264 96,84.5C 99.5264,89.5391 103.526,94.2058 108,98.5C 108.688,99.3317 108.521,99.9984 107.5,100.5C 102.826,95.1352 98.159,89.8018 93.5,84.5 Z"/></g>
<g><path style="opacity:1" fill="#ffa9ae" d="M 198.5,91.5 C 199.373,89.1137 200.873,87.1137 203,85.5C 202.573,88.1207 201.073,90.1207 198.5,91.5 Z"/></g>
<g><path style="opacity:1" fill="#ffb6b9" d="M 163.5,64.5 C 164.147,65.2739 164.48,66.2739 164.5,67.5C 163.358,76.3428 161.524,85.0095 159,93.5C 160.274,83.853 161.774,74.1863 163.5,64.5 Z"/></g>
<g><path style="opacity:1" fill="#ffb5b9" d="M 134.5,64.5 C 137.184,73.93 139.018,83.5967 140,93.5C 137.195,84.0383 135.362,74.3716 134.5,64.5 Z"/></g>
<g><path style="opacity:1" fill="#fffbfc" d="M 121.5,85.5 C 126.74,84.5384 130.907,86.2051 134,90.5C 137.667,100.167 141.333,109.833 145,119.5C 145.667,121.5 145.667,123.5 145,125.5C 142.048,133.696 138.715,141.696 135,149.5C 131.862,141.087 128.529,132.754 125,124.5C 118.333,141.833 111.667,159.167 105,176.5C 101.073,185.39 103.906,190.057 113.5,190.5C 122.26,190.195 128.094,185.862 131,177.5C 141.863,149.244 152.53,120.911 163,92.5C 166.915,85.2083 172.415,83.7083 179.5,88C 181.041,89.5793 182.208,91.4127 183,93.5C 195.998,126.996 208.498,160.663 220.5,194.5C 218.802,202.69 213.802,205.857 205.5,204C 204.333,202.833 203.167,201.667 202,200.5C 192.333,175.167 182.667,149.833 173,124.5C 164.617,144.976 156.617,165.643 149,186.5C 138.175,207.667 121.342,214.833 98.5,208C 85.1582,199.654 80.6582,187.82 85,172.5C 95.3333,145.167 105.667,117.833 116,90.5C 117.73,88.5981 119.563,86.9314 121.5,85.5 Z"/></g>
<g><path style="opacity:1" fill="#ffa7ac" d="M 191.5,75.5 C 192.043,75.56 192.376,75.8933 192.5,76.5C 190.8,79.0387 189.3,81.7053 188,84.5C 187.28,86.2552 186.113,87.0885 184.5,87C 186.97,83.2221 189.303,79.3888 191.5,75.5 Z"/></g>
<g><path style="opacity:1" fill="#ffa6ab" d="M 106.5,75.5 C 110.007,78.8528 112.174,82.8528 113,87.5C 110.554,83.6056 108.388,79.6056 106.5,75.5 Z"/></g>
<g><path style="opacity:1" fill="#ff9ba1" d="M 150.5,99.5 C 149.833,91.8333 149.167,84.1667 148.5,76.5C 148.174,72.1161 148.508,67.7828 149.5,63.5C 150.499,75.4815 150.832,87.4815 150.5,99.5 Z"/></g>
<g><path style="opacity:1" fill="#ffa3a7" d="M 176.5,75.5 C 176.753,77.8273 176.086,79.8273 174.5,81.5C 173.935,79.2529 174.601,77.2529 176.5,75.5 Z"/></g>
<g><path style="opacity:1" fill="#ffa3a8" d="M 119.5,68.5 C 120.117,68.6107 120.617,68.944 121,69.5C 122.647,73.422 123.647,77.422 124,81.5C 122.197,77.2556 120.697,72.9223 119.5,68.5 Z"/></g>
<g><path style="opacity:1" fill="#ff9ca1" d="M 176.5,75.5 C 176.643,72.9026 177.477,70.5692 179,68.5C 179.061,71.151 178.227,73.4843 176.5,75.5 Z"/></g>
<g><path style="opacity:1" fill="#ffeaeb" d="M 99.5,38.5 C 100.75,38.5774 101.583,39.244 102,40.5C 103.734,45.6014 105.234,50.768 106.5,56C 106.231,57.6075 105.397,58.7741 104,59.5C 99.5919,54.3479 95.4252,49.0145 91.5,43.5C 92.365,42.4173 93.365,42.2506 94.5,43C 96.8795,46.2576 99.3795,49.4242 102,52.5C 101.495,47.8045 100.661,43.1378 99.5,38.5 Z"/></g>
<g><path style="opacity:1" fill="#ffa9ae" d="M 131.5,45.5 C 133.042,46.3007 134.708,46.634 136.5,46.5C 135.903,47.1386 135.07,47.472 134,47.5C 132.624,47.3158 131.791,46.6491 131.5,45.5 Z"/></g>
<g><path style="opacity:1" fill="#ffeeef" d="M 197.5,39.5 C 202.833,38.8333 205.167,41.1667 204.5,46.5C 203.5,46.5 202.5,46.5 201.5,46.5C 201.5,45.1667 201.5,43.8333 201.5,42.5C 197.366,43.0064 196.533,45.0064 199,48.5C 201.508,55.9745 199.008,59.1412 191.5,58C 190.077,55.38 190.243,52.88 192,50.5C 192.5,51 193,51.5 193.5,52C 192,54.1667 192.5,55.6667 195,56.5C 195.945,56.0946 196.612,55.428 197,54.5C 197.001,51.3032 196.501,48.1365 195.5,45C 195.395,42.8218 196.061,40.9885 197.5,39.5 Z"/></g>
<g><path style="opacity:1" fill="#ffebeb" d="M 131.5,45.5 C 131.791,46.6491 132.624,47.3158 134,47.5C 135.07,47.472 135.903,47.1386 136.5,46.5C 138.549,46.7058 138.883,47.5391 137.5,49C 134.854,49.4974 132.187,49.6641 129.5,49.5C 128.99,42.7504 127.99,36.0838 126.5,29.5C 129.545,29.4921 132.545,29.1587 135.5,28.5C 135.5,29.5 135.5,30.5 135.5,31.5C 131.092,31.062 129.425,33.062 130.5,37.5C 132.167,37.5 133.833,37.5 135.5,37.5C 135.5,38.5 135.5,39.5 135.5,40.5C 134.167,40.5 132.833,40.5 131.5,40.5C 131.5,42.1667 131.5,43.8333 131.5,45.5 Z"/></g>
<g><path style="opacity:1" fill="#ffe8e8" d="M 162.5,28.5 C 170.034,27.9616 172.534,31.2949 170,38.5C 169.5,39 169,39.5 168.5,40C 169.456,43.3936 169.789,46.8936 169.5,50.5C 168.5,50.5 167.5,50.5 166.5,50.5C 166.665,47.4816 166.498,44.4816 166,41.5C 165,40.1667 164,40.1667 163,41.5C 162.503,44.146 162.336,46.8127 162.5,49.5C 161.5,49.5 160.5,49.5 159.5,49.5C 160.255,42.4615 161.255,35.4615 162.5,28.5 Z"/></g>
<g><path style="opacity:1" fill="#ff656d" d="M 164.5,31.5 C 168.438,31.843 169.438,33.843 167.5,37.5C 166.675,38.3857 165.675,38.719 164.5,38.5C 164.5,36.1667 164.5,33.8333 164.5,31.5 Z"/></g>
</svg>
