<?xml version="1.0" encoding="UTF-8" standalone="no"?>
<!-- Created with Inkscape (http://www.inkscape.org/) -->
<svg
   xmlns:dc="http://purl.org/dc/elements/1.1/"
   xmlns:cc="http://web.resource.org/cc/"
   xmlns:rdf="http://www.w3.org/1999/02/22-rdf-syntax-ns#"
   xmlns:svg="http://www.w3.org/2000/svg"
   xmlns="http://www.w3.org/2000/svg"
   xmlns:sodipodi="http://inkscape.sourceforge.net/DTD/sodipodi-0.dtd"
   xmlns:inkscape="http://www.inkscape.org/namespaces/inkscape"
   width="744.09448819"
   height="1052.3622047"
   id="svg2"
   sodipodi:version="0.32"
   inkscape:version="0.42"
   sodipodi:docbase="/home/mikel/clipart/escudos"
   sodipodi:docname="Asturies_coat_of_arms.svg">
  <defs
     id="defs4">
    <style
       id="style5069"
       type="text/css">
   
    .str0 {stroke:#1F1A17;stroke-width:0.183365}
    .str13 {stroke:white;stroke-width:0.183365}
    .str5 {stroke:#1F1A17;stroke-width:0.549647}
    .str10 {stroke:#1F1A17;stroke-width:0.916601}
    .str6 {stroke:#1F1A17;stroke-width:1.09997}
    .str7 {stroke:#1F1A17;stroke-width:1.28266}
    .str2 {stroke:#1F1A17;stroke-width:1.46602}
    .str1 {stroke:#1F1A17;stroke-width:1.73255}
    .str11 {stroke:#1F1A17;stroke-width:1.83298}
    .str9 {stroke:#1F1A17;stroke-width:2.02038}
    .str8 {stroke:#1F1A17;stroke-width:2.02127}
    .str12 {stroke:#1F1A17;stroke-width:3.29922}
    .str4 {stroke:#1F1A17;stroke-width:4.94884;stroke-linecap:round}
    .str3 {stroke:#1F1A17;stroke-width:6.78181}
    .fil8 {fill:none}
    .fil7 {fill:none;fill-rule:nonzero}
    .fil6 {fill:#D81E04}
    .fil2 {fill:#1F1A17}
    .fil1 {fill:white}
    .fil4 {fill:#D81E04;fill-rule:nonzero}
    .fil5 {fill:#1F1A17;fill-rule:nonzero}
    .fil3 {fill:#AAA9A9;fill-rule:nonzero}
    .fil0 {fill:white;fill-rule:nonzero}
   
  </style>
    <metadata
       id="metadata2849" />
    <style
       type="text/css"
       id="style2851">
   
    .fil0 {fill:#0066FF}
    .fil1 {fill:yellow}
   
  </style>
    <style
       id="style2853"
       type="text/css">
   
    .fil0 {fill:#0066FF}
    .fil1 {fill:yellow}
   
  </style>
    <metadata
       id="metadata9935" />
    <metadata
       id="metadata2562" />
    <style
       type="text/css"
       id="style2558">
   
    .fil0 {fill:#0066FF}
    .fil1 {fill:yellow}
   
  </style>
    <style
       id="style3714"
       type="text/css">
   
    .fil0 {fill:#0066FF}
    .fil1 {fill:yellow}
   
  </style>
    <metadata
       id="CorelCorpID_0Corel-Layer" />
    <style
       id="style6"
       type="text/css">
   
    .str0 {stroke:#1F1A17;stroke-width:0.183365}
    .str13 {stroke:white;stroke-width:0.183365}
    .str5 {stroke:#1F1A17;stroke-width:0.549647}
    .str10 {stroke:#1F1A17;stroke-width:0.916601}
    .str6 {stroke:#1F1A17;stroke-width:1.09997}
    .str7 {stroke:#1F1A17;stroke-width:1.28266}
    .str2 {stroke:#1F1A17;stroke-width:1.46602}
    .str1 {stroke:#1F1A17;stroke-width:1.73255}
    .str11 {stroke:#1F1A17;stroke-width:1.83298}
    .str9 {stroke:#1F1A17;stroke-width:2.02038}
    .str8 {stroke:#1F1A17;stroke-width:2.02127}
    .str12 {stroke:#1F1A17;stroke-width:3.29922}
    .str4 {stroke:#1F1A17;stroke-width:4.94884;stroke-linecap:round}
    .str3 {stroke:#1F1A17;stroke-width:6.78181}
    .fil8 {fill:none}
    .fil7 {fill:none;fill-rule:nonzero}
    .fil6 {fill:#D81E04}
    .fil2 {fill:#1F1A17}
    .fil1 {fill:white}
    .fil4 {fill:#D81E04;fill-rule:nonzero}
    .fil5 {fill:#1F1A17;fill-rule:nonzero}
    .fil3 {fill:#AAA9A9;fill-rule:nonzero}
    .fil0 {fill:white;fill-rule:nonzero}
   
  </style>
    <style
       id="style1587"
       type="text/css">
   
    .str0 {stroke:#1F1A17;stroke-width:0.183365}
    .str13 {stroke:white;stroke-width:0.183365}
    .str5 {stroke:#1F1A17;stroke-width:0.549647}
    .str10 {stroke:#1F1A17;stroke-width:0.916601}
    .str6 {stroke:#1F1A17;stroke-width:1.09997}
    .str7 {stroke:#1F1A17;stroke-width:1.28266}
    .str2 {stroke:#1F1A17;stroke-width:1.46602}
    .str1 {stroke:#1F1A17;stroke-width:1.73255}
    .str11 {stroke:#1F1A17;stroke-width:1.83298}
    .str9 {stroke:#1F1A17;stroke-width:2.02038}
    .str8 {stroke:#1F1A17;stroke-width:2.02127}
    .str12 {stroke:#1F1A17;stroke-width:3.29922}
    .str4 {stroke:#1F1A17;stroke-width:4.94884;stroke-linecap:round}
    .str3 {stroke:#1F1A17;stroke-width:6.78181}
    .fil8 {fill:none}
    .fil7 {fill:none;fill-rule:nonzero}
    .fil6 {fill:#D81E04}
    .fil2 {fill:#1F1A17}
    .fil1 {fill:white}
    .fil4 {fill:#D81E04;fill-rule:nonzero}
    .fil5 {fill:#1F1A17;fill-rule:nonzero}
    .fil3 {fill:#AAA9A9;fill-rule:nonzero}
    .fil0 {fill:white;fill-rule:nonzero}
   
  </style>
    <metadata
       id="metadata6253" />
    <style
       type="text/css"
       id="style6255">
   
    .fil0 {fill:#0066FF}
    .fil1 {fill:yellow}
   
  </style>
    <style
       id="style6257"
       type="text/css">
   
    .fil0 {fill:#0066FF}
    .fil1 {fill:yellow}
   
  </style>
    <metadata
       id="metadata1582" />
    <metadata
       id="metadata1580" />
    <style
       type="text/css"
       id="style1578">
   
    .fil0 {fill:#0066FF}
    .fil1 {fill:yellow}
   
  </style>
    <style
       id="style1576"
       type="text/css">
   
    .fil0 {fill:#0066FF}
    .fil1 {fill:yellow}
   
  </style>
  </defs>
  <sodipodi:namedview
     id="base"
     pagecolor="#ffffff"
     bordercolor="#666666"
     borderopacity="1.0"
     inkscape:pageopacity="0.0"
     inkscape:pageshadow="2"
     inkscape:zoom="0.49497475"
     inkscape:cx="359.06384"
     inkscape:cy="356.22452"
     inkscape:document-units="px"
     inkscape:current-layer="layer1"
     inkscape:window-width="1265"
     inkscape:window-height="945"
     inkscape:window-x="0"
     inkscape:window-y="25"
     showborder="false"
     showguides="true"
     inkscape:guide-bbox="true" />
  <metadata
     id="metadata7">
    <rdf:RDF>
      <cc:Work
         rdf:about="">
        <dc:format>image/svg+xml</dc:format>
        <dc:type
           rdf:resource="http://purl.org/dc/dcmitype/StillImage" />
      </cc:Work>
    </rdf:RDF>
  </metadata>
  <g
     inkscape:label="Layer 1"
     inkscape:groupmode="layer"
     id="layer1">
    <g
       id="g10649">
      <g
         id="g10636">
        <g
           id="g7822"
           transform="matrix(2.455681,0.000000,0.000000,2.455681,-329.8923,-194.7515)">
          <path
             id="_23711832"
             class="fil3 str1"
             d="M 393.34679,241.86827 L 188.74832,241.86827 L 188.74832,464.50120 C 189.57193,470.29929 191.47223,473.70499 195.58902,477.87198 C 199.55494,481.88510 202.78884,483.68947 208.33757,484.71291 L 273.01283,484.71291 C 276.99922,485.77170 279.31229,486.64510 282.65201,489.06444 C 286.97725,492.19962 288.96419,494.86253 291.35852,499.63741 C 294.13114,494.59827 296.52160,491.94118 301.30829,488.75404 C 304.83405,486.40605 307.17924,485.54148 311.25834,484.40100 L 373.75784,484.40100 C 379.52403,483.74896 383.11963,482.06767 387.12824,477.87198 C 391.02452,473.79248 392.69245,470.41523 393.34666,464.81160 L 393.34666,241.86808 L 393.34666,241.86808 L 393.34679,241.86827 z "
             style="fill:#0350fd;fill-opacity:1.0000000;fill-rule:nonzero;stroke:#1f1a17;stroke-width:1.6659871" />
          <path
             id="_50585824"
             class="fil7 str3"
             d="M 393.34679,241.86827 L 188.74832,241.86827 L 188.74832,464.50120 C 189.57193,470.29929 191.47223,473.70499 195.58902,477.87198 C 199.55494,481.88510 202.78884,483.68947 208.33757,484.71291 L 273.01283,484.71291 C 276.99922,485.77170 279.31229,486.64510 282.65201,489.06444 C 286.97725,492.19962 288.96419,494.86253 291.35852,499.63741 C 294.13114,494.59827 296.52160,491.94118 301.30829,488.75404 C 304.83405,486.40605 307.17924,485.54148 311.25834,484.40100 L 373.75784,484.40100 C 379.52403,483.74896 383.11963,482.06767 387.12824,477.87198 C 391.02452,473.79248 392.69245,470.41523 393.34666,464.81160 L 393.34666,241.86808 L 393.34666,241.86808 L 393.34679,241.86827 z "
             style="fill:none;fill-rule:nonzero;stroke:#1f1a17;stroke-width:3.8463240;stroke-miterlimit:4.0000000;stroke-dasharray:none" />
        </g>
        <g
           id="g10632">
          <path
             id="path8411"
             d="M 371.59375 506.65625 L 370.56250 636.25000 C 364.71865 639.77984 359.87957 644.85383 356.50000 651.03125 L 252.84375 651.93750 L 252.84375 689.59375 L 356.50000 690.43750 C 359.59788 696.10015 363.94600 700.88644 369.15625 704.34375 L 367.18750 890.93750 L 411.96875 890.93750 L 410.00000 704.34375 C 415.28158 700.81395 419.65214 696.02644 422.75000 690.43750 L 528.56250 689.56250 L 528.56250 651.96875 L 422.75000 651.09375 C 419.37042 644.91628 414.50773 639.77980 408.59375 636.25000 L 407.62500 506.65625 L 371.59375 506.65625 z "
             style="fill:none;fill-opacity:1.0000000;fill-rule:evenodd;stroke:#000000;stroke-opacity:1.0000000;stroke-width:42.200000;stroke-miterlimit:4.0000000;stroke-dasharray:none" />
          <path
             id="polygon12"
             d="M 389.59375 452.28125 C 387.41124 452.28125 385.22213 452.73163 383.25000 453.68750 C 378.60323 455.74785 375.62500 460.52843 375.62500 465.75000 C 375.62501 467.00073 375.77314 468.16676 376.12500 469.34375 C 377.18180 470.00476 377.90625 471.26935 377.90625 472.59375 C 377.90624 474.72663 376.19728 476.50000 374.15625 476.50000 C 372.95915 476.50000 371.89125 475.90580 371.18750 474.87500 C 368.79336 471.49263 365.01440 469.43750 361.00000 469.43750 C 354.02920 469.43751 348.37500 475.38551 348.37500 482.59375 C 348.37499 489.43703 365.34340 503.45053 371.62500 504.15625 L 370.56250 636.25000 C 364.71865 639.77984 359.87957 644.85383 356.50000 651.03125 L 249.53125 651.96875 C 248.80211 645.77440 234.82990 627.71875 228.90625 627.71875 C 221.93543 627.71878 216.31250 633.59426 216.31250 640.87500 C 216.31251 645.06702 218.26070 649.03104 221.50000 651.53125 C 222.41535 652.26717 223.00000 653.44801 223.00000 654.62500 C 223.00000 656.75788 221.35355 658.53125 219.31250 658.53125 C 218.04408 658.53126 216.85356 657.86448 216.21875 656.68750 C 215.09302 656.39382 213.90817 656.18750 212.78125 656.18750 C 207.78259 656.18749 203.19089 659.34449 201.21875 664.12500 C 200.30341 666.18414 199.90625 668.46970 199.90625 670.75000 C 199.90625 673.10400 200.30342 675.30462 201.21875 677.43750 C 203.19088 682.21803 207.78259 685.31250 212.78125 685.31250 C 213.90817 685.31249 215.09302 685.14859 216.21875 684.78125 C 218.19089 681.54508 223.00000 683.01910 223.00000 686.84375 C 223.00000 688.09446 222.41535 689.26405 221.50000 690.00000 C 218.26067 692.42650 216.31250 696.42179 216.31250 700.68750 C 216.31251 707.89574 221.93546 713.84375 228.90625 713.84375 C 234.80331 713.84373 248.80576 695.72422 249.53125 689.56250 L 292.46875 689.90625 L 292.46875 707.56250 L 286.37500 707.56250 L 288.93750 713.31250 L 270.90625 745.71875 L 265.46875 751.90625 L 283.15625 751.90625 L 280.28125 744.96875 L 283.68750 738.78125 L 295.96875 749.65625 L 308.12500 738.78125 L 311.53125 744.96875 L 308.65625 751.90625 L 326.34375 751.90625 L 321.03125 745.71875 L 302.90625 713.31250 L 305.56250 707.56250 L 299.37500 707.56250 L 299.37500 689.96875 L 356.50000 690.43750 C 359.59788 696.10015 363.94600 700.88644 369.15625 704.34375 L 367.12500 896.25000 C 364.77077 896.68621 349.05091 912.69715 348.37500 915.37500 C 348.09327 916.69826 347.90625 918.08303 347.90625 919.40625 C 347.90626 928.37995 354.87007 935.65625 363.53125 935.65625 C 368.03658 935.65625 372.38613 933.60351 375.34375 930.00000 C 379.28681 933.67724 384.38346 935.65625 389.59375 935.65625 C 394.87536 935.65625 399.93959 933.67722 403.81250 930.00000 C 406.77011 933.60350 411.11847 935.65625 415.62500 935.65625 C 424.28499 935.65625 431.25000 928.37997 431.25000 919.40625 C 431.25000 918.08301 431.13310 916.68701 430.78125 915.43750 C 430.39069 913.78317 413.86434 896.58958 412.03125 896.25000 L 410.00000 704.34375 C 415.28158 700.81395 419.65214 696.02644 422.75000 690.43750 L 479.78125 689.96875 L 479.78125 710.75000 L 475.62500 710.75000 C 477.52579 712.22182 478.72590 714.43609 478.93750 716.93750 C 479.07780 717.89338 479.15625 718.84545 479.15625 719.87500 C 479.15624 724.50933 478.01862 729.04796 475.90625 733.09375 C 472.66693 739.49234 463.86215 739.05722 461.18750 732.43750 C 460.06055 729.56992 459.49239 726.49496 459.56250 723.40625 C 459.84423 716.63912 463.59364 710.44249 469.43750 707.50000 L 453.65625 707.50000 C 454.50144 708.30965 454.93750 709.35423 454.93750 710.53125 C 454.93751 710.89859 454.92153 711.25645 454.78125 711.62500 C 453.51283 716.33180 452.87500 721.25955 452.87500 726.18750 C 452.87501 728.61401 453.02314 730.97973 453.37500 733.40625 C 454.36045 741.49785 461.05141 747.59375 468.93750 747.59375 C 475.13446 747.59375 480.75453 743.75878 483.21875 737.87500 C 485.75313 743.83253 491.39805 747.59375 497.59375 747.59375 C 505.47989 747.59375 512.16965 741.50784 513.15625 733.34375 C 513.43681 730.91603 513.65625 728.54027 513.65625 726.18750 C 513.65627 721.25956 512.95463 716.40554 511.68750 711.62500 C 511.33557 710.15316 511.75697 708.52959 512.81250 707.50000 L 497.09375 707.50000 C 502.93765 710.51623 506.66340 716.63910 506.87500 723.40625 C 506.87500 723.62743 506.87500 723.83014 506.87500 724.12500 C 506.87500 726.91886 506.39940 729.78985 505.34375 732.43750 C 502.66792 739.05723 493.86434 739.51237 490.62500 733.18750 C 488.02056 728.18585 486.96773 722.50765 487.53125 716.84375 C 487.81290 714.41606 489.00543 712.22186 490.90625 710.75000 L 486.75000 710.75000 L 486.75000 689.90625 L 529.62500 689.56250 C 530.40014 696.14476 543.68296 713.84375 550.25000 713.84375 C 557.21957 713.84373 562.87500 707.89572 562.87500 700.68750 C 562.87500 696.42177 560.96564 692.50020 557.65625 690.00000 C 554.76871 687.79345 556.25261 683.03125 559.84375 683.03125 C 561.11104 683.03125 562.29615 683.66674 563.00000 684.84375 C 564.12694 685.13737 565.24807 685.31250 566.37500 685.31250 C 571.44377 685.31251 575.95762 682.21801 578.00000 677.43750 C 578.84393 675.30463 579.34375 673.03031 579.34375 670.75000 C 579.34376 668.46973 578.84393 666.25786 578.00000 664.12500 C 575.95762 659.34445 571.44377 656.18750 566.37500 656.18750 C 565.24807 656.18748 564.12680 656.39384 563.00000 656.68750 C 561.02903 659.99737 556.18750 658.52336 556.18750 654.62500 C 556.18747 653.44798 556.74093 652.26716 557.65625 651.53125 C 560.96564 649.03098 562.87500 645.06701 562.87500 640.87500 C 562.87500 633.59429 557.21959 627.71875 550.25000 627.71875 C 543.69277 627.71874 530.39767 645.40582 529.62500 651.96875 L 422.75000 651.09375 C 419.37042 644.91628 414.50773 639.77980 408.59375 636.25000 L 407.59375 504.15625 C 413.56939 503.38891 430.78125 488.83281 430.78125 482.59375 C 430.78126 475.38553 425.12703 469.43750 418.15625 469.43750 C 414.14304 469.43750 410.35525 471.49262 408.03125 474.87500 C 405.91888 477.89123 401.34375 476.34471 401.34375 472.59375 C 401.34376 471.26934 401.97444 470.00475 403.03125 469.34375 C 403.38312 468.16676 403.53125 466.92700 403.53125 465.75000 C 403.53124 460.52842 400.57664 455.74786 396.00000 453.68750 C 393.95896 452.73163 391.77629 452.28125 389.59375 452.28125 z M 295.96875 716.93750 L 303.65625 730.78125 L 295.96875 737.71875 L 288.18750 730.78125 L 295.96875 716.93750 z "
             style="fill:#fada17;fill-opacity:1.0000000;fill-rule:evenodd;stroke:#000000;stroke-width:4.0551987;stroke-miterlimit:4.0000000;stroke-dasharray:none;stroke-opacity:1.0000000" />
        </g>
      </g>
      <g
         id="g10644">
        <path
           style="fill:#fada17"
           d="M 382.08648,7.6502710 C 369.16224,7.6502710 367.02309,8.3289034 364.89672,13.175553 C 363.56353,16.214459 360.79180,18.700840 358.68090,18.700836 C 352.33419,18.700836 348.93479,24.090662 348.93479,34.125582 C 348.93479,46.062279 352.60653,53.080370 358.83413,53.080370 C 366.05727,53.080370 364.65803,57.677208 356.91575,59.373052 C 353.20178,60.186619 342.40022,63.042453 332.89625,65.742475 L 315.62962,70.653837 L 300.51171,65.588995 C 250.95631,48.894981 189.24407,62.117202 151.40595,97.512848 C 133.92519,113.86523 122.53991,130.10111 115.41475,148.85193 C 100.64531,187.72280 106.92841,238.82553 127.77002,249.45811 C 135.66970,253.48815 138.16197,257.20451 147.64557,279.15650 C 159.54825,306.70632 167.35658,316.35066 181.33456,320.82634 C 186.40063,322.44849 192.75348,325.79332 195.45473,328.19338 C 197.03766,329.59990 198.99729,330.25858 200.98001,331.26298 L 571.17392,331.26298 C 572.73451,330.62929 574.32260,330.03593 575.08779,329.11426 C 576.88731,326.94587 584.09400,322.63183 591.12633,319.52176 C 606.05761,312.91846 609.92211,307.75099 621.51538,279.30998 C 628.77708,261.49576 631.69099,257.22162 640.31657,251.45335 C 652.21581,243.49567 657.55176,230.82330 659.80878,205.40933 C 663.10283,168.31571 648.48072,131.03680 619.29004,102.19399 C 579.91762,63.291582 525.51716,48.828898 472.71634,63.286794 C 449.36429,69.681068 443.59786,69.701745 421.45400,63.440274 C 405.81769,59.018820 397.14570,53.080370 406.33633,53.080370 C 411.31081,53.080370 415.23818,45.513459 415.23818,35.890603 C 415.23818,25.980947 411.25261,18.700840 405.87589,18.700836 C 403.54251,18.700836 400.60944,16.214463 399.27625,13.175553 C 397.14988,8.3288985 395.01098,7.6502759 382.08648,7.6502710 z M 519.37428,107.79601 C 519.79936,107.37101 526.05324,108.24462 533.34121,109.79125 C 549.69162,113.26111 566.83228,121.75076 578.84792,132.27608 C 588.47837,140.71228 601.86993,159.87646 601.86993,165.27430 C 601.86993,169.37727 599.88427,169.18782 590.81937,164.27667 C 586.67885,162.03336 574.61801,159.71176 563.26958,158.90487 L 543.08707,157.44681 L 530.80867,132.96674 C 524.07126,119.51983 518.94945,108.22102 519.37428,107.79601 z M 238.50576,109.56103 C 242.50705,109.56103 245.79619,109.89083 245.79619,110.32843 C 245.79619,110.76606 241.52895,119.33025 236.35704,129.35996 C 231.18538,139.38970 226.31625,150.11047 225.53682,153.14937 C 224.25667,158.14125 222.65115,158.69845 208.57740,158.75139 C 200.00953,158.78361 189.13160,159.71348 184.40416,160.82337 C 179.67698,161.93324 173.31185,163.61231 170.28400,164.58363 C 165.53373,166.10756 165.02884,165.72887 166.60048,161.51403 C 170.22187,151.80329 184.39090,134.14053 194.38037,126.90428 C 206.49252,118.13021 228.31862,109.56103 238.50576,109.56103 z M 343.33289,115.85372 C 344.98974,115.56338 346.21832,115.66956 346.86269,116.31416 C 348.11901,117.57016 348.79605,127.35470 348.39749,138.03158 L 347.70695,157.44681 L 322.53622,158.13747 C 308.69256,158.52238 297.36549,157.88795 297.36549,156.75615 C 297.36549,152.91132 312.06053,134.76558 320.08054,128.66930 C 329.44945,121.54753 338.36186,116.72475 343.33289,115.85372 z M 419.22866,116.23742 C 421.10529,114.36086 433.27614,120.44726 444.09243,128.66930 C 452.02575,134.69979 466.80748,152.90609 466.80748,156.67941 C 466.80748,159.04372 421.65315,159.41087 419.30528,157.06311 C 417.22974,154.98750 417.16319,118.30308 419.22866,116.23742 z M 213.94895,340.54853 L 213.94895,383.90664 L 553.83067,383.90664 L 553.83067,340.54853 L 213.94895,340.54853 z "
           id="path1363" />
        <path
           style="fill:#000000;fill-opacity:1.0000000"
           d="M 382.08648,7.6502710 C 369.16224,7.6502710 367.02309,8.3289034 364.89672,13.175553 C 363.56353,16.214459 360.79180,18.700840 358.68090,18.700836 C 352.33419,18.700836 348.93479,24.090662 348.93479,34.125582 C 348.93479,46.062279 352.60677,53.080370 358.83413,53.080370 C 366.05727,53.080370 364.65803,57.677208 356.91575,59.373052 C 353.20178,60.186619 342.39998,63.042453 332.89625,65.742475 L 315.62962,70.653837 L 300.51171,65.588995 C 250.95631,48.894981 189.24407,62.117202 151.40595,97.512848 C 133.92519,113.86523 122.54016,130.10111 115.41475,148.85193 C 100.64531,187.72280 106.92841,238.82553 127.77002,249.45811 C 135.66970,253.48815 138.16222,257.20451 147.64557,279.15650 C 159.54825,306.70632 167.35658,316.35066 181.33456,320.82634 C 186.40063,322.44849 192.75348,325.79332 195.45473,328.19338 C 198.00102,330.45578 201.82427,332.46197 204.35657,333.10474 L 561.65816,333.10474 C 567.89264,333.05882 573.07462,331.53920 575.08779,329.11426 C 576.88731,326.94587 584.09400,322.63183 591.12633,319.52176 C 606.05761,312.91846 609.92211,307.75099 621.51538,279.30998 C 628.77708,261.49576 631.69123,257.22162 640.31657,251.45335 C 652.21581,243.49567 657.55152,230.82330 659.80878,205.40933 C 663.10283,168.31571 648.48072,131.03680 619.29004,102.19399 C 579.91762,63.291582 525.51716,48.828898 472.71634,63.286794 C 449.36429,69.681068 443.59810,69.701745 421.45400,63.440274 C 405.81769,59.018820 397.14570,53.080370 406.33633,53.080370 C 411.31081,53.080370 415.23818,45.513459 415.23818,35.890603 C 415.23818,25.980947 411.25261,18.700840 405.87589,18.700836 C 403.54251,18.700836 400.60944,16.214463 399.27625,13.175553 C 397.14988,8.3288985 395.01098,7.6502759 382.08648,7.6502710 z M 382.08648,20.235636 C 383.38480,20.486897 384.66470,21.442569 385.77001,22.537837 C 385.98660,22.754089 386.18919,22.991050 386.38393,23.228497 C 387.39861,24.487056 388.22569,25.923860 388.22569,27.449199 C 388.22569,28.332520 388.79393,29.180466 389.76049,29.904880 C 390.72213,30.651216 392.02168,31.219104 393.52063,31.439681 C 401.34934,32.591641 401.89941,37.966608 394.44151,40.801965 C 392.94010,41.372842 391.86059,41.879814 390.98833,42.490245 C 390.14996,43.076993 389.45230,43.711649 389.06995,44.638966 C 388.25786,46.531078 388.34233,49.444643 388.68613,54.691910 C 388.90419,58.018130 389.04490,60.451685 389.60701,62.442653 C 389.61241,62.462004 389.60161,62.500141 389.60701,62.519393 C 390.17181,64.479223 391.20664,65.935958 393.06043,67.277275 C 396.79356,70.010129 404.04960,72.171300 418.92170,76.562819 C 432.41346,80.546744 440.04326,82.509594 446.62473,82.625282 C 453.20644,82.757618 458.74032,81.009468 468.03532,77.483699 C 477.77823,73.788071 493.05306,71.762380 508.70754,71.497977 C 524.36201,71.240794 540.39589,72.759338 551.52847,76.102379 C 565.44875,80.282488 578.37619,86.373977 589.97511,94.059546 C 593.84084,96.622982 597.55604,99.367059 601.10253,102.27073 C 608.21615,108.08473 614.63874,114.50039 620.28754,121.53248 C 620.29933,121.54726 620.27575,121.59443 620.28754,121.60922 C 625.90688,128.61201 630.79049,136.15787 634.71467,144.17079 C 639.30900,153.55218 642.65511,163.36785 644.76773,173.02504 C 645.82196,177.85472 646.55228,182.59947 646.99307,187.29868 C 646.99528,187.32322 646.99086,187.35089 646.99307,187.37542 C 647.42797,192.04731 647.54339,196.62445 647.37665,201.03515 C 647.37591,201.05990 647.37763,201.08714 647.37665,201.11189 C 647.20672,205.51900 646.76150,209.75962 645.99557,213.77399 C 645.99091,213.79806 646.00000,213.82669 645.99557,213.85073 C 644.45169,221.89653 641.69347,229.05292 637.78427,234.72402 C 635.82365,237.56846 633.57892,240.04357 631.03115,242.09107 C 626.00535,246.13000 622.01069,250.62431 618.21544,256.90189 C 614.42043,263.17947 610.82408,271.24027 606.62782,282.45632 C 605.24011,286.16526 603.59161,289.53652 601.71645,292.58601 C 601.70491,292.60465 601.72800,292.64413 601.71645,292.66275 C 597.97203,298.73547 593.31680,303.45505 588.05673,306.47595 C 585.41884,307.99089 582.60512,309.05921 579.69219,309.69903 C 575.54356,310.61024 570.86647,313.48867 569.25554,316.06846 C 568.90045,316.63687 568.48569,317.16440 567.72074,317.60326 C 565.42886,318.92061 559.86944,319.68253 542.24305,320.13568 C 518.73138,320.73754 473.78996,320.74960 386.76750,320.74960 C 210.36513,320.74960 207.18945,320.66429 202.82177,315.83824 C 200.37739,313.13699 196.24914,310.92687 193.68959,310.92687 C 192.19358,310.92687 190.38498,310.53642 188.47126,309.92925 C 188.45039,309.92255 188.41576,309.93601 188.39465,309.92925 C 186.47111,309.31268 184.42602,308.45182 182.40892,307.39683 C 182.38977,307.38684 182.35121,307.40685 182.33206,307.39683 C 178.25563,305.25612 174.34889,302.36404 171.89542,299.49261 C 169.75799,296.99074 163.88155,285.01944 158.77299,272.86382 C 153.40979,260.10280 150.44357,253.33926 147.33861,248.84419 C 144.23389,244.34911 140.99018,242.12245 134.98358,238.33080 C 129.14250,234.64353 125.23060,229.07269 123.01214,220.60386 C 120.80129,212.12805 120.29910,200.74027 121.17038,185.45692 C 122.21625,167.11299 123.78838,160.83221 131.30006,145.01493 C 133.26363,140.88008 135.43224,136.89691 137.82284,133.04348 C 142.60454,125.33665 148.25949,118.19327 154.62903,111.70975 C 157.80251,108.48093 161.14469,105.40239 164.68210,102.50095 C 178.88846,90.854833 195.98074,81.891008 215.25366,76.179119 C 226.61437,72.812184 241.28167,71.344399 256.15622,71.728197 C 263.59398,71.922098 271.02954,72.621230 278.18048,73.723438 C 285.35795,74.824811 292.17811,76.330733 298.28637,78.327840 C 313.63094,83.344796 318.93472,84.177788 324.07102,82.164841 C 327.62758,80.771046 340.46294,77.121339 352.61831,74.107138 L 374.71944,68.658596 L 375.48684,55.919751 C 376.16903,44.251165 375.72013,43.068092 369.96156,40.878705 C 366.16827,39.436449 364.06031,36.951877 363.82236,34.816242 C 363.68558,33.760378 364.02053,32.833194 364.82010,32.130341 C 365.61721,31.424883 366.87575,30.979241 368.65686,30.979241 C 371.40059,30.979241 374.38449,29.045392 375.25674,26.681799 C 376.12876,24.318206 377.99679,21.631789 379.40046,20.696076 C 380.17670,20.178799 381.11060,20.046797 382.08648,20.235636 z M 512.23758,82.548542 C 508.12259,82.548542 503.68518,82.847521 499.34525,83.315942 C 486.32548,84.721181 474.17452,87.828084 474.17452,90.376025 C 474.17452,91.771858 480.00848,99.245134 487.14346,106.95187 C 508.85095,130.39847 525.33004,168.38412 522.90456,189.37067 C 522.21108,195.36837 520.77254,196.86084 515.15370,197.50511 C 510.11734,198.08259 506.84490,197.35551 504.64019,194.51225 C 503.54987,193.10593 502.67614,191.16486 502.03128,188.60326 C 502.02612,188.58350 502.03594,188.54637 502.03128,188.52652 C 501.38322,185.92313 500.93604,182.70668 500.57309,178.70380 C 499.49849,166.85232 495.09422,154.51547 488.29469,142.86621 C 488.28413,142.84811 488.30525,142.80756 488.29469,142.78947 C 476.92857,123.34455 458.79705,105.81921 437.95323,95.517607 C 424.11178,88.676816 416.39873,86.375057 406.95025,86.308803 L 394.36489,86.232063 L 393.67435,142.25229 L 393.06043,198.27251 L 382.62379,197.50511 L 372.26376,196.73771 L 371.57322,140.56401 L 370.95930,84.390302 L 358.68090,85.541403 C 350.02462,86.373166 338.62903,90.483755 327.44758,96.285007 C 316.26613,102.08626 305.29881,109.57820 297.44211,117.31178 C 293.34603,121.34381 289.45992,125.95091 285.93135,130.97150 C 285.91956,130.98795 285.94289,131.03179 285.93135,131.04824 C 284.62714,132.90614 283.60852,135.00336 282.40106,136.95722 C 277.07641,145.55098 272.49214,154.76811 269.58560,164.12319 C 267.80253,169.87008 266.58377,175.59813 265.97894,181.08274 C 265.54797,184.98980 265.20540,187.92761 264.82772,190.13807 C 264.45273,192.35390 263.99843,193.78539 263.36953,194.81921 C 262.74088,195.85302 261.95285,196.45341 260.76062,196.81445 C 259.56544,197.17010 257.99135,197.30765 255.92587,197.50511 C 249.81810,198.08900 246.47961,197.74137 245.02879,194.66573 C 244.31148,193.14473 244.06567,190.90431 244.18477,187.83586 C 244.18551,187.81671 244.18379,187.77835 244.18477,187.75912 C 244.31320,184.63695 244.79059,180.63355 245.56585,175.48072 C 246.44817,169.61717 247.88155,163.66288 249.78667,157.75377 C 249.79379,157.73167 249.77955,157.69913 249.78667,157.67703 C 255.53763,139.87772 265.71274,122.34442 278.94788,107.71927 C 286.55755,99.310087 292.12040,91.391743 291.30290,90.069065 C 286.58800,82.439436 248.46576,80.219893 225.38334,86.232063 C 205.49527,91.412248 188.19819,100.57587 174.35110,112.63063 C 165.09441,120.68937 157.40788,130.04345 151.48281,140.41053 C 148.52495,145.58548 145.99510,150.96688 143.96204,156.60267 C 143.95419,156.62458 143.97015,156.65751 143.96204,156.67941 C 141.94127,162.29381 140.39885,168.10361 139.35764,174.09940 C 139.35347,174.12410 139.36206,174.15143 139.35764,174.17614 C 138.32085,180.17335 137.74082,186.36739 137.74623,192.67049 C 137.75310,200.84046 138.56863,208.64823 139.81833,215.00184 C 140.55233,218.74329 141.41526,222.12699 142.42724,224.51760 C 143.34272,226.67096 144.36944,228.16569 145.42023,228.81504 C 146.82414,229.68281 150.13685,228.05317 152.78727,225.20826 C 155.69897,222.08296 160.29011,220.36963 165.14229,220.14342 C 170.00209,219.91634 175.10818,221.17812 179.10922,223.98042 C 183.67826,227.18064 184.60774,229.80981 184.02059,237.94710 C 183.70135,242.36564 183.67556,244.92613 184.48078,246.69547 C 184.48766,246.71094 184.47391,246.75686 184.48078,246.77221 C 185.29386,248.50823 186.95095,249.45452 189.77597,250.60921 C 194.05794,252.35950 197.49884,254.46320 200.13575,256.74841 C 202.77290,259.03362 204.61123,261.56720 205.50780,264.11546 C 206.40215,266.67199 206.37220,269.24378 205.43093,271.78946 C 204.48967,274.33514 202.62384,276.82095 199.75217,279.07976 C 197.13417,281.13912 194.94370,282.34545 192.53861,282.91676 C 190.10969,283.50001 187.39666,283.41669 183.79024,282.84002 C 175.94852,281.58605 174.58144,282.07009 174.58144,285.90962 C 174.58144,290.53647 182.74363,299.37803 189.31553,301.87155 C 192.21814,302.97280 196.06791,302.79000 199.98251,301.64133 C 203.89687,300.49266 207.87556,298.37812 210.95622,295.50213 C 213.30311,293.31105 214.59234,291.57903 215.17679,289.43967 C 215.78286,287.33208 215.65344,284.88015 215.02356,281.15174 C 214.02925,275.26599 214.05455,273.02577 216.09767,271.63598 C 216.77888,271.17271 217.69853,270.77693 218.86032,270.40814 C 220.80153,269.79206 222.60818,269.68973 224.15550,270.02444 C 225.69742,270.36300 226.95498,271.08593 227.91588,272.17316 C 229.90646,274.33187 230.50344,277.78601 228.99000,281.76566 C 226.68829,287.82019 228.02639,292.61624 233.28744,296.49975 C 233.32010,296.52404 233.33140,296.55228 233.36430,296.57649 C 235.10563,297.85023 237.29757,299.02453 239.88733,300.10653 C 247.10163,303.12093 249.35619,303.14013 256.61641,300.10653 C 265.26581,296.49270 271.75421,288.09125 269.12516,283.83764 C 268.29072,282.48722 263.39728,282.14234 258.07459,282.99350 C 250.01480,284.28232 247.62272,283.51524 242.26615,278.15888 C 238.79381,274.68643 235.97347,269.98343 235.97347,267.64550 C 235.97347,262.15317 245.47130,251.99053 250.63093,251.99053 C 256.93933,251.99053 260.42665,247.08690 258.22807,241.24693 C 256.76645,237.36467 256.92435,233.72424 258.22807,230.58006 C 260.17518,225.88419 264.67596,222.33578 270.04604,220.91082 C 273.64509,219.97309 277.65988,219.95912 281.55704,221.21778 C 283.53117,221.84616 285.45102,222.75334 287.31242,224.05716 C 288.54886,224.92311 289.49135,225.76270 290.22879,226.58958 C 292.37972,229.07669 292.55039,232.03773 291.76359,239.02147 C 290.63594,249.02350 291.11136,250.04477 297.05853,252.29749 C 305.19641,255.38016 314.55526,264.06192 314.55526,268.48964 C 314.55526,275.70659 302.82103,283.91438 292.53075,283.91438 C 281.07622,283.91438 279.65045,287.72712 288.15669,295.42539 C 290.71207,297.73807 293.38066,299.43989 296.13765,300.56697 C 298.89538,301.69629 301.77909,302.22961 304.57905,302.17851 C 310.15124,302.05013 315.67922,299.59673 320.46412,294.81147 C 323.65552,291.62036 324.33280,288.38230 323.15014,281.38196 C 322.47360,277.37697 322.25824,274.96461 322.76656,273.40100 C 323.02490,272.62608 323.48952,272.10081 324.14764,271.63598 C 324.79717,271.18195 325.65813,270.75689 326.75704,270.40814 C 330.56188,269.20048 333.77096,269.93748 335.81212,272.01968 C 337.85181,274.10242 338.72063,277.53145 337.80761,281.68892 C 334.57299,296.41613 349.44140,306.48749 364.89672,300.02979 C 373.02158,296.63501 379.69072,288.42525 376.71468,285.44918 C 375.86182,284.59630 371.59532,283.91438 367.27578,283.91438 C 362.95599,283.91438 356.48405,281.64882 352.92527,278.84954 C 350.09780,276.62536 348.26071,274.24833 347.32337,271.78946 C 346.84746,270.57544 346.58618,269.40438 346.55573,268.18268 C 346.52896,266.95749 346.76200,265.69979 347.16965,264.49916 C 347.97806,262.10531 349.60077,259.84569 352.08101,257.74603 C 354.57770,255.60863 357.86414,253.70909 361.98060,252.14401 C 363.50508,251.56440 364.69584,251.06975 365.58726,250.53247 C 365.62409,250.50990 365.62851,250.47847 365.66412,250.45573 C 366.52680,249.92503 367.06975,249.34164 367.42902,248.61397 C 368.19396,247.06579 367.96214,244.85491 367.19892,240.78649 C 365.86155,233.65804 366.59556,230.94235 371.18940,226.05240 C 374.21382,222.83305 377.82293,221.02660 381.47256,220.45038 C 381.49810,220.44642 381.52389,220.45421 381.54918,220.45038 C 392.56954,218.75650 404.01498,227.95246 401.57845,240.93997 C 400.91910,244.45481 400.69220,246.67040 401.11801,248.15353 C 401.33608,248.89419 401.71327,249.39244 402.26924,249.84181 C 402.82668,250.31254 403.52974,250.68087 404.49457,250.99291 C 408.34827,252.23902 411.63226,253.64554 414.31730,255.21361 C 416.99522,256.78819 419.11865,258.54302 420.60998,260.43193 C 423.57055,264.17916 424.19699,268.55324 422.37488,273.47774 C 419.75565,280.55833 409.61491,284.45345 398.96929,282.45632 C 391.86918,281.12431 390.68137,281.60639 390.68137,285.67940 C 390.68137,288.29551 393.48355,293.06270 396.89719,296.26953 C 398.57147,297.84227 400.40857,299.04671 402.34585,299.95305 C 406.19612,301.75441 410.45991,302.27359 414.47078,301.79481 C 414.49607,301.79179 414.52235,301.79790 414.54764,301.79481 C 416.53625,301.54428 418.49441,301.06226 420.30302,300.33675 C 422.13594,299.60206 423.86769,298.65972 425.36786,297.49737 C 429.86839,294.01030 432.52838,288.71799 431.35358,282.45632 C 430.49827,277.89774 431.32927,274.27812 433.27221,272.09642 C 434.25301,271.03053 435.52382,270.24653 437.03235,269.94770 C 438.56494,269.65282 440.35881,269.78331 442.32729,270.40814 C 443.44609,270.76318 444.35347,271.18512 445.01331,271.63598 C 446.96116,272.99891 447.07927,275.17491 446.08767,280.46108 C 444.47773,289.04334 448.98488,296.36871 456.90814,299.49261 C 459.57083,300.54882 462.56897,301.10415 465.88660,301.10415 C 475.96373,301.10415 486.45293,293.49041 486.45293,286.13984 C 486.45293,282.63696 484.44050,281.88521 475.63271,282.22610 C 457.03780,282.94574 450.04672,268.11532 457.82902,258.12973 C 460.42295,254.80120 464.64599,252.03800 470.64448,250.53247 C 472.85779,249.97697 474.09643,249.42926 474.94192,248.61397 C 475.19805,248.36707 475.55535,248.16362 475.70932,247.84657 C 476.40944,246.48784 476.18548,244.39877 475.47898,240.63301 C 474.84443,237.24940 474.72017,234.86216 475.40236,232.72878 C 476.08013,230.59863 477.57343,228.71593 480.08338,226.20588 C 487.62109,218.66822 495.92473,218.38542 504.79392,225.36174 C 510.45402,229.81431 511.30270,231.94048 510.16547,238.94473 C 508.97987,246.25119 509.65469,247.68339 515.46066,250.14877 C 517.81173,251.14703 520.03977,252.38197 522.13692,253.75555 C 522.15558,253.76766 522.19536,253.74344 522.21378,253.75555 C 524.29006,255.11976 526.20893,256.60507 527.81593,258.12973 C 531.05276,261.19680 533.11087,264.41355 533.11087,266.87810 C 533.11087,269.19429 531.01200,273.66575 528.42985,276.85430 C 526.51761,279.21539 524.80919,280.66262 522.44388,281.45870 C 520.07881,282.25456 517.05661,282.39977 512.46792,282.22610 C 509.21242,282.10290 506.65925,282.29700 504.79392,282.76328 C 499.20282,284.17304 499.84498,288.27901 506.55882,295.42539 C 508.39861,297.38374 510.65440,298.83304 513.15846,299.79957 C 515.65785,300.76753 518.41779,301.27814 521.21604,301.25763 C 526.81303,301.21665 532.62611,299.17814 537.25483,295.19517 C 540.40424,292.48505 542.07484,290.80392 542.62663,288.97923 C 543.17891,287.15890 542.61140,285.18633 541.32217,281.76566 C 539.59043,277.17155 539.76060,273.67930 541.55227,271.63598 C 543.35646,269.59135 546.80718,268.99303 551.52847,270.17792 C 558.25925,271.86728 559.02419,274.34469 555.13538,281.61218 C 551.55082,288.30946 556.15866,295.78863 566.49290,300.10653 C 570.13173,301.62701 572.47838,302.40873 574.85744,302.40873 C 577.22030,302.40873 579.58316,301.62704 583.22198,300.10653 C 585.38323,299.20355 587.43078,298.01436 589.20795,296.65323 C 594.55692,292.56550 597.70019,287.02431 595.73073,283.83764 C 594.91324,282.51494 589.57336,281.47938 583.91277,281.45870 C 575.04506,281.42629 571.35147,280.65631 568.25780,276.85430 C 567.22666,275.58697 566.25249,273.96220 565.18820,271.94294 C 562.56381,266.96370 562.77991,265.15119 566.87648,259.66453 C 569.51535,256.13012 575.14721,252.28494 579.38523,251.06965 C 586.65674,248.98419 586.99023,248.32275 585.60105,239.63539 C 584.58268,233.26633 586.32670,228.09150 589.82187,224.67108 C 591.87826,222.65843 594.60578,221.39196 597.64911,220.68060 C 603.22621,219.37707 610.04858,220.31040 616.91098,224.36412 C 619.16259,225.69421 621.02277,226.51942 622.51288,226.74306 C 624.01969,226.96918 625.15298,226.55532 626.11978,225.36174 C 628.05265,223.01966 629.14567,217.65596 630.34061,208.09523 C 630.86170,203.92372 631.14116,199.75535 631.18463,195.66335 C 631.18487,195.63751 631.18438,195.61244 631.18463,195.58661 C 631.22539,191.49586 630.98498,187.44902 630.57071,183.46168 C 630.56800,183.43629 630.57341,183.41033 630.57071,183.38494 C 630.15373,179.39856 629.50175,175.50277 628.65208,171.64372 C 628.64693,171.61948 628.65748,171.59119 628.65208,171.56698 C 627.79996,167.70846 626.76784,163.91667 625.50586,160.20945 C 625.49825,160.18706 625.51348,160.15511 625.50586,160.13271 C 622.96080,152.67378 619.59750,145.57617 615.52966,138.87572 C 611.46182,132.17528 606.66416,125.89924 601.25601,120.15116 C 579.62367,97.158763 548.00629,82.548542 512.23758,82.548542 z M 519.37428,107.79601 C 519.79936,107.37101 526.05324,108.24462 533.34121,109.79125 C 549.69162,113.26111 566.83228,121.75076 578.84792,132.27608 C 588.47837,140.71228 601.86993,159.87646 601.86993,165.27430 C 601.86993,169.37727 599.88427,169.18782 590.81937,164.27667 C 586.67885,162.03336 574.61826,159.71176 563.26958,158.90487 L 543.08707,157.44681 L 530.80867,132.96674 C 524.07126,119.51983 518.94945,108.22102 519.37428,107.79601 z M 238.50576,109.56103 C 242.50705,109.56103 245.79619,109.89083 245.79619,110.32843 C 245.79619,110.76606 241.52920,119.33025 236.35704,129.35996 C 231.18538,139.38970 226.31625,150.11047 225.53682,153.14937 C 224.25667,158.14125 222.65090,158.69845 208.57740,158.75139 C 200.00953,158.78361 189.13160,159.71348 184.40416,160.82337 C 179.67698,161.93324 173.31185,163.61231 170.28400,164.58363 C 165.53373,166.10756 165.02884,165.72887 166.60048,161.51403 C 170.22187,151.80329 184.39090,134.14053 194.38037,126.90428 C 206.49252,118.13021 228.31886,109.56103 238.50576,109.56103 z M 343.33289,115.85372 C 344.98974,115.56338 346.21832,115.66956 346.86269,116.31416 C 348.11901,117.57016 348.79629,127.35470 348.39749,138.03158 L 347.70695,157.44681 L 322.53622,158.13747 C 308.69256,158.52238 297.36549,157.88795 297.36549,156.75615 C 297.36549,152.91132 312.06053,134.76558 320.08054,128.66930 C 329.44945,121.54753 338.36161,116.72475 343.33289,115.85372 z M 419.22866,116.23742 C 421.10529,114.36086 433.27614,120.44726 444.09243,128.66930 C 452.02575,134.69979 466.80748,152.90609 466.80748,156.67941 C 466.80748,159.04372 421.65315,159.41087 419.30528,157.06311 C 417.22974,154.98750 417.16319,118.30308 419.22866,116.23742 z M 213.18180,337.93937 L 214.63974,348.37601 C 215.51961,354.93356 214.76449,361.02481 212.72111,364.79838 C 209.47839,370.78714 210.04098,375.68323 214.56287,381.52770 C 216.42232,383.93029 253.39112,384.59730 384.77251,384.59730 L 552.67970,384.59730 L 556.74680,378.38136 C 560.13637,373.20815 560.32055,371.15682 557.82116,366.48666 C 556.16038,363.38317 555.14299,355.93956 555.59557,349.98755 L 556.43984,339.16721 L 384.84913,338.55329 L 213.18180,337.93937 z M 227.37858,348.98993 L 385.77001,348.98993 L 544.16143,348.98993 L 543.47089,355.12913 C 543.08781,358.50569 544.07303,363.75675 545.69623,366.79362 C 547.31968,369.83048 547.86165,373.14565 546.84745,374.16066 C 544.87554,376.13380 232.76315,377.47485 225.53682,375.54198 C 220.75021,374.26164 220.12180,371.98024 223.54158,368.48190 C 224.79594,367.19880 226.17726,362.31200 226.61118,357.58481 L 227.37858,348.98993 z "
           id="path1361" />
        <path
           style="fill:#ec182a"
           d="M 448.38987,175.86442 C 434.41533,175.86442 421.28824,176.50268 419.15204,177.32248 C 416.18165,178.46231 415.23818,182.43491 415.23818,194.20529 C 415.23818,209.32995 415.08224,209.64590 407.87114,211.08809 L 400.58071,212.54615 L 406.64329,221.60148 C 410.00439,226.55402 412.78250,232.54301 412.78250,234.95424 C 412.78250,240.21721 432.05321,259.32008 437.41592,259.35757 C 439.49859,259.37214 446.40494,254.67665 452.76393,248.92093 C 460.20464,242.18605 464.35180,236.39052 464.35180,232.72878 C 464.35180,229.39016 468.44002,222.84872 474.25114,216.92034 C 479.82996,211.22910 483.58346,205.33544 482.84602,203.41409 C 482.12626,201.53810 481.54157,196.34659 481.54157,191.82635 C 481.54157,177.99433 477.14172,175.86442 448.38987,175.86442 z M 212.03058,176.17138 C 208.67292,175.92635 204.40814,176.08482 198.90791,176.47834 C 179.66175,177.85541 171.53517,182.19011 163.91445,195.20291 C 158.26270,204.85395 160.06714,210.23197 168.97954,210.24395 C 180.65237,210.25965 191.15925,218.59489 194.30351,230.27310 C 196.17793,237.23240 200.52375,243.74116 207.34956,249.91855 C 219.17685,260.62294 222.13890,261.20859 227.99250,254.21599 C 230.34333,251.40839 235.32909,247.57536 239.04307,245.62111 C 243.31423,243.37384 245.79030,240.02046 245.79619,236.56578 C 245.80110,233.56155 248.01121,227.48170 250.70755,223.05954 C 253.40364,218.63737 255.61891,214.49341 255.61891,213.85073 C 255.61891,213.20806 250.58157,212.69963 244.41487,212.69963 C 226.88794,212.69963 223.69506,209.91634 223.69506,194.51225 C 223.69506,181.33361 222.10329,176.90644 212.03058,176.17138 z M 562.73252,176.24812 C 557.66326,175.74959 552.91078,175.89873 549.07279,176.86204 C 543.27640,178.31683 542.93359,179.40900 542.93359,194.35877 L 542.93359,210.24395 L 528.35298,210.24395 C 520.32880,210.24395 513.08037,211.33595 512.23758,212.69963 C 511.39479,214.06330 512.97846,218.13253 515.76762,221.67822 C 518.55629,225.22388 520.83246,230.40554 520.83246,233.18922 C 520.83246,238.83609 541.96040,259.11245 547.84495,259.12735 C 549.87089,259.13246 555.96785,255.08147 561.42781,250.07203 C 567.68464,244.33195 572.54124,237.08693 574.47387,230.50332 C 577.79395,219.18997 584.88423,213.08488 597.64911,210.47417 C 607.38908,208.48213 608.84726,202.83696 602.10028,193.36115 C 596.17938,185.04651 577.94031,177.74370 562.73252,176.24812 z M 286.31493,179.54794 L 285.54753,193.97507 C 284.83734,207.72214 285.25505,208.79208 293.37501,216.22968 C 298.93344,221.32114 302.51849,227.26705 303.65817,233.34270 C 305.77472,244.62530 320.16624,259.22143 329.28934,259.28083 C 333.15508,259.30600 339.29379,255.58918 345.86519,249.30463 C 352.73594,242.73399 356.30183,237.25841 356.30183,233.18922 C 356.30183,229.78960 358.54829,224.16568 361.28981,220.68060 C 366.57026,213.96763 364.71475,210.40053 355.84139,210.32069 C 352.43365,210.29005 351.52603,207.40762 350.93003,194.89595 L 350.16263,179.54794 L 318.23878,179.54794 L 286.31493,179.54794 z "
           id="path1357" />
      </g>
    </g>
  </g>
</svg>
