<?xml version="1.0" standalone="no"?>
<!DOCTYPE svg PUBLIC "-//W3C//DTD SVG 20010904//EN"
 "http://www.w3.org/TR/2001/REC-SVG-20010904/DTD/svg10.dtd">
<svg version="1.0" xmlns="http://www.w3.org/2000/svg"
 width="150.000000pt" height="251.000000pt" viewBox="0 0 150.000000 251.000000"
 preserveAspectRatio="xMidYMid meet">
<metadata>
Created by potrace 1.16, written by Peter Selinger 2001-2019
</metadata>
<g transform="translate(0.000000,251.000000) scale(0.100000,-0.100000)"
fill="#000000" stroke="none">
<path d="M689 2429 c-17 -17 -20 -29 -16 -60 5 -38 4 -39 -33 -50 -28 -9 -46
-9 -71 0 -17 6 -62 11 -98 11 -115 0 -215 -62 -269 -165 -22 -43 -26 -63 -27
-138 0 -83 1 -88 28 -110 15 -12 42 -54 61 -92 28 -61 39 -73 75 -89 42 -19
43 -22 45 -91 l1 -40 360 0 360 0 1 45 c1 65 0 64 43 88 31 18 46 37 75 98 23
48 43 78 55 81 43 11 41 165 -3 250 -31 63 -102 126 -163 147 -53 18 -156 21
-201 5 -21 -7 -42 -7 -70 0 -40 11 -40 12 -35 51 4 30 1 45 -12 60 -24 27 -79
26 -106 -1z m71 -14 c0 -8 7 -15 15 -15 8 0 15 -9 15 -20 0 -11 -7 -20 -15
-20 -9 0 -15 -9 -15 -25 0 -15 6 -25 15 -25 8 0 34 -7 58 -15 37 -13 49 -13
91 0 97 29 191 8 263 -58 66 -61 97 -126 97 -210 0 -61 -2 -70 -26 -90 -15
-12 -43 -55 -62 -94 -26 -52 -42 -73 -55 -73 -10 0 -21 -7 -25 -15 -8 -23
-744 -23 -752 0 -4 8 -15 15 -25 15 -15 0 -29 19 -54 73 -19 39 -47 82 -62 94
-25 20 -27 28 -27 90 0 117 72 222 181 263 64 24 112 25 178 5 44 -13 55 -12
107 3 48 14 58 21 58 40 0 13 -6 22 -15 22 -8 0 -15 9 -15 20 0 11 7 20 15 20
8 0 15 7 15 15 0 8 9 15 20 15 11 0 20 -7 20 -15z m314 -739 c-3 -13 -1 -27 5
-31 34 -20 -27 -25 -340 -25 -313 0 -363 4 -329 25 6 3 7 17 4 31 l-6 24 336
0 336 0 -6 -24z"/>
<path d="M390 2254 c-96 -42 -150 -123 -150 -227 0 -32 5 -67 11 -78 10 -19
11 -19 29 3 15 19 22 21 37 12 11 -7 17 -22 16 -38 -1 -16 3 -26 11 -26 21 0
38 -27 31 -50 -4 -14 -15 -20 -36 -20 -33 0 -37 -10 -11 -33 36 -33 77 -17 77
28 0 11 7 20 15 20 8 0 15 -9 15 -20 0 -29 13 -45 39 -45 25 0 46 17 46 38 0
9 -6 12 -16 8 -37 -14 -61 44 -27 63 10 5 18 19 18 32 0 12 7 26 16 32 25 16
49 1 49 -30 0 -17 8 -33 20 -41 11 -7 20 -16 20 -21 0 -19 -32 -42 -51 -36
-22 7 -24 -4 -6 -29 9 -12 23 -17 42 -14 26 3 30 8 33 36 2 19 9 32 17 32 8 0
15 -13 17 -32 2 -27 8 -34 29 -36 26 -3 59 19 59 39 0 6 -9 8 -19 4 -19 -6
-51 17 -51 36 0 5 9 17 20 26 11 10 20 28 20 41 0 12 7 25 16 29 23 9 49 -10
49 -36 0 -13 8 -27 18 -32 34 -19 10 -77 -27 -63 -10 4 -16 1 -16 -8 0 -21 21
-38 46 -38 26 0 39 16 39 45 0 11 7 20 15 20 8 0 15 -9 15 -20 0 -29 13 -45
39 -45 25 0 46 17 46 38 0 9 -6 12 -16 8 -37 -14 -61 44 -27 63 10 5 18 19 18
32 0 12 7 26 16 32 25 16 49 1 49 -30 0 -17 8 -33 20 -41 11 -7 20 -16 20 -21
0 -19 -32 -42 -51 -36 -22 7 -24 -4 -6 -29 9 -12 23 -17 42 -14 26 3 30 8 33
36 2 21 9 32 19 32 10 0 14 -6 10 -20 -12 -45 47 -66 83 -30 28 28 25 35 -12
35 -28 0 -33 3 -33 25 0 14 8 29 20 35 12 6 20 20 20 34 0 13 8 29 18 35 15 9
22 7 38 -12 l19 -24 11 29 c6 15 9 56 7 89 -9 147 -143 248 -292 220 l-36 -7
40 -50 c58 -74 90 -189 51 -189 -14 0 -19 10 -24 45 -10 90 -95 183 -184 201
l-33 7 0 -127 0 -126 -25 0 -25 0 0 125 c0 141 0 141 -76 106 -78 -35 -144
-131 -144 -208 0 -17 -6 -23 -21 -23 -20 0 -21 4 -16 45 8 54 36 112 77 159
30 34 30 34 8 40 -41 10 -122 6 -158 -10z m30 -219 l0 -35 60 0 60 0 0 35 0
35 70 0 70 0 0 -35 0 -35 60 0 60 0 0 35 0 35 70 0 70 0 0 -35 0 -35 65 0 65
0 0 35 c0 35 0 35 45 35 32 0 51 -6 65 -20 29 -29 26 -58 -7 -62 -20 -2 -33
-13 -45 -36 -20 -42 -47 -72 -63 -72 -17 0 -38 27 -50 63 -20 60 -115 54 -115
-7 0 -13 -7 -26 -15 -30 -8 -3 -15 -12 -15 -20 0 -10 -6 -13 -17 -9 -27 10
-53 40 -53 62 0 11 -11 28 -25 37 -34 22 -77 7 -90 -33 -25 -76 -63 -83 -94
-18 -27 57 -60 75 -96 51 -14 -9 -25 -25 -25 -36 0 -22 -33 -60 -51 -60 -16 0
-59 48 -59 65 0 21 -29 45 -56 45 -31 0 -32 25 -2 57 17 18 32 23 70 23 l48 0
0 -35z"/>
<path d="M120 947 c0 -692 0 -688 65 -764 66 -77 101 -87 331 -93 149 -4 205
-9 217 -19 14 -11 20 -11 40 2 18 12 65 16 218 19 213 4 235 9 303 68 20 18
47 52 59 74 22 41 22 44 25 689 l3 647 -631 0 -630 0 0 -623z m1210 -29 c0
-573 -2 -616 -19 -653 -19 -43 -67 -89 -110 -108 -20 -8 -324 -26 -451 -26
-127 0 -431 18 -451 26 -43 19 -91 65 -110 108 -17 37 -19 80 -19 653 l0 612
580 0 580 0 0 -612z"/>
<path d="M715 1437 c-5 -19 -12 -23 -30 -20 -12 3 -26 -1 -31 -8 -4 -7 -6
-103 -5 -212 l3 -199 -167 3 c-139 3 -167 2 -175 -11 -5 -8 -7 -22 -5 -30 3
-9 -4 -19 -18 -25 -30 -14 -30 -57 1 -70 12 -5 20 -16 17 -23 -3 -7 0 -22 5
-32 9 -17 18 -18 80 -13 l70 6 -20 -58 c-11 -32 -20 -60 -20 -63 0 -2 18 -2
40 1 27 3 43 1 51 -9 9 -12 14 -12 31 0 14 10 28 12 51 5 17 -5 33 -7 35 -4 3
3 -4 32 -15 65 l-20 60 29 0 29 0 -2 -284 c-1 -156 1 -289 5 -295 10 -15 182
-15 192 1 4 6 6 139 5 295 -2 281 -2 283 18 283 19 0 21 -6 21 -53 0 -29 5
-58 12 -65 7 -7 40 -12 80 -12 78 0 88 9 88 86 l0 47 54 -7 c59 -6 83 7 72 41
-4 13 1 21 17 28 30 13 30 57 0 70 -16 7 -21 15 -17 31 3 13 0 25 -8 30 -7 5
-86 7 -176 5 l-164 -3 3 199 c1 109 -1 205 -5 212 -5 7 -19 11 -32 8 -18 -3
-24 1 -26 17 -2 16 -11 22 -35 24 -27 3 -33 -1 -38 -21z m50 -22 c0 -26 33
-44 45 -25 8 13 11 13 22 1 10 -11 10 -14 1 -18 -7 -3 -13 -11 -13 -19 0 -8
-7 -17 -15 -20 -23 -9 -22 -350 2 -376 14 -16 33 -18 150 -18 128 0 136 1 167
25 18 14 36 25 39 25 12 0 7 -28 -5 -33 -21 -8 6 -42 33 -42 15 0 24 -6 24
-15 0 -9 -8 -14 -21 -12 -29 4 -51 -23 -34 -43 24 -29 -1 -37 -35 -11 -19 15
-43 26 -54 26 -19 0 -21 -6 -21 -74 0 -47 -5 -77 -12 -84 -7 -5 -38 -9 -68 -8
l-55 1 -3 83 -3 82 -41 0 c-69 0 -78 -16 -78 -139 0 -222 13 -422 27 -437 8
-8 13 -22 11 -32 -3 -14 -15 -17 -76 -18 -83 -2 -103 11 -73 44 21 25 30 136
32 390 1 188 -1 192 -98 192 -34 0 -63 -1 -63 -3 0 -2 11 -37 25 -77 23 -68
26 -104 5 -71 -7 12 -12 12 -33 -2 -23 -15 -25 -14 -45 6 -19 19 -22 19 -28 4
-3 -9 -10 -17 -14 -17 -5 0 2 32 16 72 13 39 24 75 24 80 0 4 -21 8 -46 8 -33
0 -54 -7 -78 -25 -18 -14 -36 -25 -39 -25 -12 0 -8 28 4 32 22 7 -10 49 -34
46 -14 -2 -22 2 -22 12 0 9 8 14 21 12 31 -4 49 21 32 47 -20 32 -2 36 36 7
33 -25 39 -26 167 -26 180 0 169 -13 169 206 0 97 -4 175 -9 179 -18 11 -40
65 -29 71 6 4 14 0 19 -7 10 -17 43 0 45 22 1 8 2 18 3 22 2 17 26 0 26 -18z"/>
</g>
</svg>
