<?xml version="1.0" standalone="no"?>
<!DOCTYPE svg PUBLIC "-//W3C//DTD SVG 20010904//EN"
 "http://www.w3.org/TR/2001/REC-SVG-20010904/DTD/svg10.dtd">
<svg version="1.0" xmlns="http://www.w3.org/2000/svg"
 width="866.000000pt" height="650.000000pt" viewBox="0 0 866.000000 650.000000"
 preserveAspectRatio="xMidYMid meet">

<g transform="translate(0.000000,650.000000) scale(0.100000,-0.100000)"
fill="#000000" stroke="none">
<path d="M4309 5655 c-1 -3 -2 -9 -3 -14 0 -5 -5 -13 -10 -18 -5 -5 -6 -2 -1
6 10 18 -1 13 -57 -28 -33 -24 -44 -37 -36 -42 9 -6 6 -8 -7 -8 -11 0 -32 -3
-47 -7 -18 -4 -28 -2 -28 5 0 6 -7 8 -17 4 -10 -4 -14 -2 -10 4 4 7 -7 13 -28
17 -21 4 -33 11 -29 18 4 5 -4 4 -17 -3 -23 -12 -23 -11 -9 6 8 10 10 16 3 12
-6 -4 -18 0 -26 8 -9 8 -22 15 -29 15 -18 0 -70 -49 -63 -59 2 -5 -3 -15 -12
-22 -14 -12 -16 -12 -8 1 4 8 -8 -1 -28 -19 -39 -37 -45 -46 -24 -38 8 3 14
-1 14 -7 0 -15 -62 -6 -119 18 -23 10 -39 12 -43 6 -3 -6 -14 -10 -23 -9 -15
0 -15 1 1 8 17 6 16 8 -8 19 -14 7 -30 10 -35 7 -5 -3 -11 -1 -15 5 -4 6 -11
8 -16 4 -5 -3 -7 -10 -4 -15 4 -5 1 -17 -5 -26 -10 -16 -11 -16 -5 2 6 19 5
19 -11 3 -15 -15 -15 -19 -3 -35 13 -16 12 -17 -2 -5 -13 10 -19 9 -29 -3 -7
-8 -9 -15 -4 -15 5 0 -2 -7 -14 -16 -12 -8 -20 -19 -17 -23 2 -5 -6 -18 -19
-30 -19 -18 -28 -21 -43 -13 -11 6 -41 13 -69 15 -27 3 -57 8 -67 12 -11 5
-25 1 -39 -11 -12 -11 -18 -13 -14 -6 4 6 3 12 -2 12 -13 0 -33 -50 -26 -62 4
-7 2 -8 -4 -4 -10 6 -17 -6 -9 -18 1 -2 -5 -12 -14 -22 -9 -11 -24 -33 -32
-50 -14 -26 -21 -31 -43 -26 -19 3 -25 1 -20 -7 5 -7 -3 -11 -23 -11 -16 0
-33 5 -36 10 -3 6 -15 10 -26 10 -10 0 -19 -4 -19 -10 0 -5 -7 -10 -15 -10 -8
0 -15 5 -15 10 0 14 -23 13 -38 -2 -7 -7 -8 -17 -2 -29 7 -12 5 -19 -5 -23
-15 -5 -29 -33 -41 -83 -5 -18 -4 -24 5 -19 6 4 11 2 11 -3 0 -6 -7 -11 -16
-11 -10 0 -14 -5 -10 -16 4 -10 2 -13 -6 -8 -7 5 -9 2 -6 -7 4 -11 -3 -15 -26
-16 -69 -2 -156 -16 -156 -25 0 -5 -8 -8 -17 -6 -14 2 -18 -3 -16 -25 1 -15
-1 -25 -5 -23 -5 3 -13 -31 -20 -75 -16 -97 -21 -112 -38 -105 -8 3 -14 2 -14
-2 0 -4 -14 -8 -32 -8 -18 -1 -34 -6 -36 -12 -2 -6 -10 -8 -19 -5 -10 4 -14 2
-10 -4 4 -6 -7 -10 -26 -11 -17 0 -33 -6 -35 -11 -2 -6 -7 -9 -10 -7 -11 7 -1
-168 10 -182 8 -9 7 -11 -3 -7 -10 4 -15 -1 -15 -14 0 -12 6 -17 16 -14 10 3
9 -1 -4 -11 -11 -9 -22 -12 -25 -8 -3 4 -34 -7 -68 -24 -34 -18 -59 -35 -55
-38 3 -4 -1 -4 -11 0 -12 4 -17 1 -17 -10 0 -9 -6 -15 -12 -14 -8 2 -12 -7
-12 -22 4 -60 17 -146 24 -161 5 -8 5 -21 0 -29 -5 -8 -6 -18 -3 -24 3 -5 1
-6 -5 -2 -10 6 -102 -49 -102 -61 0 -2 5 -1 12 3 7 5 8 3 4 -5 -5 -7 -14 -10
-21 -7 -8 3 -19 -3 -27 -12 -9 -11 -9 -14 -1 -8 9 5 11 2 7 -8 -3 -8 -12 -12
-20 -9 -8 3 -14 0 -14 -6 0 -6 4 -11 9 -11 5 0 9 -15 9 -32 1 -41 26 -114 39
-111 6 1 8 -10 6 -25 -4 -21 -2 -24 6 -12 7 9 11 11 11 3 0 -7 -16 -24 -35
-39 -22 -16 -34 -33 -31 -41 3 -8 2 -12 -3 -8 -9 5 -38 -21 -84 -72 -17 -20
-14 -59 4 -48 7 5 18 -22 24 -55 4 -23 18 -50 26 -50 5 0 9 -6 9 -14 0 -8 5
-18 12 -22 7 -5 8 -3 3 7 -8 12 -6 12 8 0 20 -16 22 -22 6 -19 -6 2 -14 -3
-17 -11 -3 -9 0 -11 9 -7 8 4 5 0 -5 -8 -18 -14 -15 -21 7 -17 5 1 6 -3 2 -8
-3 -6 -11 -8 -18 -6 -14 4 -70 -60 -70 -80 0 -8 -6 -16 -13 -19 -7 -3 -18 -14
-24 -25 -9 -17 -7 -24 10 -38 11 -10 20 -23 20 -30 0 -6 5 -15 12 -19 7 -5 8
-3 3 6 -5 9 -4 11 4 6 6 -4 9 -12 6 -17 -4 -5 10 -29 30 -53 20 -24 35 -48 34
-52 -3 -21 2 -35 11 -29 6 3 7 -1 4 -10 -6 -14 -8 -14 -20 2 -13 17 -14 17 -7
-1 4 -11 2 -17 -3 -13 -5 3 -26 -27 -45 -67 -36 -71 -36 -72 -18 -95 11 -13
19 -19 20 -15 0 5 5 -2 10 -15 5 -14 15 -21 23 -18 8 3 22 -4 33 -16 l18 -22
-22 19 c-13 11 -23 15 -23 9 0 -15 36 -44 44 -36 4 5 6 1 4 -7 -2 -9 4 -15 13
-14 22 2 17 -31 -21 -141 l-31 -90 22 -18 c13 -10 30 -15 43 -12 16 5 18 4 7
-4 -13 -8 -11 -13 10 -30 13 -12 34 -24 46 -27 13 -3 20 -10 17 -15 -3 -5 2
-9 10 -9 9 0 16 -5 16 -11 0 -5 4 -8 8 -5 4 2 9 -5 9 -17 2 -15 0 -18 -6 -9
-5 8 -13 -23 -20 -77 -12 -87 -9 -137 9 -126 4 3 10 -2 14 -10 3 -8 13 -15 22
-15 9 0 28 -9 42 -21 17 -13 28 -16 30 -9 3 7 11 2 19 -10 9 -12 21 -19 30
-16 8 3 11 2 8 -3 -3 -6 3 -14 12 -20 14 -8 16 -12 6 -22 -13 -13 -18 -153 -7
-183 3 -9 14 -16 24 -16 10 0 39 -9 64 -20 25 -10 53 -17 61 -14 8 3 29 -9 49
-30 35 -35 47 -54 25 -40 -8 4 -9 -3 -6 -22 3 -16 9 -52 12 -81 4 -29 12 -57
19 -63 8 -5 40 -15 72 -21 33 -5 67 -13 78 -16 11 -3 16 -1 12 5 -3 6 -1 14 5
18 7 4 9 3 6 -3 -4 -6 0 -13 8 -17 8 -3 15 0 16 7 0 7 4 2 10 -11 5 -13 12
-21 16 -19 5 3 9 -9 9 -26 2 -42 31 -107 59 -130 6 -5 3 -7 -7 -3 -15 4 -16 2
-6 -19 6 -14 15 -25 20 -25 5 0 6 6 2 12 -6 10 -4 10 7 3 8 -6 60 -10 116 -10
56 0 97 -2 91 -6 -7 -4 -6 -9 2 -14 6 -4 18 1 26 11 14 18 15 18 6 -1 -5 -11
-7 -27 -5 -35 4 -13 3 -13 -6 0 -22 31 -10 -2 20 -56 23 -41 34 -52 41 -42 6
9 8 3 6 -17 -2 -22 2 -30 16 -33 13 -3 16 0 10 10 -6 9 -2 9 11 -2 14 -11 17
-11 11 -1 -6 10 -4 12 10 7 11 -3 53 1 94 8 76 13 104 8 94 -19 -3 -7 4 -18
15 -25 12 -6 21 -15 21 -21 0 -18 37 -59 45 -51 5 4 5 -1 2 -10 -7 -20 2 -27
39 -34 16 -3 23 -1 19 6 -3 5 0 8 7 5 14 -6 151 38 144 46 -2 2 12 4 32 5 21
1 29 -1 19 -3 -9 -3 -15 -9 -11 -14 3 -5 10 -7 15 -3 5 3 9 2 8 -3 -2 -4 25
-36 59 -71 53 -53 65 -61 81 -53 11 6 22 16 24 23 4 10 6 10 6 0 1 -7 5 -11
11 -7 5 3 6 13 3 23 -5 14 -3 15 7 5 10 -9 18 -9 34 0 12 6 24 11 28 12 18 1
19 17 2 31 -17 15 -16 15 8 0 35 -21 44 -20 27 1 -13 15 -12 15 9 4 13 -7 30
-10 38 -7 7 3 13 1 11 -3 -3 -14 82 -72 95 -65 7 5 8 2 3 -6 -6 -10 -4 -12 9
-7 9 4 14 3 11 -2 -3 -5 4 -16 16 -25 17 -11 24 -12 34 -3 7 7 11 15 9 18 -2
4 4 6 14 5 9 0 16 4 15 11 -2 7 3 10 10 8 6 -2 26 7 42 20 25 21 28 27 15 35
-9 6 -10 10 -3 10 6 0 15 -5 18 -10 5 -8 11 -7 20 0 8 6 22 10 32 8 10 -1 25
2 33 7 18 12 70 13 63 2 -3 -5 -15 -6 -28 -3 -15 4 -25 1 -28 -8 -8 -19 13
-26 38 -13 17 9 18 8 8 -4 -10 -13 -3 -20 44 -43 l56 -27 36 36 c27 27 31 34
16 30 -11 -3 -6 1 10 9 17 8 43 28 58 44 l29 30 -24 22 -23 22 23 -11 c12 -7
27 -9 32 -6 6 3 7 -1 4 -10 -4 -9 -3 -15 2 -14 15 4 67 -12 112 -33 24 -11 46
-17 49 -14 3 3 12 1 18 -4 14 -11 45 -3 45 12 0 5 11 21 25 36 14 15 38 46 53
69 29 46 49 53 101 40 18 -5 45 -6 60 -2 19 4 22 3 11 -4 -11 -8 -1 -10 38 -9
40 0 52 4 48 14 -3 7 0 16 6 20 7 4 8 3 4 -4 -4 -7 -5 -12 -2 -12 9 0 48 81
42 87 -3 3 0 10 5 17 6 6 19 25 29 42 l18 32 105 -5 c101 -6 105 -5 117 16 6
13 9 25 6 28 -3 3 1 12 9 19 8 8 11 22 8 30 -3 9 -1 19 5 23 6 4 13 16 15 26
2 11 7 28 11 37 4 9 4 22 0 29 -4 7 -3 9 4 5 6 -3 14 -2 17 4 4 6 15 8 25 5
11 -3 47 -1 82 5 117 20 111 16 103 56 -4 24 -3 34 4 29 9 -5 17 53 12 87 0 4
6 23 14 42 14 33 25 41 49 37 4 -1 14 4 22 10 8 6 14 8 14 3 0 -5 5 -1 11 9 5
9 15 17 20 17 6 0 7 -4 4 -10 -3 -6 1 -7 9 -4 9 3 14 10 11 14 -3 5 5 6 17 2
15 -3 19 -2 14 7 -6 9 0 10 21 6 21 -5 24 -4 13 4 -10 7 -11 11 -2 11 9 0 12
25 12 90 0 53 -4 90 -10 90 -5 0 -2 9 7 20 10 11 23 20 29 20 6 0 30 14 54 31
23 17 39 25 34 17 -6 -9 -1 -8 16 3 14 9 34 22 45 28 16 10 20 21 17 52 -2 21
-10 43 -18 50 -8 6 -14 19 -13 28 0 12 2 11 9 -4 8 -18 9 -18 9 -2 1 10 -3 26
-8 35 -5 10 -6 32 -3 49 6 25 24 44 87 89 44 31 81 57 82 58 1 1 -6 30 -16 66
-16 56 -19 62 -29 44 -13 -22 -15 -9 -2 21 5 14 2 26 -8 38 -15 17 -15 21 1
48 9 17 12 27 7 24 -6 -3 -10 -4 -10 0 0 3 11 10 25 15 14 5 25 17 25 25 0 9
4 14 9 11 12 -8 32 18 28 35 -2 8 -2 11 0 7 8 -14 25 -8 20 6 -4 11 -1 13 10
9 12 -5 15 -2 10 10 -4 11 -2 14 8 10 12 -4 13 0 4 26 -6 17 -15 28 -20 25 -5
-3 -9 3 -9 12 0 10 -8 26 -17 37 -11 12 -12 17 -4 12 16 -9 12 0 -21 47 -22
32 -23 51 -3 68 8 7 14 18 13 24 -1 6 6 25 16 41 9 17 15 21 11 11 -5 -16 -3
-17 10 -6 10 8 12 17 5 29 -6 13 -5 18 5 18 8 0 12 -4 9 -9 -14 -22 7 -4 26
22 l21 30 -24 24 c-13 13 -27 32 -31 41 -3 10 -12 15 -21 12 -8 -4 -12 -1 -9
7 3 7 -7 29 -21 50 -14 20 -25 41 -25 46 0 4 -3 10 -7 13 -5 2 -3 3 3 1 15 -3
48 62 41 80 -4 9 -1 13 7 10 14 -5 40 42 31 57 -4 5 -2 9 3 9 6 0 13 7 16 16
3 8 2 12 -3 9 -5 -3 -12 4 -16 15 -7 23 -15 25 -35 8 -12 -11 -12 -10 -1 4 11
14 9 21 -10 40 -12 13 -19 16 -15 8 4 -8 1 -6 -8 4 -8 10 -17 24 -19 30 -3 7
-10 6 -23 -4 -13 -10 -15 -10 -7 0 9 10 9 18 1 34 -14 25 -17 67 -5 59 4 -2 5
8 2 24 -5 19 -4 24 3 15 7 -11 11 -8 16 13 4 14 4 31 0 37 -4 6 -3 8 3 5 5 -3
14 12 20 34 10 40 10 40 -35 75 -25 19 -52 32 -59 29 -8 -2 -11 -1 -8 5 6 10
-49 55 -68 55 -7 0 -13 9 -14 20 -2 11 0 14 3 7 3 -6 10 -9 16 -6 5 3 2 14 -8
25 -9 11 -14 22 -11 26 4 3 7 1 7 -5 0 -7 5 -12 11 -12 6 0 10 12 9 28 -1 15
-1 29 0 32 5 15 12 49 14 79 3 30 -1 37 -28 52 -17 9 -34 15 -38 12 -5 -2 -8
0 -8 5 0 13 -70 43 -83 36 -7 -4 -9 -4 -5 1 5 5 -1 14 -11 22 -18 12 -20 25
-18 117 1 57 -1 102 -5 100 -4 -3 -11 4 -17 13 -8 14 -10 15 -11 3 0 -12 -2
-13 -9 -1 -5 7 -32 21 -62 31 -49 17 -54 17 -78 2 l-26 -16 20 24 c16 19 17
22 3 17 -20 -7 -26 6 -38 92 -6 42 -15 70 -26 78 -10 7 -12 13 -6 13 19 0 14
20 -5 21 -11 0 -13 3 -5 6 20 8 14 23 -10 22 -13 -1 -45 4 -72 10 -26 6 -57 9
-67 6 -11 -4 -19 -2 -19 5 0 8 -6 8 -21 -1 -16 -8 -20 -8 -14 0 4 7 2 17 -4
24 -5 7 -13 28 -16 47 -3 19 -10 39 -15 45 -5 6 -11 22 -14 37 -11 63 -16 66
-127 64 -69 -1 -106 2 -114 11 -7 7 -16 9 -19 5 -4 -3 -4 2 0 12 6 15 4 17 -6
11 -8 -5 -11 -4 -6 3 10 16 -36 105 -47 89 -5 -8 -6 -4 -2 9 3 13 -2 30 -14
45 -13 15 -20 19 -21 10 0 -9 -8 -12 -27 -8 -15 3 -48 -1 -75 -8 -49 -12 -93
-10 -115 7 -7 5 -14 5 -18 -2 -3 -5 -11 -10 -18 -10 -6 0 -2 6 8 14 16 12 17
16 6 30 -7 9 -17 13 -22 10 -5 -3 -6 1 -3 9 3 8 -3 20 -13 28 -17 13 -17 13
-3 -6 14 -19 14 -19 -2 -6 -10 7 -15 17 -12 22 3 5 -5 22 -17 39 -25 33 -42
33 -109 0 -19 -9 -41 -15 -49 -12 -8 2 -11 0 -7 -6 3 -5 0 -10 -7 -9 -33 1
-48 -4 -41 -14 3 -6 -5 -4 -18 5 -14 9 -28 13 -32 9 -4 -5 -6 -3 -4 3 3 11
-61 84 -75 84 -5 0 -4 -6 2 -14 9 -11 9 -16 0 -22 -7 -4 -9 -3 -5 4 3 6 2 13
-4 17 -6 4 -8 11 -5 16 3 5 -4 20 -17 34 l-23 25 -35 -22 c-19 -12 -37 -22
-40 -23 -3 -1 -15 -5 -28 -9 -20 -7 -21 -10 -10 -24 10 -12 10 -14 1 -8 -7 4
-18 4 -25 0 -21 -13 -71 -15 -79 -3 -3 6 -18 12 -31 12 -16 1 -24 7 -21 14 3
7 -3 16 -13 20 -11 4 -30 17 -43 29 -13 12 -31 20 -39 16 -10 -3 -13 -1 -8 6
4 7 1 12 -8 12 -9 0 -17 -2 -17 -5z m-34 -65 c-3 -5 -12 -10 -18 -10 -7 0 -6
4 3 10 19 12 23 12 15 0z m140 -19 c-3 -6 3 -14 12 -20 10 -6 13 -11 7 -11
-15 0 -36 25 -27 33 10 10 15 8 8 -2z m-361 -20 c4 -5 -3 -7 -14 -4 -23 6 -26
13 -6 13 8 0 17 -4 20 -9z m1030 -27 c9 -24 2 -26 -12 -4 -7 11 -8 20 -3 20 5
0 12 -7 15 -16z m-74 -14 c-8 -5 -19 -10 -25 -10 -5 0 -3 5 5 10 8 5 20 10 25
10 6 0 3 -5 -5 -10z m-168 -35 c9 4 18 3 21 -2 3 -5 -10 -9 -28 -9 -24 0 -32
3 -28 14 4 9 8 10 13 2 3 -6 14 -8 22 -5z m208 5 c0 -5 -5 -10 -11 -10 -5 0
-7 5 -4 10 3 6 8 10 11 10 2 0 4 -4 4 -10z m34 -6 c3 -8 2 -12 -4 -9 -6 3 -10
10 -10 16 0 14 7 11 14 -7z m-134 -4 c8 -5 11 -10 5 -10 -5 0 -17 5 -25 10 -8
5 -10 10 -5 10 6 0 17 -5 25 -10z m-300 -106 c35 -3 72 -10 82 -15 10 -5 30
-6 44 -3 21 6 25 4 19 -7 -5 -8 -5 -11 -1 -7 4 3 25 0 47 -7 21 -8 39 -12 39
-9 0 2 9 0 20 -6 11 -6 37 -13 57 -16 21 -2 40 -8 43 -13 3 -5 25 -14 50 -21
46 -12 125 -46 191 -81 20 -10 44 -19 53 -19 9 0 16 -4 16 -9 0 -14 80 -42
102 -35 17 5 18 8 7 16 -12 8 -12 9 0 6 8 -2 15 -11 17 -20 1 -10 -3 -15 -11
-12 -7 3 -16 1 -19 -5 -4 -6 4 -13 18 -17 13 -3 32 -14 42 -25 13 -14 21 -16
36 -8 11 6 18 7 15 2 -8 -12 1 -23 53 -63 25 -19 39 -26 31 -15 -8 11 1 4 20
-15 47 -50 107 -92 119 -85 6 4 7 11 4 17 -4 7 -2 8 5 4 9 -6 9 -11 1 -21 -8
-9 9 -32 69 -94 43 -44 81 -81 85 -81 3 0 3 8 0 18 -5 13 -4 14 4 3 6 -8 8
-20 5 -28 -3 -7 2 -16 11 -19 9 -3 16 -12 16 -19 0 -6 10 -20 23 -31 l22 -19
-20 25 -20 25 21 -18 c11 -9 24 -14 28 -10 4 4 4 0 0 -10 -3 -10 1 -28 11 -43
16 -25 17 -25 37 -7 21 18 21 18 4 -8 -15 -24 -15 -27 -1 -33 9 -3 20 -19 26
-35 6 -16 17 -28 26 -27 9 0 18 -6 20 -14 4 -13 3 -13 -6 0 -6 8 -11 10 -11 4
0 -19 86 -145 94 -137 4 4 4 1 1 -8 -3 -8 3 -24 13 -35 10 -10 16 -26 14 -33
-3 -8 0 -11 7 -7 7 5 9 1 5 -8 -4 -10 1 -18 11 -22 9 -4 14 -12 11 -19 -2 -7
4 -27 15 -44 10 -17 19 -38 19 -46 0 -8 4 -15 8 -15 5 0 14 -23 21 -50 8 -30
17 -47 23 -43 7 3 8 1 4 -5 -7 -11 6 -40 34 -77 14 -19 14 -19 -4 -5 -18 14
-19 13 -12 -5 16 -40 40 -120 38 -127 -1 -4 3 -20 9 -35 7 -15 13 -41 14 -58
4 -41 14 -104 22 -140 3 -16 6 -46 5 -65 -1 -23 1 -29 6 -18 4 10 7 -76 7
-191 0 -115 -3 -204 -7 -198 -7 11 -10 -15 -13 -113 0 -14 -6 -45 -12 -70 -17
-67 -38 -173 -37 -187 1 -7 -2 -10 -7 -7 -13 8 -11 -10 4 -25 8 -9 8 -12 0 -7
-18 10 -48 -77 -34 -102 16 -30 13 -39 -5 -16 -13 16 -15 16 -10 2 3 -10 2
-18 -3 -18 -12 0 -42 -81 -34 -93 4 -6 1 -7 -7 -2 -10 6 -12 4 -7 -8 3 -9 3
-17 -1 -19 -4 -2 -23 -35 -43 -75 -20 -40 -32 -70 -27 -67 4 3 5 -2 2 -10 -3
-9 -10 -14 -14 -11 -14 9 -21 -27 -8 -44 12 -14 11 -14 -4 -2 -13 10 -18 10
-18 1 0 -6 -9 -23 -20 -37 -11 -14 -17 -30 -13 -37 3 -6 3 -8 -1 -4 -7 6 -76
-85 -76 -99 0 -3 -8 -11 -17 -18 -15 -11 -15 -15 -4 -29 11 -13 16 -14 22 -4
5 7 9 8 9 2 0 -20 -13 -24 -29 -10 -15 13 -21 9 -61 -40 -25 -31 -61 -72 -80
-92 -19 -19 -25 -28 -14 -18 19 15 22 15 28 1 3 -10 2 -14 -5 -10 -13 9 -76
-40 -84 -64 -4 -13 -12 -18 -21 -14 -12 4 -14 0 -9 -23 3 -17 2 -22 -2 -12 -7
15 -10 15 -31 -3 -13 -10 -21 -23 -17 -29 4 -6 3 -10 -2 -9 -21 4 -34 -2 -27
-13 4 -6 3 -8 -3 -5 -6 4 -28 -10 -49 -31 -21 -20 -34 -30 -29 -22 7 13 -15
-4 -63 -48 -7 -6 -17 -12 -21 -12 -4 0 -17 -9 -29 -20 -12 -12 -22 -18 -22
-14 0 3 -21 -12 -47 -33 -57 -47 -79 -61 -69 -44 4 6 -16 -2 -44 -19 -28 -16
-56 -30 -63 -30 -8 0 -7 -4 3 -11 12 -8 10 -10 -10 -5 -24 5 -24 4 -6 -9 22
-16 10 -20 -13 -6 -17 11 -51 -3 -64 -25 -4 -8 -13 -14 -20 -14 -7 0 -6 4 3
10 25 16 5 11 -51 -13 -66 -29 -92 -40 -101 -42 -5 -2 -9 -3 -10 -4 -2 -2 -14
-4 -28 -7 -14 -2 -36 -8 -50 -13 -14 -5 -34 -12 -45 -16 -16 -5 -17 -8 -5 -15
8 -6 10 -10 4 -10 -5 0 -16 6 -22 12 -10 10 -14 10 -21 0 -4 -7 -15 -10 -25
-6 -10 4 -21 2 -25 -3 -3 -6 -31 -13 -61 -17 -30 -4 -89 -11 -130 -17 -172
-22 -287 -27 -383 -16 -55 6 -67 5 -61 -5 6 -10 5 -10 -7 -1 -8 6 -43 14 -79
18 -36 4 -74 9 -85 12 -11 2 -36 6 -55 8 -19 2 -49 8 -67 14 -17 5 -33 7 -36
5 -2 -2 -17 2 -33 11 -16 8 -36 15 -44 15 -25 0 -250 80 -283 101 -17 10 -34
16 -39 13 -4 -3 -15 2 -23 10 -9 8 -23 12 -32 9 -9 -4 -14 -2 -11 3 4 5 -17
22 -45 38 -39 22 -48 24 -37 10 14 -18 14 -18 -6 -1 -13 11 -28 15 -40 11 -19
-7 -19 -6 0 8 17 14 17 15 2 21 -11 4 -15 3 -10 -4 12 -20 -34 10 -49 32 -8
11 -22 22 -31 23 -8 1 -26 11 -38 22 -13 12 -39 31 -58 44 -19 14 -41 31 -48
40 -8 8 -11 10 -8 3 4 -6 1 -15 -5 -19 -8 -4 -9 -3 -5 5 10 16 -71 94 -90 87
-8 -3 -13 -2 -10 3 8 12 -120 144 -133 137 -5 -4 -12 -2 -16 4 -4 6 -11 7 -17
4 -7 -4 -8 -2 -4 5 4 6 12 9 17 6 12 -8 12 3 -1 18 -48 60 -73 86 -80 82 -4
-3 -11 2 -14 11 -4 10 -2 13 6 7 7 -4 -3 13 -23 37 -20 25 -53 73 -74 108 -27
43 -43 61 -53 57 -12 -4 -13 -3 -2 10 7 8 8 15 3 15 -5 0 -15 16 -22 35 -7 19
-17 35 -22 35 -5 0 -9 7 -9 15 0 8 -4 15 -10 15 -5 0 -9 3 -9 8 5 28 -2 35
-17 16 -15 -18 -15 -18 -4 3 8 17 6 32 -6 62 -9 23 -20 39 -24 36 -4 -2 -10
13 -14 36 -4 26 -10 38 -18 33 -8 -5 -9 -2 -5 9 3 9 -7 47 -24 84 -28 63 -38
99 -40 146 0 10 -5 15 -11 11 -7 -5 -9 -2 -6 8 4 8 -2 50 -13 94 -10 43 -18
93 -19 110 0 17 -3 34 -7 38 -11 10 -14 70 -16 256 -2 186 4 350 13 350 5 0
26 108 35 180 2 14 22 80 44 148 44 133 45 136 33 128 -4 -2 -8 7 -9 22 0 15
1 19 4 10 7 -27 19 -22 33 15 7 17 19 46 26 64 8 17 14 36 14 42 0 6 4 11 8
11 13 0 33 50 26 62 -4 6 -2 8 4 4 6 -3 14 4 17 16 4 13 13 30 20 38 8 8 15
22 17 30 2 8 6 17 9 20 21 16 96 141 88 146 -6 4 -6 11 1 19 5 7 9 23 8 35 -2
13 3 25 12 27 13 4 13 3 0 -7 -12 -9 -12 -13 -2 -17 10 -4 10 -10 -3 -29 -8
-13 -12 -24 -8 -23 12 0 56 60 56 75 0 7 4 11 8 9 4 -3 18 10 32 28 25 32 46
56 101 115 23 25 27 35 18 44 -7 7 -12 17 -12 22 0 6 5 3 11 -6 12 -22 33 -24
25 -2 -3 9 -2 12 5 9 5 -4 21 5 34 19 13 14 29 26 35 26 5 0 10 4 10 9 0 5 22
25 50 45 33 24 48 41 44 51 -4 8 -1 15 5 15 6 0 11 -5 11 -11 0 -6 17 2 38 18
20 16 60 44 89 63 28 19 49 38 46 44 -3 5 -1 6 5 2 12 -7 57 18 80 44 8 8 11
9 7 3 -4 -9 -1 -11 9 -7 9 3 13 11 9 17 -3 6 -1 7 5 3 7 -4 38 9 71 28 33 19
62 32 65 29 3 -4 6 -1 6 5 0 7 3 11 8 10 15 -3 62 14 57 22 -3 4 1 7 8 7 28
-3 97 24 91 35 -5 8 -1 9 11 5 9 -4 24 -2 31 4 8 6 14 9 14 5 0 -3 15 0 33 7
17 8 62 20 100 27 38 8 62 17 55 21 -7 4 7 5 30 2 27 -4 42 -2 42 5 0 7 12 9
33 6 20 -4 27 -2 19 3 -8 6 20 10 75 12 48 1 90 5 93 8 6 6 394 -4 490 -13z
m77 10 c-3 -3 -12 -4 -19 -1 -8 3 -5 6 6 6 11 1 17 -2 13 -5z m-1470 -26 c-3
-8 -6 -5 -6 6 -1 11 2 17 5 13 3 -3 4 -12 1 -19z m-30 -10 c-3 -8 -6 -5 -6 6
-1 11 2 17 5 13 3 -3 4 -12 1 -19z m580 16 c-3 -3 -12 -4 -19 -1 -8 3 -5 6 6
6 11 1 17 -2 13 -5z m1060 -10 c-3 -3 -12 -4 -19 -1 -8 3 -5 6 6 6 11 1 17 -2
13 -5z m179 -53 c-4 -5 0 -12 6 -14 8 -3 6 -6 -4 -6 -18 -1 -24 10 -11 22 9
10 15 8 9 -2z m-1439 -27 c-3 -3 -12 -4 -19 -1 -8 3 -5 6 6 6 11 1 17 -2 13
-5z m-437 -44 c0 -5 -5 -10 -11 -10 -5 0 -7 5 -4 10 3 6 8 10 11 10 2 0 4 -4
4 -10z m225 -10 c13 -6 15 -9 5 -9 -8 0 -22 4 -30 9 -18 12 -2 12 25 0z m1872
-6 c-3 -3 -12 -4 -19 -1 -8 3 -5 6 6 6 11 1 17 -2 13 -5z m-2313 -49 c-4 -8
-8 -15 -10 -15 -2 0 -4 7 -4 15 0 8 4 15 10 15 5 0 7 -7 4 -15z m206 5 c0 -5
-5 -10 -11 -10 -5 0 -7 5 -4 10 3 6 8 10 11 10 2 0 4 -4 4 -10z m64 -55 c-4
-8 -11 -12 -16 -9 -6 4 -5 10 3 15 19 12 19 11 13 -6z m-74 -55 c8 -5 13 -10
10 -11 -3 0 -12 -2 -21 -4 -9 -1 -16 4 -16 11 0 16 6 17 27 4z m2530 -74 c0
-2 -8 -10 -17 -17 -16 -13 -17 -12 -4 4 13 16 21 21 21 13z m-2774 -99 c3 -19
-12 -32 -20 -18 -4 5 -1 13 5 17 8 4 7 9 -2 16 -12 8 -12 9 0 6 8 -2 15 -12
17 -21z m2940 -69 c4 -7 3 -8 -4 -4 -7 4 -12 2 -12 -5 0 -7 -3 -10 -6 -6 -6 5
3 27 11 27 2 0 7 -5 11 -12z m-3219 -40 c-3 -7 -5 -2 -5 12 0 14 2 19 5 13 2
-7 2 -19 0 -25z m3390 -15 c-3 -10 -5 -4 -5 12 0 17 2 24 5 18 2 -7 2 -21 0
-30z m-140 21 c-3 -3 -12 -4 -19 -1 -8 3 -5 6 6 6 11 1 17 -2 13 -5z m-3322
-84 c-3 -5 -14 -10 -23 -9 -14 0 -13 2 3 9 27 11 27 11 20 0z m3810 -300 c3
-5 2 -10 -4 -10 -5 0 -13 5 -16 10 -3 6 -2 10 4 10 5 0 13 -4 16 -10z m-4126
-144 c0 -7 -2 -6 -6 2 -2 6 -9 10 -14 6 -5 -3 -9 2 -9 12 0 13 3 14 15 4 8 -7
15 -18 14 -24z m4049 -102 c-4 -3 -12 5 -18 18 -12 22 -12 22 6 6 10 -10 15
-20 12 -24z m-3905 11 c-3 -9 -8 -14 -10 -11 -3 3 -2 9 2 15 9 16 15 13 8 -4z
m-36 -47 c-3 -7 -5 -2 -5 12 0 14 2 19 5 13 2 -7 2 -19 0 -25z m4263 -382 c0
-3 -4 -8 -10 -11 -5 -3 -10 -1 -10 4 0 6 5 11 10 11 6 0 10 -2 10 -4z m-146
-22 c3 -8 2 -12 -4 -9 -6 3 -10 10 -10 16 0 14 7 11 14 -7z m-4419 -34 c-3 -5
-14 -10 -23 -10 -15 0 -15 2 -2 10 20 13 33 13 25 0z m4638 -95 c-3 -9 -8 -14
-10 -11 -3 3 -2 9 2 15 9 16 15 13 8 -4z m-4693 -325 c0 -5 -2 -10 -4 -10 -3
0 -8 5 -11 10 -3 6 -1 10 4 10 6 0 11 -4 11 -10z m-30 -21 c0 -5 5 -7 10 -4 6
3 10 1 10 -4 0 -16 -16 -13 -30 4 -9 10 -9 15 -1 15 6 0 11 -5 11 -11z m101
-126 c-12 -20 -14 -14 -5 12 4 9 9 14 11 11 3 -2 0 -13 -6 -23z m9 -33 c-6
-11 -13 -20 -16 -20 -2 0 0 9 6 20 6 11 13 20 16 20 2 0 0 -9 -6 -20z m131
-151 c-5 -13 -10 -19 -10 -12 -1 15 10 45 15 40 3 -2 0 -15 -5 -28z m4256 -41
c-3 -8 -6 -5 -6 6 -1 11 2 17 5 13 3 -3 4 -12 1 -19z m-4467 -23 c0 -5 -5 -3
-10 5 -5 8 -10 20 -10 25 0 6 5 3 10 -5 5 -8 10 -19 10 -25z m140 -135 c0 -5
-5 -10 -11 -10 -5 0 -7 5 -4 10 3 6 8 10 11 10 2 0 4 -4 4 -10z m-7 -45 c-3
-9 -8 -14 -10 -11 -3 3 -2 9 2 15 9 16 15 13 8 -4z m4258 -62 c-12 -20 -14
-14 -5 12 4 9 9 14 11 11 3 -2 0 -13 -6 -23z m-3 -48 c-3 -3 -9 2 -12 12 -6
14 -5 15 5 6 7 -7 10 -15 7 -18z m221 -55 c0 -10 -3 -8 -9 5 -12 27 -12 43 0
25 5 -8 9 -22 9 -30z m-4517 -4 c3 -16 1 -23 -7 -19 -7 2 -11 13 -8 24 7 25
10 24 15 -5z m4437 -45 c7 -5 9 -11 5 -14 -5 -3 -15 1 -22 9 -14 16 -5 18 17
5z m-4125 -107 c3 -8 2 -12 -4 -9 -6 3 -10 10 -10 16 0 14 7 11 14 -7z m4046
0 c0 11 3 17 6 13 4 -3 4 -14 0 -23 -5 -13 -9 -14 -21 -4 -8 7 -15 17 -15 23
0 6 7 2 15 -9 14 -19 14 -19 15 0z m-165 -34 c-9 -16 -18 -30 -21 -30 -2 0 2
14 11 30 9 17 18 30 21 30 2 0 -2 -13 -11 -30z m12 -42 c-3 -8 -6 -5 -6 6 -1
11 2 17 5 13 3 -3 4 -12 1 -19z m-3817 -86 c0 -15 -2 -15 -10 -2 -13 20 -13
33 0 25 6 -3 10 -14 10 -23z m34 -107 c3 -8 1 -15 -4 -15 -6 0 -10 7 -10 15 0
8 2 15 4 15 2 0 6 -7 10 -15z m3492 -205 c0 -10 -2 -17 -5 -15 -2 3 -10 0 -18
-6 -9 -9 -13 -8 -13 0 0 6 5 11 11 11 5 0 8 4 5 9 -4 5 0 12 6 14 7 3 13 6 13
6 1 1 1 -8 1 -19z m-3531 -40 c-27 -12 -43 -12 -25 0 8 5 22 9 30 9 10 0 8 -3
-5 -9z m82 -6 c-3 -3 -12 -4 -19 -1 -8 3 -5 6 6 6 11 1 17 -2 13 -5z m277 -93
c3 -5 -2 -15 -12 -22 -15 -13 -16 -12 -4 3 10 13 10 17 0 21 -9 4 -9 6 -1 6 6
1 14 -3 17 -8z m3213 -43 c-3 -8 -6 -5 -6 6 -1 11 2 17 5 13 3 -3 4 -12 1 -19z
m-3060 -113 c0 -8 -4 -12 -9 -9 -5 3 -6 10 -3 15 9 13 12 11 12 -6z m2800
-147 c-3 -7 -5 -2 -5 12 0 14 2 19 5 13 2 -7 2 -19 0 -25z m-307 -12 c0 -3 -4
-8 -10 -11 -5 -3 -10 -1 -10 4 0 6 5 11 10 11 6 0 10 -2 10 -4z m30 -36 c8 -5
11 -10 5 -10 -5 0 -17 5 -25 10 -8 5 -10 10 -5 10 6 0 17 -5 25 -10z m-2175
-40 c3 -6 -1 -7 -9 -4 -18 7 -21 14 -7 14 6 0 13 -4 16 -10z m2015 0 c0 -5 -5
-10 -11 -10 -5 0 -7 5 -4 10 3 6 8 10 11 10 2 0 4 -4 4 -10z m-1945 -30 c-3
-5 -12 -10 -18 -10 -7 0 -6 4 3 10 19 12 23 12 15 0z m132 -56 c-3 -3 -12 -4
-19 -1 -8 3 -5 6 6 6 11 1 17 -2 13 -5z m-37 -8 c0 -3 -4 -8 -10 -11 -5 -3
-10 -1 -10 4 0 6 5 11 10 11 6 0 10 -2 10 -4z m-216 -112 c3 -8 2 -12 -4 -9
-6 3 -10 10 -10 16 0 14 7 11 14 -7z m491 6 c-3 -5 -12 -10 -18 -10 -7 0 -6 4
3 10 19 12 23 12 15 0z m548 -57 c-7 -2 -19 -2 -25 0 -7 3 -2 5 12 5 14 0 19
-2 13 -5z m857 3 c0 -3 -4 -8 -10 -11 -5 -3 -10 -1 -10 4 0 6 5 11 10 11 6 0
10 -2 10 -4z m-1380 -40 c0 -2 -7 -7 -16 -10 -8 -3 -12 -2 -9 4 6 10 25 14 25
6z m1237 -22 c-3 -3 -12 -4 -19 -1 -8 3 -5 6 6 6 11 1 17 -2 13 -5z m-1057
-144 c0 -5 -5 -10 -11 -10 -5 0 -7 5 -4 10 3 6 8 10 11 10 2 0 4 -4 4 -10z"/>
<path d="M4216 5343 c-2 -3 -35 -6 -72 -8 -38 -2 -82 -6 -99 -10 -16 -3 -46
-8 -65 -10 -64 -9 -72 -11 -80 -24 -6 -11 -8 -11 -12 0 -4 11 -10 10 -32 -4
-15 -10 -34 -16 -41 -13 -22 8 -128 -26 -113 -36 9 -6 5 -7 -11 -3 -27 8 -126
-29 -191 -71 -22 -14 -23 -15 -6 0 11 9 17 16 14 16 -13 0 -114 -53 -144 -76
-17 -13 -34 -21 -37 -18 -7 7 -117 -65 -117 -77 0 -6 -5 -7 -10 -4 -6 4 -27
-5 -46 -20 -28 -21 -33 -30 -23 -37 10 -6 7 -7 -8 -3 -26 7 -32 -12 -8 -21 19
-8 19 -21 0 -21 -8 0 -12 4 -9 9 3 4 -1 11 -10 14 -19 7 -68 -25 -59 -40 3 -6
2 -8 -2 -3 -5 4 -17 0 -27 -9 -17 -16 -17 -18 0 -31 15 -13 15 -13 -6 -3 -20
10 -29 5 -88 -51 -47 -46 -61 -65 -52 -71 9 -6 6 -7 -8 -4 -16 5 -28 -4 -54
-38 -18 -25 -39 -47 -46 -50 -8 -3 -14 -15 -14 -26 0 -11 -3 -19 -7 -18 -10 3
-63 -43 -63 -54 0 -5 8 -4 18 1 14 7 18 6 18 -9 0 -10 -5 -16 -11 -12 -23 14
-34 8 -65 -34 -17 -24 -29 -44 -25 -44 3 0 -4 -10 -16 -22 -12 -13 -27 -37
-35 -54 -7 -17 -20 -36 -28 -43 -8 -7 -18 -26 -21 -42 -4 -16 -10 -29 -15 -29
-8 0 -21 -29 -26 -59 -2 -8 -8 -17 -15 -21 -6 -5 -8 -13 -4 -20 5 -8 4 -11 -2
-7 -6 4 -13 0 -17 -8 -3 -8 -1 -17 4 -20 6 -4 10 -12 10 -18 0 -8 -3 -7 -9 2
-7 11 -11 9 -21 -9 -8 -15 -8 -20 -1 -16 6 4 11 2 11 -3 0 -6 -7 -11 -15 -11
-13 0 -20 -13 -12 -23 1 -2 -3 -10 -9 -18 -6 -8 -10 -31 -8 -52 2 -23 -1 -35
-7 -32 -5 4 -7 16 -5 28 3 12 -1 8 -9 -10 -11 -24 -12 -39 -5 -59 9 -22 8 -25
-2 -16 -11 9 -17 -3 -31 -56 -10 -37 -22 -80 -28 -97 -6 -16 -13 -64 -16 -105
-3 -41 -11 -81 -17 -89 -15 -19 -14 -534 1 -553 6 -7 11 -20 11 -28 1 -8 3
-31 6 -50 3 -19 8 -53 11 -75 3 -21 11 -45 17 -52 5 -7 8 -20 4 -28 -3 -8 -2
-15 3 -15 5 0 9 -6 8 -12 -1 -34 4 -59 11 -55 4 3 7 -8 8 -23 1 -38 85 -241
96 -234 4 3 8 0 8 -6 0 -6 4 -8 10 -5 7 4 7 -2 0 -19 -6 -17 -6 -27 2 -32 7
-5 8 -3 3 6 -5 8 -4 11 3 6 6 -4 9 -13 6 -21 -7 -16 26 -76 37 -69 4 2 11 -1
15 -7 4 -8 3 -9 -4 -5 -7 4 -12 2 -12 -4 0 -6 7 -13 15 -16 8 -4 15 -14 15
-24 0 -19 105 -183 121 -188 5 -2 9 -8 9 -13 0 -14 68 -80 73 -71 2 4 2 1 0
-7 -5 -18 27 -52 40 -44 6 3 7 1 3 -5 -12 -20 256 -277 280 -268 7 3 11 0 8
-7 -2 -7 10 -21 28 -31 18 -10 43 -28 55 -38 15 -14 29 -18 45 -13 15 4 19 3
10 -3 -11 -7 -8 -14 14 -31 15 -12 34 -19 41 -17 7 3 12 1 10 -4 -2 -11 16
-22 128 -78 118 -58 178 -85 193 -85 6 0 12 -4 12 -9 0 -4 3 -7 8 -6 4 1 25
-4 47 -10 22 -6 62 -13 88 -15 26 -3 51 -8 55 -12 4 -4 -4 -4 -18 0 -18 5 -22
4 -14 -4 12 -13 144 -42 156 -35 4 3 8 0 8 -6 0 -8 9 -10 25 -6 14 4 25 2 25
-3 0 -5 20 -8 44 -7 24 1 42 -2 40 -5 -4 -7 3 -8 96 -7 30 0 62 -1 70 -2 123
-9 284 -7 338 5 36 7 72 11 80 7 8 -3 13 -1 10 4 -4 5 11 8 33 8 21 -1 39 3
39 8 0 6 7 7 16 4 21 -8 105 13 128 33 11 9 16 10 12 4 -9 -17 -3 -16 39 1 19
8 35 13 35 10 0 -3 10 0 21 7 17 9 19 13 8 20 -9 6 -4 7 16 4 37 -7 121 19
117 35 -1 6 2 9 7 6 15 -10 92 24 84 37 -4 6 0 8 10 4 20 -7 138 53 130 67 -4
5 1 7 9 4 8 -4 27 4 42 17 16 13 33 26 39 29 9 5 9 8 -1 12 -6 3 -10 10 -6 15
3 5 12 2 20 -6 18 -18 40 -10 25 9 -7 8 -5 12 9 12 10 0 16 -5 13 -11 -6 -9
22 12 55 43 7 6 23 17 35 24 42 21 127 100 120 111 -3 5 -1 7 4 4 13 -8 46 27
36 38 -5 4 -3 6 2 2 16 -9 140 109 124 118 -7 5 -10 4 -5 -3 3 -6 2 -13 -3
-16 -5 -4 -8 2 -6 11 1 10 9 17 17 15 8 -1 27 11 43 28 16 16 26 30 22 30 -3
0 5 11 19 25 14 14 22 30 18 37 -4 7 -3 8 4 4 13 -8 46 39 37 53 -3 6 0 9 7 6
11 -4 40 31 46 58 1 4 11 16 22 27 11 11 29 40 41 65 12 25 25 47 29 50 5 3 6
15 3 28 -3 15 -2 18 5 9 6 -9 18 7 42 60 18 40 33 81 32 91 0 9 3 15 8 12 4
-3 11 2 14 11 9 23 7 31 -4 14 -7 -12 -9 -10 -8 7 2 14 7 19 17 15 9 -3 12 -1
7 6 -3 6 -2 13 4 17 11 7 50 132 50 161 0 10 7 32 15 48 8 15 15 39 15 53 0
13 4 32 9 42 11 20 25 117 26 176 0 22 4 43 9 47 18 12 11 453 -8 508 -3 8 -7
31 -10 50 -13 81 -19 106 -28 117 -5 7 -7 16 -4 21 7 12 -44 196 -55 200 -4 2
-5 10 -2 18 3 8 0 14 -6 14 -6 0 -10 3 -9 8 3 11 -21 76 -48 129 -14 26 -23
40 -20 30 4 -11 2 -15 -4 -12 -6 4 -9 18 -8 33 2 30 -17 72 -32 72 -6 0 -10 8
-10 18 0 9 -9 28 -20 42 -11 14 -20 30 -20 37 0 6 -6 18 -13 25 -6 7 -23 30
-37 50 -14 21 -29 38 -33 38 -5 0 -5 -6 -1 -12 5 -9 2 -9 -9 1 -18 15 -23 26
-7 16 6 -3 10 1 10 10 0 9 -5 13 -11 10 -6 -4 -9 -1 -7 6 1 8 -24 47 -57 88
-33 41 -67 83 -77 94 -13 17 -19 19 -30 9 -19 -15 -32 -3 -17 15 9 10 4 21
-22 48 -34 34 -57 47 -43 23 4 -8 3 -10 -2 -5 -5 5 -10 13 -10 18 -1 5 -2 13
-3 18 0 5 -37 38 -81 73 -45 35 -98 78 -118 95 -20 18 -43 33 -49 33 -7 0 -13
4 -13 10 0 5 -6 7 -14 4 -8 -3 -17 0 -21 5 -3 6 -11 9 -16 6 -5 -3 -6 1 -2 11
5 13 2 15 -18 10 -13 -3 -18 -3 -11 0 6 3 9 10 6 15 -3 6 -12 5 -22 -3 -13
-11 -15 -10 -9 4 4 12 2 15 -9 11 -9 -3 -14 0 -12 8 2 9 -5 13 -20 12 -13 -2
-21 1 -17 7 3 5 -4 14 -15 20 -19 10 -24 7 -21 -13 1 -5 -3 -6 -9 -2 -6 3 -8
10 -5 15 3 4 -7 16 -21 25 -15 9 -23 12 -20 6 4 -6 2 -11 -3 -11 -6 0 -11 7
-11 15 0 8 -3 15 -7 16 -37 4 -70 12 -82 20 -12 7 -10 8 9 3 39 -10 19 3 -29
20 -25 8 -49 12 -54 9 -6 -4 -7 -1 -2 7 6 10 4 12 -8 7 -9 -3 -17 -1 -19 4 -2
6 -16 12 -31 12 -15 1 -27 5 -27 10 0 4 -3 6 -7 6 -24 -4 -63 2 -59 9 2 4 -7
9 -20 10 -14 1 -35 7 -47 13 -11 7 -35 12 -51 11 -17 0 -33 3 -36 8 -6 10 -92
22 -152 22 -22 0 -35 4 -32 10 4 5 -15 8 -48 7 -29 -1 -71 1 -92 6 -31 6 -37
5 -31 -5 6 -9 4 -11 -5 -5 -13 8 -177 15 -184 8z m621 -79 c-3 -3 -12 -4 -19
-1 -8 3 -5 6 6 6 11 1 17 -2 13 -5z m-1050 -40 c-3 -3 -12 -4 -19 -1 -8 3 -5
6 6 6 11 1 17 -2 13 -5z m811 -16 c20 0 43 -5 50 -11 10 -8 16 -7 23 4 8 10 8
8 4 -10 -4 -13 -3 -21 2 -18 15 9 5 -112 -11 -135 -9 -13 -12 -28 -7 -37 4 -9
6 -27 5 -41 -10 -98 -12 -104 -30 -110 -10 -4 -24 -2 -30 4 -13 14 -17 86 -4
86 20 0 10 49 -11 55 -27 9 -33 1 -35 -43 -3 -63 -16 -102 -35 -102 -6 0 -8 4
-5 9 3 5 -3 11 -14 14 -19 5 -20 18 -6 65 3 9 10 64 15 122 7 78 7 108 -2 119
-10 12 -9 14 5 9 11 -5 18 0 21 14 3 12 10 17 17 13 6 -4 28 -7 48 -7z m-485
-19 c5 -19 -15 -44 -26 -32 -4 3 -7 2 -7 -4 0 -6 -11 -9 -24 -8 -21 3 -24 -1
-24 -36 -1 -38 5 -44 36 -40 7 1 26 -3 41 -10 l28 -12 -20 -24 c-14 -15 -28
-21 -44 -19 -19 4 -23 0 -23 -20 0 -16 6 -24 18 -25 16 -1 16 -2 -1 -6 -35 -9
-10 -28 39 -29 45 -1 49 -3 52 -27 3 -23 0 -27 -22 -27 -14 0 -28 -5 -31 -10
-4 -6 -15 -8 -26 -5 -12 4 -19 2 -19 -7 0 -10 -3 -9 -10 2 -5 8 -10 10 -10 3
0 -6 -8 -9 -18 -6 -14 3 -19 15 -20 44 -1 22 -7 49 -12 59 -6 11 -8 32 -4 47
4 23 3 25 -6 13 -9 -12 -11 -6 -7 28 3 24 2 56 -3 70 -21 69 -21 82 0 82 12 0
19 3 17 8 -3 4 23 8 58 9 54 1 64 -2 68 -18z m594 -51 c-3 -7 -5 -2 -5 12 0
14 2 19 5 13 2 -7 2 -19 0 -25z m-767 -68 c0 -5 -4 -10 -10 -10 -5 0 -10 5
-10 10 0 6 5 10 10 10 6 0 10 -4 10 -10z m-357 -30 c10 -12 9 -12 -6 0 -17 12
-18 11 -11 -16 4 -16 18 -65 31 -109 29 -96 31 -106 32 -125 1 -12 3 -12 10
-2 5 9 7 -2 5 -28 -3 -49 -2 -47 -35 -55 -23 -6 -31 1 -73 58 -36 49 -52 64
-69 62 -17 -2 -22 3 -23 24 -2 25 -1 26 9 4 5 -13 14 -23 19 -23 10 0 11 17 1
22 -12 5 -83 100 -83 110 0 5 -4 6 -10 3 -6 -3 -7 1 -4 10 4 9 9 13 12 11 3
-3 12 0 20 6 11 10 17 9 27 -5 6 -9 15 -14 18 -10 4 3 7 -2 7 -13 1 -18 2 -17
19 3 15 18 20 20 25 8 3 -8 0 -14 -7 -12 -7 1 -11 -6 -11 -16 2 -23 46 -87 56
-81 12 7 10 44 -2 44 -5 0 -10 7 -10 15 0 18 -17 20 -22 3 -3 -7 -7 -5 -11 6
-4 9 -3 15 1 12 4 -2 14 -1 21 3 10 7 9 16 -3 46 -20 47 -20 44 7 54 28 11 44
8 60 -9z m1497 5 c0 -2 -9 -3 -19 -2 -11 0 -18 5 -15 9 4 6 34 0 34 -7z m100
5 c8 -5 11 -10 5 -10 -5 0 -17 5 -25 10 -8 5 -10 10 -5 10 6 0 17 -5 25 -10z
m-1906 -15 c-7 -16 -24 -21 -24 -6 0 8 7 13 27 20 1 1 0 -6 -3 -14z m1217 -8
c-10 -9 -11 -8 -5 6 3 10 9 15 12 12 3 -3 0 -11 -7 -18z m-1111 3 c0 -5 -2
-10 -4 -10 -3 0 -8 5 -11 10 -3 6 -1 10 4 10 6 0 11 -4 11 -10z m1810 -5 c17
-9 30 -19 31 -23 0 -4 3 -19 5 -35 6 -37 -13 -71 -34 -61 -9 3 -25 6 -35 6
-16 -1 -16 1 -2 15 18 17 16 54 -2 60 -6 2 -20 -8 -29 -22 -14 -22 -15 -31 -6
-46 7 -10 12 -26 12 -34 0 -10 5 -13 11 -9 7 4 10 1 7 -7 -3 -8 -1 -29 4 -46
7 -25 5 -39 -9 -60 -23 -35 -63 -73 -77 -73 -6 0 -4 5 4 10 13 8 13 10 -2 10
-10 0 -22 -9 -28 -20 -6 -11 -15 -20 -21 -20 -6 0 -3 7 5 16 20 19 10 37 -16
31 -14 -4 -18 -1 -14 8 2 7 -1 19 -9 25 -8 6 -11 18 -9 25 3 7 0 24 -7 37 -12
22 -11 22 6 8 10 -8 16 -10 13 -5 -11 18 17 44 41 38 23 -6 27 -40 6 -55 -6
-5 -4 -14 7 -24 13 -14 20 -15 31 -5 25 20 26 48 1 101 -14 31 -22 63 -20 83
2 18 0 41 -6 52 -8 19 -8 19 5 2 14 -16 15 -16 31 8 19 29 61 33 106 10z
m-483 -17 c-3 -8 -6 -5 -6 6 -1 11 2 17 5 13 3 -3 4 -12 1 -19z m-550 -22 c0
-8 -6 -12 -15 -9 -11 5 -11 7 0 14 7 5 13 9 14 9 0 0 1 -6 1 -14z m1122 -26
c0 -10 -3 -8 -9 5 -12 27 -12 43 0 25 5 -8 9 -22 9 -30z m257 -36 c1 -9 0 -13
-4 -10 -3 4 -7 14 -8 22 -1 9 0 13 4 10 3 -4 7 -14 8 -22z m-2135 -11 c13 -16
12 -17 -3 -4 -17 13 -22 21 -14 21 2 0 10 -8 17 -17z m1306 -5 c-3 -8 -6 -5
-6 6 -1 11 2 17 5 13 3 -3 4 -12 1 -19z m-1047 -36 c0 -15 -2 -15 -10 -2 -13
20 -13 33 0 25 6 -3 10 -14 10 -23z m1037 -4 c-3 -8 -6 -5 -6 6 -1 11 2 17 5
13 3 -3 4 -12 1 -19z m-1024 -33 c-3 -9 -8 -14 -10 -11 -3 3 -2 9 2 15 9 16
15 13 8 -4z m927 0 c0 -8 -2 -15 -4 -15 -2 0 -6 7 -10 15 -3 8 -1 15 4 15 6 0
10 -7 10 -15z m1140 -57 c0 -6 -6 -5 -15 2 -8 7 -15 14 -15 16 0 2 7 1 15 -2
8 -4 15 -11 15 -16z m-2785 -7 c0 -8 -7 -16 -15 -18 -13 -4 -13 -3 0 6 8 5 11
13 7 17 -3 4 -13 1 -22 -6 -15 -12 -22 0 -8 14 11 11 38 2 38 -13z m2125 15
c0 -2 -7 -7 -16 -10 -8 -3 -12 -2 -9 4 6 10 25 14 25 6z m-1555 -36 c-3 -5
-12 -10 -18 -10 -7 0 -6 4 3 10 19 12 23 12 15 0z m2101 -12 c22 -2 1 -37 -77
-123 -47 -52 -78 -94 -75 -102 3 -8 2 -12 -3 -9 -5 3 -21 -4 -35 -15 -15 -12
-33 -18 -41 -15 -8 3 -15 1 -15 -3 0 -5 4 -11 9 -13 4 -1 -1 -12 -12 -23 l-20
-20 10 20 c5 11 8 32 7 47 0 15 7 35 17 44 10 9 16 21 13 26 -3 4 0 7 8 6 7
-2 12 3 10 10 -1 8 2 11 7 8 13 -8 34 21 25 36 -4 7 -4 10 1 6 11 -11 36 12
28 26 -3 6 -3 8 2 4 8 -8 75 61 74 77 0 6 -6 1 -14 -9 -8 -11 -15 -15 -15 -10
0 17 22 33 38 27 11 -5 13 -3 7 7 -6 10 -3 11 16 6 13 -4 29 -8 35 -8z m-2569
-5 c-10 -10 34 -53 47 -46 6 3 8 3 4 -2 -4 -4 -3 -16 3 -27 8 -16 13 -17 25
-7 12 10 17 10 27 0 9 -10 8 -11 -5 -6 -28 11 -22 -18 9 -46 14 -13 23 -18 18
-10 -5 10 -4 12 4 7 6 -4 9 -10 7 -14 -2 -4 13 -27 35 -52 43 -48 47 -61 24
-80 -8 -7 -15 -9 -15 -5 0 4 -6 2 -14 -4 -11 -9 -14 -9 -12 2 0 7 -14 30 -32
51 -29 33 -35 36 -50 24 -15 -12 -16 -11 -3 5 12 15 12 20 1 30 -10 10 -11 9
-5 -3 4 -8 -11 3 -33 24 -23 22 -40 42 -37 44 2 2 -7 19 -20 37 -31 39 -31 42
-2 66 21 18 38 26 24 12z m1588 -23 c86 -20 239 -66 260 -79 6 -3 19 -4 30 -3
15 2 17 1 6 -6 -9 -7 1 -13 38 -23 28 -7 48 -15 46 -17 -8 -8 69 -51 78 -45 5
3 3 10 -4 15 -11 8 -11 9 1 5 8 -2 14 -10 13 -18 -2 -8 21 -30 50 -49 28 -19
68 -47 87 -62 20 -15 46 -25 60 -24 31 3 54 -12 41 -28 -15 -18 -13 -24 34
-67 24 -23 70 -74 101 -115 42 -55 60 -71 67 -62 6 9 7 6 4 -9 -3 -14 3 -31
18 -47 13 -14 21 -27 19 -29 -3 -2 2 -10 11 -17 8 -7 15 -16 15 -21 0 -4 11
-20 25 -35 13 -14 22 -30 19 -35 -2 -5 3 -23 13 -41 9 -18 18 -37 19 -43 1 -5
16 -44 34 -85 17 -41 31 -77 30 -80 -2 -19 36 -138 43 -133 5 3 6 -3 3 -13 -3
-11 -1 -55 5 -99 15 -114 11 -360 -7 -419 -5 -13 -3 -16 7 -11 9 6 11 3 6 -9
-4 -10 -7 -30 -7 -44 0 -21 -2 -24 -10 -12 -8 12 -10 9 -10 -11 0 -15 -7 -46
-15 -69 -8 -24 -13 -45 -11 -48 3 -2 -2 -18 -10 -34 -8 -16 -12 -33 -9 -38 3
-6 1 -10 -5 -10 -6 0 -8 -4 -5 -10 3 -5 2 -10 -4 -10 -6 0 -7 -7 -4 -17 5 -11
3 -14 -6 -8 -10 6 -11 2 -6 -15 4 -14 3 -20 -3 -16 -5 3 -13 -1 -16 -10 -9
-24 -7 -36 6 -28 7 4 8 3 4 -5 -4 -6 -11 -9 -15 -7 -4 3 -18 -13 -30 -34 -12
-22 -19 -40 -14 -40 4 0 3 -4 -3 -8 -19 -13 -54 -79 -46 -87 4 -5 1 -4 -7 0
-11 6 -13 4 -7 -11 4 -10 4 -15 0 -12 -7 8 -74 -74 -74 -91 0 -6 -11 -18 -25
-27 -14 -9 -25 -21 -25 -27 0 -5 -12 -20 -26 -33 -14 -13 -23 -28 -19 -33 3
-5 0 -13 -6 -17 -8 -4 -9 -3 -5 4 14 23 -6 12 -35 -19 -16 -17 -26 -36 -22
-42 4 -6 1 -7 -7 -2 -7 4 -15 3 -19 -2 -3 -5 -36 -31 -74 -57 -38 -27 -64 -52
-60 -58 3 -6 1 -8 -5 -5 -15 10 -44 -3 -39 -17 3 -6 -3 -18 -11 -26 -14 -13
-15 -12 -9 3 6 15 4 16 -16 6 -29 -15 -37 -24 -14 -16 11 4 16 3 12 -4 -4 -6
-14 -8 -22 -5 -19 8 -105 -43 -96 -57 4 -7 0 -8 -11 -4 -20 8 -168 -51 -160
-64 3 -5 -1 -9 -8 -9 -9 0 -9 -3 2 -10 17 -11 9 -13 -15 -4 -13 5 -14 9 -4 15
8 4 11 11 7 14 -3 4 -16 -4 -28 -17 -13 -13 -20 -17 -16 -11 9 15 4 16 -54 2
-99 -23 -131 -29 -240 -40 -125 -12 -239 -11 -325 5 -16 3 -48 8 -70 11 -50 7
-66 10 -86 19 -9 4 -27 8 -40 10 -13 1 -34 8 -47 15 -13 7 -30 10 -37 7 -8 -3
-21 1 -29 9 -8 8 -22 15 -31 15 -8 0 -27 7 -40 16 -13 9 -30 12 -36 8 -7 -4
-9 -3 -6 3 4 6 0 14 -9 17 -10 4 -13 2 -9 -7 4 -6 0 -4 -8 6 -8 9 -17 17 -20
17 -3 0 -28 13 -55 29 -32 19 -54 26 -64 20 -10 -5 -15 -4 -15 6 0 8 5 11 11
8 6 -4 7 -2 3 3 -5 5 -11 7 -14 6 -3 -2 -17 8 -33 23 -15 14 -36 27 -47 28
-12 0 -19 6 -16 13 2 7 -5 15 -16 19 -12 3 -21 11 -21 17 0 5 -6 8 -14 5 -8
-3 -20 2 -28 11 -12 16 -11 16 7 2 19 -14 19 -14 6 3 -8 10 -20 16 -27 13 -9
-3 -11 0 -7 11 5 12 2 15 -10 10 -10 -4 -16 -2 -14 5 1 7 -5 12 -13 13 -8 1
-14 6 -13 12 1 6 -15 27 -36 46 -22 20 -37 37 -35 39 2 3 -10 17 -26 33 -17
16 -30 34 -30 41 0 6 -8 18 -17 25 -15 11 -16 11 -5 -1 6 -8 12 -21 12 -29 -1
-13 -3 -13 -11 2 -6 9 -12 27 -14 39 -3 12 -14 31 -25 43 -21 20 -21 20 -15 0
5 -15 4 -17 -3 -6 -6 8 -8 19 -6 26 3 6 -13 40 -34 76 -22 35 -42 74 -46 87
-4 12 -12 19 -18 16 -6 -4 -8 -1 -6 7 3 8 -2 23 -11 33 -9 11 -10 16 -4 12 9
-5 11 -2 7 8 -3 9 -12 12 -22 8 -13 -4 -15 -3 -6 9 12 17 -7 84 -21 72 -4 -5
-6 -1 -2 8 3 9 -1 26 -8 37 -8 10 -12 22 -9 25 7 6 -14 106 -26 122 -3 6 -7
19 -7 30 -1 11 -6 81 -12 155 -6 74 -8 167 -4 205 3 39 5 95 5 125 -1 40 1 49
8 35 7 -16 9 -13 9 17 1 20 5 47 10 60 5 13 11 42 15 66 3 24 12 53 21 65 8
12 15 28 15 37 0 8 14 44 30 78 17 35 27 69 23 74 -3 6 -1 8 4 5 6 -4 13 3 17
16 3 12 21 46 40 75 20 29 32 51 27 48 -4 -3 -7 5 -6 17 1 12 7 23 13 23 7 1
17 2 22 3 6 0 10 7 10 15 0 8 7 16 15 20 8 3 15 10 15 16 0 10 5 16 58 75 13
14 20 30 16 37 -4 6 -3 8 2 5 6 -3 38 23 73 59 35 35 67 64 72 64 5 0 7 15 4
33 -4 22 -2 28 4 17 5 -8 7 -18 5 -22 -10 -15 8 -8 36 15 15 12 36 28 46 35
11 7 14 10 7 7 -6 -3 -14 -2 -17 3 -2 4 6 9 19 10 13 1 52 20 86 42 34 22 66
40 71 40 5 0 6 5 2 12 -4 6 -3 8 3 5 6 -4 33 5 62 18 28 14 56 25 62 25 5 0 7
5 4 10 -3 6 -13 10 -21 10 -8 0 -13 -4 -10 -9 3 -5 0 -11 -7 -14 -8 -3 -14 1
-14 9 0 7 13 18 29 23 21 8 27 7 22 -1 -5 -8 -1 -9 12 -4 10 5 36 10 57 12 20
2 47 8 58 15 11 6 33 13 47 15 15 3 45 10 67 16 160 43 486 47 650 8z m102 24
c-3 -3 -12 -4 -19 -1 -8 3 -5 6 6 6 11 1 17 -2 13 -5z m1050 -16 c-3 -8 -6 -5
-6 6 -1 11 2 17 5 13 3 -3 4 -12 1 -19z m-1012 -8 c13 -5 14 -9 5 -9 -8 0 -24
4 -35 9 -13 5 -14 9 -5 9 8 0 24 -4 35 -9z m-920 -28 c-3 -3 -11 0 -18 7 -9
10 -8 11 6 5 10 -3 15 -9 12 -12z m2045 -72 c0 -5 -2 -10 -4 -10 -3 0 -8 5
-11 10 -3 6 -1 10 4 10 6 0 11 -4 11 -10z m-3112 -21 c3 -12 2 -12 -6 0 -7 9
-12 10 -16 2 -4 -6 -12 -9 -17 -5 -5 3 -7 9 -4 14 8 13 38 5 43 -11z m3097 -8
c-6 -5 -25 10 -25 20 0 5 6 4 14 -3 8 -7 12 -15 11 -17z m-730 -11 c3 -5 -1
-10 -10 -10 -9 0 -13 5 -10 10 3 6 8 10 10 10 2 0 7 -4 10 -10z m234 7 c-2 -1
-13 -9 -24 -17 -19 -14 -19 -14 -6 3 7 9 18 17 24 17 6 0 8 -1 6 -3z m-2159
-17 c0 -5 -2 -10 -4 -10 -3 0 -8 5 -11 10 -3 6 -1 10 4 10 6 0 11 -4 11 -10z
m2276 -8 c0 -10 -6 -19 -13 -19 -8 0 -9 6 -2 19 5 10 11 18 12 18 2 0 3 -8 3
-18z m-1951 -2 c-3 -5 -16 -15 -28 -21 -19 -9 -19 -8 3 10 28 23 34 26 25 11z
m-292 -35 c-3 -9 -8 -14 -10 -11 -3 3 -2 9 2 15 9 16 15 13 8 -4z m-70 -70
c-3 -9 -8 -14 -10 -11 -3 3 -2 9 2 15 9 16 15 13 8 -4z m2690 -45 c4 0 5 6 1
13 -3 6 11 -6 33 -28 21 -22 37 -43 35 -47 -6 -15 10 -31 18 -18 5 8 9 7 13
-5 4 -9 3 -13 -3 -10 -6 3 -10 2 -10 -4 0 -5 4 -13 10 -16 9 -6 7 -61 -3 -71
-3 -3 -8 -1 -12 5 -3 6 -1 11 4 11 6 0 11 4 11 8 0 5 -17 7 -37 6 -21 -1 -32
0 -25 3 17 7 15 33 -2 33 -8 0 -18 -5 -22 -12 -5 -7 -3 -8 6 -3 9 5 11 4 6 -4
-4 -6 -12 -9 -17 -5 -5 3 -17 0 -25 -7 -12 -10 -12 -14 -2 -22 9 -6 7 -7 -6
-3 -18 6 -95 -36 -104 -57 -2 -4 -8 -5 -13 -1 -5 3 -9 -2 -9 -10 0 -8 -9 -20
-19 -26 -16 -8 -25 -5 -47 14 l-28 23 47 30 c26 16 44 32 41 36 -4 4 1 7 12 7
10 0 33 12 49 26 17 14 23 24 15 21 -8 -2 -24 4 -34 14 -24 23 -19 24 22 3 33
-16 66 -10 41 8 -10 7 -9 8 6 4 11 -3 26 -1 34 4 12 7 13 13 3 36 -7 14 -10
29 -7 32 2 3 -1 12 -7 21 -10 13 -10 14 2 4 8 -7 18 -13 23 -13z m-3312 -33
c-10 -9 -11 -8 -5 6 3 10 9 15 12 12 3 -3 0 -11 -7 -18z m192 -25 c14 -13 17
-13 18 -1 0 8 4 5 9 -6 4 -11 25 -29 46 -40 22 -11 70 -39 107 -62 56 -36 66
-46 59 -61 -5 -9 -7 -24 -5 -32 4 -12 3 -12 -5 -1 -7 9 -12 10 -16 2 -4 -6
-13 -11 -19 -11 -7 0 -7 4 2 9 12 8 8 11 -15 16 -16 3 -43 10 -60 15 -40 13
-77 13 -69 0 4 -6 11 -8 16 -5 5 4 9 1 9 -5 0 -6 8 -13 18 -17 9 -3 31 -16 48
-29 28 -20 34 -22 44 -9 14 17 36 20 44 6 4 -5 -3 -7 -14 -4 -14 4 -24 -3 -37
-25 -10 -17 -26 -33 -35 -36 -11 -2 -15 0 -11 7 4 7 0 8 -11 4 -9 -4 -15 -3
-12 2 6 9 -78 67 -88 60 -3 -2 -11 4 -18 14 -12 16 -15 16 -33 2 -17 -15 -18
-16 -2 -11 11 4 16 2 12 -5 -10 -14 -28 -6 -31 14 -1 9 2 15 6 12 5 -3 11 -2
14 3 3 5 -10 15 -29 22 -19 8 -35 18 -35 23 0 5 -7 6 -16 3 -8 -3 -12 -2 -9 4
3 6 2 10 -4 10 -12 0 -9 18 12 58 17 32 42 46 31 17 -5 -11 -2 -13 12 -8 13 5
15 3 9 -8 -7 -11 -5 -11 10 1 10 8 16 10 12 3 -7 -11 -1 -15 56 -27 17 -4 27
-2 27 5 0 7 -3 9 -6 6 -4 -4 -20 5 -36 18 -16 14 -33 23 -36 21 -4 -2 -15 4
-24 13 -16 16 -16 19 -2 39 15 23 24 22 57 -6z m3101 10 c2 -4 -4 -8 -14 -8
-10 0 -16 4 -14 8 3 4 9 8 14 8 5 0 11 -4 14 -8z m-2624 -34 c0 -6 -6 -5 -15
2 -8 7 -15 14 -15 16 0 2 7 1 15 -2 8 -4 15 -11 15 -16z m-410 2 c8 -5 11 -10
5 -10 -5 0 -17 5 -25 10 -8 5 -10 10 -5 10 6 0 17 -5 25 -10z m391 -27 c13
-16 12 -17 -3 -4 -17 13 -22 21 -14 21 2 0 10 -8 17 -17z m2909 -2 c0 -6 -4
-13 -10 -16 -5 -3 -10 1 -10 9 0 9 5 16 10 16 6 0 10 -4 10 -9z m-420 -66 c0
-2 -10 -9 -22 -15 -22 -11 -22 -10 -4 4 21 17 26 19 26 11z m475 -33 c2 -13
-1 -19 -11 -18 -15 2 -16 9 -6 34 6 16 11 11 17 -16z m-300 -2 c3 -6 -1 -7 -9
-4 -18 7 -21 14 -7 14 6 0 13 -4 16 -10z m-2945 -44 c0 -2 -9 -6 -20 -9 -11
-3 -18 -1 -14 4 5 9 34 13 34 5z m2651 -39 c-6 -8 -8 -16 -5 -19 3 -3 1 -9 -4
-12 -6 -3 -9 0 -8 6 2 16 15 38 23 38 3 0 0 -6 -6 -13z m-3134 -29 c-3 -7 -5
-2 -5 12 0 14 2 19 5 13 2 -7 2 -19 0 -25z m3804 -95 c-12 -20 -14 -14 -5 12
4 9 9 14 11 11 3 -2 0 -13 -6 -23z m-3297 -29 c3 -8 2 -12 -4 -9 -6 3 -10 10
-10 16 0 14 7 11 14 -7z m3136 -34 c8 -5 11 -10 5 -10 -5 0 -17 5 -25 10 -8 5
-10 10 -5 10 6 0 17 -5 25 -10z m115 -21 c11 -17 -1 -21 -15 -4 -8 9 -8 15 -2
15 6 0 14 -5 17 -11z m-45 -39 c0 -13 5 -18 15 -14 8 4 15 1 15 -5 0 -6 3 -10
8 -9 16 4 52 -14 52 -28 0 -8 5 -14 12 -14 8 0 7 -5 -3 -15 -15 -16 -49 -11
-49 6 0 5 -7 9 -15 9 -13 0 -14 -4 -4 -22 10 -18 8 -24 -12 -39 -26 -20 -44
-25 -34 -9 3 6 2 10 -4 10 -6 0 -8 6 -5 14 3 8 0 17 -5 21 -6 3 -9 10 -6 15 3
4 -3 14 -12 21 -12 11 -17 11 -20 2 -2 -7 -11 -9 -19 -6 -34 13 -51 -38 -20
-59 14 -9 -7 -31 -34 -35 -14 -2 -21 4 -26 22 -10 40 -26 47 -70 31 -26 -10
-32 -15 -19 -16 11 -1 14 -4 8 -7 -19 -7 -16 -33 5 -33 9 0 13 -4 7 -8 -5 -4
-10 -13 -10 -21 0 -7 -10 -18 -23 -22 -20 -8 -25 -4 -41 34 -9 23 -17 58 -17
77 1 32 4 35 44 45 24 5 40 14 35 18 -4 5 6 6 22 2 24 -5 27 -4 15 5 -13 9
-12 10 5 6 11 -3 58 5 105 18 106 30 100 30 100 6z m-460 -20 c6 -11 8 -20 6
-20 -3 0 -10 9 -16 20 -6 11 -8 20 -6 20 3 0 10 -9 16 -20z m197 14 c-3 -3
-12 -4 -19 -1 -8 3 -5 6 6 6 11 1 17 -2 13 -5z m-3500 -26 c-3 -8 -6 -5 -6 6
-1 11 2 17 5 13 3 -3 4 -12 1 -19z m3853 12 c0 -5 -2 -10 -4 -10 -3 0 -8 5
-11 10 -3 6 -1 10 4 10 6 0 11 -4 11 -10z m-3711 -25 c21 4 22 4 6 -3 -17 -8
-14 -10 18 -16 20 -4 42 -4 49 0 6 4 8 3 5 -4 -9 -13 66 -27 85 -16 7 4 10 4
6 -1 -4 -4 4 -14 18 -22 31 -15 37 -16 30 -4 -3 5 0 11 7 14 7 3 13 -3 13 -13
0 -10 -5 -16 -10 -13 -6 4 -6 -1 -1 -13 15 -37 11 -78 -10 -98 -29 -26 -63
-38 -83 -27 -19 10 -93 25 -106 22 -4 -1 -14 3 -22 10 -7 6 -28 8 -46 5 -25
-5 -28 -4 -13 3 19 9 18 10 -5 11 -26 1 -93 28 -73 29 6 1 13 8 15 18 2 12 16
16 62 18 33 1 51 -2 40 -5 -19 -7 -19 -7 1 -13 11 -4 37 -9 57 -11 21 -3 46
-10 57 -16 26 -13 81 -13 81 1 0 5 -6 7 -12 3 -8 -5 -8 -1 2 12 8 10 11 16 6
12 -5 -4 -15 0 -24 8 -9 9 -24 13 -38 10 -12 -3 -25 -2 -29 3 -4 8 -136 43
-167 46 -14 1 -19 14 -13 38 6 23 10 24 38 16 16 -5 42 -6 56 -4z m3752 -32
c-12 -20 -14 -14 -5 12 4 9 9 14 11 11 3 -2 0 -13 -6 -23z m-3871 -53 c0 -5
-5 -10 -11 -10 -5 0 -7 5 -4 10 3 6 8 10 11 10 2 0 4 -4 4 -10z m-126 -28 c3
-5 -1 -9 -9 -9 -8 0 -12 4 -9 9 3 4 7 8 9 8 2 0 6 -4 9 -8z m391 -2 c3 -5 2
-10 -4 -10 -5 0 -13 5 -16 10 -3 6 -2 10 4 10 5 0 13 -4 16 -10z m3663 -15
c-3 -3 -9 2 -12 12 -6 14 -5 15 5 6 7 -7 10 -15 7 -18z m-3721 9 c-3 -3 -12
-4 -19 -1 -8 3 -5 6 6 6 11 1 17 -2 13 -5z m3333 -4 c0 -5 -5 -10 -11 -10 -5
0 -7 5 -4 10 3 6 8 10 11 10 2 0 4 -4 4 -10z m-3673 -42 c-3 -8 -6 -5 -6 6 -1
11 2 17 5 13 3 -3 4 -12 1 -19z m3510 -20 c-3 -7 -5 -2 -5 12 0 14 2 19 5 13
2 -7 2 -19 0 -25z m-3150 -34 c-3 -3 -12 -4 -19 -1 -8 3 -5 6 6 6 11 1 17 -2
13 -5z m68 -14 c-12 -5 -14 -9 -6 -9 8 -1 12 -4 8 -7 -9 -9 -28 6 -22 17 4 5
14 9 23 8 14 0 13 -2 -3 -9z m-448 -112 c-3 -8 -6 -5 -6 6 -1 11 2 17 5 13 3
-3 4 -12 1 -19z m530 -60 c-3 -8 -6 -5 -6 6 -1 11 2 17 5 13 3 -3 4 -12 1 -19z
m13 -38 l-11 -25 6 25 c2 14 5 34 6 45 2 19 2 19 6 0 2 -12 -1 -32 -7 -45z
m3327 -78 c29 -23 33 -54 8 -73 -21 -17 -88 -31 -79 -17 3 4 0 17 -6 28 -14
27 -4 59 23 70 30 12 29 12 54 -8z m-3576 -5 c8 -6 15 -23 15 -37 0 -30 -22
-49 -56 -50 -41 0 -61 36 -51 91 2 11 77 8 92 -4z m59 3 c0 -5 -5 -10 -11 -10
-5 0 -7 5 -4 10 3 6 8 10 11 10 2 0 4 -4 4 -10z m3587 -62 c-3 -7 -5 -2 -5 12
0 14 2 19 5 13 2 -7 2 -19 0 -25z m-3390 -30 c-3 -8 -6 -5 -6 6 -1 11 2 17 5
13 3 -3 4 -12 1 -19z m-320 -54 c-3 -3 -12 -4 -19 -1 -8 3 -5 6 6 6 11 1 17
-2 13 -5z m3316 -234 c3 -11 1 -18 -4 -14 -5 3 -9 12 -9 20 0 20 7 17 13 -6z
m147 0 c14 0 36 -7 48 -16 12 -8 27 -12 34 -8 7 4 8 3 4 -4 -4 -7 -3 -12 3
-12 5 0 11 4 13 10 2 6 23 4 56 -4 29 -8 52 -10 52 -5 0 6 9 5 21 -1 11 -6 19
-19 17 -28 -1 -9 0 -21 4 -27 7 -12 -86 -14 -98 -2 -11 11 -56 9 -49 -3 3 -5
1 -10 -5 -10 -6 0 -8 -4 -5 -10 3 -5 17 -10 31 -10 13 0 24 -3 24 -7 0 -5 14
-9 30 -10 28 -2 75 -33 50 -33 -7 0 -7 -7 1 -22 11 -21 11 -22 -4 -9 -10 7
-17 9 -17 4 0 -4 -18 -8 -39 -8 -22 0 -35 2 -30 6 6 3 0 9 -13 12 -12 4 -24 2
-26 -3 -2 -6 -8 -10 -13 -10 -6 0 -8 4 -5 9 5 8 -72 34 -134 45 -44 8 -80 25
-80 39 0 7 6 22 14 32 11 15 11 25 4 40 -6 11 -7 17 -3 13 4 -4 16 2 28 13 11
10 27 19 34 19 9 0 11 5 7 13 -6 10 -4 10 7 0 7 -7 25 -13 39 -13z m-3203 -93
c-12 -10 -29 -24 -39 -32 -9 -7 -19 -11 -22 -8 -3 4 -6 1 -6 -5 0 -6 -7 -9
-17 -5 -11 4 -14 3 -9 -5 4 -7 2 -10 -6 -7 -8 3 -22 -2 -33 -10 -19 -15 -13
-16 75 -12 95 5 122 -2 113 -30 -2 -6 6 -14 18 -18 17 -6 19 -9 8 -16 -8 -5
-18 -9 -24 -9 -5 0 -3 5 5 10 19 12 6 13 -18 1 -29 -15 -106 -36 -121 -33 -7
2 -10 -1 -7 -7 6 -9 -23 -24 -40 -20 -5 2 -29 -3 -54 -11 -66 -19 -109 -20
-102 -1 4 10 1 12 -7 6 -10 -6 -11 -3 -2 12 6 11 8 23 5 26 -3 3 -1 8 5 12 6
3 11 1 11 -4 0 -6 4 -11 10 -11 5 0 7 7 3 16 -3 8 -12 13 -20 10 -7 -3 -16 1
-19 9 -8 21 5 67 16 60 6 -3 10 0 10 7 0 10 -10 13 -32 10 -29 -3 -33 -1 -34
22 -1 14 3 26 10 26 6 0 4 5 -4 10 -11 7 -7 8 15 4 18 -3 57 3 95 15 36 12 73
21 83 21 9 0 17 5 17 11 0 6 7 8 16 5 10 -4 13 -2 8 6 -5 7 0 9 14 6 12 -4 22
-2 22 2 0 5 9 7 20 5 11 -2 20 2 20 8 1 7 9 -4 20 -23 19 -35 19 -35 -3 -53z
m3585 9 c7 4 8 2 4 -5 -11 -17 -26 -3 -25 22 2 22 2 22 6 -1 3 -13 9 -19 15
-16z m-195 -40 c0 -8 -6 -12 -15 -9 -11 5 -11 7 0 14 7 5 13 9 14 9 0 0 1 -6
1 -14z m-3247 -106 c0 -5 -4 -10 -10 -10 -5 0 -10 5 -10 10 0 6 5 10 10 10 6
0 10 -4 10 -10z m3177 4 c-3 -3 -12 -4 -19 -1 -8 3 -5 6 6 6 11 1 17 -2 13 -5z
m-3332 -54 c3 -6 -4 -10 -17 -10 -18 0 -20 2 -8 10 19 12 18 12 25 0z m2972
-22 c-3 -7 -5 -2 -5 12 0 14 2 19 5 13 2 -7 2 -19 0 -25z m-3350 0 c-3 -8 -6
-5 -6 6 -1 11 2 17 5 13 3 -3 4 -12 1 -19z m356 -5 c-7 -2 -21 -2 -30 0 -10 3
-4 5 12 5 17 0 24 -2 18 -5z m235 -38 c-3 -3 -9 2 -12 12 -6 14 -5 15 5 6 7
-7 10 -15 7 -18z m2809 -11 c-3 -3 -12 -4 -19 -1 -8 3 -5 6 6 6 11 1 17 -2 13
-5z m7 -23 c4 -5 -3 -7 -14 -4 -23 6 -26 13 -6 13 8 0 17 -4 20 -9z m12 -36
c18 -17 18 -26 0 -19 -15 6 -30 -22 -19 -38 3 -6 1 -8 -4 -5 -6 4 -13 0 -17
-8 -6 -16 30 -41 53 -36 7 1 10 -2 6 -9 -4 -7 1 -7 14 2 12 7 21 15 21 18 0 4
6 15 14 25 12 17 15 17 29 3 13 -13 14 -21 4 -47 -6 -17 -16 -31 -21 -31 -16
0 28 -28 49 -32 11 -1 23 -7 26 -11 3 -5 14 8 23 27 9 20 25 40 36 46 24 13
40 13 20 0 -13 -9 -13 -10 0 -11 8 -1 18 -1 22 0 4 0 4 -7 1 -16 -5 -12 -3
-14 7 -8 9 5 11 4 6 -4 -4 -6 -11 -9 -16 -6 -4 3 -11 -7 -14 -20 -4 -16 -11
-23 -18 -19 -8 5 -9 2 -5 -9 3 -10 2 -17 -4 -17 -5 0 -15 -11 -21 -25 l-11
-25 -34 20 c-19 11 -31 14 -27 8 4 -7 -2 -5 -13 5 -11 9 -25 17 -31 17 -7 0
-12 4 -12 10 0 5 -17 18 -37 28 -21 10 -55 29 -77 41 -21 12 -44 20 -51 17
-21 -8 -25 19 -8 45 13 17 13 21 2 15 -11 -6 -11 -4 1 6 21 18 40 54 40 74 0
12 6 15 26 10 15 -4 33 -13 40 -21z m-115 -18 c-10 -9 -11 -8 -5 6 3 10 9 15
12 12 3 -3 0 -11 -7 -18z m-51 -1 c0 -3 -4 -8 -10 -11 -5 -3 -10 -1 -10 4 0 6
5 11 10 11 6 0 10 -2 10 -4z m34 -11 c3 -8 1 -15 -4 -15 -6 0 -10 7 -10 15 0
8 2 15 4 15 2 0 6 -7 10 -15z m137 -48 c-10 -9 -11 -8 -5 6 3 10 9 15 12 12 3
-3 0 -11 -7 -18z m-2927 -5 c2 -4 -5 -9 -17 -9 -17 -2 -19 0 -7 7 18 12 18 12
24 2z m61 -8 c19 7 65 -35 65 -59 0 -8 4 -15 8 -15 4 0 6 -16 4 -36 -3 -23 -7
-31 -12 -24 -6 10 -12 7 -21 -9 -8 -11 -18 -21 -24 -21 -6 0 -26 -13 -45 -28
-19 -16 -43 -32 -53 -35 -10 -4 -16 -11 -12 -16 3 -5 0 -13 -6 -17 -8 -4 -9
-3 -5 4 9 15 -6 16 -21 1 -6 -6 -26 -12 -44 -13 -43 -3 -78 28 -86 76 -4 31
-1 41 23 65 16 15 28 32 26 36 -1 5 2 6 8 2 13 -8 62 30 52 40 -4 5 -2 5 5 1
6 -3 28 5 49 19 20 14 41 25 46 25 5 0 6 6 2 13 -6 8 -3 8 9 -2 9 -7 24 -11
32 -7z m93 -9 c-3 -3 -9 2 -12 12 -6 14 -5 15 5 6 7 -7 10 -15 7 -18z m-20
-20 c-3 -3 -9 2 -12 12 -6 14 -5 15 5 6 7 -7 10 -15 7 -18z m3171 -13 c-2 -15
1 -34 6 -42 7 -12 6 -13 -6 -3 -10 8 -14 23 -11 43 5 38 15 40 11 2z m-3019
-62 c0 -5 -2 -10 -4 -10 -3 0 -8 5 -11 10 -3 6 -1 10 4 10 6 0 11 -4 11 -10z
m2630 -26 l25 -15 -25 7 c-14 3 -29 10 -34 15 -16 14 6 10 34 -7z m-3140 -30
c0 -8 -4 -14 -8 -14 -4 0 -8 9 -8 19 0 11 4 17 8 15 4 -3 8 -12 8 -20z m-103
-21 c1 -22 -1 -24 -8 -10 -6 9 -7 22 -4 27 9 14 10 13 12 -17z m3574 -6 c-10
-9 -11 -8 -5 6 3 10 9 15 12 12 3 -3 0 -11 -7 -18z m-3111 4 c0 -5 -7 -12 -16
-15 -14 -5 -15 -4 -4 9 14 17 20 19 20 6z m241 -28 c13 -16 12 -17 -3 -4 -17
13 -22 21 -14 21 2 0 10 -8 17 -17z m2714 -3 c-3 -5 -11 -10 -16 -10 -6 0 -7
5 -4 10 3 6 11 10 16 10 6 0 7 -4 4 -10z m-475 -30 c-8 -6 -10 -10 -4 -10 5 0
16 6 22 12 10 10 15 10 21 -1 5 -7 14 -11 20 -7 7 5 8 1 4 -10 -5 -14 -3 -16
11 -11 9 4 15 3 12 -2 -6 -9 75 -77 87 -73 5 1 6 -2 2 -7 -7 -12 32 -54 44
-46 5 2 15 -3 22 -13 13 -16 12 -16 -6 -3 -11 7 -2 -2 19 -22 38 -33 38 -35
17 -42 -14 -4 -20 -12 -17 -21 10 -25 -24 -1 -113 83 -47 43 -90 77 -97 77 -7
-1 -10 4 -7 11 4 12 -29 39 -49 40 -3 0 -10 4 -15 9 -5 6 -2 6 6 1 11 -6 13
-4 8 10 -7 18 11 51 22 40 3 -3 -1 -10 -9 -15z m-2665 -48 c-8 -8 -25 10 -19
20 4 6 9 5 15 -3 4 -7 6 -15 4 -17z m-208 -11 c0 -11 -5 -18 -9 -15 -4 3 -5
11 -1 19 7 21 12 19 10 -4z m618 -21 c-3 -5 0 -12 6 -16 8 -4 9 -3 5 4 -4 7
-2 12 4 12 6 0 8 6 4 13 -4 6 -3 9 1 4 10 -8 15 -67 6 -64 -3 1 -6 -1 -6 -4 0
-3 -8 -13 -18 -23 -11 -12 -15 -25 -11 -38 4 -14 2 -18 -5 -14 -6 4 -11 6 -11
4 0 -2 -4 -19 -9 -38 l-10 -35 17 25 c9 13 29 37 45 52 29 31 37 49 12 28 -13
-11 -14 -10 -10 3 4 8 17 17 30 20 15 2 22 0 18 -6 -4 -7 1 -8 13 -3 10 4 15
4 12 0 -4 -3 0 -20 8 -36 9 -17 11 -27 6 -24 -6 3 -12 3 -15 -1 -2 -5 -2 -1 0
7 2 8 -15 -5 -39 -30 -34 -35 -41 -48 -33 -59 8 -12 6 -13 -9 -8 -13 5 -17 3
-13 -7 4 -10 1 -13 -9 -9 -14 5 -20 -12 -6 -20 4 -2 1 -2 -7 0 -16 4 -53 -36
-45 -49 3 -4 0 -7 -7 -6 -7 2 -18 -8 -26 -22 -7 -14 -13 -20 -13 -15 0 6 -8 1
-17 -10 -12 -16 -14 -16 -10 -3 7 19 -8 35 -16 18 -3 -6 -4 -5 -3 2 2 7 -1 21
-6 32 -7 14 -7 16 2 11 9 -5 10 -1 5 15 -4 13 -3 20 2 17 11 -7 43 54 49 93 4
24 2 23 -26 -10 -46 -52 -50 -58 -50 -71 0 -7 -3 -9 -7 -6 -3 4 -13 1 -21 -6
-12 -9 -16 -9 -19 1 -3 6 -9 12 -14 12 -6 0 -7 -5 -3 -12 4 -6 3 -8 -4 -4 -6
3 -15 -2 -21 -11 -9 -16 -10 -16 -8 4 0 12 4 20 8 17 4 -2 10 0 14 5 3 5 -3
14 -12 20 -10 6 -13 11 -8 11 6 0 17 -6 24 -12 12 -11 13 -9 7 7 -4 11 -4 17
-1 13 4 -3 23 12 43 35 20 23 42 47 47 53 6 6 36 41 68 77 33 37 63 64 68 61
5 -3 9 0 9 6 0 6 5 8 10 5 6 -4 8 -10 5 -15z m2805 -10 c0 -5 -5 -10 -11 -10
-5 0 -7 5 -4 10 3 6 8 10 11 10 2 0 4 -4 4 -10z m-485 -29 c3 -5 2 -12 -3 -15
-5 -3 -9 1 -9 9 0 17 3 19 12 6z m-2449 -46 c-8 -8 -18 -15 -22 -15 -3 0 -1 7
6 15 7 8 17 15 22 15 5 0 3 -7 -6 -15z m-411 -4 c-9 -8 -36 -10 -30 -2 2 4 11
8 20 8 8 0 13 -3 10 -6z m332 -87 c-3 -3 -12 -4 -19 -1 -8 3 -5 6 6 6 11 1 17
-2 13 -5z m2664 -3 c-8 -5 -10 -14 -6 -22 6 -11 5 -11 -5 -2 -14 12 -6 33 13
33 8 0 7 -3 -2 -9z m-468 -15 c9 -7 17 -18 17 -24 0 -19 72 -117 86 -116 8 1
11 -2 8 -7 -5 -9 22 -69 32 -69 3 0 23 10 46 23 30 16 42 19 45 9 3 -6 9 -10
14 -7 12 8 -2 -28 -15 -37 -6 -4 -11 -13 -11 -20 0 -7 -9 -12 -20 -11 -10 1
-30 -7 -43 -18 -23 -18 -27 -18 -43 -4 -13 13 -18 14 -23 3 -3 -7 -4 -3 -2 10
5 26 -9 29 -22 6 -8 -15 -10 -15 -15 0 -4 10 -3 15 2 12 5 -3 15 2 22 12 7 9
9 14 4 9 -5 -4 -15 7 -22 24 -8 19 -17 28 -24 23 -8 -4 -9 -3 -5 4 8 14 -38
85 -48 74 -4 -4 -7 -2 -6 3 4 19 0 38 -7 32 -4 -4 -13 7 -20 25 -12 29 -12 34
3 45 22 16 25 16 47 -1z m677 10 c0 -3 -4 -8 -10 -11 -5 -3 -10 -1 -10 4 0 6
5 11 10 11 6 0 10 -2 10 -4z m-883 -12 c-3 -3 -12 -4 -19 -1 -8 3 -5 6 6 6 11
1 17 -2 13 -5z m-1496 -57 c-10 -9 -11 -8 -5 6 3 10 9 15 12 12 3 -3 0 -11 -7
-18z m44 13 c-9 -14 9 -12 24 3 7 6 12 8 11 2 -6 -27 4 -37 54 -61 50 -23 75
-49 61 -62 -3 -3 -5 0 -5 6 0 7 -4 12 -10 12 -5 0 -10 -6 -10 -14 0 -8 -5 -18
-12 -22 -7 -5 -8 -3 -3 6 6 10 4 12 -8 7 -9 -3 -17 -1 -19 5 -2 6 -9 8 -16 5
-11 -7 -102 -190 -102 -206 0 -20 -36 -39 -63 -34 -16 3 -25 8 -20 12 17 13
32 51 26 67 -4 11 -2 15 4 11 13 -8 26 20 16 35 -3 6 -2 8 4 5 12 -8 46 61 37
75 -4 6 -3 8 3 5 5 -3 17 9 25 27 16 32 16 33 -13 50 -34 20 -35 25 -9 54 21
23 36 30 25 12z m2270 -9 c-3 -6 -11 -11 -16 -11 -5 0 -4 6 3 14 14 16 24 13
13 -3z m-2170 -1 c3 -6 -1 -7 -9 -4 -18 7 -21 14 -7 14 6 0 13 -4 16 -10z
m1052 -36 c-3 -3 -12 -4 -19 -1 -8 3 -5 6 6 6 11 1 17 -2 13 -5z m630 -19 c0
-8 -4 -12 -9 -9 -5 3 -6 10 -3 15 9 13 12 11 12 -6z m-1107 -25 c-8 -5 -19
-10 -25 -10 -5 0 -3 5 5 10 8 5 20 10 25 10 6 0 3 -5 -5 -10z m-1080 -35 c0
-5 -5 -3 -10 5 -5 8 -10 20 -10 25 0 6 5 3 10 -5 5 -8 10 -19 10 -25z m24 -5
c-6 -6 -10 -3 -10 10 0 13 4 16 10 10 7 -7 7 -13 0 -20z m1263 24 c-3 -3 -12
-4 -19 -1 -8 3 -5 6 6 6 11 1 17 -2 13 -5z m371 -1 c-10 -2 -18 -9 -18 -15 0
-5 6 -8 13 -5 20 7 63 17 50 11 -7 -3 -13 -10 -13 -15 0 -6 4 -8 8 -5 5 3 9
-12 9 -32 1 -50 45 -158 63 -154 11 3 11 0 0 -12 -9 -12 -10 -19 -1 -29 6 -8
8 -16 5 -20 -8 -8 15 -2 50 12 21 9 32 9 42 0 23 -19 16 -39 -16 -50 -17 -6
-30 -18 -30 -27 0 -10 -3 -13 -8 -7 -6 9 -26 12 -34 6 -2 -2 -13 -4 -25 -7
-18 -3 -23 1 -23 15 0 11 -5 23 -10 26 -6 4 -8 10 -5 15 3 5 1 11 -5 15 -6 4
-8 11 -5 16 4 5 2 9 -4 9 -6 0 -7 7 -4 17 5 12 3 14 -7 8 -10 -6 -12 -4 -7 8
8 21 -2 49 -14 41 -5 -3 -8 3 -7 13 3 34 -2 54 -11 49 -5 -4 -7 3 -4 14 3 11
1 20 -3 20 -10 0 -17 67 -8 81 3 5 13 8 22 8 15 -1 15 -2 0 -6z m-1281 -9 c-3
-3 -12 -4 -19 -1 -8 3 -5 6 6 6 11 1 17 -2 13 -5z m640 0 c-3 -3 -12 -4 -19
-1 -8 3 -5 6 6 6 11 1 17 -2 13 -5z m1046 -7 c3 -7 -3 -13 -14 -13 -13 0 -15
3 -7 13 6 7 12 13 13 13 2 0 5 -6 8 -13z m-2279 -13 c5 -14 4 -15 -9 -4 -17
14 -19 20 -6 20 5 0 12 -7 15 -16z m1093 -19 c25 5 26 4 6 -4 -25 -11 -31 -24
-10 -19 19 4 57 -21 57 -37 0 -8 5 -15 11 -15 7 0 8 -7 4 -17 -3 -10 -8 -34
-11 -53 -5 -38 -29 -80 -45 -80 -6 0 -9 -7 -6 -15 5 -11 1 -12 -18 -5 -47 18
-63 9 -70 -37 -3 -24 -3 -47 0 -53 3 -5 0 -11 -7 -12 -7 0 -20 -2 -28 -3 -32
-3 -38 14 -24 60 7 25 15 62 18 83 3 20 9 62 14 92 6 30 7 61 4 69 -3 9 -1 12
6 7 8 -5 12 1 12 15 0 17 4 20 21 16 16 -4 19 -2 15 10 -5 13 -4 14 8 4 8 -7
27 -9 43 -6z m333 1 c0 -3 -4 -8 -10 -11 -5 -3 -10 -1 -10 4 0 6 5 11 10 11 6
0 10 -2 10 -4z m-720 -31 c0 -8 -2 -15 -4 -15 -2 0 -6 7 -10 15 -3 8 -1 15 4
15 6 0 10 -7 10 -15z m-629 -18 c-10 -9 -11 -8 -5 6 3 10 9 15 12 12 3 -3 0
-11 -7 -18z m1396 17 c-3 -3 -12 -4 -19 -1 -8 3 -5 6 6 6 11 1 17 -2 13 -5z
m96 -10 c4 -1 11 -2 17 -3 6 -1 6 -11 -1 -28 -8 -22 -7 -30 7 -40 16 -12 16
-13 1 -13 -9 0 -20 7 -25 16 -8 14 -13 14 -32 4 -15 -8 -20 -8 -16 -1 8 12 4
14 -16 6 -9 -4 -12 -18 -10 -45 4 -35 6 -39 23 -29 26 13 59 -5 60 -34 1 -21
1 -21 10 3 l8 25 -2 -25 c-2 -20 -8 -26 -32 -28 -16 -2 -37 -5 -45 -8 -13 -4
-13 -6 0 -14 10 -7 11 -10 3 -10 -14 0 -17 -28 -7 -54 7 -19 44 -22 45 -3 0 9
2 9 5 0 3 -7 11 -10 18 -7 7 3 18 -1 25 -9 13 -17 6 -44 -12 -44 -7 0 -34 -3
-62 -6 -73 -10 -78 -4 -82 105 -2 51 -7 100 -10 108 -3 8 -6 40 -5 70 l0 55
51 3 c28 2 51 8 51 13 0 6 6 7 13 2 6 -4 15 -8 20 -9z m-376 -36 c-3 -8 -6 -5
-6 6 -1 11 2 17 5 13 3 -3 4 -12 1 -19z m-1042 2 c3 -6 -1 -7 -9 -4 -18 7 -21
14 -7 14 6 0 13 -4 16 -10z m1232 -22 c-3 -7 -5 -2 -5 12 0 14 2 19 5 13 2 -7
2 -19 0 -25z m576 17 c-3 -9 -8 -14 -10 -11 -3 3 -2 9 2 15 9 16 15 13 8 -4z
m8 -32 c-12 -20 -14 -14 -5 12 4 9 9 14 11 11 3 -2 0 -13 -6 -23z m486 -19
c-3 -3 -12 -4 -19 -1 -8 3 -5 6 6 6 11 1 17 -2 13 -5z m-1850 -36 c-3 -8 -6
-5 -6 6 -1 11 2 17 5 13 3 -3 4 -12 1 -19z m1463 -8 c0 -5 -2 -10 -4 -10 -3 0
-8 5 -11 10 -3 6 -1 10 4 10 6 0 11 -4 11 -10z m-1525 -40 c3 -6 -1 -7 -9 -4
-18 7 -21 14 -7 14 6 0 13 -4 16 -10z m-139 -32 c2 -14 -2 -15 -22 -6 -18 8
-21 14 -12 20 18 11 31 5 34 -14z m1949 12 c-3 -5 -12 -10 -18 -10 -7 0 -6 4
3 10 19 12 23 12 15 0z m70 0 c3 -6 -1 -7 -9 -4 -18 7 -21 14 -7 14 6 0 13 -4
16 -10z m-1508 -62 c-3 -7 -5 -2 -5 12 0 14 2 19 5 13 2 -7 2 -19 0 -25z m130
10 c-3 -8 -6 -5 -6 6 -1 11 2 17 5 13 3 -3 4 -12 1 -19z m516 5 c-7 -2 -21 -2
-30 0 -10 3 -4 5 12 5 17 0 24 -2 18 -5z m-973 -47 c0 -2 -7 -7 -16 -10 -8 -3
-12 -2 -9 4 6 10 25 14 25 6z m40 -6 c0 -5 -2 -10 -4 -10 -3 0 -8 5 -11 10 -3
6 -1 10 4 10 6 0 11 -4 11 -10z m185 -70 c3 -6 -1 -7 -9 -4 -18 7 -21 14 -7
14 6 0 13 -4 16 -10z m805 -90 c-8 -5 -22 -9 -30 -9 -10 0 -8 3 5 9 27 12 43
12 25 0z m-387 -7 c-7 -2 -19 -2 -25 0 -7 3 -2 5 12 5 14 0 19 -2 13 -5z"/>
<path d="M4582 5120 c2 -16 1 -27 -4 -24 -15 9 -8 -23 7 -36 11 -9 15 -9 15
-1 0 7 4 10 9 7 11 -7 24 40 16 63 -3 9 -14 17 -26 18 -18 2 -20 -3 -17 -27z"/>
<path d="M3550 4846 c0 -8 4 -17 9 -20 5 -4 7 3 4 14 -6 23 -13 26 -13 6z"/>
<path d="M3075 4600 c10 -11 20 -20 23 -20 3 0 -3 9 -13 20 -10 11 -20 20 -23
20 -3 0 3 -9 13 -20z"/>
<path d="M4338 4704 c-2 -2 -42 -5 -88 -8 -139 -9 -239 -23 -254 -36 -9 -6
-20 -9 -26 -5 -5 3 -19 -1 -31 -9 -12 -8 -28 -12 -37 -9 -8 4 -13 2 -10 -3 4
-5 -8 -10 -25 -11 -18 -2 -33 -7 -35 -12 -2 -6 -10 -7 -19 -4 -12 5 -14 3 -8
-7 5 -8 4 -11 -3 -6 -12 7 -92 -22 -92 -34 0 -4 -14 -10 -31 -14 -20 -4 -28
-10 -23 -18 5 -7 2 -9 -9 -5 -8 3 -21 -1 -27 -9 -7 -8 -17 -14 -22 -14 -11 0
-108 -61 -128 -82 -8 -8 -37 -32 -65 -52 -55 -42 -155 -144 -155 -158 0 -5 4
-7 8 -4 5 3 9 -1 9 -9 0 -11 -4 -12 -14 -3 -11 8 -18 6 -33 -10 -11 -12 -20
-26 -20 -31 0 -5 -9 -16 -20 -24 -11 -8 -17 -17 -13 -20 3 -4 1 -7 -6 -7 -8 0
-10 -7 -6 -19 3 -11 1 -22 -4 -26 -7 -4 -9 1 -5 12 4 12 -3 9 -20 -10 -15 -16
-24 -33 -21 -38 4 -5 0 -12 -9 -15 -8 -3 -17 -12 -20 -20 -4 -10 -1 -13 7 -9
6 4 1 -3 -13 -15 -14 -12 -19 -18 -11 -14 8 4 3 -8 -12 -27 -30 -40 -80 -166
-72 -180 4 -5 2 -9 -4 -9 -5 0 -15 -17 -22 -37 -12 -36 -15 -50 -21 -98 -2
-11 -6 -23 -10 -26 -5 -3 -9 -28 -10 -56 -2 -28 -6 -49 -9 -47 -7 4 -19 -106
-19 -168 0 -24 5 -38 13 -38 9 0 9 -2 -1 -8 -20 -13 -2 -232 19 -232 5 0 9 -7
9 -16 0 -8 -4 -12 -10 -9 -11 7 -3 -49 11 -76 5 -9 6 -19 3 -21 -2 -3 2 -11
11 -18 16 -13 21 -35 6 -25 -13 7 4 -52 20 -71 6 -8 8 -14 4 -14 -4 0 -1 -7 6
-17 8 -9 13 -19 12 -22 -5 -11 9 -46 27 -66 10 -11 17 -27 17 -36 0 -19 44
-109 54 -109 4 0 11 -10 15 -22 3 -13 16 -36 27 -52 19 -27 21 -28 29 -10 6
15 7 13 4 -9 -3 -23 0 -27 13 -22 12 5 13 3 4 -6 -9 -9 -3 -22 25 -56 22 -26
42 -41 51 -38 11 5 12 3 1 -10 -7 -9 -9 -15 -4 -13 5 2 10 0 12 -4 1 -5 25
-30 54 -58 35 -33 58 -48 72 -46 12 2 15 1 9 -1 -7 -3 -13 -8 -13 -12 0 -11
34 -41 46 -41 5 0 22 -14 38 -30 15 -17 42 -38 60 -47 17 -8 40 -23 50 -32 16
-13 18 -13 11 -1 -4 8 3 5 17 -8 16 -15 32 -20 44 -16 14 4 15 3 6 -4 -11 -7
-10 -11 5 -17 10 -4 24 -9 32 -11 8 -1 18 -9 22 -16 7 -10 11 -10 19 2 9 14
15 7 11 -14 -1 -5 4 -4 11 2 10 7 18 8 28 0 12 -8 12 -9 -2 -4 -28 9 -21 -2
13 -19 19 -10 43 -14 62 -11 22 4 26 3 13 -2 -17 -8 -18 -9 -3 -15 9 -3 19 -2
22 3 4 6 11 10 17 10 6 0 5 -7 -3 -17 -12 -14 -12 -16 2 -11 8 3 26 0 39 -7
13 -7 30 -10 38 -7 8 2 17 0 21 -7 4 -6 28 -12 54 -13 26 -1 47 -5 47 -9 0 -7
9 -8 225 -11 190 -3 247 0 239 13 -3 5 9 6 26 3 16 -4 30 -2 30 3 0 5 15 9 33
10 17 0 73 15 122 32 50 17 97 33 105 35 8 2 36 14 63 27 33 16 43 26 34 32
-8 6 -6 7 6 3 20 -6 81 27 70 38 -4 4 1 4 11 0 15 -6 17 -4 11 6 -5 9 -4 11 3
6 15 -9 64 23 55 37 -3 6 -1 7 6 3 12 -8 78 41 74 55 -2 5 3 6 10 4 16 -6 127
92 127 113 0 8 3 12 7 9 9 -10 34 14 26 26 -3 5 -1 7 4 4 14 -9 37 19 28 32
-3 6 0 9 7 6 17 -5 91 92 82 107 -4 6 -3 8 4 4 11 -7 52 43 52 64 0 10 -3 10
-14 1 -11 -9 -16 -9 -22 0 -4 7 -3 9 4 5 6 -3 13 -2 17 4 4 6 10 8 14 6 14 -9
55 57 55 90 1 24 4 30 13 22 9 -7 14 -3 19 16 3 13 3 30 -1 36 -3 6 -1 9 6 8
14 -3 58 103 62 149 1 17 6 29 11 25 5 -3 6 11 3 34 -4 23 -3 33 2 25 7 -11
10 -10 15 6 4 11 3 28 0 38 -5 13 -4 16 4 11 8 -5 12 1 12 18 0 13 -3 26 -7
29 -5 2 -2 2 5 1 6 -2 12 3 12 11 0 8 -5 15 -12 15 -6 0 -4 6 7 14 14 10 17
21 12 50 -3 20 -1 50 5 68 8 23 8 36 -1 49 -14 23 -14 39 0 19 8 -11 9 10 4
75 -9 110 -12 139 -15 145 -1 3 -1 15 -1 27 1 12 -6 26 -16 32 -10 6 -13 11
-7 11 12 0 12 20 0 62 -5 16 -12 25 -17 22 -13 -8 -11 10 3 24 8 8 8 12 1 12
-6 0 -10 8 -9 18 0 9 -5 16 -12 14 -10 -2 -11 2 -4 15 11 18 -1 54 -27 87 -9
11 -10 16 -4 12 9 -5 11 -2 7 8 -3 9 -10 14 -14 11 -4 -3 -8 1 -7 8 1 31 -4
47 -14 47 -6 0 -8 -9 -4 -22 5 -18 4 -20 -4 -8 -9 12 -11 13 -11 1 0 -8 -3
-11 -6 -8 -4 4 0 17 8 29 16 24 13 52 -4 42 -5 -3 -8 0 -7 7 3 22 -12 50 -24
42 -6 -3 -7 -1 -3 5 9 15 -12 54 -24 47 -6 -3 -7 1 -3 11 4 11 -2 23 -18 36
-13 11 -17 16 -9 12 10 -5 8 1 -5 16 -37 45 -45 51 -54 46 -5 -3 -15 2 -22 12
-12 15 -12 16 2 5 23 -18 30 -5 11 20 -50 62 -106 116 -115 110 -5 -3 -7 -1
-4 4 6 10 -33 50 -120 124 -51 45 -82 62 -99 55 -14 -5 -15 -4 -5 8 10 12 8
16 -11 22 -13 4 -36 17 -53 29 -16 13 -59 37 -94 54 -53 26 -66 29 -79 19 -13
-11 -15 -10 -10 3 5 12 -8 21 -60 38 -37 12 -75 21 -84 21 -10 0 -18 4 -18 9
0 9 -64 23 -120 25 -19 0 -40 4 -46 8 -15 10 -98 13 -112 4 -5 -3 -12 -2 -14
2 -3 9 -84 23 -90 16z m-218 -44 c0 -5 -2 -10 -4 -10 -3 0 -8 5 -11 10 -3 6
-1 10 4 10 6 0 11 -4 11 -10z m227 -451 c3 -334 1 -439 -8 -434 -8 5 -9 0 -5
-16 4 -14 -2 -8 -14 14 -24 44 -23 27 -14 312 4 121 9 294 11 385 4 163 7 199
20 187 3 -4 8 -205 10 -448z m-377 427 c0 -2 -7 -6 -15 -10 -8 -3 -15 -1 -15
4 0 6 7 10 15 10 8 0 15 -2 15 -4z m605 -86 c-26 -123 -44 -258 -38 -280 5
-17 3 -21 -7 -15 -9 5 -11 4 -6 -3 4 -6 0 -25 -9 -42 -8 -16 -15 -32 -15 -35
0 -3 -4 -13 -9 -23 -8 -14 -10 -10 -10 18 0 19 4 53 9 76 5 23 12 56 15 75 8
54 54 281 61 302 5 16 8 17 14 6 5 -8 2 -43 -5 -79z m-469 53 c4 -16 8 -31 9
-35 2 -5 4 -11 5 -15 1 -5 1 -19 0 -32 -1 -13 3 -21 8 -17 5 3 7 -6 5 -22 -4
-22 -2 -24 7 -12 9 12 10 10 6 -13 -4 -15 1 -63 10 -105 9 -42 17 -83 17 -89
1 -19 7 -16 16 9 l8 22 5 -22 c4 -12 3 -20 -2 -17 -13 8 -21 -41 -14 -87 6
-39 5 -41 -8 -23 -19 26 -49 125 -42 136 3 5 0 9 -6 9 -7 0 -9 7 -6 16 6 16
-10 146 -21 174 -3 8 -6 18 -5 22 1 4 -2 35 -6 68 -9 62 0 82 14 33z m256 -5
c-7 -7 -12 -8 -12 -2 0 6 3 14 7 17 3 4 9 5 12 2 2 -3 -1 -11 -7 -17z m-607
-28 c-3 -5 -12 -10 -18 -10 -7 0 -6 4 3 10 19 12 23 12 15 0z m118 -17 c-5
-12 -3 -14 7 -8 10 6 12 4 7 -10 -4 -9 -4 -23 1 -29 5 -6 14 -30 22 -53 7 -23
17 -40 21 -37 5 3 6 -2 2 -11 -3 -10 -1 -20 6 -24 6 -4 9 -15 5 -24 -5 -15 -8
-15 -30 0 -15 9 -23 22 -20 30 8 21 -4 64 -16 57 -6 -4 -8 2 -3 15 4 13 2 21
-5 21 -6 0 -8 5 -5 10 3 6 3 10 -2 10 -9 0 -15 48 -8 68 3 7 9 11 14 7 6 -3 7
-13 4 -22z m947 3 c0 -7 -7 -31 -16 -52 -9 -22 -16 -52 -16 -69 1 -23 -2 -26
-9 -15 -8 12 -10 10 -6 -8 3 -12 1 -20 -3 -17 -5 3 -10 -5 -12 -17 -4 -30 -33
-30 -34 -1 -1 12 3 20 7 17 8 -5 13 13 12 43 -1 7 4 10 9 7 6 -4 7 2 3 16 -5
15 -4 20 4 16 7 -4 11 0 11 11 0 11 6 28 14 38 8 11 12 25 9 32 -3 7 2 13 11
13 9 0 16 -6 16 -14z m-323 -28 c-3 -8 -6 -5 -6 6 -1 11 2 17 5 13 3 -3 4 -12
1 -19z m240 -7 c-1 -17 -5 -27 -9 -23 -7 7 0 52 8 52 2 0 2 -13 1 -29z m100 7
c-3 -8 -6 -5 -6 6 -1 11 2 17 5 13 3 -3 4 -12 1 -19z m138 -10 c-9 -6 -19 -7
-22 -4 -4 3 -1 6 6 6 7 0 9 4 6 10 -4 6 1 7 11 3 15 -6 15 -7 -1 -15z m-1300
-67 c-2 -24 2 -46 11 -58 14 -17 15 -17 5 3 -7 15 -7 21 3 21 8 0 12 -10 10
-29 -2 -15 0 -28 5 -28 5 0 11 -9 14 -21 3 -12 9 -19 14 -16 5 3 9 -2 10 -11
1 -9 5 -29 9 -44 7 -32 -11 -39 -21 -8 -4 11 -11 18 -16 15 -5 -3 -6 0 -3 8 3
8 1 18 -4 21 -12 7 -24 -22 -16 -37 5 -9 4 -9 -5 -1 -10 9 -10 17 -1 34 10 18
9 24 -1 31 -8 5 -10 9 -6 9 4 0 3 9 -3 21 -10 17 -14 18 -28 7 -15 -11 -15
-11 -4 3 10 13 10 22 1 43 -7 14 -15 24 -18 21 -4 -2 -7 5 -7 15 0 13 7 18 21
17 14 -1 20 4 19 15 -1 10 2 16 6 13 5 -3 7 -23 5 -44z m1406 22 c13 -16 12
-17 -3 -4 -17 13 -22 21 -14 21 2 0 10 -8 17 -17z m-694 -40 c-3 -10 -5 -4 -5
12 0 17 2 24 5 18 2 -7 2 -21 0 -30z m651 13 c-1 -14 -6 -22 -10 -20 -11 7
-10 -4 4 -29 10 -19 9 -20 -4 -9 -13 10 -17 9 -23 -5 -5 -10 -8 -29 -7 -43 0
-18 -1 -20 -5 -6 -4 16 -7 15 -23 -9 -10 -15 -16 -35 -12 -43 3 -10 1 -13 -6
-8 -7 4 -12 1 -12 -7 0 -22 -23 -37 -35 -23 -12 13 -13 51 -2 62 4 5 5 1 1 -9
-3 -9 -2 -17 3 -17 12 0 35 39 29 49 -3 4 10 25 30 46 24 26 31 42 24 49 -5 5
-10 15 -10 21 0 5 4 4 9 -4 7 -11 12 -10 22 8 18 28 29 27 27 -3z m-1179 -36
c0 -10 -3 -8 -9 5 -12 27 -12 43 0 25 5 -8 9 -22 9 -30z m-269 16 c-7 -7 -13
-7 -20 0 -6 6 -3 10 10 10 13 0 16 -4 10 -10z m153 -51 c-3 -9 -8 -14 -10 -11
-3 3 -2 9 2 15 9 16 15 13 8 -4z m234 -7 c-3 -8 -6 -5 -6 6 -1 11 2 17 5 13 3
-3 4 -12 1 -19z m1258 -8 c-3 -5 -12 -10 -18 -10 -7 0 -6 4 3 10 19 12 23 12
15 0z m-1725 -24 c10 -13 7 -14 -16 -10 -25 5 -26 4 -13 -13 13 -16 12 -17 -3
-4 -21 16 -23 4 -4 -21 7 -10 16 -15 19 -11 4 3 7 1 7 -6 0 -7 5 -9 12 -5 7 4
8 3 4 -5 -9 -14 12 -43 25 -35 5 3 8 0 7 -8 -2 -7 3 -12 11 -10 8 2 11 -3 8
-11 -6 -16 58 -84 65 -70 3 4 3 2 2 -5 -2 -7 5 -21 16 -32 23 -23 25 -41 8
-58 -9 -9 -16 -8 -29 4 -10 9 -16 21 -13 28 3 7 -12 30 -31 51 -20 22 -33 34
-29 27 5 -11 2 -12 -15 -3 -11 7 -21 17 -21 24 0 7 4 6 10 -3 5 -8 10 -10 10
-4 0 14 -46 77 -88 123 -36 37 -41 55 -13 46 10 -3 24 1 31 10 16 19 24 19 40
1z m1736 -15 c-1 -16 -3 -27 -5 -25 -8 7 -31 -18 -25 -27 3 -5 0 -8 -8 -7 -8
2 -13 -6 -12 -18 0 -14 -4 -20 -13 -17 -7 3 -13 -2 -13 -12 0 -10 5 -13 12 -9
7 4 8 3 4 -5 -6 -9 -11 -9 -24 1 -11 9 -14 9 -9 1 5 -7 -2 -19 -18 -29 -13 -9
-22 -21 -18 -28 3 -6 3 -8 -1 -4 -8 7 -96 -94 -96 -110 0 -4 -11 -8 -25 -8
-15 0 -21 4 -16 11 12 16 7 50 -7 47 -8 -1 -11 2 -8 7 4 5 15 8 26 6 29 -6 74
39 67 66 -3 11 -3 18 0 15 4 -3 13 0 22 7 14 11 15 10 1 -8 -8 -11 0 -7 18 9
17 16 29 33 26 38 -3 5 0 7 8 6 7 -2 12 3 11 10 -2 6 2 12 8 12 5 0 7 6 3 13
-4 6 -3 9 1 4 9 -8 55 30 55 46 0 6 -12 0 -27 -14 l-28 -24 29 32 c16 17 34
29 42 26 8 -3 14 0 14 6 0 6 2 11 4 11 2 0 3 -13 2 -29z m-469 3 c-3 -3 -12
-4 -19 -1 -8 3 -5 6 6 6 11 1 17 -2 13 -5z m-187 -14 c0 -5 -5 -10 -11 -10 -5
0 -7 5 -4 10 3 6 8 10 11 10 2 0 4 -4 4 -10z m81 -8 c-7 -2 -18 1 -23 6 -8 8
-4 9 13 5 13 -4 18 -8 10 -11z m-764 2 c-3 -3 -12 -4 -19 -1 -8 3 -5 6 6 6 11
1 17 -2 13 -5z m94 -23 c63 -20 99 -73 144 -214 19 -59 32 -83 37 -75 6 9 7 6
3 -8 -3 -12 4 -42 16 -70 12 -27 23 -54 24 -60 10 -44 17 -56 27 -43 7 10 8 6
4 -13 -6 -27 8 -48 17 -26 3 8 6 6 6 -4 1 -10 -3 -18 -8 -18 -6 0 -3 -16 5
-35 13 -31 13 -39 -1 -65 -8 -16 -15 -32 -14 -35 1 -6 -15 -51 -36 -100 -28
-65 -58 -151 -59 -172 0 -11 -4 -19 -7 -17 -9 5 -21 -27 -14 -34 3 -3 5 1 5 8
0 7 2 11 5 8 9 -8 -6 -38 -16 -32 -9 5 -13 -9 -10 -35 2 -7 -2 -10 -8 -6 -6 3
-11 2 -11 -4 0 -6 -7 -8 -16 -4 -8 3 -13 11 -10 18 2 7 0 17 -5 22 -5 5 -12
22 -15 38 -3 15 -11 40 -19 56 -8 15 -15 35 -15 44 0 10 -5 13 -12 9 -7 -4 -8
-3 -4 4 8 13 -64 212 -77 212 -5 0 -5 -4 -2 -10 3 -5 2 -10 -4 -10 -6 0 -13
-17 -17 -37 -4 -21 -15 -53 -25 -72 -10 -18 -15 -40 -12 -49 4 -9 2 -13 -3 -9
-9 5 -65 -142 -64 -170 0 -7 -4 -13 -8 -13 -7 0 -43 -86 -44 -107 -1 -4 -14
-37 -30 -71 -32 -73 -33 -76 -15 -67 6 4 5 1 -4 -7 -9 -7 -19 -24 -23 -38 -4
-14 -11 -34 -16 -45 -17 -42 -24 -60 -25 -71 0 -6 -6 -19 -14 -28 -7 -9 -13
-27 -13 -41 0 -14 -4 -25 -8 -25 -7 0 -8 -3 -11 -58 -2 -38 34 -84 59 -75 10
4 13 2 8 -5 -11 -18 9 -23 94 -24 67 -1 82 1 94 17 8 11 18 15 27 11 8 -4 6
-1 -4 7 -16 13 -16 15 -2 21 9 3 13 2 10 -4 -10 -16 19 -12 41 6 10 8 13 12 5
8 -9 -5 -12 -3 -7 4 4 7 14 12 21 12 17 0 69 75 62 87 -3 5 -1 15 5 23 8 12 8
11 3 -5 -4 -13 -3 -16 3 -10 14 14 32 86 25 98 -3 6 -1 7 5 3 7 -4 13 -2 13 3
3 20 5 26 18 49 7 13 10 30 7 38 -3 9 -1 12 4 9 6 -3 10 1 10 9 0 27 -2 31
-11 29 -4 -2 -6 4 -2 13 5 12 7 13 14 3 4 -8 10 -11 12 -9 9 11 55 153 53 163
-2 7 -1 8 2 3 3 -6 15 19 27 55 12 35 39 106 59 158 20 52 35 100 32 107 -3 7
-1 14 3 16 5 2 20 27 35 56 21 41 24 57 16 72 -6 12 -7 20 -1 20 5 0 12 -6 14
-12 5 -11 9 18 6 38 0 4 3 10 8 13 14 10 33 60 33 87 0 16 4 23 11 18 7 -4 9
0 5 14 -4 13 -1 22 9 26 11 4 14 13 9 33 -3 18 -2 23 3 15 6 -8 15 6 27 45 10
32 19 60 18 63 0 3 7 14 14 25 16 23 18 39 4 30 -5 -3 -10 -1 -10 4 0 6 7 11
16 11 8 0 13 4 9 9 -3 5 6 31 20 57 14 26 25 53 25 60 0 8 4 14 9 14 5 0 13 9
16 20 4 11 10 18 15 15 4 -3 13 2 20 9 11 14 58 29 90 30 8 0 36 -6 61 -13 36
-10 52 -21 70 -51 13 -21 27 -36 30 -34 4 2 6 -2 5 -9 -2 -26 46 -147 56 -141
7 4 8 2 4 -5 -4 -6 -4 -21 -1 -32 6 -17 9 -19 17 -8 8 11 8 10 4 -5 -8 -24 14
-97 27 -89 6 3 7 1 3 -6 -4 -6 -2 -18 4 -26 7 -8 10 -15 6 -15 -5 0 14 -53 47
-130 12 -29 14 -35 16 -52 1 -10 4 -9 10 1 7 10 9 8 9 -10 -1 -34 8 -65 36
-134 28 -70 39 -98 40 -105 1 -3 12 -32 25 -65 12 -33 28 -73 33 -88 8 -21 13
-25 20 -15 6 9 7 5 3 -10 -4 -13 -2 -28 3 -35 5 -7 12 -29 16 -49 4 -21 10
-37 14 -37 18 3 26 -2 15 -9 -9 -6 -9 -14 2 -37 7 -17 25 -64 40 -105 15 -41
35 -93 44 -115 9 -21 16 -42 17 -45 4 -25 17 -60 22 -56 10 11 31 -31 30 -61
-1 -17 9 -52 20 -76 20 -43 37 -171 21 -161 -10 6 -19 -23 -13 -43 4 -14 3
-15 -4 -5 -7 11 -10 10 -16 -3 -3 -9 -4 -21 -1 -26 4 -5 -2 -6 -11 -2 -14 5
-16 3 -11 -12 7 -16 5 -16 -10 -4 -15 12 -16 12 -10 -5 6 -16 5 -17 -8 -6 -8
7 -15 9 -15 4 0 -5 -15 -10 -32 -11 -45 -2 -138 18 -132 29 3 4 0 8 -6 8 -14
0 -70 89 -70 112 0 10 -5 18 -11 18 -5 0 -8 4 -5 9 8 12 -19 73 -28 64 -4 -4
-4 0 0 10 3 9 0 27 -9 40 -8 12 -18 38 -22 57 -4 19 -14 48 -21 65 -7 16 -30
75 -50 130 -20 55 -41 103 -47 106 -5 4 -6 12 -2 19 5 9 4 11 -3 6 -8 -5 -12
2 -12 18 0 29 -29 108 -43 117 -5 3 -8 9 -7 13 5 19 -14 66 -26 66 -8 0 -14 8
-14 18 0 14 2 15 10 2 6 -9 10 -10 10 -3 0 6 -6 18 -12 25 -7 7 -13 19 -14 26
-3 34 -4 37 -14 22 -8 -11 -9 -9 -5 10 4 18 0 32 -15 48 -11 12 -16 22 -11 22
6 0 3 19 -6 45 -8 25 -19 45 -24 45 -5 0 -8 3 -8 8 4 22 -2 42 -11 37 -5 -3
-7 0 -4 8 2 7 -1 27 -7 43 -7 16 -12 32 -11 37 1 4 0 7 -3 7 -9 0 -34 -69 -40
-115 -4 -24 -11 -43 -15 -40 -12 7 -32 -59 -24 -81 4 -14 3 -16 -4 -5 -8 11
-11 9 -17 -8 -3 -11 -3 -26 1 -32 4 -7 3 -9 -3 -6 -13 8 -67 -139 -57 -155 4
-7 3 -8 -4 -4 -7 4 -15 -6 -21 -26 -5 -18 -19 -58 -31 -88 -12 -30 -24 -66
-27 -80 -4 -14 -9 -27 -13 -30 -4 -3 -10 -16 -14 -30 -5 -17 -4 -21 2 -11 7 9
12 10 16 2 4 -6 2 -11 -3 -11 -6 0 -11 -8 -11 -17 0 -14 -2 -15 -9 -5 -11 17
-53 -92 -44 -115 4 -10 2 -14 -4 -10 -7 4 -18 -12 -29 -40 -9 -27 -27 -71 -39
-100 -13 -28 -21 -54 -18 -57 3 -3 -2 -8 -11 -12 -16 -6 -16 -8 0 -25 13 -14
14 -23 7 -30 -8 -8 -11 -6 -10 6 3 28 -22 29 -32 2 -6 -14 -15 -28 -21 -32 -5
-3 -8 -11 -5 -16 4 -5 -2 -6 -12 -2 -10 3 -15 3 -12 -1 7 -8 -36 -56 -51 -56
-5 0 -17 -10 -27 -23 -10 -13 -43 -37 -73 -54 -148 -84 -345 -104 -493 -49
-42 15 -80 32 -83 37 -3 5 -13 5 -23 0 -13 -7 -18 -6 -18 4 0 8 5 12 11 9 6
-3 0 4 -14 15 -14 11 -30 19 -37 16 -8 -2 -10 2 -6 12 5 13 2 15 -12 9 -11 -4
-16 -4 -13 0 11 11 -12 45 -25 38 -7 -4 -9 -4 -5 1 4 4 3 14 -3 22 -9 10 -15
11 -28 1 -13 -10 -14 -10 -3 2 17 20 15 33 -5 25 -13 -4 -15 -3 -7 5 8 8 5 28
-12 75 -26 73 -38 255 -17 276 6 6 9 18 6 25 -3 8 0 14 6 14 5 0 15 19 21 43
16 62 34 111 42 117 13 10 39 100 32 112 -4 7 -3 8 4 4 11 -6 14 0 11 20 0 4
3 10 8 13 8 5 36 76 46 116 2 6 8 20 15 32 7 12 14 30 15 40 2 10 11 34 19 52
9 19 14 41 11 48 -3 7 -1 13 5 13 10 0 58 117 55 138 0 6 4 12 9 12 6 0 7 12
4 28 -4 17 -3 22 2 14 7 -11 10 -9 15 7 3 12 1 24 -4 27 -12 7 -12 44 1 44 5
0 7 -7 4 -15 -4 -8 -1 -15 4 -15 10 0 32 60 32 88 0 6 5 12 12 12 6 0 9 3 5 6
-3 3 3 21 14 40 10 19 19 43 19 54 0 10 5 22 11 26 6 3 8 18 5 33 -3 14 -3 20
1 13 3 -9 13 2 24 29 16 33 17 44 7 51 -12 7 -9 9 9 7 10 -1 34 62 27 72 -3 5
0 9 5 9 14 0 14 27 1 32 -5 2 -7 14 -3 27 l6 25 9 -25 9 -24 14 25 c7 14 11
28 8 33 -2 4 -1 7 4 6 19 -3 34 2 29 9 -3 5 0 9 7 10 59 5 96 16 90 26 -5 8
-3 8 8 0 8 -6 30 -17 50 -23z m774 19 c8 -13 -5 -13 -25 0 -13 8 -13 10 2 10
9 0 20 -4 23 -10z m-708 -16 c-3 -3 -12 -4 -19 -1 -8 3 -5 6 6 6 11 1 17 -2
13 -5z m959 -21 c-7 -7 -26 7 -26 19 0 6 6 6 15 -2 9 -7 13 -15 11 -17z m284
13 c0 -2 -7 -7 -16 -10 -8 -3 -12 -2 -9 4 6 10 25 14 25 6z m-1756 -24 c2 -4
-4 -8 -14 -8 -10 0 -16 4 -14 8 3 4 9 8 14 8 5 0 11 -4 14 -8z m-83 -19 c10
-11 10 -14 2 -9 -7 4 -13 3 -13 -2 0 -17 13 -22 29 -10 9 7 13 8 9 4 -4 -5 -3
-15 3 -22 7 -9 6 -12 -4 -10 -24 3 -46 26 -44 47 2 23 1 23 18 2z m1426 -15
c-3 -8 -6 -5 -6 6 -1 11 2 17 5 13 3 -3 4 -12 1 -19z m-1304 -3 c-3 -9 -8 -14
-10 -11 -3 3 -2 9 2 15 9 16 15 13 8 -4z m1808 -2 c13 -16 12 -17 -3 -4 -17
13 -22 21 -14 21 2 0 10 -8 17 -17z m-344 -15 c-3 -8 -6 -5 -6 6 -1 11 2 17 5
13 3 -3 4 -12 1 -19z m-830 -30 c-3 -8 -6 -5 -6 6 -1 11 2 17 5 13 3 -3 4 -12
1 -19z m1198 5 c-2 -10 -4 -20 -5 -23 -1 -3 -2 -8 -1 -12 0 -5 -2 -7 -6 -7
-21 3 -24 -3 -12 -18 11 -13 11 -15 1 -9 -8 5 -21 1 -33 -10 -10 -9 -19 -13
-19 -9 0 4 -9 0 -20 -10 -11 -10 -17 -22 -13 -28 3 -5 1 -7 -5 -3 -5 3 -12 3
-14 -2 -1 -4 -17 -18 -35 -30 -18 -13 -38 -35 -45 -49 -7 -15 -21 -27 -32 -29
-10 -1 -32 -17 -50 -35 -17 -18 -25 -29 -17 -24 10 5 12 4 7 -4 -4 -6 -11 -9
-16 -6 -4 3 -13 -2 -20 -10 -16 -19 -29 -19 -36 0 -4 9 4 25 20 40 16 15 24
30 20 38 -4 6 -4 9 1 5 11 -11 47 11 39 24 -4 7 -3 8 4 4 18 -11 37 4 21 16
-11 8 -10 9 2 5 21 -7 62 21 53 35 -4 7 -2 8 4 4 7 -4 24 4 39 18 15 15 31 26
36 26 4 0 5 5 1 12 -4 6 -3 8 3 5 6 -4 32 15 59 41 26 26 44 41 39 33 -5 -9
-3 -12 6 -9 8 3 15 10 15 16 2 18 4 22 8 22 2 0 3 -8 1 -17z m-1772 -8 c-3 -9
-8 -14 -10 -11 -3 3 -2 9 2 15 9 16 15 13 8 -4z m-359 -10 c-22 -17 -12 -20
19 -4 20 9 20 9 5 -4 -20 -16 -14 -28 10 -20 13 4 14 2 4 -4 -10 -8 -10 -12 1
-22 8 -6 21 -9 29 -6 8 3 23 -4 34 -17 15 -18 15 -20 2 -9 -22 16 -24 -1 -3
-19 8 -7 15 -9 15 -5 0 4 12 -4 26 -18 15 -15 31 -24 37 -20 5 3 7 1 4 -4 -9
-15 19 -36 35 -27 7 4 10 4 7 0 -4 -4 4 -19 18 -34 20 -21 27 -24 42 -15 14 9
18 8 18 -3 0 -7 -4 -11 -9 -8 -4 3 -8 1 -8 -4 0 -6 7 -12 15 -16 8 -3 12 -12
9 -20 -3 -8 -1 -17 5 -21 6 -3 11 -11 11 -18 0 -6 -6 -4 -12 5 -7 9 -22 18
-33 20 -11 2 -26 10 -33 18 -12 13 -13 13 -6 0 4 -9 3 -12 -2 -7 -5 5 -9 12
-9 17 0 13 -63 69 -70 62 -4 -4 -5 -2 -3 3 2 6 -16 28 -39 49 -24 21 -43 35
-43 31 0 -4 -7 -2 -15 5 -8 7 -21 10 -29 7 -10 -4 -13 -1 -9 8 3 8 10 12 16 8
6 -4 7 -1 3 6 -6 9 -13 8 -27 -5 -21 -19 -24 -13 -9 16 8 15 4 23 -21 41 l-30
21 23 13 c32 18 46 18 22 0z m1209 -35 c-3 -12 -8 -19 -11 -16 -5 6 5 36 12
36 2 0 2 -9 -1 -20z m637 -15 c0 -2 -9 -3 -19 -2 -11 0 -18 5 -15 9 4 6 34 0
34 -7z m-843 -27 c-3 -8 -6 -5 -6 6 -1 11 2 17 5 13 3 -3 4 -12 1 -19z m-1104
-3 c-3 -9 -8 -14 -10 -11 -3 3 -2 9 2 15 9 16 15 13 8 -4z m244 0 c0 -8 -4
-12 -9 -9 -5 3 -6 10 -3 15 9 13 12 11 12 -6z m1913 -5 c0 -5 -5 -10 -11 -10
-5 0 -7 5 -4 10 3 6 8 10 11 10 2 0 4 -4 4 -10z m181 -67 c-12 -20 -14 -14 -5
12 4 9 9 14 11 11 3 -2 0 -13 -6 -23z m-386 -1 c-3 -3 -11 0 -18 7 -9 10 -8
11 6 5 10 -3 15 -9 12 -12z m-1711 -41 c-2 -3 -12 3 -22 13 -16 17 -16 18 5 5
12 -7 20 -15 17 -18z m1006 25 c0 -3 -4 -8 -10 -11 -5 -3 -10 -1 -10 4 0 6 5
11 10 11 6 0 10 -2 10 -4z m-1271 -50 c27 -17 42 -21 52 -14 11 7 9 8 -6 3
-15 -5 -17 -3 -8 6 18 18 37 1 21 -19 -10 -12 -10 -14 0 -8 7 4 12 2 12 -4 0
-6 4 -9 9 -6 5 3 12 -1 15 -9 3 -8 9 -14 13 -13 4 1 20 -6 35 -16 15 -10 32
-15 38 -11 6 4 9 1 8 -7 -2 -8 6 -13 19 -12 12 0 20 -3 17 -8 -3 -4 3 -11 13
-15 10 -3 30 -15 45 -25 14 -10 33 -18 40 -18 24 0 45 -33 46 -70 0 -29 -1
-31 -8 -14 -8 20 -31 36 -57 38 -6 1 -21 11 -33 24 -21 23 -35 28 -43 15 -2
-5 -2 -3 -1 4 3 13 -63 56 -75 49 -4 -3 -13 0 -21 6 -12 8 -11 9 5 4 20 -6 20
-6 1 9 -11 8 -24 15 -28 15 -5 0 -18 9 -29 19 -12 11 -36 22 -54 25 -31 6 -92
45 -71 46 5 0 3 7 -4 15 -19 23 4 19 49 -9z m2371 -2 c-7 -7 -20 -16 -31 -19
-11 -4 -17 -10 -14 -15 3 -4 -3 -7 -13 -6 -10 0 -16 -5 -14 -13 2 -8 -3 -11
-13 -8 -8 4 -15 2 -15 -3 0 -6 -3 -9 -7 -8 -5 2 -28 -9 -52 -24 -39 -23 -41
-27 -25 -37 17 -11 17 -11 -4 -6 -24 7 -136 -50 -127 -65 3 -4 -3 -6 -14 -3
-10 3 -22 0 -25 -6 -5 -7 0 -9 11 -5 15 5 15 4 3 -4 -8 -6 -18 -8 -23 -5 -4 3
-18 -3 -29 -14 -15 -13 -22 -15 -25 -5 -3 6 -8 10 -13 7 -4 -3 -6 4 -3 15 3
11 12 20 20 20 13 0 13 2 2 17 -13 15 -12 15 8 4 19 -9 22 -9 17 3 -4 11 0 13
15 9 12 -3 21 -1 21 5 0 5 11 13 25 16 14 4 24 10 21 14 -2 4 7 8 21 9 14 0
30 6 37 13 8 8 6 10 -9 5 -19 -6 -19 -6 -2 5 10 7 30 13 44 15 14 1 28 6 32
11 3 5 31 22 61 37 30 15 68 36 84 46 32 21 54 18 36 -5z m-464 -20 c1 -9 0
-13 -4 -10 -3 4 -7 14 -8 22 -1 9 0 13 4 10 3 -4 7 -14 8 -22z m314 12 c0 -2
-7 -7 -16 -10 -8 -3 -12 -2 -9 4 6 10 25 14 25 6z m70 0 c0 -2 -7 -7 -16 -10
-8 -3 -12 -2 -9 4 6 10 25 14 25 6z m-1975 -16 c3 -5 2 -10 -4 -10 -5 0 -13 5
-16 10 -3 6 -2 10 4 10 5 0 13 -4 16 -10z m1542 -22 c-3 -8 -6 -5 -6 6 -1 11
2 17 5 13 3 -3 4 -12 1 -19z m-1834 -15 c3 -5 -5 -8 -18 -8 -13 0 -21 3 -18 8
2 4 10 7 18 7 8 0 16 -3 18 -7z m57 -33 c0 -5 -2 -10 -4 -10 -3 0 -8 5 -11 10
-3 6 -1 10 4 10 6 0 11 -4 11 -10z m180 -5 c11 -13 10 -14 -4 -9 -9 3 -16 10
-16 15 0 13 6 11 20 -6z m1635 -45 c3 -5 1 -10 -4 -10 -6 0 -11 5 -11 10 0 6
2 10 4 10 3 0 8 -4 11 -10z m-2035 -6 c0 -8 -19 -13 -24 -6 -3 5 1 9 9 9 8 0
15 -2 15 -3z m2625 -24 c1 -15 -2 -17 -17 -9 -15 8 -16 12 -6 23 15 16 21 13
23 -14z m-595 5 c0 -12 -19 -12 -23 0 -4 9 -1 12 9 8 7 -3 14 -7 14 -8z
m-2056 -10 c3 -8 1 -15 -4 -15 -6 0 -10 7 -10 15 0 8 2 15 4 15 2 0 6 -7 10
-15z m2543 -1 c-3 -3 -12 -4 -19 -1 -8 3 -5 6 6 6 11 1 17 -2 13 -5z m118 -34
c3 -5 3 -10 -2 -11 -42 -3 -68 -11 -112 -33 -28 -15 -53 -26 -56 -26 -29 1
-35 -1 -31 -9 3 -5 -1 -12 -10 -15 -8 -3 -12 -2 -9 4 9 14 -1 12 -36 -6 -17
-8 -39 -17 -49 -19 -10 -2 -47 -16 -82 -31 -64 -27 -128 -39 -128 -24 0 14 54
48 68 43 6 -3 12 0 12 6 0 6 3 10 8 9 12 -4 142 35 142 43 0 4 16 10 35 13 20
4 34 10 31 14 -2 4 12 7 31 8 19 0 38 5 41 10 4 5 14 10 22 11 8 1 32 8 52 15
32 12 35 15 20 26 -9 7 -3 6 15 -3 17 -8 35 -19 38 -25z m-2610 7 c11 -3 58
-20 105 -36 91 -33 103 -36 80 -21 -11 7 -5 8 20 4 43 -8 51 -14 19 -14 -13 0
7 -11 45 -24 39 -13 77 -21 85 -18 8 3 12 1 8 -5 -4 -6 0 -14 9 -17 8 -3 12
-2 9 4 -3 6 -1 10 4 10 6 0 11 -4 11 -10 0 -5 6 -10 14 -10 19 0 28 -14 20
-34 -6 -16 -46 -13 -70 5 -6 5 -14 6 -17 2 -4 -3 -7 -1 -7 6 0 8 -7 11 -15 7
-8 -3 -15 -1 -15 5 0 7 -11 9 -27 5 -19 -4 -23 -4 -14 3 11 7 8 10 -10 16 -13
3 -53 18 -89 32 -36 14 -74 29 -85 33 -11 4 -37 15 -59 24 -21 9 -48 14 -60
11 -17 -5 -18 -4 -6 4 13 9 12 11 -5 12 -17 1 -17 2 -2 6 9 2 17 10 17 16 0 8
3 9 8 1 4 -6 16 -14 27 -17z m389 -26 c-2 -3 -12 3 -22 13 -16 17 -16 18 5 5
12 -7 20 -15 17 -18z m-59 9 c3 -6 -1 -7 -9 -4 -18 7 -21 14 -7 14 6 0 13 -4
16 -10z m1890 0 c3 -6 -1 -7 -9 -4 -18 7 -21 14 -7 14 6 0 13 -4 16 -10z
m-1945 -30 c18 -12 2 -12 -25 0 -13 6 -15 9 -5 9 8 0 22 -4 30 -9z m2090 6 c0
-3 -4 -8 -10 -11 -5 -3 -10 -1 -10 4 0 6 5 11 10 11 6 0 10 -2 10 -4z m177
-32 c-3 -3 -12 -4 -19 -1 -8 3 -5 6 6 6 11 1 17 -2 13 -5z m-2420 -10 c-3 -3
-12 -4 -19 -1 -8 3 -5 6 6 6 11 1 17 -2 13 -5z m2423 -8 c0 -2 -7 -7 -16 -10
-8 -3 -12 -2 -9 4 6 10 25 14 25 6z m-1290 -16 c0 -5 -5 -10 -11 -10 -5 0 -7
5 -4 10 3 6 8 10 11 10 2 0 4 -4 4 -10z m13 -25 c-3 -9 -8 -14 -10 -11 -3 3
-2 9 2 15 9 16 15 13 8 -4z m-23 -30 c0 -5 -5 -3 -10 5 -5 8 -10 20 -10 25 0
6 5 3 10 -5 5 -8 10 -19 10 -25z m1090 21 c0 -2 -9 -6 -20 -9 -11 -3 -18 -1
-14 4 5 9 34 13 34 5z m-85 -26 c3 -6 -1 -7 -9 -4 -18 7 -21 14 -7 14 6 0 13
-4 16 -10z m-1955 -10 c8 -5 11 -10 5 -10 -5 0 -17 5 -25 10 -8 5 -10 10 -5
10 6 0 17 -5 25 -10z m1380 -35 c0 -5 -5 -3 -10 5 -5 8 -10 20 -10 25 0 6 5 3
10 -5 5 -8 10 -19 10 -25z m-1590 -1 c0 -2 -7 -4 -15 -4 -8 0 -15 4 -15 10 0
5 7 7 15 4 8 -4 15 -8 15 -10z m2357 10 c-3 -3 -12 -4 -19 -1 -8 3 -5 6 6 6
11 1 17 -2 13 -5z m-1240 -26 c-3 -8 -6 -5 -6 6 -1 11 2 17 5 13 3 -3 4 -12 1
-19z m1463 -7 c0 -4 -30 -13 -67 -20 -38 -7 -90 -19 -118 -26 -27 -8 -72 -17
-100 -20 -27 -4 -68 -11 -90 -16 -68 -17 -115 -21 -115 -9 0 5 -8 10 -17 11
-10 1 -3 6 15 11 18 6 32 18 32 27 0 10 3 12 8 5 8 -12 82 -16 97 -5 6 4 32 8
59 9 27 2 57 7 67 12 10 6 25 7 35 3 13 -5 15 -3 9 7 -6 9 -4 11 4 5 19 -11
128 5 110 16 -10 7 -5 8 14 3 18 -4 27 -2 27 6 0 10 3 10 15 0 8 -7 15 -16 15
-19z m-2700 4 c10 3 21 1 25 -5 4 -6 21 -11 38 -11 67 -1 112 -5 122 -11 11
-7 73 -17 135 -23 31 -3 66 -10 80 -15 3 -1 9 -2 13 -1 4 1 3 -7 -2 -18 -12
-21 -41 -36 -41 -20 0 6 -8 9 -17 8 -10 -2 -27 0 -38 4 -11 3 -36 9 -55 12
-19 3 -50 10 -68 16 -19 6 -46 9 -61 6 -16 -3 -33 -1 -39 5 -6 6 -21 12 -34
14 -76 12 -128 28 -128 40 0 10 6 11 26 3 15 -5 35 -7 44 -4z m-83 -47 c-3 -8
-6 -5 -6 6 -1 11 2 17 5 13 3 -3 4 -12 1 -19z m1832 -1 c0 -9 -2 -8 -6 1 -2 6
-10 9 -15 6 -7 -4 -8 -2 -4 5 9 13 26 5 25 -12z m421 7 c0 -8 -19 -13 -24 -6
-3 5 1 9 9 9 8 0 15 -2 15 -3z m-2273 -41 c-3 -10 -5 -4 -5 12 0 17 2 24 5 18
2 -7 2 -21 0 -30z m573 23 c0 -3 -4 -8 -10 -11 -5 -3 -10 -1 -10 4 0 6 5 11
10 11 6 0 10 -2 10 -4z m383 -21 c-3 -9 -8 -14 -10 -11 -3 3 -2 9 2 15 9 16
15 13 8 -4z m-668 -15 c-3 -5 -12 -10 -18 -10 -7 0 -6 4 3 10 19 12 23 12 15
0z m2359 1 c4 -5 -3 -7 -14 -4 -23 6 -26 13 -6 13 8 0 17 -4 20 -9z m-1377
-63 c-3 -8 -6 -5 -6 6 -1 11 2 17 5 13 3 -3 4 -12 1 -19z m1590 -50 c-3 -7 -5
-2 -5 12 0 14 2 19 5 13 2 -7 2 -19 0 -25z m-1159 -9 c-3 -8 -7 -3 -11 10 -4
17 -3 21 5 13 5 -5 8 -16 6 -23z m920 -17 c184 -4 212 -6 201 -16 -4 -4 -356
-18 -412 -16 -36 1 -65 25 -41 34 9 3 21 3 27 -1 7 -4 8 0 3 12 -5 15 -4 16 9
5 11 -9 72 -14 213 -18z m-2473 1 c50 -3 120 -1 157 4 47 7 69 6 72 -1 3 -7 7
-8 13 -1 14 17 51 13 56 -7 3 -10 1 -18 -5 -18 -5 0 -6 -5 -3 -10 4 -7 -2 -9
-17 -5 -28 6 -190 14 -320 14 -58 1 -98 5 -98 11 0 6 10 10 23 11 21 0 21 1 2
10 -17 8 -16 8 5 3 14 -3 66 -8 115 -11z m2638 10 c-7 -2 -21 -2 -30 0 -10 3
-4 5 12 5 17 0 24 -2 18 -5z m-2310 -70 c-5 -11 -8 -12 -13 -2 -5 7 -6 19 -3
26 5 11 8 12 13 2 5 -7 6 -19 3 -26z m427 -37 c0 -2 -7 -9 -15 -16 -13 -11
-14 -10 -9 4 5 14 24 23 24 12z m727 -18 c-3 -8 -6 -5 -6 6 -1 11 2 17 5 13 3
-3 4 -12 1 -19z m-1253 -95 c-6 -9 -17 -19 -25 -21 -11 -3 -11 -1 1 7 16 12 5
11 -95 -10 -27 -5 -57 -10 -65 -10 -36 -1 -69 -11 -67 -21 1 -6 -5 -13 -13
-15 -13 -4 -13 -3 0 6 23 16 -10 24 -44 11 -35 -13 -36 -13 -36 4 0 12 33 24
83 29 9 1 17 4 17 7 0 3 12 6 28 6 15 1 50 6 77 12 28 6 68 15 90 20 46 10 65
0 49 -25z m2143 19 c5 1 26 -4 48 -10 22 -6 74 -16 115 -22 83 -12 124 -26
116 -39 -6 -10 -2 -10 -201 25 -82 15 -155 27 -161 27 -9 0 -12 20 -5 33 1 1
19 -2 41 -7 22 -5 43 -8 47 -7z m-2090 -14 c-3 -8 -6 -5 -6 6 -1 11 2 17 5 13
3 -3 4 -12 1 -19z m-352 -18 c-27 -12 -43 -12 -25 0 8 5 22 9 30 9 10 0 8 -3
-5 -9z m2682 4 c-3 -3 -12 -4 -19 -1 -8 3 -5 6 6 6 11 1 17 -2 13 -5z m-313
-20 c3 -8 2 -12 -4 -9 -6 3 -10 10 -10 16 0 14 7 11 14 -7z m33 10 c-3 -3 -12
-4 -19 -1 -8 3 -5 6 6 6 11 1 17 -2 13 -5z m136 -31 c-7 -2 -19 -2 -25 0 -7 3
-2 5 12 5 14 0 19 -2 13 -5z m-2366 -9 c-3 -3 -12 -4 -19 -1 -8 3 -5 6 6 6 11
1 17 -2 13 -5z m2520 -56 c-3 -8 -6 -5 -6 6 -1 11 2 17 5 13 3 -3 4 -12 1 -19z
m-196 -98 c6 0 7 4 4 10 -3 6 1 7 9 4 9 -3 14 -9 11 -14 -6 -9 75 -41 86 -34
5 3 9 0 9 -5 0 -6 6 -11 14 -11 7 0 19 -7 26 -15 10 -12 7 -14 -18 -12 -17 1
-28 6 -25 11 3 5 -6 7 -20 4 -15 -3 -24 -1 -21 3 2 5 -21 16 -53 25 -67 19
-76 25 -67 47 5 15 8 15 21 2 8 -8 19 -15 24 -15z m-2321 16 c0 -2 -7 -7 -16
-10 -8 -3 -12 -2 -9 4 6 10 25 14 25 6z m1294 -35 c-6 -6 -24 19 -24 34 1 6 7
1 15 -9 8 -11 12 -22 9 -25z m-1244 21 c0 -16 -23 -30 -38 -25 -10 4 -13 2 -8
-5 4 -8 2 -10 -7 -6 -8 3 -18 1 -22 -5 -3 -6 -18 -11 -32 -11 -18 0 -24 -4
-19 -15 5 -13 2 -14 -15 -4 -15 8 -19 8 -15 0 9 -14 -23 -14 -44 -1 -12 8 -12
10 5 10 17 0 17 2 5 10 -12 8 -10 10 10 9 14 -1 52 10 85 24 61 27 95 33 95
19z m2192 -24 c-8 -8 -9 -4 -5 13 4 13 8 18 11 10 2 -7 -1 -18 -6 -23z m-417
-38 c3 -5 1 -10 -4 -10 -6 0 -11 5 -11 10 0 6 2 10 4 10 3 0 8 -4 11 -10z
m-1995 -20 c0 -5 -2 -10 -4 -10 -3 0 -8 5 -11 10 -3 6 -1 10 4 10 6 0 11 -4
11 -10z m197 -6 c-3 -3 -12 -4 -19 -1 -8 3 -5 6 6 6 11 1 17 -2 13 -5z m766
-49 c-7 -21 -12 -19 -10 4 0 11 5 18 9 15 4 -3 5 -11 1 -19z m-933 4 c0 8 2
12 5 9 3 -3 1 -16 -4 -29 -5 -13 -10 -19 -10 -12 -1 6 -4 20 -7 30 -5 15 -4
15 5 3 9 -12 11 -13 11 -1z m1340 -96 c-11 -17 -11 -17 -6 0 3 10 6 24 7 30 0
9 2 9 5 0 3 -7 0 -20 -6 -30z m-1268 -72 c-4 -10 -7 -11 -10 -3 -2 7 -8 10
-13 6 -5 -3 -9 -1 -9 5 0 5 9 9 19 8 12 -1 17 -6 13 -16z m68 -61 c0 -5 -2
-10 -4 -10 -3 0 -8 5 -11 10 -3 6 -1 10 4 10 6 0 11 -4 11 -10z m18 -55 c-3
-3 -9 2 -12 12 -6 14 -5 15 5 6 7 -7 10 -15 7 -18z m1985 -25 c3 -11 1 -20 -4
-20 -5 0 -9 9 -9 20 0 11 2 20 4 20 2 0 6 -9 9 -20z m-1013 -4 c0 -2 -8 -10
-17 -17 -16 -13 -17 -12 -4 4 13 16 21 21 21 13z m-965 -24 c-3 -3 -11 0 -18
7 -9 10 -8 11 6 5 10 -3 15 -9 12 -12z m2249 -30 c3 -5 -1 -9 -9 -9 -8 0 -12
4 -9 9 3 4 7 8 9 8 2 0 6 -4 9 -8z m-1918 -57 c16 -8 22 -15 14 -15 -8 1 -24
7 -34 15 -25 19 -16 19 20 0z m1811 -41 c-3 -3 -12 -4 -19 -1 -8 3 -5 6 6 6
11 1 17 -2 13 -5z m-1982 -23 c-3 -6 -11 -11 -16 -11 -5 0 -4 6 3 14 14 16 24
13 13 -3z m1900 -61 c3 -6 -1 -7 -9 -4 -18 7 -21 14 -7 14 6 0 13 -4 16 -10z
m-1761 -76 c3 -8 10 -13 15 -9 5 3 12 2 15 -3 10 -17 -24 -8 -41 10 -9 10 -11
18 -6 18 6 0 14 -7 17 -16z m1665 -3 c7 -5 9 -11 5 -14 -5 -3 -15 1 -22 9 -14
16 -5 18 17 5z m-143 -76 c-11 -8 -27 -15 -35 -15 -9 1 -2 7 14 15 39 18 44
18 21 0z m-116 -75 c18 -12 2 -12 -25 0 -13 6 -15 9 -5 9 8 0 22 -4 30 -9z"/>
<path d="M3655 4440 c3 -5 8 -10 11 -10 2 0 4 5 4 10 0 6 -5 10 -11 10 -5 0
-7 -4 -4 -10z"/>
<path d="M5417 2729 c4 -13 8 -18 11 -10 2 7 -1 18 -6 23 -8 8 -9 4 -5 -13z"/>
<path d="M3144 3916 c11 -9 24 -16 30 -16 12 0 7 5 -24 19 -24 11 -24 11 -6
-3z"/>
<path d="M3780 4640 c-8 -5 -10 -10 -5 -10 6 0 17 5 25 10 8 5 11 10 5 10 -5
0 -17 -5 -25 -10z"/>
<path d="M5313 4379 c8 -14 14 -15 24 -7 16 13 10 21 -16 23 -16 1 -17 -2 -8
-16z"/>
<path d="M5936 2837 c-3 -11 -3 -24 -1 -28 9 -13 74 -7 86 8 10 11 10 14 -2
11 -8 -2 -13 3 -11 11 3 12 1 12 -14 0 -10 -8 -15 -9 -11 -3 4 7 -3 14 -17 16
-18 4 -26 0 -30 -15z"/>
<path d="M2563 2778 c-17 -6 -34 -17 -37 -24 -4 -10 7 -8 37 7 63 32 63 37 0
17z"/>
<path d="M2600 2670 c0 -5 5 -10 11 -10 5 0 7 5 4 10 -3 6 -8 10 -11 10 -2 0
-4 -4 -4 -10z"/>
<path d="M2540 2653 c0 -12 3 -14 8 -7 4 7 16 14 27 17 15 4 14 5 -7 6 -21 1
-28 -4 -28 -16z"/>
<path d="M2880 2315 c-23 -19 -46 -32 -51 -29 -5 3 -9 0 -9 -5 0 -6 -3 -10 -8
-8 -13 4 -57 -37 -58 -55 -2 -20 30 -25 41 -8 4 6 11 8 16 5 5 -4 9 -4 9 0 0
3 -10 10 -22 15 -20 8 -19 8 9 7 17 -1 29 -6 26 -10 -2 -4 22 11 55 34 60 40
78 62 66 80 -10 17 -32 9 -74 -26z m20 -28 c0 -7 -4 -6 -10 3 -8 12 -10 12
-10 1 0 -8 -3 -12 -6 -8 -9 9 6 28 17 22 5 -4 9 -12 9 -18z"/>
<path d="M4005 1601 c-3 -6 -3 -16 0 -21 4 -6 1 -18 -7 -27 -11 -14 -11 -16 2
-11 11 4 16 0 16 -12 0 -10 -6 -16 -13 -13 -7 3 -13 0 -13 -5 0 -14 41 -6 52
10 14 22 5 82 -14 86 -9 2 -19 -2 -23 -7z"/>
</g>
</svg>
