<?xml version="1.0" encoding="UTF-8"?>
<!DOCTYPE svg PUBLIC "-//W3C//DTD SVG 1.1//EN" "http://www.w3.org/Graphics/SVG/1.1/DTD/svg11.dtd">
<svg xmlns="http://www.w3.org/2000/svg" version="1.1" width="1208px" height="934px" style="shape-rendering:geometricPrecision; text-rendering:geometricPrecision; image-rendering:optimizeQuality; fill-rule:evenodd; clip-rule:evenodd" xmlns:xlink="http://www.w3.org/1999/xlink">
<g><path style="opacity:1" fill="#1c8880" d="M 654.5,20.5 C 654.967,23.2974 656.633,24.6308 659.5,24.5C 671.453,24.7269 681.287,29.3935 689,38.5C 690.411,40.6504 691.245,42.9837 691.5,45.5C 692.01,48.3878 691.344,50.7211 689.5,52.5C 646.137,44.128 602.47,41.9613 558.5,46C 542.794,47.9514 527.127,50.118 511.5,52.5C 509.744,51.4479 509.077,49.7812 509.5,47.5C 512.303,35.8648 519.637,28.6981 531.5,26C 535.114,25.0551 538.781,24.3884 542.5,24C 558.661,8.16436 578.161,0.997691 601,2.5C 616.317,2.0961 630.817,5.26277 644.5,12C 648.462,14.1399 651.796,16.9733 654.5,20.5 Z"/></g>
<g><path style="opacity:0.251" fill="#c2dfdc" d="M 654.5,20.5 C 656.191,21.8637 657.858,23.197 659.5,24.5C 656.633,24.6308 654.967,23.2974 654.5,20.5 Z"/></g>
<g><path style="opacity:1" fill="#ebf3f2" d="M 584.5,27.5 C 607.945,27.0472 631.278,28.3805 654.5,31.5C 654.5,32.5 654.5,33.5 654.5,34.5C 618.826,29.19 583.16,29.19 547.5,34.5C 547.33,33.1779 547.663,32.0113 548.5,31C 560.634,29.6195 572.634,28.4528 584.5,27.5 Z"/></g>
<g><path style="opacity:0.502" fill="#d0e8e6" d="M 691.5,45.5 C 692.473,47.9479 692.806,50.6146 692.5,53.5C 691.209,53.7373 690.209,53.404 689.5,52.5C 691.344,50.7211 692.01,48.3878 691.5,45.5 Z"/></g>
<g><path style="opacity:0.251" fill="#f0f8f7" d="M 509.5,47.5 C 509.077,49.7812 509.744,51.4479 511.5,52.5C 510.791,53.404 509.791,53.7373 508.5,53.5C 508.205,51.2646 508.539,49.2646 509.5,47.5 Z"/></g>
<g><path style="opacity:1" fill="#14867e" d="M 664.5,103.5 C 662.405,102.588 660.405,101.421 658.5,100C 655.167,99.3333 651.833,99.3333 648.5,100C 646.36,100.973 644.693,102.473 643.5,104.5C 633.188,105.499 622.855,105.832 612.5,105.5C 612.334,101.154 612.501,96.8206 613,92.5C 618.102,88.7825 619.769,83.7825 618,77.5C 605.412,59.6108 593.746,60.2775 583,79.5C 582.13,84.7672 583.797,89.1006 588,92.5C 588.499,96.8206 588.666,101.154 588.5,105.5C 578.494,105.666 568.494,105.5 558.5,105C 555.961,101.064 552.295,99.2305 547.5,99.5C 542.743,101.358 537.743,102.358 532.5,102.5C 513.028,101.217 494.695,96.0499 477.5,87C 470.578,80.607 470.911,74.607 478.5,69C 492.236,61.4211 506.902,56.4211 522.5,54C 574.501,45.3481 626.501,45.3481 678.5,54C 694.981,56.2795 710.314,61.6129 724.5,70C 730.331,76.6842 729.665,82.6842 722.5,88C 704.111,96.5976 684.778,101.764 664.5,103.5 Z"/></g>
<g><path style="opacity:0.936" fill="#fdfaf6" d="M 664.5,103.5 C 665.3,105.682 666.8,107.349 669,108.5C 672.333,114.167 672.333,119.833 669,125.5C 666.167,127 664,129.167 662.5,132C 655.676,136.97 649.342,136.47 643.5,130.5C 640.914,129.52 638.247,129.187 635.5,129.5C 631.366,128.515 627.032,128.182 622.5,128.5C 622.737,129.791 622.404,130.791 621.5,131.5C 619.365,129.631 616.698,128.964 613.5,129.5C 613.5,134.167 613.5,138.833 613.5,143.5C 615.554,143.635 617.221,142.968 618.5,141.5C 620.048,142.794 622.048,143.461 624.5,143.5C 626.921,143.44 629.254,143.107 631.5,142.5C 638.655,143.655 645.988,143.822 653.5,143C 658.996,137.02 665.329,136.02 672.5,140C 674.333,143.167 676.833,145.667 680,147.5C 682.34,151.555 683.007,155.889 682,160.5C 677.726,167.447 671.726,172.113 664,174.5C 659.633,173.955 656.133,171.955 653.5,168.5C 643.106,167.193 632.773,167.193 622.5,168.5C 619.375,167.521 616.042,167.187 612.5,167.5C 612.334,174.175 612.5,180.842 613,187.5C 614.011,188.337 615.178,188.67 616.5,188.5C 621.517,191.022 623.85,195.189 623.5,201C 623.652,205.737 621.985,209.571 618.5,212.5C 617.417,212.539 616.417,212.873 615.5,213.5C 614.225,218.216 614.225,222.883 615.5,227.5C 615.5,229.167 615.5,230.833 615.5,232.5C 610.833,232.5 606.167,232.5 601.5,232.5C 596.5,232.5 591.5,232.5 586.5,232.5C 586.768,230.901 586.434,229.568 585.5,228.5C 586.779,223.551 586.779,218.551 585.5,213.5C 584.817,213.863 584.15,214.196 583.5,214.5C 582.25,212.068 580.75,209.734 579,207.5C 576.359,198.448 578.859,191.448 586.5,186.5C 587.117,186.611 587.617,186.944 588,187.5C 588.5,180.842 588.666,174.175 588.5,167.5C 585.612,166.99 583.279,167.656 581.5,169.5C 576.076,168.214 570.41,167.548 564.5,167.5C 559.167,167.667 553.833,167.833 548.5,168C 542.604,174.815 535.937,175.815 528.5,171C 525.568,167.944 522.734,164.777 520,161.5C 517.874,156.994 518.207,152.661 521,148.5C 524.534,144.631 528.367,141.131 532.5,138C 538.535,136.378 543.535,137.878 547.5,142.5C 555.472,143.498 563.472,143.831 571.5,143.5C 571.5,142.5 571.5,141.5 571.5,140.5C 572.404,141.209 572.737,142.209 572.5,143.5C 577.032,143.818 581.366,143.485 585.5,142.5C 586.15,142.804 586.817,143.137 587.5,143.5C 588.493,138.88 588.827,134.214 588.5,129.5C 586.167,129.5 583.833,129.5 581.5,129.5C 576.733,128.203 572.066,128.203 567.5,129.5C 562.774,128.617 558.774,129.784 555.5,133C 550.5,136.333 545.5,136.333 540.5,133C 535.825,129.336 532.325,124.836 530,119.5C 529.372,112.92 531.872,107.753 537.5,104C 535.618,103.802 533.952,103.302 532.5,102.5C 537.743,102.358 542.743,101.358 547.5,99.5C 552.295,99.2305 555.961,101.064 558.5,105C 568.494,105.5 578.494,105.666 588.5,105.5C 588.666,101.154 588.499,96.8206 588,92.5C 583.797,89.1006 582.13,84.7672 583,79.5C 593.746,60.2775 605.412,59.6108 618,77.5C 619.769,83.7825 618.102,88.7825 613,92.5C 612.501,96.8206 612.334,101.154 612.5,105.5C 622.855,105.832 633.188,105.499 643.5,104.5C 644.693,102.473 646.36,100.973 648.5,100C 651.833,99.3333 655.167,99.3333 658.5,100C 660.405,101.421 662.405,102.588 664.5,103.5 Z"/></g>
<g><path style="opacity:1" fill="#f7a808" d="M 555.5,108.5 C 567.989,109.495 580.656,109.829 593.5,109.5C 593.824,102.646 593.491,95.979 592.5,89.5C 590.248,89.0844 588.748,87.751 588,85.5C 587.333,83.1667 587.333,80.8333 588,78.5C 591.5,75.6667 594.667,72.5 597.5,69C 600.303,68.245 602.97,68.5783 605.5,70C 607.333,73.1667 609.833,75.6667 613,77.5C 615.553,82.5589 614.387,86.5589 609.5,89.5C 608.503,96.1335 608.17,102.8 608.5,109.5C 620.838,109.667 633.171,109.5 645.5,109C 648.527,103.548 652.861,102.214 658.5,105C 660.333,108.167 662.833,110.667 666,112.5C 668.149,116.087 667.816,119.42 665,122.5C 662.167,124 660,126.167 658.5,129C 652.861,131.786 648.527,130.452 645.5,125C 633.171,124.5 620.838,124.333 608.5,124.5C 608.5,132.5 608.5,140.5 608.5,148.5C 624.514,148.833 640.514,148.499 656.5,147.5C 659.686,142.348 664.02,141.181 669.5,144C 671.43,147.053 673.93,149.553 677,151.5C 677.667,154.167 677.667,156.833 677,159.5C 673.833,162 671,164.833 668.5,168C 663.181,170.668 659.181,169.335 656.5,164C 640.503,163.5 624.503,163.333 608.5,163.5C 608.5,171.167 608.5,178.833 608.5,186.5C 603.5,186.5 598.5,186.5 593.5,186.5C 593.5,178.833 593.5,171.167 593.5,163.5C 577.153,163.167 560.82,163.501 544.5,164.5C 542.25,168.459 538.916,169.959 534.5,169C 531.665,165.869 528.498,163.036 525,160.5C 523.627,158.305 523.294,155.971 524,153.5C 527.138,150.026 530.305,146.526 533.5,143C 537.505,141.902 541.005,142.735 544,145.5C 544.483,146.448 544.649,147.448 544.5,148.5C 560.503,148.667 576.503,148.5 592.5,148C 593.482,140.253 593.815,132.42 593.5,124.5C 580.816,124.168 568.149,124.501 555.5,125.5C 553.25,129.459 549.916,130.959 545.5,130C 542.231,127.31 539.064,124.477 536,121.5C 534.578,118.97 534.245,116.303 535,113.5C 538.5,110.667 541.667,107.5 544.5,104C 549.562,102.393 553.228,103.893 555.5,108.5 Z"/></g>
<g><path style="opacity:1" fill="#2a8d85" d="M 583.5,214.5 C 584.15,214.196 584.817,213.863 585.5,213.5C 586.779,218.551 586.779,223.551 585.5,228.5C 582.495,230.277 579.162,231.277 575.5,231.5C 565.178,232.776 554.845,232.776 544.5,231.5C 530.554,230.098 516.887,227.264 503.5,223C 487.014,217.283 470.847,210.783 455,203.5C 434.036,211.946 413.87,210.113 394.5,198C 385.226,190.571 374.893,185.071 363.5,181.5C 362.833,181.833 362.167,182.167 361.5,182.5C 368.815,204.883 360.981,218.216 338,222.5C 324.57,221.237 317.403,213.904 316.5,200.5C 316.555,193.162 319.055,186.828 324,181.5C 328.439,177.699 333.273,174.533 338.5,172C 337,170.5 335.5,169 334,167.5C 317.8,183.354 299.3,195.854 278.5,205C 273.594,206.476 268.594,207.476 263.5,208C 261.926,209.826 261.093,211.993 261,214.5C 259.784,223.802 258.951,233.135 258.5,242.5C 260.582,242.472 262.416,243.139 264,244.5C 265.354,248.363 265.854,252.363 265.5,256.5C 256.833,256.5 248.167,256.5 239.5,256.5C 239.335,252.818 239.501,249.152 240,245.5C 240.816,244.177 241.983,243.511 243.5,243.5C 244.5,243.5 245.5,243.5 246.5,243.5C 246.5,239.5 246.5,235.5 246.5,231.5C 246.396,224.086 247.062,216.752 248.5,209.5C 249.124,209.083 249.457,208.416 249.5,207.5C 249.253,206.287 248.586,205.62 247.5,205.5C 239.016,202.187 232.516,196.521 228,188.5C 216.465,168.042 214.465,146.709 222,124.5C 231.861,104.317 248.027,95.817 270.5,99C 276.768,100.201 282.768,102.201 288.5,105C 298.575,111.037 308.908,116.537 319.5,121.5C 320.708,122.782 322.042,122.782 323.5,121.5C 323.376,120.893 323.043,120.56 322.5,120.5C 317.111,109.941 316.278,98.9409 320,87.5C 329.703,72.4882 342.87,68.3215 359.5,75C 371.385,84.3432 374.551,96.1765 369,110.5C 364.382,118.785 358.049,125.452 350,130.5C 349.568,131.6 350.068,132.267 351.5,132.5C 367.742,117.535 386.408,106.368 407.5,99C 423.441,93.6096 439.441,93.2762 455.5,98C 471.333,105.46 480.5,117.96 483,135.5C 486.475,153.175 483.809,169.842 475,185.5C 472.872,188.63 470.372,191.463 467.5,194C 497.076,209.025 528.41,217.858 561.5,220.5C 569.426,220.354 576.76,218.354 583.5,214.5 Z M 344.5,84.5 C 353.019,84.6855 357.686,89.0189 358.5,97.5C 355.927,108.584 349.427,116.584 339,121.5C 331.256,112.542 329.256,102.542 333,91.5C 336.225,87.9793 340.058,85.646 344.5,84.5 Z M 429.5,107.5 C 449.863,105.579 463.03,114.246 469,133.5C 473.705,150.265 471.372,165.932 462,180.5C 459.618,183.219 456.951,185.553 454,187.5C 439.783,180.643 425.95,173.143 412.5,165C 395.871,157.57 379.538,149.57 363.5,141C 382.153,123.174 404.153,112.007 429.5,107.5 Z M 255.5,111.5 C 262.342,111.039 269.009,111.872 275.5,114C 286.417,119.264 297.084,124.931 307.5,131C 316.121,134.658 325.121,136.658 334.5,137C 337.128,138.626 339.461,140.626 341.5,143C 338.305,145.756 334.972,148.256 331.5,150.5C 292.699,142.15 266.199,156.483 252,193.5C 244.569,188.995 239.236,182.662 236,174.5C 228.777,158.438 228.777,142.438 236,126.5C 240.645,119.013 247.145,114.013 255.5,111.5 Z M 352.5,150.5 C 370.074,160.12 388.074,168.953 406.5,177C 417.167,183 427.833,189 438.5,195C 425.543,196.675 413.543,194.009 402.5,187C 392.102,179.277 380.769,173.277 368.5,169C 363.5,168.667 358.5,168.333 353.5,168C 350.375,164.887 347.375,161.72 344.5,158.5C 347.521,156.146 350.188,153.479 352.5,150.5 Z M 305.5,160.5 C 310.179,160.334 314.845,160.501 319.5,161C 320.833,161.667 320.833,162.333 319.5,163C 306.188,174.631 291.521,184.298 275.5,192C 272.436,193.366 269.436,193.866 266.5,193.5C 273.78,175.54 286.78,164.54 305.5,160.5 Z M 345.5,183.5 C 346.496,183.414 347.329,183.748 348,184.5C 354.576,197.261 351.076,205.595 337.5,209.5C 329.889,206.939 327.722,201.939 331,194.5C 334.915,189.477 339.749,185.81 345.5,183.5 Z"/></g>
<g><path style="opacity:1" fill="#2a8c85" d="M 956.5,224.5 C 956.5,230.833 956.5,237.167 956.5,243.5C 957.833,243.5 959.167,243.5 960.5,243.5C 962.173,244.343 963.34,245.676 964,247.5C 964.801,250.367 964.634,253.034 963.5,255.5C 955.167,255.5 946.833,255.5 938.5,255.5C 938.5,252.5 938.5,249.5 938.5,246.5C 938.5,244.5 939.5,243.5 941.5,243.5C 942.833,243.5 944.167,243.5 945.5,243.5C 945.81,240.287 945.477,237.287 944.5,234.5C 944.401,225.595 943.068,216.929 940.5,208.5C 929.537,206.901 919.203,203.401 909.5,198C 894.867,189.371 881.367,179.204 869,167.5C 867.5,169 866,170.5 864.5,172C 877.953,176.942 885.62,186.442 887.5,200.5C 886.5,214.167 879.167,221.5 865.5,222.5C 843.009,218.529 835.009,205.529 841.5,183.5C 842.404,182.791 842.737,181.791 842.5,180.5C 840.901,180.232 839.568,180.566 838.5,181.5C 826.918,186.571 815.918,192.738 805.5,200C 786.819,210.569 767.652,211.736 748,203.5C 720.043,217.764 690.543,227.097 659.5,231.5C 648.86,232.375 638.194,232.709 627.5,232.5C 623.421,231.245 619.421,229.578 615.5,227.5C 614.225,222.883 614.225,218.216 615.5,213.5C 616.417,212.873 617.417,212.539 618.5,212.5C 620.561,214.711 623.061,216.377 626,217.5C 638.397,220.861 650.897,221.028 663.5,218C 688.746,213.585 712.746,205.585 735.5,194C 721.723,178.408 716.557,160.241 720,139.5C 724.89,106.281 744.057,91.4475 777.5,95C 806.474,100.01 831.308,112.843 852,133.5C 852.833,132.667 853.667,131.833 854.5,131C 837.588,122.118 830.422,108.285 833,89.5C 840.974,72.2832 853.807,67.4499 871.5,75C 884.198,83.0665 888.698,94.5665 885,109.5C 884.134,113.264 882.967,116.931 881.5,120.5C 882,120.833 882.5,121.167 883,121.5C 895.63,116.193 907.796,110.026 919.5,103C 936.64,95.8939 952.973,97.2272 968.5,107C 985.145,124.078 990.312,144.245 984,167.5C 980.371,185.131 970.704,198.131 955,206.5C 955.814,212.415 956.314,218.415 956.5,224.5 Z M 855.5,84.5 C 871.141,86.7685 876.307,95.4351 871,110.5C 869.254,114.327 867.254,117.993 865,121.5C 855.974,117.808 849.641,111.474 846,102.5C 843.819,93.4771 846.985,87.4771 855.5,84.5 Z M 762.5,107.5 C 792.647,109.075 818.647,120.242 840.5,141C 809.604,155.448 779.271,170.948 749.5,187.5C 740.187,180.56 734.687,171.226 733,159.5C 730.943,145.162 733.61,131.829 741,119.5C 746.722,112.727 753.889,108.727 762.5,107.5 Z M 935.5,111.5 C 955.442,109.937 967.609,118.937 972,138.5C 974.682,155.109 971.349,170.442 962,184.5C 958.914,188.257 955.248,191.257 951,193.5C 939.506,160.696 916.339,145.529 881.5,148C 877.715,148.373 874.215,149.539 871,151.5C 867.984,148.651 865.15,145.651 862.5,142.5C 864.65,140.851 866.65,139.018 868.5,137C 877.144,136.871 885.478,135.204 893.5,132C 904.167,126.333 914.833,120.667 925.5,115C 928.98,113.897 932.313,112.731 935.5,111.5 Z M 849.5,150.5 C 853.08,152.408 856.08,155.074 858.5,158.5C 855.833,161.5 853.167,164.5 850.5,167.5C 841.91,167.721 833.577,169.221 825.5,172C 816.499,176.832 807.832,182.165 799.5,188C 788.616,194.305 776.95,196.638 764.5,195C 788.117,181.358 812.45,169.025 837.5,158C 841.732,155.725 845.732,153.225 849.5,150.5 Z M 883.5,160.5 C 908.834,159.154 926.501,169.987 936.5,193C 936.167,193.5 935.833,194 935.5,194.5C 915.151,187.431 897.818,176.098 883.5,160.5 Z M 855.5,183.5 C 865.124,185.298 871.457,190.798 874.5,200C 872.028,208.717 866.694,211.05 858.5,207C 854.216,204.153 852.216,200.153 852.5,195C 852.792,190.962 853.792,187.128 855.5,183.5 Z"/></g>
<g><path style="opacity:1" fill="#fee3b9" d="M 592.5,89.5 C 593.491,95.979 593.824,102.646 593.5,109.5C 580.656,109.829 567.989,109.495 555.5,108.5C 567.833,108.5 580.167,108.5 592.5,108.5C 592.5,102.167 592.5,95.8333 592.5,89.5 Z"/></g>
<g><path style="opacity:0.063" fill="#e4f1f1" d="M 322.5,120.5 C 323.043,120.56 323.376,120.893 323.5,121.5C 322.042,122.782 320.708,122.782 319.5,121.5C 320.791,121.737 321.791,121.404 322.5,120.5 Z"/></g>
<g><path style="opacity:1" fill="#308f88" d="M 581.5,129.5 C 583.232,133.697 584.565,138.031 585.5,142.5C 581.366,143.485 577.032,143.818 572.5,143.5C 572.737,142.209 572.404,141.209 571.5,140.5C 569.796,137.061 568.462,133.395 567.5,129.5C 572.066,128.203 576.733,128.203 581.5,129.5 Z"/></g>
<g><path style="opacity:1" fill="#268c84" d="M 635.5,129.5 C 634.565,133.969 633.232,138.303 631.5,142.5C 629.254,143.107 626.921,143.44 624.5,143.5C 622.048,143.461 620.048,142.794 618.5,141.5C 619.101,138.032 620.101,134.699 621.5,131.5C 622.404,130.791 622.737,129.791 622.5,128.5C 627.032,128.182 631.366,128.515 635.5,129.5 Z"/></g>
<g><path style="opacity:1" fill="#2f8f87" d="M 586.5,186.5 C 584.636,180.907 582.97,175.241 581.5,169.5C 583.279,167.656 585.612,166.99 588.5,167.5C 588.666,174.175 588.5,180.842 588,187.5C 587.617,186.944 587.117,186.611 586.5,186.5 Z"/></g>
<g><path style="opacity:1" fill="#33928a" d="M 622.5,168.5 C 620.697,175.241 618.697,181.908 616.5,188.5C 615.178,188.67 614.011,188.337 613,187.5C 612.5,180.842 612.334,174.175 612.5,167.5C 616.042,167.187 619.375,167.521 622.5,168.5 Z"/></g>
<g><path style="opacity:0.063" fill="#d3e9e8" d="M 838.5,181.5 C 839.568,180.566 840.901,180.232 842.5,180.5C 842.737,181.791 842.404,182.791 841.5,183.5C 841.179,181.952 840.179,181.285 838.5,181.5 Z"/></g>
<g><path style="opacity:1" fill="#f7a807" d="M 586.5,192.5 C 596.172,192.334 605.839,192.5 615.5,193C 619.5,198.333 619.5,203.667 615.5,209C 605.833,209.667 596.167,209.667 586.5,209C 581.214,203.502 581.214,198.002 586.5,192.5 Z"/></g>
<g><path style="opacity:0.251" fill="#e6f2f2" d="M 247.5,205.5 C 248.586,205.62 249.253,206.287 249.5,207.5C 249.457,208.416 249.124,209.083 248.5,209.5C 248.567,208.041 248.234,206.708 247.5,205.5 Z"/></g>
<g><path style="opacity:1" fill="#f7a909" d="M 590.5,215.5 C 597.167,215.5 603.833,215.5 610.5,215.5C 610.5,219.5 610.5,223.5 610.5,227.5C 603.833,227.5 597.167,227.5 590.5,227.5C 590.5,223.5 590.5,219.5 590.5,215.5 Z"/></g>
<g><path style="opacity:0.251" fill="#eef6f6" d="M 246.5,231.5 C 246.5,235.5 246.5,239.5 246.5,243.5C 245.5,243.5 244.5,243.5 243.5,243.5C 245.023,239.62 246.023,235.62 246.5,231.5 Z"/></g>
<g><path style="opacity:0.753" fill="#f9e4bf" d="M 544.5,231.5 C 554.845,232.776 565.178,232.776 575.5,231.5C 578.962,232.482 582.629,232.815 586.5,232.5C 591.5,232.5 596.5,232.5 601.5,232.5C 574.672,233.498 547.672,233.831 520.5,233.5C 528.5,232.833 536.5,232.167 544.5,231.5 Z"/></g>
<g><path style="opacity:1" fill="#fcd08e" d="M 659.5,231.5 C 666.989,232.329 674.656,232.829 682.5,233C 687.506,235.501 692.173,238.501 696.5,242C 712.674,260.174 726.507,280.007 738,301.5C 741.43,303 744.93,304.5 748.5,306C 752.987,312.799 758.654,314.132 765.5,310C 755.271,303.643 752.437,294.81 757,283.5C 768.253,270.185 779.586,270.185 791,283.5C 801.667,300.833 812.333,318.167 823,335.5C 826.526,342.02 826.193,348.353 822,354.5C 810.438,366.731 798.271,378.231 785.5,389C 774.727,387.773 769.893,392.607 771,403.5C 773.505,408.889 777.672,411.056 783.5,410C 790.167,405.333 796.833,400.667 803.5,396C 820.329,388.908 837.662,387.575 855.5,392C 873.485,397.596 882.151,409.929 881.5,429C 880.846,440.169 880.179,451.336 879.5,462.5C 880.848,469.966 879.015,476.633 874,482.5C 869.85,487.572 864.517,489.572 858,488.5C 848.055,488.768 838.555,486.935 829.5,483C 825.248,481.586 822.748,483.086 822,487.5C 818.98,494.561 818.98,501.561 822,508.5C 828.265,516.069 835.098,516.903 842.5,511C 848.833,510.333 855.167,510.333 861.5,511C 866.155,511.73 869.321,514.23 871,518.5C 870.985,524.673 870.485,530.84 869.5,537C 872.217,547.558 872.051,558.058 869,568.5C 865.556,575.889 859.723,580.056 851.5,581C 843.718,582.663 842.718,585.996 848.5,591C 854.833,594.667 861.167,598.333 867.5,602C 873.814,607.793 877.648,614.959 879,623.5C 879.667,644.167 879.667,664.833 879,685.5C 877.451,690.042 874.284,692.875 869.5,694C 854.644,698.436 841.644,695.436 830.5,685C 811.227,675.693 795.06,679.526 782,696.5C 771.105,714.711 769.605,733.711 777.5,753.5C 777.461,754.756 777.961,755.756 779,756.5C 779.497,753.854 779.664,751.187 779.5,748.5C 781.266,742.241 785.433,739.241 792,739.5C 798.499,739.328 802.833,742.328 805,748.5C 805.7,774.798 793.533,791.965 768.5,800C 748.417,804.305 731.583,798.805 718,783.5C 715.109,808.555 701.276,822.889 676.5,826.5C 668.603,826.256 661.436,823.923 655,819.5C 653.029,826.969 649.195,833.302 643.5,838.5C 635.469,846.516 626.136,852.516 615.5,856.5C 609.57,859.262 605.07,863.595 602,869.5C 598.535,865.033 594.702,860.867 590.5,857C 589.207,856.51 587.873,856.343 586.5,856.5C 572.891,851.055 561.391,842.722 552,831.5C 550.151,827.802 548.318,824.136 546.5,820.5C 523.659,831.497 505.159,826.497 491,805.5C 487.433,798.566 485.099,791.232 484,783.5C 474.355,795.617 461.688,801.617 446,801.5C 414.245,798.637 397.912,781.303 397,749.5C 399.968,741.263 405.802,738.096 414.5,740C 421.251,742.428 424.417,747.261 424,754.5C 433.918,732.942 431.918,712.608 418,693.5C 405.418,679.645 390.585,676.479 373.5,684C 361.101,695.757 346.768,698.757 330.5,693C 327.789,691.739 325.622,689.906 324,687.5C 323.333,665.167 323.333,642.833 324,620.5C 325.866,611.935 330.366,605.102 337.5,600C 343.822,597.174 349.822,593.841 355.5,590C 357.602,588.267 357.935,586.267 356.5,584C 350.995,581.276 345.328,578.943 339.5,577C 333.006,570.386 330.339,562.386 331.5,553C 332.471,540.835 332.638,528.668 332,516.5C 334.342,513.246 337.509,511.412 341.5,511C 347.5,510.333 353.5,510.333 359.5,511C 367.628,516.868 374.794,515.701 381,507.5C 383.545,498.763 382.378,490.596 377.5,483C 372.309,483.28 367.309,484.614 362.5,487C 353.536,488.384 344.536,488.717 335.5,488C 329.5,484.331 325.334,479.165 323,472.5C 321.885,454.843 321.552,437.176 322,419.5C 324.82,403.346 334.32,393.846 350.5,391C 365.466,388.215 380.132,389.215 394.5,394C 403.044,398.549 411.044,403.882 418.5,410C 426.199,410.642 430.865,407.142 432.5,399.5C 430.858,391.695 426.192,388.362 418.5,389.5C 405.218,378.387 392.385,366.721 380,354.5C 376.667,347.833 376.667,341.167 380,334.5C 390.667,317.167 401.333,299.833 412,282.5C 419.714,273.279 428.88,271.446 439.5,277C 448.201,284.966 449.701,294.133 444,304.5C 441.957,306.712 439.791,308.712 437.5,310.5C 445.238,313.559 452.571,312.726 459.5,308C 465.73,298.764 471.563,289.264 477,279.5C 486.272,264.813 497.106,251.313 509.5,239C 512.86,236.454 516.526,234.621 520.5,233.5C 547.672,233.831 574.672,233.498 601.5,232.5C 606.167,232.5 610.833,232.5 615.5,232.5C 619.5,232.5 623.5,232.5 627.5,232.5C 638.194,232.709 648.86,232.375 659.5,231.5 Z"/></g>
<g><path style="opacity:0.753" fill="#98ccc8" d="M 956.5,224.5 C 957.49,230.31 957.823,236.31 957.5,242.5C 958.791,242.263 959.791,242.596 960.5,243.5C 959.167,243.5 957.833,243.5 956.5,243.5C 956.5,237.167 956.5,230.833 956.5,224.5 Z"/></g>
<g><path style="opacity:0.502" fill="#c3e1e0" d="M 944.5,234.5 C 945.477,237.287 945.81,240.287 945.5,243.5C 944.167,243.5 942.833,243.5 941.5,243.5C 942.209,242.596 943.209,242.263 944.5,242.5C 944.5,239.833 944.5,237.167 944.5,234.5 Z"/></g>
<g><path style="opacity:0.502" fill="#bbdddb" d="M 938.5,246.5 C 938.5,249.5 938.5,252.5 938.5,255.5C 946.833,255.5 955.167,255.5 963.5,255.5C 955.016,256.493 946.349,256.826 937.5,256.5C 937.187,252.958 937.521,249.625 938.5,246.5 Z"/></g>
<g><path style="opacity:0.502" fill="#bbdedb" d="M 964.5,259.5 C 955.083,259.195 945.75,259.528 936.5,260.5C 940.783,259.173 945.449,258.507 950.5,258.5C 955.346,258.501 960.012,258.834 964.5,259.5 Z"/></g>
<g><path style="opacity:1" fill="#258b83" d="M 282.5,292.5 C 283.219,294.764 283.552,297.097 283.5,299.5C 280.854,303.645 277.187,306.479 272.5,308C 275.525,332.75 278.192,357.583 280.5,382.5C 282.722,382.178 284.556,382.845 286,384.5C 287.354,388.363 287.854,392.363 287.5,396.5C 278.833,396.5 270.167,396.5 261.5,396.5C 260.011,392.77 260.178,389.103 262,385.5C 263.264,383.393 265.097,382.393 267.5,382.5C 264.801,358.873 262.467,335.206 260.5,311.5C 253.516,311.391 246.682,311.391 240,311.5C 228.313,333.553 216.146,355.219 203.5,376.5C 201.443,378.043 201.443,379.043 203.5,379.5C 205.876,380.512 206.876,382.345 206.5,385C 206.503,387.484 205.837,389.651 204.5,391.5C 203.292,392.234 201.959,392.567 200.5,392.5C 193.706,390.569 187.04,388.235 180.5,385.5C 178.73,379.165 181.063,375.165 187.5,373.5C 188.442,373.608 189.275,373.941 190,374.5C 202.246,351.673 214.746,329.006 227.5,306.5C 225.517,304.016 223.35,301.683 221,299.5C 220.333,297.5 220.333,295.5 221,293.5C 222.912,291.343 224.579,289.009 226,286.5C 230.194,277.583 234.194,268.583 238,259.5C 247.422,258.349 256.922,258.182 266.5,259C 271.361,270.429 276.694,281.595 282.5,292.5 Z"/></g>
<g><path style="opacity:1" fill="#228982" d="M 964.5,259.5 C 969.992,272.148 976.325,284.481 983.5,296.5C 982.089,300.742 979.423,303.909 975.5,306C 987.873,328.581 1000.37,351.081 1013,373.5C 1019.51,372.551 1023.01,375.551 1023.5,382.5C 1023.44,383.609 1023.11,384.609 1022.5,385.5C 1015,388.724 1007.33,391.224 999.5,393C 995.299,387.696 995.632,382.863 1000.5,378.5C 987.99,355.472 974.99,332.805 961.5,310.5C 957.235,311.439 952.902,311.772 948.5,311.5C 946.735,310.539 944.735,310.205 942.5,310.5C 942.5,311.833 942.5,313.167 942.5,314.5C 940.896,335.208 938.896,355.875 936.5,376.5C 935.532,378.607 935.198,380.941 935.5,383.5C 936.5,383.5 937.5,383.5 938.5,383.5C 940.912,383.694 941.912,385.027 941.5,387.5C 941.5,390.167 941.5,392.833 941.5,395.5C 933.167,395.5 924.833,395.5 916.5,395.5C 916.5,392.5 916.5,389.5 916.5,386.5C 917.392,383.708 919.392,382.375 922.5,382.5C 925.1,358.168 927.767,333.835 930.5,309.5C 927.174,306.402 923.674,303.402 920,300.5C 919.219,299.271 918.719,297.938 918.5,296.5C 925.074,284.77 931.074,272.77 936.5,260.5C 945.75,259.528 955.083,259.195 964.5,259.5 Z"/></g>
<g><path style="opacity:0.502" fill="#b3d8d5" d="M 282.5,292.5 C 283.993,293.312 284.66,294.645 284.5,296.5C 284.48,297.726 284.147,298.726 283.5,299.5C 283.552,297.097 283.219,294.764 282.5,292.5 Z"/></g>
<g><path style="opacity:1" fill="#fefefe" d="M 586.5,309.5 C 639.919,307.132 684.419,325.799 720,365.5C 758.952,411.458 779.619,464.791 782,525.5C 784.946,586.641 769.612,642.641 736,693.5C 709.401,731.421 673.568,755.921 628.5,767C 584.343,774.294 544.343,764.627 508.5,738C 465.377,702.631 437.877,657.465 426,602.5C 410.711,530.515 421.045,462.515 457,398.5C 479.26,361.234 510.427,334.401 550.5,318C 562.349,313.935 574.349,311.102 586.5,309.5 Z"/></g>
<g><path style="opacity:0.753" fill="#9dcecb" d="M 948.5,311.5 C 946.833,311.5 945.167,311.5 943.5,311.5C 943.737,312.791 943.404,313.791 942.5,314.5C 942.5,313.167 942.5,311.833 942.5,310.5C 944.735,310.205 946.735,310.539 948.5,311.5 Z"/></g>
<g><path style="opacity:1" fill="#e95051" d="M 595.5,323.5 C 613.633,322.464 620.8,330.797 617,348.5C 612.455,357.248 605.288,360.415 595.5,358C 585.021,353.619 581.188,345.786 584,334.5C 586.437,329.226 590.271,325.56 595.5,323.5 Z"/></g>
<g><path style="opacity:1" fill="#f9baa7" d="M 588.5,350.5 C 589.833,351.167 590.833,352.167 591.5,353.5C 589.5,353.5 588.5,352.5 588.5,350.5 Z"/></g>
<g><path style="opacity:1" fill="#f7aa11" d="M 614.5,348.5 C 613.197,350.142 611.864,351.809 610.5,353.5C 609.167,353.833 607.833,354.167 606.5,354.5C 606.5,351.833 606.5,349.167 606.5,346.5C 609.698,345.964 612.365,346.631 614.5,348.5 Z"/></g>
<g><path style="opacity:1" fill="#f7a807" d="M 587.5,346.5 C 590.167,346.5 592.833,346.5 595.5,346.5C 595.5,349.167 595.5,351.833 595.5,354.5C 594.167,354.167 592.833,353.833 591.5,353.5C 590.833,352.167 589.833,351.167 588.5,350.5C 588.167,349.167 587.833,347.833 587.5,346.5 Z"/></g>
<g><path style="opacity:1" fill="#f8b4a0" d="M 588.5,331.5 C 588.167,332.833 587.833,334.167 587.5,335.5C 586.833,335.5 586.5,335.833 586.5,336.5C 586.5,339.5 586.5,342.5 586.5,345.5C 586.5,346.167 586.833,346.5 587.5,346.5C 587.833,347.833 588.167,349.167 588.5,350.5C 584.375,345.805 583.542,340.471 586,334.5C 586.377,333.058 587.21,332.058 588.5,331.5 Z"/></g>
<g><path style="opacity:1" fill="#f7b7ab" d="M 615.5,335.5 C 617.92,339.112 617.92,342.779 615.5,346.5C 615.5,346.167 615.5,345.833 615.5,345.5C 615.5,342.5 615.5,339.5 615.5,336.5C 615.5,336.167 615.5,335.833 615.5,335.5 Z"/></g>
<g><path style="opacity:1" fill="#e53743" d="M 615.5,336.5 C 615.5,339.5 615.5,342.5 615.5,345.5C 612.5,345.5 609.5,345.5 606.5,345.5C 606.5,342.5 606.5,339.5 606.5,336.5C 609.5,336.5 612.5,336.5 615.5,336.5 Z"/></g>
<g><path style="opacity:1" fill="#ed7955" d="M 596.5,326.5 C 596.5,329.5 596.5,332.5 596.5,335.5C 599.5,335.5 602.5,335.5 605.5,335.5C 605.833,335.5 606.167,335.5 606.5,335.5C 609.698,336.036 612.365,335.369 614.5,333.5C 615.338,333.842 615.672,334.508 615.5,335.5C 615.5,335.833 615.5,336.167 615.5,336.5C 612.5,336.5 609.5,336.5 606.5,336.5C 606.5,339.5 606.5,342.5 606.5,345.5C 609.5,345.5 612.5,345.5 615.5,345.5C 615.5,345.833 615.5,346.167 615.5,346.5C 615.672,347.492 615.338,348.158 614.5,348.5C 612.365,346.631 609.698,345.964 606.5,346.5C 606.5,349.167 606.5,351.833 606.5,354.5C 606.5,355.167 606.167,355.5 605.5,355.5C 605.5,352.5 605.5,349.5 605.5,346.5C 602.5,346.5 599.5,346.5 596.5,346.5C 596.5,349.5 596.5,352.5 596.5,355.5C 595.833,355.5 595.5,355.167 595.5,354.5C 595.5,351.833 595.5,349.167 595.5,346.5C 592.833,346.5 590.167,346.5 587.5,346.5C 586.833,346.5 586.5,346.167 586.5,345.5C 589.5,345.5 592.5,345.5 595.5,345.5C 598.833,345.5 602.167,345.5 605.5,345.5C 605.5,342.5 605.5,339.5 605.5,336.5C 602.167,336.5 598.833,336.5 595.5,336.5C 592.5,336.5 589.5,336.5 586.5,336.5C 586.5,335.833 586.833,335.5 587.5,335.5C 590.167,335.5 592.833,335.5 595.5,335.5C 595.5,332.833 595.5,330.167 595.5,327.5C 595.5,326.833 595.833,326.5 596.5,326.5 Z"/></g>
<g><path style="opacity:1" fill="#e53743" d="M 605.5,355.5 C 602.5,355.5 599.5,355.5 596.5,355.5C 596.5,352.5 596.5,349.5 596.5,346.5C 599.5,346.5 602.5,346.5 605.5,346.5C 605.5,349.5 605.5,352.5 605.5,355.5 Z"/></g>
<g><path style="opacity:1" fill="#f6a70b" d="M 595.5,336.5 C 598.833,336.5 602.167,336.5 605.5,336.5C 605.5,339.5 605.5,342.5 605.5,345.5C 602.167,345.5 598.833,345.5 595.5,345.5C 595.5,342.5 595.5,339.5 595.5,336.5 Z"/></g>
<g><path style="opacity:1" fill="#e53743" d="M 586.5,336.5 C 589.5,336.5 592.5,336.5 595.5,336.5C 595.5,339.5 595.5,342.5 595.5,345.5C 592.5,345.5 589.5,345.5 586.5,345.5C 586.5,342.5 586.5,339.5 586.5,336.5 Z"/></g>
<g><path style="opacity:1" fill="#fdd7ab" d="M 612.5,330.5 C 613.906,330.973 614.573,331.973 614.5,333.5C 613.094,333.027 612.427,332.027 612.5,330.5 Z"/></g>
<g><path style="opacity:1" fill="#f7a90e" d="M 612.5,330.5 C 612.427,332.027 613.094,333.027 614.5,333.5C 612.365,335.369 609.698,336.036 606.5,335.5C 605.256,328.055 607.256,326.388 612.5,330.5 Z"/></g>
<g><path style="opacity:1" fill="#f7a805" d="M 595.5,327.5 C 595.5,330.167 595.5,332.833 595.5,335.5C 592.833,335.5 590.167,335.5 587.5,335.5C 587.833,334.167 588.167,332.833 588.5,331.5C 589.5,331.167 590.167,330.5 590.5,329.5C 592.167,328.833 593.833,328.167 595.5,327.5 Z"/></g>
<g><path style="opacity:1" fill="#e53743" d="M 596.5,326.5 C 599.5,326.5 602.5,326.5 605.5,326.5C 605.5,329.5 605.5,332.5 605.5,335.5C 602.5,335.5 599.5,335.5 596.5,335.5C 596.5,332.5 596.5,329.5 596.5,326.5 Z"/></g>
<g><path style="opacity:1" fill="#f8b7a3" d="M 605.5,326.5 C 602.5,326.5 599.5,326.5 596.5,326.5C 595.833,326.5 595.5,326.833 595.5,327.5C 593.833,328.167 592.167,328.833 590.5,329.5C 593.894,325.534 598.227,324.034 603.5,325C 605.343,325.159 606.009,325.659 605.5,326.5 Z"/></g>
<g><path style="opacity:1" fill="#e84e4d" d="M 661.5,341.5 C 675.123,339.48 683.123,345.147 685.5,358.5C 683.565,372.598 675.565,378.431 661.5,376C 650.168,370.202 647.001,361.368 652,349.5C 654.772,346.217 657.939,343.55 661.5,341.5 Z"/></g>
<g><path style="opacity:1" fill="#f9c0a8" d="M 675.5,345.5 C 678.167,346.167 679.833,347.833 680.5,350.5C 678.5,349.167 676.833,347.5 675.5,345.5 Z"/></g>
<g><path style="opacity:1" fill="#fbcfaa" d="M 659.5,345.5 C 658.167,347.5 656.5,349.167 654.5,350.5C 655.167,347.833 656.833,346.167 659.5,345.5 Z"/></g>
<g><path style="opacity:1" fill="#f7a81d" d="M 672.5,345.5 C 673.5,345.5 674.5,345.5 675.5,345.5C 676.833,347.5 678.5,349.167 680.5,350.5C 681.338,350.842 681.672,351.508 681.5,352.5C 681.5,352.833 681.5,353.167 681.5,353.5C 678.5,353.5 675.5,353.5 672.5,353.5C 672.5,350.833 672.5,348.167 672.5,345.5 Z"/></g>
<g><path style="opacity:1" fill="#f7a81e" d="M 661.5,344.5 C 661.833,344.5 662.167,344.5 662.5,344.5C 662.5,347.5 662.5,350.5 662.5,353.5C 659.5,353.5 656.5,353.5 653.5,353.5C 654.11,352.609 654.443,351.609 654.5,350.5C 656.5,349.167 658.167,347.5 659.5,345.5C 659.842,344.662 660.508,344.328 661.5,344.5 Z"/></g>
<g><path style="opacity:1" fill="#e63744" d="M 662.5,344.5 C 666.042,344.187 669.375,344.521 672.5,345.5C 672.5,348.167 672.5,350.833 672.5,353.5C 669.167,353.5 665.833,353.5 662.5,353.5C 662.5,350.5 662.5,347.5 662.5,344.5 Z"/></g>
<g><path style="opacity:1" fill="#f7b8a8" d="M 675.5,345.5 C 674.5,345.5 673.5,345.5 672.5,345.5C 669.375,344.521 666.042,344.187 662.5,344.5C 662.167,344.5 661.833,344.5 661.5,344.5C 666.31,341.922 670.977,342.255 675.5,345.5 Z"/></g>
<g><path style="opacity:1" fill="#e63c45" d="M 653.5,354.5 C 656.5,354.5 659.5,354.5 662.5,354.5C 662.5,357.833 662.5,361.167 662.5,364.5C 659.5,364.5 656.5,364.5 653.5,364.5C 652.167,361.167 652.167,357.833 653.5,354.5 Z"/></g>
<g><path style="opacity:1" fill="#f6a70b" d="M 662.5,354.5 C 665.833,354.5 669.167,354.5 672.5,354.5C 672.5,357.833 672.5,361.167 672.5,364.5C 669.167,364.5 665.833,364.5 662.5,364.5C 662.5,361.167 662.5,357.833 662.5,354.5 Z"/></g>
<g><path style="opacity:1" fill="#f7b8a6" d="M 591.5,353.5 C 592.833,353.833 594.167,354.167 595.5,354.5C 595.5,355.167 595.833,355.5 596.5,355.5C 599.5,355.5 602.5,355.5 605.5,355.5C 606.167,355.5 606.5,355.167 606.5,354.5C 607.833,354.167 609.167,353.833 610.5,353.5C 605.767,357.455 600.434,358.288 594.5,356C 593.058,355.623 592.058,354.79 591.5,353.5 Z"/></g>
<g><path style="opacity:1" fill="#fbd2c5" d="M 654.5,350.5 C 654.443,351.609 654.11,352.609 653.5,353.5C 653.5,353.833 653.5,354.167 653.5,354.5C 652.167,357.833 652.167,361.167 653.5,364.5C 653.5,365.167 653.5,365.833 653.5,366.5C 651.967,364.366 651.3,361.866 651.5,359C 651.667,357.167 651.833,355.333 652,353.5C 652.377,352.058 653.21,351.058 654.5,350.5 Z"/></g>
<g><path style="opacity:1" fill="#fddfd9" d="M 681.5,352.5 C 682.972,354.117 683.639,356.117 683.5,358.5C 683.333,359.833 683.167,361.167 683,362.5C 682.637,359.456 682.137,356.456 681.5,353.5C 681.5,353.167 681.5,352.833 681.5,352.5 Z"/></g>
<g><path style="opacity:1" fill="#f7a81d" d="M 653.5,364.5 C 656.5,364.5 659.5,364.5 662.5,364.5C 662.5,367.5 662.5,370.5 662.5,373.5C 662.167,373.5 661.833,373.5 661.5,373.5C 660.508,373.672 659.842,373.338 659.5,372.5C 658.738,370.738 657.404,369.738 655.5,369.5C 655.573,367.973 654.906,366.973 653.5,366.5C 653.5,365.833 653.5,365.167 653.5,364.5 Z"/></g>
<g><path style="opacity:1" fill="#e53743" d="M 662.5,364.5 C 665.833,364.5 669.167,364.5 672.5,364.5C 672.5,367.5 672.5,370.5 672.5,373.5C 669.167,373.5 665.833,373.5 662.5,373.5C 662.5,370.5 662.5,367.5 662.5,364.5 Z"/></g>
<g><path style="opacity:1" fill="#f7a926" d="M 672.5,364.5 C 675.5,364.5 678.5,364.5 681.5,364.5C 681.737,365.791 681.404,366.791 680.5,367.5C 678.5,368.833 676.833,370.5 675.5,372.5C 675.158,373.338 674.492,373.672 673.5,373.5C 673.167,373.5 672.833,373.5 672.5,373.5C 672.5,370.5 672.5,367.5 672.5,364.5 Z"/></g>
<g><path style="opacity:1" fill="#e84b4e" d="M 526.5,341.5 C 540.123,339.48 548.123,345.147 550.5,358.5C 548.546,372.62 540.546,378.453 526.5,376C 515.047,370.192 511.88,361.359 517,349.5C 519.772,346.217 522.939,343.55 526.5,341.5 Z"/></g>
<g><path style="opacity:1" fill="#f9c7ab" d="M 545.5,367.5 C 545.573,369.027 544.906,370.027 543.5,370.5C 543.427,368.973 544.094,367.973 545.5,367.5 Z"/></g>
<g><path style="opacity:1" fill="#f7a71e" d="M 537.5,364.5 C 540.5,364.5 543.5,364.5 546.5,364.5C 545.89,365.391 545.557,366.391 545.5,367.5C 544.094,367.973 543.427,368.973 543.5,370.5C 541.973,370.427 540.973,371.094 540.5,372.5C 540.158,373.338 539.492,373.672 538.5,373.5C 538.167,373.5 537.833,373.5 537.5,373.5C 537.5,370.5 537.5,367.5 537.5,364.5 Z"/></g>
<g><path style="opacity:1" fill="#e53743" d="M 527.5,364.5 C 530.833,364.5 534.167,364.5 537.5,364.5C 537.5,367.5 537.5,370.5 537.5,373.5C 534.167,373.5 530.833,373.5 527.5,373.5C 527.5,370.5 527.5,367.5 527.5,364.5 Z"/></g>
<g><path style="opacity:1" fill="#f7a71c" d="M 518.5,364.5 C 521.5,364.5 524.5,364.5 527.5,364.5C 527.5,367.5 527.5,370.5 527.5,373.5C 527.167,373.5 526.833,373.5 526.5,373.5C 525.508,373.672 524.842,373.338 524.5,372.5C 523.738,370.738 522.404,369.738 520.5,369.5C 520.672,368.508 520.338,367.842 519.5,367.5C 519.443,366.391 519.11,365.391 518.5,364.5 Z"/></g>
<g><path style="opacity:1" fill="#eb704f" d="M 546.5,352.5 C 547.401,353.29 548.068,354.29 548.5,355.5C 547.833,355.5 547.5,355.833 547.5,356.5C 544.855,354.758 541.855,354.091 538.5,354.5C 538.5,357.5 538.5,360.5 538.5,363.5C 541.167,363.5 543.833,363.5 546.5,363.5C 546.5,363.833 546.5,364.167 546.5,364.5C 543.5,364.5 540.5,364.5 537.5,364.5C 534.167,364.5 530.833,364.5 527.5,364.5C 524.5,364.5 521.5,364.5 518.5,364.5C 518.5,364.167 518.5,363.833 518.5,363.5C 521.5,363.5 524.5,363.5 527.5,363.5C 530.833,363.5 534.167,363.5 537.5,363.5C 537.5,360.5 537.5,357.5 537.5,354.5C 534.167,354.5 530.833,354.5 527.5,354.5C 524.5,354.5 521.5,354.5 518.5,354.5C 518.5,354.167 518.5,353.833 518.5,353.5C 521.5,353.5 524.5,353.5 527.5,353.5C 530.833,353.5 534.167,353.5 537.5,353.5C 540.713,353.81 543.713,353.477 546.5,352.5 Z"/></g>
<g><path style="opacity:1" fill="#fbd3c6" d="M 548.5,355.5 C 548.664,358.187 548.497,360.854 548,363.5C 547.8,365.32 546.966,366.653 545.5,367.5C 545.557,366.391 545.89,365.391 546.5,364.5C 546.5,364.167 546.5,363.833 546.5,363.5C 547.369,361.283 547.702,358.95 547.5,356.5C 547.5,355.833 547.833,355.5 548.5,355.5 Z"/></g>
<g><path style="opacity:1" fill="#fbd6ca" d="M 517.5,354.5 C 517.264,357.609 517.597,360.609 518.5,363.5C 518.5,363.833 518.5,364.167 518.5,364.5C 519.11,365.391 519.443,366.391 519.5,367.5C 518.21,366.942 517.377,365.942 517,364.5C 516.192,360.973 516.359,357.64 517.5,354.5 Z"/></g>
<g><path style="opacity:1" fill="#e63744" d="M 547.5,356.5 C 547.702,358.95 547.369,361.283 546.5,363.5C 543.833,363.5 541.167,363.5 538.5,363.5C 538.5,360.5 538.5,357.5 538.5,354.5C 541.855,354.091 544.855,354.758 547.5,356.5 Z"/></g>
<g><path style="opacity:1" fill="#f6a800" d="M 527.5,354.5 C 530.833,354.5 534.167,354.5 537.5,354.5C 537.5,357.5 537.5,360.5 537.5,363.5C 534.167,363.5 530.833,363.5 527.5,363.5C 527.5,360.5 527.5,357.5 527.5,354.5 Z"/></g>
<g><path style="opacity:1" fill="#e63844" d="M 517.5,354.5 C 517.833,354.5 518.167,354.5 518.5,354.5C 521.5,354.5 524.5,354.5 527.5,354.5C 527.5,357.5 527.5,360.5 527.5,363.5C 524.5,363.5 521.5,363.5 518.5,363.5C 517.597,360.609 517.264,357.609 517.5,354.5 Z"/></g>
<g><path style="opacity:1" fill="#fbceb5" d="M 519.5,350.5 C 519.443,351.609 519.11,352.609 518.5,353.5C 518.5,353.833 518.5,354.167 518.5,354.5C 518.167,354.5 517.833,354.5 517.5,354.5C 517.229,352.62 517.896,351.287 519.5,350.5 Z"/></g>
<g><path style="opacity:1" fill="#fbcea8" d="M 524.5,345.5 C 523.167,347.5 521.5,349.167 519.5,350.5C 520.167,347.833 521.833,346.167 524.5,345.5 Z"/></g>
<g><path style="opacity:1" fill="#fac8af" d="M 540.5,345.5 C 543.167,346.167 544.833,347.833 545.5,350.5C 543.5,349.167 541.833,347.5 540.5,345.5 Z"/></g>
<g><path style="opacity:1" fill="#f7a926" d="M 537.5,344.5 C 537.833,344.5 538.167,344.5 538.5,344.5C 539.492,344.328 540.158,344.662 540.5,345.5C 541.833,347.5 543.5,349.167 545.5,350.5C 546.338,350.842 546.672,351.508 546.5,352.5C 543.713,353.477 540.713,353.81 537.5,353.5C 537.5,350.5 537.5,347.5 537.5,344.5 Z"/></g>
<g><path style="opacity:1" fill="#f7a71b" d="M 526.5,344.5 C 526.833,344.5 527.167,344.5 527.5,344.5C 527.5,347.5 527.5,350.5 527.5,353.5C 524.5,353.5 521.5,353.5 518.5,353.5C 519.11,352.609 519.443,351.609 519.5,350.5C 521.5,349.167 523.167,347.5 524.5,345.5C 524.842,344.662 525.508,344.328 526.5,344.5 Z"/></g>
<g><path style="opacity:1" fill="#e63744" d="M 527.5,344.5 C 530.833,344.5 534.167,344.5 537.5,344.5C 537.5,347.5 537.5,350.5 537.5,353.5C 534.167,353.5 530.833,353.5 527.5,353.5C 527.5,350.5 527.5,347.5 527.5,344.5 Z"/></g>
<g><path style="opacity:1" fill="#f7b3a7" d="M 538.5,344.5 C 538.167,344.5 537.833,344.5 537.5,344.5C 534.167,344.5 530.833,344.5 527.5,344.5C 527.167,344.5 526.833,344.5 526.5,344.5C 530.5,341.833 534.5,341.833 538.5,344.5 Z"/></g>
<g><path style="opacity:1" fill="#f9c8b2" d="M 653.5,366.5 C 654.906,366.973 655.573,367.973 655.5,369.5C 654.094,369.027 653.427,368.027 653.5,366.5 Z"/></g>
<g><path style="opacity:1" fill="#fccea3" d="M 520.5,369.5 C 522.404,369.738 523.738,370.738 524.5,372.5C 522.596,372.262 521.262,371.262 520.5,369.5 Z"/></g>
<g><path style="opacity:1" fill="#fdd2a7" d="M 655.5,369.5 C 657.404,369.738 658.738,370.738 659.5,372.5C 657.596,372.262 656.262,371.262 655.5,369.5 Z"/></g>
<g><path style="opacity:1" fill="#f9c5ad" d="M 680.5,367.5 C 679.833,370.167 678.167,371.833 675.5,372.5C 676.833,370.5 678.5,368.833 680.5,367.5 Z"/></g>
<g><path style="opacity:1" fill="#f8bda8" d="M 543.5,370.5 C 543.027,371.906 542.027,372.573 540.5,372.5C 540.973,371.094 541.973,370.427 543.5,370.5 Z"/></g>
<g><path style="opacity:1" fill="#f6ac9f" d="M 661.5,373.5 C 661.833,373.5 662.167,373.5 662.5,373.5C 665.833,373.5 669.167,373.5 672.5,373.5C 672.833,373.5 673.167,373.5 673.5,373.5C 669.47,376.079 665.47,376.079 661.5,373.5 Z"/></g>
<g><path style="opacity:1" fill="#f5ab9e" d="M 526.5,373.5 C 526.833,373.5 527.167,373.5 527.5,373.5C 530.833,373.5 534.167,373.5 537.5,373.5C 537.833,373.5 538.167,373.5 538.5,373.5C 534.47,376.079 530.47,376.079 526.5,373.5 Z"/></g>
<g><path style="opacity:0.094" fill="#d1e8e6" d="M 203.5,376.5 C 203.5,377.5 203.5,378.5 203.5,379.5C 201.443,379.043 201.443,378.043 203.5,376.5 Z"/></g>
<g><path style="opacity:0.251" fill="#dbedec" d="M 936.5,376.5 C 936.185,379.211 936.852,381.544 938.5,383.5C 937.5,383.5 936.5,383.5 935.5,383.5C 935.198,380.941 935.532,378.607 936.5,376.5 Z"/></g>
<g><path style="opacity:0.063" fill="#e4f1f0" d="M 1023.5,382.5 C 1024.89,383.947 1024.55,384.947 1022.5,385.5C 1023.11,384.609 1023.44,383.609 1023.5,382.5 Z"/></g>
<g><path style="opacity:1" fill="#06a0d8" d="M 760.5,446.5 C 655.001,447.499 549.335,447.833 443.5,447.5C 451.855,424.95 463.189,404.116 477.5,385C 560.835,384.167 644.169,384.333 727.5,385.5C 741.471,404.16 752.471,424.494 760.5,446.5 Z"/></g>
<g><path style="opacity:1" fill="#248a83" d="M 280.5,555.5 C 282.117,554.962 283.784,554.629 285.5,554.5C 285.784,552.585 285.451,550.919 284.5,549.5C 282.072,516.842 279.739,484.175 277.5,451.5C 276.325,451.281 275.325,451.614 274.5,452.5C 255.041,483.916 235.708,515.416 216.5,547C 217.252,547.671 217.586,548.504 217.5,549.5C 217.5,552.5 217.5,555.5 217.5,558.5C 213.167,558.5 208.833,558.5 204.5,558.5C 191.478,561.66 188.145,557.494 194.5,546C 195.448,545.517 196.448,545.351 197.5,545.5C 191.617,511.537 185.951,477.537 180.5,443.5C 177.624,443.073 174.791,442.406 172,441.5C 153.719,473.224 135.552,505.057 117.5,537C 122.244,540.892 122.744,545.392 119,550.5C 117.612,551.554 116.112,551.72 114.5,551C 107.266,548.647 100.266,545.813 93.5,542.5C 94.3376,535.327 98.3376,531.661 105.5,531.5C 123.3,499.206 141.3,467.039 159.5,435C 151.335,430.496 147.502,423.662 148,414.5C 157.797,407.037 166.63,398.537 174.5,389C 175.931,388.535 177.097,387.701 178,386.5C 185.664,389.722 193.497,392.555 201.5,395C 202.578,395.674 203.245,396.674 203.5,398C 203.824,411.021 205.491,423.854 208.5,436.5C 208.124,438.383 207.124,439.883 205.5,441C 201.682,442.995 197.682,444.495 193.5,445.5C 198.772,474.799 203.939,504.133 209,533.5C 226.167,505.667 243.333,477.833 260.5,450C 253.488,448.413 247.655,444.913 243,439.5C 242.833,438.5 242.667,437.5 242.5,436.5C 248.836,424.491 254.669,412.158 260,399.5C 269.422,398.349 278.922,398.182 288.5,399C 293.558,411.868 299.558,424.201 306.5,436C 306.081,439.425 304.414,442.091 301.5,444C 298.205,446.231 294.705,448.064 291,449.5C 292.952,484.166 295.286,518.832 298,553.5C 305.078,555.49 307.244,559.99 304.5,567C 295.806,567.711 287.139,567.544 278.5,566.5C 278.335,563.482 278.502,560.482 279,557.5C 279.278,556.584 279.778,555.918 280.5,555.5 Z"/></g>
<g><path style="opacity:1" fill="#258b83" d="M 912.5,455.5 C 913.152,454.551 913.486,453.385 913.5,452C 913.392,450.319 912.725,449.152 911.5,448.5C 907.519,447.367 903.853,445.533 900.5,443C 898.775,441.046 897.442,438.879 896.5,436.5C 903.266,424.632 909.266,412.299 914.5,399.5C 924.167,398.167 933.833,398.167 943.5,399.5C 948.596,412.191 954.596,424.358 961.5,436C 960.679,438.643 959.346,440.976 957.5,443C 953.21,446.156 948.543,448.656 943.5,450.5C 960.178,477.861 976.844,505.195 993.5,532.5C 993.369,533.376 993.702,534.043 994.5,534.5C 995.429,533.311 995.762,531.978 995.5,530.5C 999.95,501.8 1004.62,473.133 1009.5,444.5C 1004.38,444.432 999.883,442.765 996,439.5C 997.445,424.987 998.945,410.487 1000.5,396C 1008.79,392.735 1017.13,389.568 1025.5,386.5C 1032.94,393.861 1040.27,401.361 1047.5,409C 1051.44,410.946 1054.44,413.779 1056.5,417.5C 1056.1,419.197 1055.6,420.863 1055,422.5C 1052.07,427.267 1048.57,431.601 1044.5,435.5C 1062.12,467.909 1080.12,500.076 1098.5,532C 1105.2,531.524 1108.87,534.69 1109.5,541.5C 1109.39,542.442 1109.06,543.275 1108.5,544C 1101.76,546.136 1095.09,548.469 1088.5,551C 1087.06,551.781 1085.72,551.614 1084.5,550.5C 1081.51,545.637 1081.84,541.137 1085.5,537C 1067.93,504.673 1049.76,472.84 1031,441.5C 1027.88,442.085 1025.21,443.419 1023,445.5C 1017.41,478.754 1011.58,511.92 1005.5,545C 1008.23,545.398 1010.07,546.898 1011,549.5C 1011.5,552.482 1011.66,555.482 1011.5,558.5C 1002.59,559.204 993.758,559.204 985,558.5C 984.078,554.299 984.578,550.299 986.5,546.5C 967.082,515.334 947.916,484 929,452.5C 927.989,451.663 926.822,451.33 925.5,451.5C 923.545,485.53 921.212,519.53 918.5,553.5C 920.903,553.393 922.736,554.393 924,556.5C 924.498,559.817 924.665,563.15 924.5,566.5C 915.874,567.411 907.208,567.745 898.5,567.5C 898.146,563.363 898.646,559.363 900,555.5C 901.699,554.594 903.533,554.261 905.5,554.5C 907.691,521.489 910.025,488.489 912.5,455.5 Z"/></g>
<g><path style="opacity:0.063" fill="#e1efef" d="M 204.5,391.5 C 204.38,392.586 203.713,393.253 202.5,393.5C 201.584,393.457 200.917,393.124 200.5,392.5C 201.959,392.567 203.292,392.234 204.5,391.5 Z"/></g>
<g><path style="opacity:0.251" fill="#e4f1f1" d="M 916.5,386.5 C 916.5,389.5 916.5,392.5 916.5,395.5C 924.833,395.5 933.167,395.5 941.5,395.5C 941.5,392.833 941.5,390.167 941.5,387.5C 942.477,390.287 942.81,393.287 942.5,396.5C 933.5,396.5 924.5,396.5 915.5,396.5C 915.187,392.958 915.521,389.625 916.5,386.5 Z"/></g>
<g><path style="opacity:0.878" fill="#edf3fa" d="M 760.5,446.5 C 761.043,446.56 761.376,446.893 761.5,447.5C 655.334,448.832 549.334,448.832 443.5,447.5C 549.335,447.833 655.001,447.499 760.5,446.5 Z"/></g>
<g><path style="opacity:0.251" fill="#d9eceb" d="M 911.5,448.5 C 912.725,449.152 913.392,450.319 913.5,452C 913.486,453.385 913.152,454.551 912.5,455.5C 912.702,453.05 912.369,450.717 911.5,448.5 Z"/></g>
<g><path style="opacity:1" fill="#e94f50" d="M 490.5,495.5 C 490.167,494.833 489.833,494.167 489.5,493.5C 491.027,493.573 492.027,492.906 492.5,491.5C 493.906,491.027 494.573,490.027 494.5,488.5C 495.338,488.158 495.672,487.492 495.5,486.5C 497.971,482.413 498.137,478.08 496,473.5C 495.623,472.058 494.79,471.058 493.5,470.5C 492.5,470.167 491.833,469.5 491.5,468.5C 491.027,467.094 490.027,466.427 488.5,466.5C 486.366,464.967 483.866,464.3 481,464.5C 479.167,464.667 477.333,464.833 475.5,465C 474.058,465.377 473.058,466.21 472.5,467.5C 470.167,467.833 468.833,469.167 468.5,471.5C 467.21,472.058 466.377,473.058 466,474.5C 465.333,478.167 465.333,481.833 466,485.5C 466.179,481.975 466.679,478.641 467.5,475.5C 470.167,475.5 472.833,475.5 475.5,475.5C 475.5,478.833 475.5,482.167 475.5,485.5C 472.753,485.187 470.086,485.52 467.5,486.5C 468.127,487.417 468.461,488.417 468.5,489.5C 468.5,491.5 469.5,492.5 471.5,492.5C 471.973,493.906 472.973,494.573 474.5,494.5C 474.918,495.222 475.584,495.722 476.5,496C 479.146,496.497 481.813,496.664 484.5,496.5C 485.492,496.328 486.158,496.662 486.5,497.5C 469.845,499.011 462.345,491.344 464,474.5C 470.517,461.922 480.017,459.089 492.5,466C 502.354,476.639 501.688,486.472 490.5,495.5 Z"/></g>
<g><path style="opacity:1" fill="#faccb7" d="M 488.5,466.5 C 487.833,466.5 487.167,466.5 486.5,466.5C 483.167,465.167 479.833,465.167 476.5,466.5C 476.167,466.5 475.833,466.5 475.5,466.5C 474.609,467.11 473.609,467.443 472.5,467.5C 473.058,466.21 474.058,465.377 475.5,465C 477.333,464.833 479.167,464.667 481,464.5C 483.866,464.3 486.366,464.967 488.5,466.5 Z"/></g>
<g><path style="opacity:1" fill="#e63744" d="M 486.5,466.5 C 486.5,469.167 486.5,471.833 486.5,474.5C 483.167,474.5 479.833,474.5 476.5,474.5C 476.5,471.833 476.5,469.167 476.5,466.5C 479.833,465.167 483.167,465.167 486.5,466.5 Z"/></g>
<g><path style="opacity:1" fill="#f7a90e" d="M 486.5,466.5 C 487.167,466.5 487.833,466.5 488.5,466.5C 488.973,467.906 489.973,468.573 491.5,468.5C 491.833,469.5 492.5,470.167 493.5,470.5C 493.833,471.833 494.167,473.167 494.5,474.5C 491.833,474.5 489.167,474.5 486.5,474.5C 486.5,471.833 486.5,469.167 486.5,466.5 Z"/></g>
<g><path style="opacity:1" fill="#facbad" d="M 488.5,466.5 C 490.027,466.427 491.027,467.094 491.5,468.5C 489.973,468.573 488.973,467.906 488.5,466.5 Z"/></g>
<g><path style="opacity:1" fill="#f7a804" d="M 475.5,466.5 C 475.5,469.167 475.5,471.833 475.5,474.5C 472.833,474.5 470.167,474.5 467.5,474.5C 468.11,473.609 468.443,472.609 468.5,471.5C 470.167,470.5 471.5,469.167 472.5,467.5C 473.609,467.443 474.609,467.11 475.5,466.5 Z"/></g>
<g><path style="opacity:1" fill="#fbd1b0" d="M 472.5,467.5 C 471.5,469.167 470.167,470.5 468.5,471.5C 468.833,469.167 470.167,467.833 472.5,467.5 Z"/></g>
<g><path style="opacity:1" fill="#fbd0ba" d="M 468.5,471.5 C 468.443,472.609 468.11,473.609 467.5,474.5C 467.5,474.833 467.5,475.167 467.5,475.5C 466.679,478.641 466.179,481.975 466,485.5C 465.333,481.833 465.333,478.167 466,474.5C 466.377,473.058 467.21,472.058 468.5,471.5 Z"/></g>
<g><path style="opacity:1" fill="#ec7a4f" d="M 475.5,466.5 C 475.833,466.5 476.167,466.5 476.5,466.5C 476.5,469.167 476.5,471.833 476.5,474.5C 479.833,474.5 483.167,474.5 486.5,474.5C 489.167,474.5 491.833,474.5 494.5,474.5C 495.167,474.5 495.5,474.833 495.5,475.5C 492.5,475.5 489.5,475.5 486.5,475.5C 483.167,475.5 479.833,475.5 476.5,475.5C 476.5,478.833 476.5,482.167 476.5,485.5C 476.5,488.5 476.5,491.5 476.5,494.5C 476.167,494.5 475.833,494.5 475.5,494.5C 475.5,491.5 475.5,488.5 475.5,485.5C 475.5,482.167 475.5,478.833 475.5,475.5C 472.833,475.5 470.167,475.5 467.5,475.5C 467.5,475.167 467.5,474.833 467.5,474.5C 470.167,474.5 472.833,474.5 475.5,474.5C 475.5,471.833 475.5,469.167 475.5,466.5 Z"/></g>
<g><path style="opacity:1" fill="#f6a505" d="M 486.5,475.5 C 486.5,478.833 486.5,482.167 486.5,485.5C 483.167,485.5 479.833,485.5 476.5,485.5C 476.5,482.167 476.5,478.833 476.5,475.5C 479.833,475.5 483.167,475.5 486.5,475.5 Z"/></g>
<g><path style="opacity:1" fill="#e53743" d="M 486.5,475.5 C 489.5,475.5 492.5,475.5 495.5,475.5C 495.5,478.833 495.5,482.167 495.5,485.5C 492.5,485.5 489.5,485.5 486.5,485.5C 486.5,482.167 486.5,478.833 486.5,475.5 Z"/></g>
<g><path style="opacity:1" fill="#f8b9a9" d="M 493.5,470.5 C 494.79,471.058 495.623,472.058 496,473.5C 498.137,478.08 497.971,482.413 495.5,486.5C 495.5,486.167 495.5,485.833 495.5,485.5C 495.5,482.167 495.5,478.833 495.5,475.5C 495.5,474.833 495.167,474.5 494.5,474.5C 494.167,473.167 493.833,471.833 493.5,470.5 Z"/></g>
<g><path style="opacity:1" fill="#f7a90d" d="M 475.5,485.5 C 475.5,488.5 475.5,491.5 475.5,494.5C 475.167,494.5 474.833,494.5 474.5,494.5C 474.027,493.094 473.027,492.427 471.5,492.5C 470.833,491.167 469.833,490.167 468.5,489.5C 468.461,488.417 468.127,487.417 467.5,486.5C 470.086,485.52 472.753,485.187 475.5,485.5 Z"/></g>
<g><path style="opacity:1" fill="#e63844" d="M 476.5,485.5 C 479.833,485.5 483.167,485.5 486.5,485.5C 486.5,488.5 486.5,491.5 486.5,494.5C 485.209,494.263 484.209,494.596 483.5,495.5C 481.05,495.702 478.717,495.369 476.5,494.5C 476.5,491.5 476.5,488.5 476.5,485.5 Z"/></g>
<g><path style="opacity:1" fill="#f8ab1c" d="M 486.5,485.5 C 489.5,485.5 492.5,485.5 495.5,485.5C 495.5,485.833 495.5,486.167 495.5,486.5C 495.672,487.492 495.338,488.158 494.5,488.5C 493.094,488.973 492.427,489.973 492.5,491.5C 490.973,491.427 489.973,492.094 489.5,493.5C 488.391,493.557 487.391,493.89 486.5,494.5C 486.5,491.5 486.5,488.5 486.5,485.5 Z"/></g>
<g><path style="opacity:1" fill="#facbb0" d="M 494.5,488.5 C 494.573,490.027 493.906,491.027 492.5,491.5C 492.427,489.973 493.094,488.973 494.5,488.5 Z"/></g>
<g><path style="opacity:1" fill="#f9baa8" d="M 468.5,489.5 C 469.833,490.167 470.833,491.167 471.5,492.5C 469.5,492.5 468.5,491.5 468.5,489.5 Z"/></g>
<g><path style="opacity:1" fill="#facdaf" d="M 492.5,491.5 C 492.027,492.906 491.027,493.573 489.5,493.5C 489.973,492.094 490.973,491.427 492.5,491.5 Z"/></g>
<g><path style="opacity:1" fill="#fdd9b3" d="M 471.5,492.5 C 473.027,492.427 474.027,493.094 474.5,494.5C 472.973,494.573 471.973,493.906 471.5,492.5 Z"/></g>
<g><path style="opacity:1" fill="#f38478" d="M 489.5,493.5 C 489.833,494.167 490.167,494.833 490.5,495.5C 489.486,496.674 488.153,497.34 486.5,497.5C 486.158,496.662 485.492,496.328 484.5,496.5C 484.5,495.833 484.167,495.5 483.5,495.5C 484.209,494.596 485.209,494.263 486.5,494.5C 487.391,493.89 488.391,493.557 489.5,493.5 Z"/></g>
<g><path style="opacity:1" fill="#fcdbd4" d="M 474.5,494.5 C 474.833,494.5 475.167,494.5 475.5,494.5C 475.833,494.5 476.167,494.5 476.5,494.5C 478.717,495.369 481.05,495.702 483.5,495.5C 484.167,495.5 484.5,495.833 484.5,496.5C 481.813,496.664 479.146,496.497 476.5,496C 475.584,495.722 474.918,495.222 474.5,494.5 Z"/></g>
<g><path style="opacity:1" fill="#e95051" d="M 712.5,462.5 C 731.355,462.51 738.188,471.51 733,489.5C 725.781,498.845 716.948,500.678 706.5,495C 697.216,485.261 697.216,475.595 706.5,466C 708.432,464.541 710.432,463.375 712.5,462.5 Z"/></g>
<g><path style="opacity:1" fill="#fbc7b1" d="M 707.5,492.5 C 709.284,492.893 710.95,493.559 712.5,494.5C 715.833,495.833 719.167,495.833 722.5,494.5C 724.05,493.559 725.716,492.893 727.5,492.5C 724.908,495.456 721.574,496.789 717.5,496.5C 713.426,496.789 710.092,495.456 707.5,492.5 Z"/></g>
<g><path style="opacity:1" fill="#fbcdaf" d="M 703.5,487.5 C 704.906,487.973 705.573,488.973 705.5,490.5C 704.094,490.027 703.427,489.027 703.5,487.5 Z"/></g>
<g><path style="opacity:1" fill="#fbcbbb" d="M 731.5,473.5 C 732.222,473.918 732.722,474.584 733,475.5C 733.667,478.833 733.667,482.167 733,485.5C 732.303,487.584 731.136,489.251 729.5,490.5C 729.893,488.716 730.559,487.05 731.5,485.5C 732.747,482.133 732.747,478.799 731.5,475.5C 731.5,475.167 731.5,474.833 731.5,474.5C 731.5,474.167 731.5,473.833 731.5,473.5 Z"/></g>
<g><path style="opacity:1" fill="#f6a614" d="M 722.5,485.5 C 722.833,485.5 723.167,485.5 723.5,485.5C 726.167,485.5 728.833,485.5 731.5,485.5C 730.559,487.05 729.893,488.716 729.5,490.5C 728.5,490.833 727.833,491.5 727.5,492.5C 725.716,492.893 724.05,493.559 722.5,494.5C 722.5,491.5 722.5,488.5 722.5,485.5 Z"/></g>
<g><path style="opacity:1" fill="#e63744" d="M 712.5,485.5 C 715.833,485.5 719.167,485.5 722.5,485.5C 722.5,488.5 722.5,491.5 722.5,494.5C 719.167,495.833 715.833,495.833 712.5,494.5C 712.5,491.5 712.5,488.5 712.5,485.5 Z"/></g>
<g><path style="opacity:1" fill="#f6a610" d="M 712.5,485.5 C 712.5,488.5 712.5,491.5 712.5,494.5C 710.95,493.559 709.284,492.893 707.5,492.5C 707.167,491.5 706.5,490.833 705.5,490.5C 705.573,488.973 704.906,487.973 703.5,487.5C 705.988,485.612 708.988,484.945 712.5,485.5 Z"/></g>
<g><path style="opacity:1" fill="#fbd5cb" d="M 703.5,473.5 C 703.5,473.833 703.5,474.167 703.5,474.5C 703.5,474.833 703.5,475.167 703.5,475.5C 702.759,478.413 702.259,481.413 702,484.5C 701.833,483 701.667,481.5 701.5,480C 701.336,477.456 702.003,475.29 703.5,473.5 Z"/></g>
<g><path style="opacity:1" fill="#e63944" d="M 731.5,475.5 C 732.747,478.799 732.747,482.133 731.5,485.5C 728.833,485.5 726.167,485.5 723.5,485.5C 723.5,482.167 723.5,478.833 723.5,475.5C 726.167,475.5 728.833,475.5 731.5,475.5 Z"/></g>
<g><path style="opacity:1" fill="#f6a505" d="M 712.5,475.5 C 715.833,475.5 719.167,475.5 722.5,475.5C 722.5,478.833 722.5,482.167 722.5,485.5C 719.167,485.5 715.833,485.5 712.5,485.5C 712.5,482.167 712.5,478.833 712.5,475.5 Z"/></g>
<g><path style="opacity:1" fill="#eb6f4c" d="M 703.5,475.5 C 703.5,475.167 703.5,474.833 703.5,474.5C 706.5,474.5 709.5,474.5 712.5,474.5C 715.833,474.5 719.167,474.5 722.5,474.5C 725.5,474.5 728.5,474.5 731.5,474.5C 731.5,474.833 731.5,475.167 731.5,475.5C 728.833,475.5 726.167,475.5 723.5,475.5C 723.5,478.833 723.5,482.167 723.5,485.5C 723.167,485.5 722.833,485.5 722.5,485.5C 722.5,482.167 722.5,478.833 722.5,475.5C 719.167,475.5 715.833,475.5 712.5,475.5C 709.5,475.5 706.5,475.5 703.5,475.5 Z"/></g>
<g><path style="opacity:1" fill="#fdd9b3" d="M 729.5,470.5 C 730.906,470.973 731.573,471.973 731.5,473.5C 730.094,473.027 729.427,472.027 729.5,470.5 Z"/></g>
<g><path style="opacity:1" fill="#f9b19f" d="M 726.5,467.5 C 728.5,467.5 729.5,468.5 729.5,470.5C 728.167,469.833 727.167,468.833 726.5,467.5 Z"/></g>
<g><path style="opacity:1" fill="#f6a612" d="M 722.5,466.5 C 723.167,466.5 723.833,466.5 724.5,466.5C 724.842,467.338 725.508,467.672 726.5,467.5C 727.167,468.833 728.167,469.833 729.5,470.5C 729.427,472.027 730.094,473.027 731.5,473.5C 731.5,473.833 731.5,474.167 731.5,474.5C 728.5,474.5 725.5,474.5 722.5,474.5C 722.5,471.833 722.5,469.167 722.5,466.5 Z"/></g>
<g><path style="opacity:1" fill="#f8ac2f" d="M 710.5,466.5 C 711.167,466.5 711.833,466.5 712.5,466.5C 712.5,469.167 712.5,471.833 712.5,474.5C 709.5,474.5 706.5,474.5 703.5,474.5C 703.5,474.167 703.5,473.833 703.5,473.5C 704.833,470.167 707.167,467.833 710.5,466.5 Z"/></g>
<g><path style="opacity:1" fill="#e63744" d="M 722.5,466.5 C 722.5,469.167 722.5,471.833 722.5,474.5C 719.167,474.5 715.833,474.5 712.5,474.5C 712.5,471.833 712.5,469.167 712.5,466.5C 715.833,465.167 719.167,465.167 722.5,466.5 Z"/></g>
<g><path style="opacity:1" fill="#fbd3c5" d="M 724.5,466.5 C 723.833,466.5 723.167,466.5 722.5,466.5C 719.167,465.167 715.833,465.167 712.5,466.5C 711.833,466.5 711.167,466.5 710.5,466.5C 710.611,465.883 710.944,465.383 711.5,465C 713.333,464.833 715.167,464.667 717,464.5C 719.866,464.3 722.366,464.967 724.5,466.5 Z"/></g>
<g><path style="opacity:1" fill="#06a0d8" d="M 429.5,511.5 C 544.833,511.5 660.167,511.5 775.5,511.5C 777.043,532.536 776.709,553.536 774.5,574.5C 659.833,574.667 545.166,574.5 430.5,574C 427.387,553.237 427.053,532.404 429.5,511.5 Z"/></g>
<g><path style="opacity:0.502" fill="#cfe7e6" d="M 995.5,530.5 C 995.762,531.978 995.429,533.311 994.5,534.5C 993.702,534.043 993.369,533.376 993.5,532.5C 994.167,531.833 994.833,531.167 995.5,530.5 Z"/></g>
<g><path style="opacity:1" fill="#248a83" d="M 190.5,562.5 C 194.4,561.57 198.4,561.237 202.5,561.5C 208.093,561.193 213.593,561.527 219,562.5C 222.529,570.754 225.862,579.087 229,587.5C 230.497,591.165 232.497,594.498 235,597.5C 235.959,601.421 234.792,604.588 231.5,607C 225.693,610.77 219.36,613.27 212.5,614.5C 220.099,642.133 227.599,669.799 235,697.5C 246.371,671.259 257.871,645.093 269.5,619C 263.941,616.275 259.941,612.109 257.5,606.5C 264.683,595.472 270.85,583.805 276,571.5C 276.779,570.272 277.779,569.272 279,568.5C 288.12,569.216 296.953,569.883 305.5,570.5C 310.106,583.825 315.773,596.658 322.5,609C 320.083,613.973 316.25,617.473 311,619.5C 310.833,620.833 310.667,622.167 310.5,623.5C 314.246,653.797 317.579,684.13 320.5,714.5C 326.185,715.024 328.851,718.191 328.5,724C 328.486,725.385 328.152,726.551 327.5,727.5C 319.167,727.5 310.833,727.5 302.5,727.5C 302.5,724.5 302.5,721.5 302.5,718.5C 304.389,716.37 306.055,714.037 307.5,711.5C 303.873,681.86 300.54,652.193 297.5,622.5C 295.022,621.836 292.355,621.503 289.5,621.5C 286.41,621.522 283.743,622.188 281.5,623.5C 269.396,653.045 256.729,682.378 243.5,711.5C 244.145,712.646 244.978,713.646 246,714.5C 246.499,718.152 246.665,721.818 246.5,725.5C 237.833,725.5 229.167,725.5 220.5,725.5C 220.335,721.818 220.501,718.152 221,714.5C 222.563,713.275 223.73,711.775 224.5,710C 216.104,679.582 208.104,649.082 200.5,618.5C 199.833,615.833 199.167,615.833 198.5,618.5C 182.572,648.187 166.238,677.687 149.5,707C 150.701,707.903 151.535,709.069 152,710.5C 152.498,713.482 152.665,716.482 152.5,719.5C 143.5,719.5 134.5,719.5 125.5,719.5C 124.307,713.681 125.974,709.014 130.5,705.5C 119.901,671.536 109.401,637.536 99,603.5C 95.8797,602.427 92.7131,601.427 89.5,600.5C 74.0763,633.016 58.9096,665.683 44,698.5C 45.1502,703.334 45.6502,708.334 45.5,713.5C 36.8333,713.5 28.1667,713.5 19.5,713.5C 19.335,710.15 19.5017,706.817 20,703.5C 20.5,702.333 21.3333,701.5 22.5,701C 24.764,700.764 26.9307,700.264 29,699.5C 44.5594,664.714 60.3927,630.047 76.5,595.5C 69.2948,591.456 64.4615,585.456 62,577.5C 61.3333,576.167 61.3333,574.833 62,573.5C 72.1306,565.703 81.2973,556.87 89.5,547C 90.9308,546.535 92.0975,545.701 93,544.5C 101.254,548.029 109.587,551.362 118,554.5C 118.76,567.761 120.26,580.928 122.5,594C 122.646,596.034 121.98,597.701 120.5,599C 117.798,600.34 115.131,601.673 112.5,603C 122.072,633.448 131.572,663.948 141,694.5C 156.373,666.919 171.873,639.419 187.5,612C 181.897,609.952 177.064,606.786 173,602.5C 172.077,600.966 171.577,599.299 171.5,597.5C 178.091,585.984 184.425,574.318 190.5,562.5 Z"/></g>
<g><path style="opacity:1" fill="#248a82" d="M 1004.5,617.5 C 1004.44,616.957 1004.11,616.624 1003.5,616.5C 1002.61,617.325 1002.28,618.325 1002.5,619.5C 994.889,650.111 986.889,680.611 978.5,711C 983.249,714.508 984.582,719.008 982.5,724.5C 974.167,724.5 965.833,724.5 957.5,724.5C 957.5,721.5 957.5,718.5 957.5,715.5C 957.703,713.956 958.37,712.622 959.5,711.5C 946.539,681.917 933.873,652.25 921.5,622.5C 919.022,621.836 916.355,621.503 913.5,621.5C 910.41,621.522 907.743,622.188 905.5,623.5C 902.715,653.397 899.382,683.23 895.5,713C 897.21,714.611 899.043,716.111 901,717.5C 901.499,721.152 901.665,724.818 901.5,728.5C 892.833,728.5 884.167,728.5 875.5,728.5C 875.335,725.15 875.502,721.817 876,718.5C 876.422,716.574 877.589,715.574 879.5,715.5C 880.833,715.5 882.167,715.5 883.5,715.5C 883.5,713.167 883.5,710.833 883.5,708.5C 886.323,679.095 889.656,649.761 893.5,620.5C 887.765,618.098 883.765,614.098 881.5,608.5C 887.611,595.683 893.445,582.683 899,569.5C 899.333,569.833 899.667,570.167 900,570.5C 908.498,569.624 916.998,569.124 925.5,569C 930.112,577.724 934.612,586.557 939,595.5C 941,598.167 943,600.833 945,603.5C 945.706,605.971 945.373,608.305 944,610.5C 940.958,613.933 937.458,616.766 933.5,619C 945.324,644.98 956.658,671.146 967.5,697.5C 967.56,698.043 967.893,698.376 968.5,698.5C 969.386,697.675 969.719,696.675 969.5,695.5C 976.5,668.167 983.5,640.833 990.5,613.5C 981.911,613.141 974.745,609.808 969,603.5C 967.813,601.956 967.48,600.289 968,598.5C 969.667,595.833 971.333,593.167 973,590.5C 976.838,580.983 980.671,571.483 984.5,562C 991.839,561.583 999.173,561.083 1006.5,560.5C 1008.76,560.532 1010.93,560.866 1013,561.5C 1018.35,574.366 1024.85,586.532 1032.5,598C 1030.95,601.561 1028.61,604.561 1025.5,607C 1022.43,608.861 1019.43,610.694 1016.5,612.5C 1031.47,639.961 1046.63,667.294 1062,694.5C 1071.8,664.264 1081.3,633.93 1090.5,603.5C 1088.08,601.733 1085.42,600.233 1082.5,599C 1081.11,598.044 1080.44,596.711 1080.5,595C 1083.16,581.281 1084.82,567.447 1085.5,553.5C 1094.17,550.999 1102.67,547.999 1111,544.5C 1120.04,555.203 1130.04,564.869 1141,573.5C 1140.59,583.456 1135.75,590.622 1126.5,595C 1142.59,629.774 1158.59,664.607 1174.5,699.5C 1183.21,700.082 1186.21,704.582 1183.5,713C 1174.84,713.5 1166.17,713.666 1157.5,713.5C 1157.33,710.15 1157.5,706.817 1158,703.5C 1158.83,702.667 1159.67,701.833 1160.5,701C 1145.3,667.197 1129.63,633.697 1113.5,600.5C 1109.96,601.163 1106.79,602.497 1104,604.5C 1093.69,638.421 1083.19,672.255 1072.5,706C 1074.29,706.785 1075.79,707.951 1077,709.5C 1077.5,712.817 1077.67,716.15 1077.5,719.5C 1068.83,719.5 1060.17,719.5 1051.5,719.5C 1051.05,714.959 1051.72,710.626 1053.5,706.5C 1036.89,676.94 1020.55,647.273 1004.5,617.5 Z"/></g>
<g><path style="opacity:0.878" fill="#9ecdca" d="M 284.5,549.5 C 285.451,550.919 285.784,552.585 285.5,554.5C 283.784,554.629 282.117,554.962 280.5,555.5C 281.287,553.896 282.62,553.229 284.5,553.5C 284.5,552.167 284.5,550.833 284.5,549.5 Z"/></g>
<g><path style="opacity:0.502" fill="#b7dbd9" d="M 217.5,549.5 C 218.479,552.625 218.813,555.958 218.5,559.5C 213.637,559.819 208.97,559.486 204.5,558.5C 208.833,558.5 213.167,558.5 217.5,558.5C 217.5,555.5 217.5,552.5 217.5,549.5 Z"/></g>
<g><path style="opacity:0.251" fill="#daedec" d="M 202.5,561.5 C 198.4,561.237 194.4,561.57 190.5,562.5C 192.048,561.206 194.048,560.539 196.5,560.5C 198.696,560.505 200.696,560.838 202.5,561.5 Z"/></g>
<g><path style="opacity:1" fill="#e95152" d="M 475.5,586.5 C 491.636,585.14 499.47,592.473 499,608.5C 493.852,620.654 485.019,624.488 472.5,620C 464.979,614.782 462.145,607.616 464,598.5C 465.08,596.004 466.414,593.67 468,591.5C 470.479,589.686 472.979,588.019 475.5,586.5 Z"/></g>
<g><path style="opacity:1" fill="#f7aa11" d="M 486.5,609.5 C 489.5,609.5 492.5,609.5 495.5,609.5C 495.5,609.833 495.5,610.167 495.5,610.5C 494.662,610.842 494.328,611.508 494.5,612.5C 492.5,613.833 490.833,615.5 489.5,617.5C 488.508,617.328 487.842,617.662 487.5,618.5C 487.167,618.5 486.833,618.5 486.5,618.5C 486.5,615.5 486.5,612.5 486.5,609.5 Z"/></g>
<g><path style="opacity:1" fill="#e53743" d="M 486.5,609.5 C 486.5,612.5 486.5,615.5 486.5,618.5C 483.167,618.5 479.833,618.5 476.5,618.5C 476.5,615.5 476.5,612.5 476.5,609.5C 479.833,609.5 483.167,609.5 486.5,609.5 Z"/></g>
<g><path style="opacity:1" fill="#f7a90a" d="M 475.5,617.5 C 474.833,617.5 474.167,617.5 473.5,617.5C 472.738,615.738 471.404,614.738 469.5,614.5C 469.573,612.973 468.906,611.973 467.5,611.5C 469.635,609.631 472.302,608.964 475.5,609.5C 475.5,612.167 475.5,614.833 475.5,617.5 Z"/></g>
<g><path style="opacity:1" fill="#fac6bb" d="M 495.5,597.5 C 496.997,599.29 497.664,601.456 497.5,604C 497.664,606.544 496.997,608.71 495.5,610.5C 495.5,610.167 495.5,609.833 495.5,609.5C 495.5,609.167 495.5,608.833 495.5,608.5C 496.678,605.477 496.678,602.477 495.5,599.5C 495.5,599.167 495.5,598.833 495.5,598.5C 495.5,598.167 495.5,597.833 495.5,597.5 Z"/></g>
<g><path style="opacity:1" fill="#fbd5ca" d="M 467.5,596.5 C 467.5,597.167 467.5,597.833 467.5,598.5C 467.5,598.833 467.5,599.167 467.5,599.5C 466.523,602.287 466.19,605.287 466.5,608.5C 466.167,608.5 465.833,608.5 465.5,608.5C 465.335,605.15 465.502,601.817 466,598.5C 466.278,597.584 466.778,596.918 467.5,596.5 Z"/></g>
<g><path style="opacity:1" fill="#e63744" d="M 486.5,599.5 C 489.5,599.5 492.5,599.5 495.5,599.5C 496.678,602.477 496.678,605.477 495.5,608.5C 492.5,608.5 489.5,608.5 486.5,608.5C 486.5,605.5 486.5,602.5 486.5,599.5 Z"/></g>
<g><path style="opacity:1" fill="#f6a800" d="M 486.5,599.5 C 486.5,602.5 486.5,605.5 486.5,608.5C 483.167,608.5 479.833,608.5 476.5,608.5C 476.5,605.5 476.5,602.5 476.5,599.5C 479.833,599.5 483.167,599.5 486.5,599.5 Z"/></g>
<g><path style="opacity:1" fill="#ec7554" d="M 475.5,590.5 C 475.833,590.5 476.167,590.5 476.5,590.5C 476.5,593.167 476.5,595.833 476.5,598.5C 479.833,598.5 483.167,598.5 486.5,598.5C 489.5,598.5 492.5,598.5 495.5,598.5C 495.5,598.833 495.5,599.167 495.5,599.5C 492.5,599.5 489.5,599.5 486.5,599.5C 483.167,599.5 479.833,599.5 476.5,599.5C 476.5,602.5 476.5,605.5 476.5,608.5C 479.833,608.5 483.167,608.5 486.5,608.5C 489.5,608.5 492.5,608.5 495.5,608.5C 495.5,608.833 495.5,609.167 495.5,609.5C 492.5,609.5 489.5,609.5 486.5,609.5C 483.167,609.5 479.833,609.5 476.5,609.5C 476.5,612.5 476.5,615.5 476.5,618.5C 475.833,618.5 475.5,618.167 475.5,617.5C 475.5,614.833 475.5,612.167 475.5,609.5C 472.302,608.964 469.635,609.631 467.5,611.5C 466.599,610.71 465.932,609.71 465.5,608.5C 465.833,608.5 466.167,608.5 466.5,608.5C 469.5,608.5 472.5,608.5 475.5,608.5C 475.5,605.5 475.5,602.5 475.5,599.5C 472.833,599.5 470.167,599.5 467.5,599.5C 467.5,599.167 467.5,598.833 467.5,598.5C 470.167,598.5 472.833,598.5 475.5,598.5C 475.5,595.833 475.5,593.167 475.5,590.5 Z"/></g>
<g><path style="opacity:1" fill="#e63844" d="M 467.5,599.5 C 470.167,599.5 472.833,599.5 475.5,599.5C 475.5,602.5 475.5,605.5 475.5,608.5C 472.5,608.5 469.5,608.5 466.5,608.5C 466.19,605.287 466.523,602.287 467.5,599.5 Z"/></g>
<g><path style="opacity:1" fill="#fedab3" d="M 493.5,594.5 C 494.906,594.973 495.573,595.973 495.5,597.5C 494.094,597.027 493.427,596.027 493.5,594.5 Z"/></g>
<g><path style="opacity:1" fill="#fbceac" d="M 473.5,590.5 C 471.833,592.833 469.833,594.833 467.5,596.5C 468.5,593.5 470.5,591.5 473.5,590.5 Z"/></g>
<g><path style="opacity:1" fill="#f9beaa" d="M 490.5,591.5 C 492.5,591.5 493.5,592.5 493.5,594.5C 492.167,593.833 491.167,592.833 490.5,591.5 Z"/></g>
<g><path style="opacity:1" fill="#f7a90a" d="M 486.5,590.5 C 487.833,590.833 489.167,591.167 490.5,591.5C 491.167,592.833 492.167,593.833 493.5,594.5C 493.427,596.027 494.094,597.027 495.5,597.5C 495.5,597.833 495.5,598.167 495.5,598.5C 492.5,598.5 489.5,598.5 486.5,598.5C 486.5,595.833 486.5,593.167 486.5,590.5 Z"/></g>
<g><path style="opacity:1" fill="#f7a90c" d="M 473.5,590.5 C 474.167,590.5 474.833,590.5 475.5,590.5C 475.5,593.167 475.5,595.833 475.5,598.5C 472.833,598.5 470.167,598.5 467.5,598.5C 467.5,597.833 467.5,597.167 467.5,596.5C 469.833,594.833 471.833,592.833 473.5,590.5 Z"/></g>
<g><path style="opacity:1" fill="#fdd9bc" d="M 486.5,590.5 C 486.5,590.167 486.5,589.833 486.5,589.5C 488.38,589.229 489.713,589.896 490.5,591.5C 489.167,591.167 487.833,590.833 486.5,590.5 Z"/></g>
<g><path style="opacity:1" fill="#e63744" d="M 486.5,589.5 C 486.5,589.833 486.5,590.167 486.5,590.5C 486.5,593.167 486.5,595.833 486.5,598.5C 483.167,598.5 479.833,598.5 476.5,598.5C 476.5,595.833 476.5,593.167 476.5,590.5C 479.625,589.521 482.958,589.187 486.5,589.5 Z"/></g>
<g><path style="opacity:1" fill="#f8baab" d="M 486.5,589.5 C 482.958,589.187 479.625,589.521 476.5,590.5C 476.167,590.5 475.833,590.5 475.5,590.5C 474.833,590.5 474.167,590.5 473.5,590.5C 477.699,587.355 482.032,587.022 486.5,589.5 Z"/></g>
<g><path style="opacity:1" fill="#fbceb5" d="M 467.5,611.5 C 468.906,611.973 469.573,612.973 469.5,614.5C 468.094,614.027 467.427,613.027 467.5,611.5 Z"/></g>
<g><path style="opacity:1" fill="#e8494d" d="M 711.5,586.5 C 730.827,585.983 737.994,594.983 733,613.5C 725.165,622.369 715.999,623.869 705.5,618C 695.864,605.185 697.864,594.685 711.5,586.5 Z"/></g>
<g><path style="opacity:1" fill="#f7a927" d="M 722.5,609.5 C 725.713,609.19 728.713,609.523 731.5,610.5C 731.672,611.492 731.338,612.158 730.5,612.5C 729.094,612.973 728.427,613.973 728.5,615.5C 726.973,615.427 725.973,616.094 725.5,617.5C 725.158,618.338 724.492,618.672 723.5,618.5C 723.167,618.5 722.833,618.5 722.5,618.5C 722.5,615.5 722.5,612.5 722.5,609.5 Z"/></g>
<g><path style="opacity:1" fill="#e53743" d="M 712.5,609.5 C 715.833,609.5 719.167,609.5 722.5,609.5C 722.5,612.5 722.5,615.5 722.5,618.5C 719.167,618.5 715.833,618.5 712.5,618.5C 712.5,615.5 712.5,612.5 712.5,609.5 Z"/></g>
<g><path style="opacity:1" fill="#f6a614" d="M 703.5,609.5 C 706.5,609.5 709.5,609.5 712.5,609.5C 712.5,612.5 712.5,615.5 712.5,618.5C 711.609,617.89 710.609,617.557 709.5,617.5C 708.738,615.738 707.404,614.738 705.5,614.5C 705.573,612.973 704.906,611.973 703.5,611.5C 703.5,610.833 703.5,610.167 703.5,609.5 Z"/></g>
<g><path style="opacity:1" fill="#fbd7cd" d="M 702.5,599.5 C 702.19,602.713 702.523,605.713 703.5,608.5C 703.5,608.833 703.5,609.167 703.5,609.5C 703.5,610.167 703.5,610.833 703.5,611.5C 701.983,609.538 701.316,607.205 701.5,604.5C 701.507,602.631 701.84,600.964 702.5,599.5 Z"/></g>
<g><path style="opacity:1" fill="#eb6e4c" d="M 703.5,599.5 C 703.5,599.167 703.5,598.833 703.5,598.5C 706.5,598.5 709.5,598.5 712.5,598.5C 715.833,598.5 719.167,598.5 722.5,598.5C 725.5,598.5 728.5,598.5 731.5,598.5C 731.5,598.833 731.5,599.167 731.5,599.5C 728.833,599.5 726.167,599.5 723.5,599.5C 723.5,602.5 723.5,605.5 723.5,608.5C 726.572,608.183 729.572,608.516 732.5,609.5C 732.376,610.107 732.043,610.44 731.5,610.5C 728.713,609.523 725.713,609.19 722.5,609.5C 719.167,609.5 715.833,609.5 712.5,609.5C 709.5,609.5 706.5,609.5 703.5,609.5C 703.5,609.167 703.5,608.833 703.5,608.5C 706.5,608.5 709.5,608.5 712.5,608.5C 715.833,608.5 719.167,608.5 722.5,608.5C 722.5,605.5 722.5,602.5 722.5,599.5C 719.167,599.5 715.833,599.5 712.5,599.5C 709.5,599.5 706.5,599.5 703.5,599.5 Z"/></g>
<g><path style="opacity:1" fill="#f6a800" d="M 712.5,599.5 C 715.833,599.5 719.167,599.5 722.5,599.5C 722.5,602.5 722.5,605.5 722.5,608.5C 719.167,608.5 715.833,608.5 712.5,608.5C 712.5,605.5 712.5,602.5 712.5,599.5 Z"/></g>
<g><path style="opacity:1" fill="#e63844" d="M 702.5,599.5 C 702.833,599.5 703.167,599.5 703.5,599.5C 706.5,599.5 709.5,599.5 712.5,599.5C 712.5,602.5 712.5,605.5 712.5,608.5C 709.5,608.5 706.5,608.5 703.5,608.5C 702.523,605.713 702.19,602.713 702.5,599.5 Z"/></g>
<g><path style="opacity:1" fill="#fbd0b6" d="M 704.5,595.5 C 704.443,596.609 704.11,597.609 703.5,598.5C 703.5,598.833 703.5,599.167 703.5,599.5C 703.167,599.5 702.833,599.5 702.5,599.5C 702.229,597.62 702.896,596.287 704.5,595.5 Z"/></g>
<g><path style="opacity:1" fill="#fbd2c4" d="M 730.5,595.5 C 731.966,596.347 732.8,597.68 733,599.5C 733.475,610.024 732.975,610.024 731.5,599.5C 731.5,599.167 731.5,598.833 731.5,598.5C 730.89,597.609 730.557,596.609 730.5,595.5 Z"/></g>
<g><path style="opacity:1" fill="#fbd0a9" d="M 711.5,589.5 C 709.192,591.471 706.858,593.471 704.5,595.5C 705.578,592.092 707.911,590.092 711.5,589.5 Z"/></g>
<g><path style="opacity:1" fill="#fac3ab" d="M 726.5,591.5 C 728.833,591.833 730.167,593.167 730.5,595.5C 728.833,594.5 727.5,593.167 726.5,591.5 Z"/></g>
<g><path style="opacity:1" fill="#f6a50f" d="M 722.5,590.5 C 723.833,590.833 725.167,591.167 726.5,591.5C 727.5,593.167 728.833,594.5 730.5,595.5C 730.557,596.609 730.89,597.609 731.5,598.5C 728.5,598.5 725.5,598.5 722.5,598.5C 722.5,595.833 722.5,593.167 722.5,590.5 Z"/></g>
<g><path style="opacity:1" fill="#f6a50d" d="M 711.5,589.5 C 711.833,589.5 712.167,589.5 712.5,589.5C 712.5,592.5 712.5,595.5 712.5,598.5C 709.5,598.5 706.5,598.5 703.5,598.5C 704.11,597.609 704.443,596.609 704.5,595.5C 706.858,593.471 709.192,591.471 711.5,589.5 Z"/></g>
<g><path style="opacity:1" fill="#f9c3ad" d="M 726.5,591.5 C 725.167,591.167 723.833,590.833 722.5,590.5C 719.375,589.521 716.042,589.187 712.5,589.5C 712.167,589.5 711.833,589.5 711.5,589.5C 716.902,586.762 721.902,587.429 726.5,591.5 Z"/></g>
<g><path style="opacity:1" fill="#e63744" d="M 712.5,589.5 C 716.042,589.187 719.375,589.521 722.5,590.5C 722.5,593.167 722.5,595.833 722.5,598.5C 719.167,598.5 715.833,598.5 712.5,598.5C 712.5,595.5 712.5,592.5 712.5,589.5 Z"/></g>
<g><path style="opacity:1" fill="#fac8b1" d="M 703.5,611.5 C 704.906,611.973 705.573,612.973 705.5,614.5C 704.094,614.027 703.427,613.027 703.5,611.5 Z"/></g>
<g><path style="opacity:1" fill="#f9c8ad" d="M 730.5,612.5 C 730.573,614.027 729.906,615.027 728.5,615.5C 728.427,613.973 729.094,612.973 730.5,612.5 Z"/></g>
<g><path style="opacity:1" fill="#fdcd92" d="M 469.5,614.5 C 471.404,614.738 472.738,615.738 473.5,617.5C 471.596,617.262 470.262,616.262 469.5,614.5 Z"/></g>
<g><path style="opacity:1" fill="#f9c3aa" d="M 494.5,612.5 C 493.833,615.167 492.167,616.833 489.5,617.5C 490.833,615.5 492.5,613.833 494.5,612.5 Z"/></g>
<g><path style="opacity:1" fill="#fdd5a6" d="M 705.5,614.5 C 707.404,614.738 708.738,615.738 709.5,617.5C 707.596,617.262 706.262,616.262 705.5,614.5 Z"/></g>
<g><path style="opacity:1" fill="#f8c2ae" d="M 728.5,615.5 C 728.027,616.906 727.027,617.573 725.5,617.5C 725.973,616.094 726.973,615.427 728.5,615.5 Z"/></g>
<g><path style="opacity:0.125" fill="#e9f4f3" d="M 200.5,618.5 C 199.833,618.5 199.167,618.5 198.5,618.5C 199.167,615.833 199.833,615.833 200.5,618.5 Z"/></g>
<g><path style="opacity:0.439" fill="#cee7e5" d="M 1004.5,617.5 C 1003.83,618.167 1003.17,618.833 1002.5,619.5C 1002.28,618.325 1002.61,617.325 1003.5,616.5C 1004.11,616.624 1004.44,616.957 1004.5,617.5 Z"/></g>
<g><path style="opacity:1" fill="#f6b0a3" d="M 709.5,617.5 C 710.609,617.557 711.609,617.89 712.5,618.5C 715.833,618.5 719.167,618.5 722.5,618.5C 722.833,618.5 723.167,618.5 723.5,618.5C 719.384,620.958 715.05,621.124 710.5,619C 709.944,618.617 709.611,618.117 709.5,617.5 Z"/></g>
<g><path style="opacity:1" fill="#f7b7aa" d="M 473.5,617.5 C 474.167,617.5 474.833,617.5 475.5,617.5C 475.5,618.167 475.833,618.5 476.5,618.5C 479.833,618.5 483.167,618.5 486.5,618.5C 486.833,618.5 487.167,618.5 487.5,618.5C 483.384,620.958 479.05,621.124 474.5,619C 473.944,618.617 473.611,618.117 473.5,617.5 Z"/></g>
<g><path style="opacity:0.753" fill="#8dc7c2" d="M 297.5,622.5 C 292.073,622.218 286.74,622.551 281.5,623.5C 283.743,622.188 286.41,621.522 289.5,621.5C 292.355,621.503 295.022,621.836 297.5,622.5 Z"/></g>
<g><path style="opacity:0.753" fill="#8fc8c4" d="M 921.5,622.5 C 916.073,622.218 910.74,622.551 905.5,623.5C 907.743,622.188 910.41,621.522 913.5,621.5C 916.355,621.503 919.022,621.836 921.5,622.5 Z"/></g>
<g><path style="opacity:0.878" fill="#ecf3fa" d="M 760.5,631.5 C 654.828,630.835 549.495,631.502 444.5,633.5C 443.596,632.791 443.263,631.791 443.5,630.5C 549.335,630.167 655.001,630.501 760.5,631.5 Z"/></g>
<g><path style="opacity:1" fill="#06a0d8" d="M 760.5,631.5 C 752.639,653.89 741.639,674.557 727.5,693.5C 644.169,694.667 560.835,694.833 477.5,694C 463.523,675.552 452.523,655.386 444.5,633.5C 549.495,631.502 654.828,630.835 760.5,631.5 Z"/></g>
<g><path style="opacity:0.565" fill="#cde6e5" d="M 969.5,695.5 C 969.719,696.675 969.386,697.675 968.5,698.5C 967.893,698.376 967.56,698.043 967.5,697.5C 968.167,696.833 968.833,696.167 969.5,695.5 Z"/></g>
<g><path style="opacity:0.816" fill="#abd5d1" d="M 883.5,708.5 C 883.5,710.833 883.5,713.167 883.5,715.5C 882.167,715.5 880.833,715.5 879.5,715.5C 880.209,714.596 881.209,714.263 882.5,714.5C 882.205,712.265 882.539,710.265 883.5,708.5 Z"/></g>
<g><path style="opacity:0.251" fill="#edf6f6" d="M 1179.5,716.5 C 1171.75,716.201 1164.08,716.534 1156.5,717.5C 1159.94,716.177 1163.77,715.51 1168,715.5C 1172.02,715.501 1175.85,715.835 1179.5,716.5 Z"/></g>
<g><path style="opacity:1" fill="#1d8880" d="M 18.5,715.5 C 27.7614,715.322 37.0947,715.655 46.5,716.5C 50.7559,725.423 54.9226,734.423 59,743.5C 61.198,747.02 63.3647,750.52 65.5,754C 61.9356,760.963 56.2689,765.296 48.5,767C 32.0592,771.653 16.8925,769.153 3,759.5C 0.809979,757.217 0.143313,754.551 1,751.5C 8.15801,740.183 13.9913,728.183 18.5,715.5 Z"/></g>
<g><path style="opacity:1" fill="#1b8780" d="M 1156.5,717.5 C 1164.08,716.534 1171.75,716.201 1179.5,716.5C 1181.46,715.862 1183.29,715.862 1185,716.5C 1189.92,729.495 1195.75,741.995 1202.5,754C 1200.95,759.219 1197.62,762.886 1192.5,765C 1174.55,772.105 1157.55,770.438 1141.5,760C 1138.9,757.683 1138.07,754.85 1139,751.5C 1145.66,740.513 1151.49,729.179 1156.5,717.5 Z"/></g>
<g><path style="opacity:1" fill="#1d8880" d="M 125.5,721.5 C 134.667,721.859 143.833,722.192 153,722.5C 158.13,735.427 164.297,747.761 171.5,759.5C 167.609,767.964 160.942,772.797 151.5,774C 138.238,776.724 125.571,775.058 113.5,769C 111.667,767.167 109.833,765.333 108,763.5C 106.813,761.956 106.48,760.289 107,758.5C 114.234,746.698 120.401,734.364 125.5,721.5 Z"/></g>
<g><path style="opacity:1" fill="#1d8880" d="M 1050.5,721.5 C 1060.01,721.957 1069.35,722.291 1078.5,722.5C 1081.94,729.717 1085.11,737.05 1088,744.5C 1090.27,749.098 1092.94,753.431 1096,757.5C 1096.84,761.354 1095.67,764.521 1092.5,767C 1076.55,776.607 1059.88,777.94 1042.5,771C 1037.5,768.667 1033.83,765 1031.5,760C 1038.88,747.709 1045.21,734.875 1050.5,721.5 Z"/></g>
<g><path style="opacity:0.251" fill="#e7f3f3" d="M 957.5,715.5 C 957.5,718.5 957.5,721.5 957.5,724.5C 965.833,724.5 974.167,724.5 982.5,724.5C 974.016,725.493 965.349,725.826 956.5,725.5C 956.187,721.958 956.521,718.625 957.5,715.5 Z"/></g>
<g><path style="opacity:0.753" fill="#90c8c4" d="M 302.5,718.5 C 302.5,721.5 302.5,724.5 302.5,727.5C 310.833,727.5 319.167,727.5 327.5,727.5C 319.016,728.493 310.349,728.826 301.5,728.5C 301.187,724.958 301.521,721.625 302.5,718.5 Z"/></g>
<g><path style="opacity:1" fill="#1a8880" d="M 955.5,727.5 C 964.839,727.334 974.173,727.5 983.5,728C 986.993,733.822 989.826,739.988 992,746.5C 994.493,752.157 997.493,757.49 1001,762.5C 1001.67,764.5 1001.67,766.5 1001,768.5C 994.949,775.109 987.449,778.942 978.5,780C 964.194,782.277 951.361,779.111 940,770.5C 936.378,765.594 937.045,761.261 942,757.5C 946.796,747.601 951.296,737.601 955.5,727.5 Z"/></g>
<g><path style="opacity:1" fill="#1b8880" d="M 219.5,727.5 C 228.839,727.334 238.173,727.5 247.5,728C 252.408,739.983 258.241,751.483 265,762.5C 265.667,764.5 265.667,766.5 265,768.5C 258.708,775.396 250.875,779.229 241.5,780C 228.933,781.852 217.266,779.518 206.5,773C 202.64,770.452 201.14,766.952 202,762.5C 203.912,760.343 205.579,758.009 207,755.5C 211.27,746.179 215.437,736.846 219.5,727.5 Z"/></g>
<g><path style="opacity:0.502" fill="#bddfdd" d="M 328.5,731.5 C 319.083,731.195 309.75,731.528 300.5,732.5C 304.783,731.173 309.449,730.507 314.5,730.5C 319.346,730.501 324.012,730.834 328.5,731.5 Z"/></g>
<g><path style="opacity:1" fill="#19877f" d="M 328.5,731.5 C 333.225,740.62 337.725,749.953 342,759.5C 345.089,762.667 346.756,766.334 347,770.5C 341.652,777.597 334.486,781.764 325.5,783C 312.434,785.131 300.101,783.131 288.5,777C 284.376,774.58 282.543,771.08 283,766.5C 284.667,764.167 286.333,761.833 288,759.5C 292.092,750.355 296.259,741.355 300.5,732.5C 309.75,731.528 319.083,731.195 328.5,731.5 Z"/></g>
<g><path style="opacity:1" fill="#1d8880" d="M 874.5,730.5 C 884.083,730.182 893.583,730.515 903,731.5C 907.525,743.756 913.192,755.423 920,766.5C 920.667,768.167 920.667,769.833 920,771.5C 914.478,778.345 907.312,782.178 898.5,783C 887.11,784.55 876.11,783.217 865.5,779C 862.37,776.872 859.537,774.372 857,771.5C 856.333,769.5 856.333,767.5 857,765.5C 859.248,762.672 861.248,759.672 863,756.5C 866.743,747.762 870.576,739.096 874.5,730.5 Z"/></g>
<g><path style="opacity:1" fill="#e94e50" d="M 595.5,721.5 C 611.787,720.034 619.287,727.367 618,743.5C 612.613,756.944 603.447,760.444 590.5,754C 578.708,741.04 580.375,730.207 595.5,721.5 Z"/></g>
<g><path style="opacity:1" fill="#fdd1aa" d="M 589.5,728.5 C 588.833,730.167 588.167,731.833 587.5,733.5C 586.833,733.5 586.5,733.833 586.5,734.5C 585.463,735.017 585.297,734.351 586,732.5C 586.66,730.676 587.827,729.343 589.5,728.5 Z"/></g>
<g><path style="opacity:1" fill="#fccea9" d="M 611.5,727.5 C 613.262,728.262 614.262,729.596 614.5,731.5C 612.738,730.738 611.738,729.404 611.5,727.5 Z"/></g>
<g><path style="opacity:1" fill="#f9c3ac" d="M 608.5,725.5 C 610.027,725.427 611.027,726.094 611.5,727.5C 609.973,727.573 608.973,726.906 608.5,725.5 Z"/></g>
<g><path style="opacity:1" fill="#fed293" d="M 593.5,725.5 C 592.738,727.262 591.404,728.262 589.5,728.5C 590.262,726.738 591.596,725.738 593.5,725.5 Z"/></g>
<g><path style="opacity:1" fill="#f7aa13" d="M 606.5,725.5 C 607.167,725.5 607.833,725.5 608.5,725.5C 608.973,726.906 609.973,727.573 611.5,727.5C 611.738,729.404 612.738,730.738 614.5,731.5C 614.5,732.167 614.5,732.833 614.5,733.5C 611.833,733.5 609.167,733.5 606.5,733.5C 606.5,730.833 606.5,728.167 606.5,725.5 Z"/></g>
<g><path style="opacity:1" fill="#f7a804" d="M 593.5,725.5 C 594.167,725.5 594.833,725.5 595.5,725.5C 595.5,728.167 595.5,730.833 595.5,733.5C 592.833,733.5 590.167,733.5 587.5,733.5C 588.167,731.833 588.833,730.167 589.5,728.5C 591.404,728.262 592.738,727.262 593.5,725.5 Z"/></g>
<g><path style="opacity:1" fill="#e63744" d="M 597.5,724.5 C 600.385,724.194 603.052,724.527 605.5,725.5C 605.5,728.167 605.5,730.833 605.5,733.5C 602.167,733.5 598.833,733.5 595.5,733.5C 595.5,730.833 595.5,728.167 595.5,725.5C 596.492,725.672 597.158,725.338 597.5,724.5 Z"/></g>
<g><path style="opacity:1" fill="#faccbe" d="M 608.5,725.5 C 607.833,725.5 607.167,725.5 606.5,725.5C 606.167,725.5 605.833,725.5 605.5,725.5C 603.052,724.527 600.385,724.194 597.5,724.5C 599.047,723.334 602.047,723.167 606.5,724C 607.416,724.278 608.082,724.778 608.5,725.5 Z"/></g>
<g><path style="opacity:1" fill="#ed7f4e" d="M 605.5,725.5 C 605.833,725.5 606.167,725.5 606.5,725.5C 606.5,728.167 606.5,730.833 606.5,733.5C 609.167,733.5 611.833,733.5 614.5,733.5C 614.5,733.833 614.5,734.167 614.5,734.5C 611.833,734.5 609.167,734.5 606.5,734.5C 606.5,737.833 606.5,741.167 606.5,744.5C 606.5,747.5 606.5,750.5 606.5,753.5C 606.167,753.5 605.833,753.5 605.5,753.5C 605.5,750.5 605.5,747.5 605.5,744.5C 605.5,741.167 605.5,737.833 605.5,734.5C 602.167,734.5 598.833,734.5 595.5,734.5C 592.5,734.5 589.5,734.5 586.5,734.5C 586.5,733.833 586.833,733.5 587.5,733.5C 590.167,733.5 592.833,733.5 595.5,733.5C 598.833,733.5 602.167,733.5 605.5,733.5C 605.5,730.833 605.5,728.167 605.5,725.5 Z"/></g>
<g><path style="opacity:1" fill="#f6a408" d="M 595.5,734.5 C 598.833,734.5 602.167,734.5 605.5,734.5C 605.5,737.833 605.5,741.167 605.5,744.5C 602.167,744.5 598.833,744.5 595.5,744.5C 595.5,741.167 595.5,737.833 595.5,734.5 Z"/></g>
<g><path style="opacity:1" fill="#e63844" d="M 614.5,734.5 C 615.479,737.625 615.813,740.958 615.5,744.5C 615.167,744.5 614.833,744.5 614.5,744.5C 611.833,744.5 609.167,744.5 606.5,744.5C 606.5,741.167 606.5,737.833 606.5,734.5C 609.167,734.5 611.833,734.5 614.5,734.5 Z"/></g>
<g><path style="opacity:1" fill="#e84f50" d="M 661.5,703.5 C 680.827,702.983 687.994,711.983 683,730.5C 674.255,741.084 664.589,742.084 654,733.5C 646.165,720.847 648.665,710.847 661.5,703.5 Z"/></g>
<g><path style="opacity:1" fill="#f9c8b0" d="M 678.5,732.5 C 678.027,733.906 677.027,734.573 675.5,734.5C 675.973,733.094 676.973,732.427 678.5,732.5 Z"/></g>
<g><path style="opacity:1" fill="#fece93" d="M 655.5,731.5 C 657.404,731.738 658.738,732.738 659.5,734.5C 657.596,734.262 656.262,733.262 655.5,731.5 Z"/></g>
<g><path style="opacity:1" fill="#facdaf" d="M 680.5,729.5 C 680.573,731.027 679.906,732.027 678.5,732.5C 678.427,730.973 679.094,729.973 680.5,729.5 Z"/></g>
<g><path style="opacity:1" fill="#facab2" d="M 653.5,728.5 C 654.906,728.973 655.573,729.973 655.5,731.5C 654.094,731.027 653.427,730.027 653.5,728.5 Z"/></g>
<g><path style="opacity:1" fill="#fbccbf" d="M 681.5,714.5 C 683.974,718.924 684.141,723.591 682,728.5C 681.617,729.056 681.117,729.389 680.5,729.5C 680.557,728.391 680.89,727.391 681.5,726.5C 682.628,723.115 682.628,719.781 681.5,716.5C 681.5,716.167 681.5,715.833 681.5,715.5C 681.5,715.167 681.5,714.833 681.5,714.5 Z"/></g>
<g><path style="opacity:1" fill="#f7a71c" d="M 672.5,726.5 C 672.833,726.5 673.167,726.5 673.5,726.5C 676.167,726.5 678.833,726.5 681.5,726.5C 680.89,727.391 680.557,728.391 680.5,729.5C 679.094,729.973 678.427,730.973 678.5,732.5C 676.973,732.427 675.973,733.094 675.5,734.5C 675.158,735.338 674.492,735.672 673.5,735.5C 673.167,735.5 672.833,735.5 672.5,735.5C 672.5,732.5 672.5,729.5 672.5,726.5 Z"/></g>
<g><path style="opacity:1" fill="#e63a45" d="M 662.5,726.5 C 665.833,726.5 669.167,726.5 672.5,726.5C 672.5,729.5 672.5,732.5 672.5,735.5C 669.167,736.833 665.833,736.833 662.5,735.5C 662.5,732.5 662.5,729.5 662.5,726.5 Z"/></g>
<g><path style="opacity:1" fill="#f7a71b" d="M 653.5,726.5 C 656.5,726.5 659.5,726.5 662.5,726.5C 662.5,729.5 662.5,732.5 662.5,735.5C 662.167,735.5 661.833,735.5 661.5,735.5C 660.508,735.672 659.842,735.338 659.5,734.5C 658.738,732.738 657.404,731.738 655.5,731.5C 655.573,729.973 654.906,728.973 653.5,728.5C 653.5,727.833 653.5,727.167 653.5,726.5 Z"/></g>
<g><path style="opacity:1" fill="#fad6cc" d="M 652.5,716.5 C 652.253,719.939 652.586,723.272 653.5,726.5C 653.5,727.167 653.5,727.833 653.5,728.5C 651.983,726.538 651.316,724.205 651.5,721.5C 651.507,719.631 651.84,717.964 652.5,716.5 Z"/></g>
<g><path style="opacity:1" fill="#e63744" d="M 681.5,716.5 C 682.628,719.781 682.628,723.115 681.5,726.5C 678.833,726.5 676.167,726.5 673.5,726.5C 673.5,723.167 673.5,719.833 673.5,716.5C 676.167,716.5 678.833,716.5 681.5,716.5 Z"/></g>
<g><path style="opacity:1" fill="#f6a505" d="M 662.5,716.5 C 665.833,716.5 669.167,716.5 672.5,716.5C 672.5,719.833 672.5,723.167 672.5,726.5C 669.167,726.5 665.833,726.5 662.5,726.5C 662.5,723.167 662.5,719.833 662.5,716.5 Z"/></g>
<g><path style="opacity:1" fill="#e63844" d="M 652.5,716.5 C 652.833,716.5 653.167,716.5 653.5,716.5C 656.5,716.5 659.5,716.5 662.5,716.5C 662.5,719.833 662.5,723.167 662.5,726.5C 659.5,726.5 656.5,726.5 653.5,726.5C 652.586,723.272 652.253,719.939 652.5,716.5 Z"/></g>
<g><path style="opacity:1" fill="#eb6f4c" d="M 653.5,716.5 C 653.5,716.167 653.5,715.833 653.5,715.5C 656.5,715.5 659.5,715.5 662.5,715.5C 665.833,715.5 669.167,715.5 672.5,715.5C 675.5,715.5 678.5,715.5 681.5,715.5C 681.5,715.833 681.5,716.167 681.5,716.5C 678.833,716.5 676.167,716.5 673.5,716.5C 673.5,719.833 673.5,723.167 673.5,726.5C 673.167,726.5 672.833,726.5 672.5,726.5C 672.5,723.167 672.5,719.833 672.5,716.5C 669.167,716.5 665.833,716.5 662.5,716.5C 659.5,716.5 656.5,716.5 653.5,716.5 Z"/></g>
<g><path style="opacity:1" fill="#fbd3b8" d="M 654.5,712.5 C 654.443,713.609 654.11,714.609 653.5,715.5C 653.5,715.833 653.5,716.167 653.5,716.5C 653.167,716.5 652.833,716.5 652.5,716.5C 652.229,714.62 652.896,713.287 654.5,712.5 Z"/></g>
<g><path style="opacity:1" fill="#fcd4b1" d="M 658.5,708.5 C 657.5,710.167 656.167,711.5 654.5,712.5C 654.833,710.167 656.167,708.833 658.5,708.5 Z"/></g>
<g><path style="opacity:1" fill="#f9bba4" d="M 676.5,708.5 C 678.833,708.833 680.167,710.167 680.5,712.5C 678.833,711.5 677.5,710.167 676.5,708.5 Z"/></g>
<g><path style="opacity:1" fill="#f7a81e" d="M 672.5,707.5 C 673.833,707.833 675.167,708.167 676.5,708.5C 677.5,710.167 678.833,711.5 680.5,712.5C 681.338,712.842 681.672,713.508 681.5,714.5C 681.5,714.833 681.5,715.167 681.5,715.5C 678.5,715.5 675.5,715.5 672.5,715.5C 672.5,712.833 672.5,710.167 672.5,707.5 Z"/></g>
<g><path style="opacity:1" fill="#f6a50a" d="M 662.5,707.5 C 662.5,710.167 662.5,712.833 662.5,715.5C 659.5,715.5 656.5,715.5 653.5,715.5C 654.11,714.609 654.443,713.609 654.5,712.5C 656.167,711.5 657.5,710.167 658.5,708.5C 659.833,708.167 661.167,707.833 662.5,707.5 Z"/></g>
<g><path style="opacity:1" fill="#fac6af" d="M 676.5,708.5 C 675.167,708.167 673.833,707.833 672.5,707.5C 669.167,706.167 665.833,706.167 662.5,707.5C 661.167,707.833 659.833,708.167 658.5,708.5C 659.058,707.21 660.058,706.377 661.5,706C 663.556,705.689 665.556,705.189 667.5,704.5C 669.444,705.189 671.444,705.689 673.5,706C 674.942,706.377 675.942,707.21 676.5,708.5 Z"/></g>
<g><path style="opacity:1" fill="#e63844" d="M 672.5,707.5 C 672.5,710.167 672.5,712.833 672.5,715.5C 669.167,715.5 665.833,715.5 662.5,715.5C 662.5,712.833 662.5,710.167 662.5,707.5C 665.833,706.167 669.167,706.167 672.5,707.5 Z"/></g>
<g><path style="opacity:1" fill="#e84e50" d="M 527.5,703.5 C 538.069,701.866 545.569,705.866 550,715.5C 552.205,729.438 546.372,737.438 532.5,739.5C 519.623,737.13 513.79,729.463 515,716.5C 517.379,710.29 521.546,705.957 527.5,703.5 Z"/></g>
<g><path style="opacity:1" fill="#f9c6bb" d="M 526.5,735.5 C 526.833,735.5 527.167,735.5 527.5,735.5C 529.854,735.838 532.187,736.338 534.5,737C 531.462,737.885 528.795,737.385 526.5,735.5 Z"/></g>
<g><path style="opacity:1" fill="#fcd4be" d="M 542.5,733.5 C 541.942,734.79 540.942,735.623 539.5,736C 537.649,736.703 536.983,736.537 537.5,735.5C 538.167,735.5 538.5,735.167 538.5,734.5C 539.833,734.167 541.167,733.833 542.5,733.5 Z"/></g>
<g><path style="opacity:1" fill="#f7a693" d="M 546.5,728.5 C 546.33,731.204 544.997,732.871 542.5,733.5C 543.604,731.611 544.937,729.945 546.5,728.5 Z"/></g>
<g><path style="opacity:1" fill="#fac9af" d="M 519.5,729.5 C 521.5,730.833 523.167,732.5 524.5,734.5C 521.833,733.833 520.167,732.167 519.5,729.5 Z"/></g>
<g><path style="opacity:1" fill="#f7a90f" d="M 538.5,726.5 C 541.167,726.5 543.833,726.5 546.5,726.5C 546.5,727.167 546.5,727.833 546.5,728.5C 544.937,729.945 543.604,731.611 542.5,733.5C 541.167,733.833 539.833,734.167 538.5,734.5C 538.5,731.833 538.5,729.167 538.5,726.5 Z"/></g>
<g><path style="opacity:1" fill="#f8ab1c" d="M 518.5,726.5 C 521.5,726.5 524.5,726.5 527.5,726.5C 527.5,729.5 527.5,732.5 527.5,735.5C 527.167,735.5 526.833,735.5 526.5,735.5C 525.508,735.672 524.842,735.338 524.5,734.5C 523.167,732.5 521.5,730.833 519.5,729.5C 519.443,728.391 519.11,727.391 518.5,726.5 Z"/></g>
<g><path style="opacity:1" fill="#f9c1b5" d="M 518.5,714.5 C 518.5,714.833 518.5,715.167 518.5,715.5C 518.5,715.833 518.5,716.167 518.5,716.5C 517.373,719.809 517.373,723.143 518.5,726.5C 519.11,727.391 519.443,728.391 519.5,729.5C 517.245,727.241 516.245,724.408 516.5,721C 516.336,718.456 517.003,716.29 518.5,714.5 Z"/></g>
<g><path style="opacity:1" fill="#fad3c8" d="M 546.5,713.5 C 548.033,715.634 548.7,718.134 548.5,721C 548.7,723.866 548.033,726.366 546.5,728.5C 546.5,727.833 546.5,727.167 546.5,726.5C 547.782,723.064 547.782,719.731 546.5,716.5C 546.5,716.167 546.5,715.833 546.5,715.5C 546.5,714.833 546.5,714.167 546.5,713.5 Z"/></g>
<g><path style="opacity:1" fill="#e63844" d="M 546.5,716.5 C 547.782,719.731 547.782,723.064 546.5,726.5C 543.833,726.5 541.167,726.5 538.5,726.5C 538.5,723.167 538.5,719.833 538.5,716.5C 541.167,716.5 543.833,716.5 546.5,716.5 Z"/></g>
<g><path style="opacity:1" fill="#f6a408" d="M 527.5,716.5 C 530.833,716.5 534.167,716.5 537.5,716.5C 537.5,719.833 537.5,723.167 537.5,726.5C 534.167,726.5 530.833,726.5 527.5,726.5C 527.5,723.167 527.5,719.833 527.5,716.5 Z"/></g>
<g><path style="opacity:1" fill="#e63744" d="M 518.5,716.5 C 521.5,716.5 524.5,716.5 527.5,716.5C 527.5,719.833 527.5,723.167 527.5,726.5C 524.5,726.5 521.5,726.5 518.5,726.5C 517.373,723.143 517.373,719.809 518.5,716.5 Z"/></g>
<g><path style="opacity:1" fill="#ed804e" d="M 537.5,707.5 C 537.833,707.5 538.167,707.5 538.5,707.5C 538.5,710.167 538.5,712.833 538.5,715.5C 541.167,715.5 543.833,715.5 546.5,715.5C 546.5,715.833 546.5,716.167 546.5,716.5C 543.833,716.5 541.167,716.5 538.5,716.5C 538.5,719.833 538.5,723.167 538.5,726.5C 538.5,729.167 538.5,731.833 538.5,734.5C 538.5,735.167 538.167,735.5 537.5,735.5C 537.5,732.5 537.5,729.5 537.5,726.5C 537.5,723.167 537.5,719.833 537.5,716.5C 534.167,716.5 530.833,716.5 527.5,716.5C 524.5,716.5 521.5,716.5 518.5,716.5C 518.5,716.167 518.5,715.833 518.5,715.5C 521.5,715.5 524.5,715.5 527.5,715.5C 530.833,715.5 534.167,715.5 537.5,715.5C 537.5,712.833 537.5,710.167 537.5,707.5 Z"/></g>
<g><path style="opacity:1" fill="#ffd399" d="M 521.5,710.5 C 521.262,712.404 520.262,713.738 518.5,714.5C 518.738,712.596 519.738,711.262 521.5,710.5 Z"/></g>
<g><path style="opacity:1" fill="#fbcaa5" d="M 543.5,709.5 C 545.262,710.262 546.262,711.596 546.5,713.5C 544.738,712.738 543.738,711.404 543.5,709.5 Z"/></g>
<g><path style="opacity:1" fill="#f9c3ac" d="M 540.5,707.5 C 542.027,707.427 543.027,708.094 543.5,709.5C 541.973,709.573 540.973,708.906 540.5,707.5 Z"/></g>
<g><path style="opacity:1" fill="#f7aa13" d="M 538.5,707.5 C 539.167,707.5 539.833,707.5 540.5,707.5C 540.973,708.906 541.973,709.573 543.5,709.5C 543.738,711.404 544.738,712.738 546.5,713.5C 546.5,714.167 546.5,714.833 546.5,715.5C 543.833,715.5 541.167,715.5 538.5,715.5C 538.5,712.833 538.5,710.167 538.5,707.5 Z"/></g>
<g><path style="opacity:1" fill="#f7aa18" d="M 527.5,707.5 C 527.5,710.167 527.5,712.833 527.5,715.5C 524.5,715.5 521.5,715.5 518.5,715.5C 518.5,715.167 518.5,714.833 518.5,714.5C 520.262,713.738 521.262,712.404 521.5,710.5C 521.833,709.5 522.5,708.833 523.5,708.5C 524.833,708.167 526.167,707.833 527.5,707.5 Z"/></g>
<g><path style="opacity:1" fill="#e63744" d="M 537.5,707.5 C 537.5,710.167 537.5,712.833 537.5,715.5C 534.167,715.5 530.833,715.5 527.5,715.5C 527.5,712.833 527.5,710.167 527.5,707.5C 530.936,706.218 534.269,706.218 537.5,707.5 Z"/></g>
<g><path style="opacity:1" fill="#f8bfae" d="M 540.5,707.5 C 539.833,707.5 539.167,707.5 538.5,707.5C 538.167,707.5 537.833,707.5 537.5,707.5C 534.269,706.218 530.936,706.218 527.5,707.5C 526.167,707.833 524.833,708.167 523.5,708.5C 524.058,707.21 525.058,706.377 526.5,706C 531.538,703.863 536.204,704.363 540.5,707.5 Z"/></g>
<g><path style="opacity:1" fill="#f8bfb3" d="M 661.5,735.5 C 661.833,735.5 662.167,735.5 662.5,735.5C 665.833,736.833 669.167,736.833 672.5,735.5C 672.833,735.5 673.167,735.5 673.5,735.5C 671.883,736.972 669.883,737.639 667.5,737.5C 665.117,737.639 663.117,736.972 661.5,735.5 Z"/></g>
<g><path style="opacity:1" fill="#f7b4a6" d="M 614.5,731.5 C 616.053,734.017 617.053,736.85 617.5,740C 617.101,741.728 616.434,743.228 615.5,744.5C 615.813,740.958 615.479,737.625 614.5,734.5C 614.5,734.167 614.5,733.833 614.5,733.5C 614.5,732.833 614.5,732.167 614.5,731.5 Z"/></g>
<g><path style="opacity:1" fill="#f7b8ab" d="M 586.5,744.5 C 586.5,744.833 586.5,745.167 586.5,745.5C 584.573,742.863 584.073,739.863 585,736.5C 585.567,739.168 586.067,741.834 586.5,744.5 Z"/></g>
<g><path style="opacity:1" fill="#f8ab1d" d="M 586.5,745.5 C 586.5,745.167 586.5,744.833 586.5,744.5C 589.5,744.5 592.5,744.5 595.5,744.5C 595.5,747.5 595.5,750.5 595.5,753.5C 595.167,753.5 594.833,753.5 594.5,753.5C 593.508,753.672 592.842,753.338 592.5,752.5C 591.167,750.5 589.5,748.833 587.5,747.5C 587.672,746.508 587.338,745.842 586.5,745.5 Z"/></g>
<g><path style="opacity:1" fill="#e63b45" d="M 595.5,744.5 C 598.833,744.5 602.167,744.5 605.5,744.5C 605.5,747.5 605.5,750.5 605.5,753.5C 602.186,754.707 598.852,754.707 595.5,753.5C 595.5,750.5 595.5,747.5 595.5,744.5 Z"/></g>
<g><path style="opacity:1" fill="#f7a910" d="M 606.5,744.5 C 609.167,744.5 611.833,744.5 614.5,744.5C 614.167,745.833 613.833,747.167 613.5,748.5C 612.167,749.167 611.167,750.167 610.5,751.5C 608.973,751.427 607.973,752.094 607.5,753.5C 607.167,753.5 606.833,753.5 606.5,753.5C 606.5,750.5 606.5,747.5 606.5,744.5 Z"/></g>
<g><path style="opacity:1" fill="#fbcfba" d="M 614.5,744.5 C 614.833,744.5 615.167,744.5 615.5,744.5C 615.771,746.38 615.104,747.713 613.5,748.5C 613.833,747.167 614.167,745.833 614.5,744.5 Z"/></g>
<g><path style="opacity:1" fill="#fac8ae" d="M 587.5,747.5 C 589.5,748.833 591.167,750.5 592.5,752.5C 589.833,751.833 588.167,750.167 587.5,747.5 Z"/></g>
<g><path style="opacity:0.502" fill="#fef4e5" d="M 779.5,748.5 C 779.664,751.187 779.497,753.854 779,756.5C 777.961,755.756 777.461,754.756 777.5,753.5C 778.167,751.833 778.833,750.167 779.5,748.5 Z"/></g>
<g><path style="opacity:1" fill="#fac8b4" d="M 610.5,751.5 C 610.027,752.906 609.027,753.573 607.5,753.5C 607.973,752.094 608.973,751.427 610.5,751.5 Z"/></g>
<g><path style="opacity:1" fill="#f8c4b8" d="M 594.5,753.5 C 594.833,753.5 595.167,753.5 595.5,753.5C 598.852,754.707 602.186,754.707 605.5,753.5C 605.833,753.5 606.167,753.5 606.5,753.5C 606.833,753.5 607.167,753.5 607.5,753.5C 603.137,756.09 598.804,756.09 594.5,753.5 Z"/></g>
<g><path style="opacity:0.97" fill="#fff8ed" d="M 586.5,856.5 C 587.873,856.343 589.207,856.51 590.5,857C 594.702,860.867 598.535,865.033 602,869.5C 605.07,863.595 609.57,859.262 615.5,856.5C 614.363,861.229 613.363,866.229 612.5,871.5C 612.817,868.428 612.484,865.428 611.5,862.5C 608.093,866.318 604.926,870.318 602,874.5C 598.702,870.2 595.035,866.2 591,862.5C 590.503,864.81 590.337,867.143 590.5,869.5C 589.681,866.695 589.181,863.695 589,860.5C 588.52,858.867 587.687,857.534 586.5,856.5 Z"/></g>
<g><path style="opacity:1" fill="#f9ae27" d="M 612.5,871.5 C 612.407,882.849 611.907,894.182 611,905.5C 609.989,906.337 608.822,906.67 607.5,906.5C 603.596,938.45 599.596,938.45 595.5,906.5C 594.178,906.67 593.011,906.337 592,905.5C 591.097,893.515 590.597,881.515 590.5,869.5C 590.337,867.143 590.503,864.81 591,862.5C 595.035,866.2 598.702,870.2 602,874.5C 604.926,870.318 608.093,866.318 611.5,862.5C 612.484,865.428 612.817,868.428 612.5,871.5 Z"/></g>
</svg>
