<?xml version="1.0" standalone="no"?>
<!DOCTYPE svg PUBLIC "-//W3C//DTD SVG 20010904//EN"
 "http://www.w3.org/TR/2001/REC-SVG-20010904/DTD/svg10.dtd">
<svg version="1.0" xmlns="http://www.w3.org/2000/svg"
 width="302.000000pt" height="329.000000pt" viewBox="0 0 302.000000 329.000000"
 preserveAspectRatio="xMidYMid meet">

<g transform="translate(0.000000,329.000000) scale(0.100000,-0.100000)"
fill="#000000" stroke="none">
<path d="M1440 3243 c-8 -3 -27 -14 -42 -24 -14 -11 -33 -19 -40 -19 -16 0
-54 -37 -47 -45 3 -2 38 1 79 7 72 10 238 5 289 -9 36 -9 23 29 -14 42 -17 6
-43 19 -59 30 -29 19 -135 31 -166 18z m190 -50 c0 -5 -54 -8 -120 -8 -66 0
-120 3 -120 8 0 4 54 7 120 7 66 0 120 -3 120 -7z"/>
<path d="M1340 3136 c-73 -13 -113 -32 -107 -49 6 -21 60 -41 117 -44 30 -2
72 -6 93 -9 40 -7 43 -4 26 27 -8 16 -7 25 7 40 36 39 81 13 69 -41 -6 -28 -5
-30 23 -30 16 0 32 3 35 6 4 4 33 8 64 9 99 3 144 42 83 72 -67 32 -284 42
-410 19z"/>
<path d="M911 3084 c-19 -13 -22 -24 -19 -55 2 -22 0 -39 -4 -39 -4 0 -28 11
-54 25 -63 33 -98 32 -135 -4 -24 -24 -29 -38 -29 -76 0 -48 17 -92 44 -114
19 -16 22 -91 4 -109 -9 -9 -6 -12 13 -12 23 0 25 3 24 51 0 50 0 51 39 64 21
8 59 28 83 45 24 18 47 29 51 25 4 -3 -1 -11 -10 -16 -49 -27 -41 -89 10 -89
36 0 52 17 52 52 0 35 10 35 66 2 41 -24 65 -28 134 -24 8 1 46 -10 84 -25 77
-29 196 -39 203 -18 3 9 -4 11 -25 7 -35 -7 -129 11 -189 37 l-44 19 18 26
c10 16 17 46 17 75 0 124 -112 154 -243 64 -57 -39 -63 -37 -26 7 29 34 31 46
9 76 -18 26 -41 28 -73 6z m63 -26 c9 -14 5 -23 -17 -45 -23 -24 -29 -26 -37
-13 -22 34 -3 84 29 78 7 -2 19 -11 25 -20z m213 -43 c30 -21 47 -84 33 -121
-22 -56 -24 -56 -136 -1 -57 29 -104 55 -104 59 0 9 67 49 109 64 48 17 72 17
98 -1z m-362 -20 c22 -13 45 -25 52 -25 6 0 24 -5 39 -10 38 -15 16 -35 -35
-31 -51 3 -97 -21 -124 -66 l-21 -36 -23 27 c-33 38 -32 108 2 141 31 31 59
31 110 0z m233 -111 c85 -43 111 -64 79 -64 -7 0 -44 16 -83 35 -38 19 -77 35
-86 35 -20 0 -32 16 -23 30 9 15 13 14 113 -36z m-168 19 c-1 -19 -120 -86
-120 -68 0 17 23 46 48 59 29 16 72 21 72 9z m65 -74 c0 -17 -6 -25 -22 -27
-17 -3 -23 2 -23 15 0 22 20 45 35 40 5 -2 10 -15 10 -28z"/>
<path d="M2037 3082 c-24 -27 -21 -59 9 -89 37 -37 21 -41 -20 -5 -47 41 -134
68 -177 56 -67 -19 -97 -107 -60 -177 l20 -39 -35 -14 c-46 -19 -143 -44 -172
-44 -13 0 -32 5 -43 10 -15 8 -19 7 -19 -4 0 -37 113 -31 226 13 51 20 77 25
94 19 27 -10 84 4 125 32 41 27 55 25 55 -9 0 -36 20 -53 57 -49 23 2 29 8 31
35 2 23 -3 35 -19 47 -13 8 -20 18 -17 22 4 3 30 -11 58 -30 29 -20 64 -39 79
-43 14 -3 29 -11 33 -17 12 -17 9 -71 -4 -84 -9 -9 -6 -12 15 -12 23 0 27 4
23 23 -15 71 -15 85 -1 91 28 10 55 69 55 119 0 40 -5 54 -29 78 -37 36 -72
37 -135 4 -26 -14 -51 -25 -56 -25 -4 0 -6 17 -3 39 4 32 2 41 -18 55 -30 21
-52 20 -72 -2z m61 -14 c14 -14 15 -47 3 -67 -11 -18 -47 1 -56 29 -12 37 27
64 53 38z m-134 -65 c17 -9 41 -24 54 -34 26 -20 33 -15 -96 -81 l-93 -48 -20
33 c-27 43 -19 103 18 136 22 19 33 22 66 17 21 -4 53 -14 71 -23z m341 -8
c31 -30 33 -86 5 -132 -24 -41 -32 -41 -49 -2 -19 43 -66 70 -118 67 -49 -2
-83 19 -46 28 12 4 48 19 80 34 72 35 97 36 128 5z m-230 -84 c0 -8 -18 -20
-40 -26 -22 -7 -62 -25 -89 -39 -51 -27 -76 -32 -76 -17 0 12 172 101 190 98
8 -1 15 -8 15 -16z m125 -16 c39 -20 65 -65 38 -65 -16 0 -108 62 -108 73 0
12 39 8 70 -8z m-109 -45 c28 -15 25 -52 -3 -48 -17 2 -24 11 -26 31 -4 30 0
32 29 17z"/>
<path d="M1440 2960 c0 -5 7 -10 16 -10 8 0 12 5 9 10 -3 6 -10 10 -16 10 -5
0 -9 -4 -9 -10z"/>
<path d="M1550 2960 c0 -5 4 -10 9 -10 6 0 13 5 16 10 3 6 -1 10 -9 10 -9 0
-16 -4 -16 -10z"/>
<path d="M692 2645 c-13 -27 -17 -47 -11 -50 11 -7 -65 -153 -90 -172 -10 -7
-11 -12 -4 -13 6 0 18 -3 27 -6 11 -4 16 0 16 12 0 11 18 52 40 92 33 59 45
72 65 72 14 0 25 -6 26 -12 0 -7 3 -44 8 -81 4 -38 4 -70 -1 -73 -17 -11 -7
-24 18 -24 21 0 25 3 19 18 -15 36 -27 176 -16 180 15 5 14 26 -6 67 -13 27
-23 35 -43 35 -21 0 -30 -9 -48 -45z"/>
<path d="M2233 2646 c-18 -37 -19 -45 -8 -57 11 -11 12 -29 4 -89 -5 -41 -12
-82 -15 -92 -4 -14 0 -18 21 -18 22 0 24 3 16 18 -9 17 -7 58 5 140 4 26 10
32 29 32 19 0 31 -14 64 -75 23 -41 41 -81 41 -90 0 -17 9 -19 30 -5 10 7 12
12 4 18 -19 13 -95 152 -89 162 4 6 -1 31 -11 55 -14 38 -21 45 -43 45 -22 0
-31 -8 -48 -44z"/>
<path d="M1504 2525 c11 -8 16 -18 11 -22 -4 -5 -10 -2 -12 5 -4 11 -33 18
-33 7 0 -3 9 -14 20 -25 24 -24 30 -25 30 -6 0 8 6 16 12 18 16 6 -14 38 -34
38 -8 -1 -6 -6 6 -15z"/>
<path d="M1333 2485 c-15 -17 -17 -39 -3 -30 6 3 13 -1 16 -9 8 -20 24 -21 24
-2 0 8 6 16 12 18 9 3 8 9 -4 21 -20 20 -29 21 -45 2z m37 -15 c0 -5 -4 -10
-10 -10 -5 0 -10 5 -10 10 0 6 5 10 10 10 6 0 10 -4 10 -10z"/>
<path d="M1630 2483 c-10 -12 -11 -18 -2 -21 7 -2 12 -10 12 -19 0 -17 22 -13
28 5 2 7 -3 12 -12 12 -9 0 -16 5 -16 10 0 14 13 13 28 -2 6 -6 15 -9 18 -5 7
7 -20 37 -33 37 -4 -1 -15 -8 -23 -17z"/>
<path d="M543 2370 c-38 -34 -38 -34 -18 -54 13 -13 8 -27 -46 -123 -34 -59
-67 -111 -73 -115 -8 -6 -6 -11 4 -18 21 -14 30 -12 30 6 0 29 114 224 130
221 17 -3 54 -196 45 -234 -5 -19 -1 -23 20 -23 16 0 25 6 25 16 0 18 121 223
132 224 8 0 22 -181 16 -220 -3 -23 0 -31 15 -36 23 -7 33 1 20 18 -6 7 -13
62 -17 122 -6 90 -4 111 9 125 13 16 13 22 -2 59 -13 35 -21 42 -43 42 -23 0
-32 -8 -49 -42 -21 -43 -21 -43 -1 -58 19 -15 18 -17 -37 -108 -31 -51 -58
-91 -59 -89 -6 5 -34 160 -34 185 0 12 6 22 14 22 19 0 9 80 -12 98 -23 18
-33 15 -69 -18z"/>
<path d="M2409 2393 c-23 -6 -33 -93 -12 -108 13 -9 12 -22 -2 -105 -9 -52
-18 -96 -19 -98 -2 -1 -29 39 -61 90 -55 90 -56 93 -36 106 l20 14 -22 44
c-17 35 -26 44 -47 44 -21 0 -30 -9 -48 -45 -21 -44 -21 -45 -1 -55 18 -10 19
-18 13 -103 -3 -51 -10 -107 -16 -125 -12 -39 -7 -46 22 -37 14 5 18 10 12 18
-6 7 -6 52 -1 112 4 55 8 107 9 115 0 12 2 12 14 0 24 -27 126 -200 126 -215
0 -9 9 -15 24 -15 22 0 24 4 20 33 -6 52 28 222 46 222 19 0 131 -201 123
-222 -5 -12 -1 -14 18 -8 33 10 35 13 17 28 -8 6 -41 59 -72 116 -52 94 -56
105 -42 120 14 16 13 20 -17 49 -33 32 -37 34 -68 25z"/>
<path d="M1817 2335 c9 -19 18 -33 21 -31 4 5 -26 66 -33 66 -3 0 3 -16 12
-35z"/>
<path d="M1195 2339 c-4 -6 -5 -12 -2 -15 2 -3 7 2 10 11 7 17 1 20 -8 4z"/>
<path d="M1338 2283 c94 -2 250 -2 345 0 94 1 17 3 -173 3 -190 0 -267 -2
-172 -3z"/>
<path d="M1230 2226 c0 -8 -6 -16 -12 -18 -9 -3 -8 -9 4 -21 21 -21 25 -21 46
-1 14 15 14 17 -1 26 -10 5 -15 13 -12 19 4 5 -1 9 -9 9 -9 0 -16 -6 -16 -14z
m25 -26 c-3 -5 -10 -10 -16 -10 -5 0 -9 5 -9 10 0 6 7 10 16 10 8 0 12 -4 9
-10z"/>
<path d="M1750 2226 c0 -8 -6 -16 -12 -18 -9 -3 -8 -9 4 -21 9 -9 19 -17 23
-17 4 0 14 8 23 17 12 12 13 18 4 21 -6 2 -12 10 -12 18 0 8 -7 14 -15 14 -8
0 -15 -6 -15 -14z m30 -26 c0 -5 -7 -10 -15 -10 -8 0 -15 5 -15 10 0 6 7 10
15 10 8 0 15 -4 15 -10z"/>
<path d="M1502 2123 l377 -3 4 -53 3 -52 2 58 2 57 -382 -2 -383 -3 377 -2z"/>
<path d="M1133 2070 c0 -25 2 -35 4 -22 2 12 2 32 0 45 -2 12 -4 2 -4 -23z"/>
<path d="M352 2017 c-29 -30 -31 -35 -17 -47 8 -7 15 -18 15 -25 0 -19 -100
-229 -111 -233 -19 -7 -8 -22 16 -22 17 0 25 5 23 14 -5 24 96 237 111 234 18
-4 83 -203 78 -235 -3 -18 0 -23 17 -22 16 0 33 24 76 110 30 60 58 109 61
109 10 0 61 -200 55 -216 -4 -10 2 -14 19 -14 16 0 25 6 25 16 0 9 18 59 41
110 31 71 46 94 60 94 24 0 31 -29 33 -140 1 -86 2 -90 24 -90 25 0 26 3 13
28 -6 9 -14 60 -19 112 -8 79 -7 96 5 105 12 9 12 14 -1 40 -9 17 -16 36 -16
43 0 7 -13 12 -33 12 -30 0 -36 -5 -52 -40 -14 -30 -15 -43 -6 -53 9 -11 3
-33 -26 -101 -21 -47 -40 -86 -43 -86 -10 0 -51 185 -42 188 5 1 16 8 25 15
13 11 13 16 -4 55 -15 35 -23 42 -47 42 -24 0 -32 -7 -48 -41 -17 -39 -17 -42
0 -54 16 -12 14 -20 -35 -105 -28 -50 -55 -88 -59 -83 -4 4 -20 50 -36 102
-20 67 -25 96 -16 99 8 2 9 18 5 50 -7 56 -3 49 -33 57 -20 5 -32 -1 -58 -28z"/>
<path d="M2599 2043 c-20 -5 -35 -93 -18 -103 11 -8 -45 -210 -59 -210 -4 0
-29 41 -55 91 -46 86 -47 91 -30 104 17 13 17 15 -4 52 -16 28 -29 39 -50 41
-25 2 -30 -3 -46 -40 -16 -40 -16 -44 -1 -55 9 -7 21 -14 26 -15 9 -3 -29
-166 -42 -181 -4 -5 -24 30 -44 77 -29 69 -34 89 -25 104 17 27 -24 92 -59 92
-22 0 -30 -8 -45 -42 -14 -35 -15 -44 -4 -55 11 -11 11 -31 1 -111 -7 -53 -15
-105 -19 -114 -6 -15 -2 -18 20 -18 21 0 25 3 17 13 -7 8 -7 43 1 112 11 90
14 100 33 103 18 3 27 -11 63 -93 22 -53 41 -103 41 -111 0 -8 10 -14 24 -14
19 0 23 4 19 19 -3 11 2 43 10 73 9 29 21 73 27 98 11 42 13 43 26 25 34 -45
105 -186 99 -195 -3 -6 5 -10 18 -10 19 0 25 5 25 23 0 21 56 209 67 228 4 5
12 9 18 9 13 0 107 -205 107 -232 0 -13 8 -18 25 -18 28 0 32 7 11 24 -7 6
-36 61 -64 123 -42 94 -48 114 -36 124 21 17 17 32 -14 62 -28 27 -33 28 -63
20z"/>
<path d="M1328 2003 c106 -2 277 -2 380 0 103 1 16 2 -193 2 -209 0 -293 -1
-187 -2z"/>
<path d="M1220 1943 c-10 -12 -11 -18 -2 -21 7 -2 12 -10 12 -18 0 -19 6 -18
30 6 18 18 19 23 6 35 -18 19 -27 18 -46 -2z m35 -13 c3 -5 -1 -10 -9 -10 -9
0 -16 5 -16 10 0 6 4 10 9 10 6 0 13 -4 16 -10z"/>
<path d="M1740 1943 c-10 -12 -11 -18 -2 -21 7 -2 12 -10 12 -18 0 -8 7 -14
15 -14 8 0 15 6 15 14 0 8 6 16 12 18 9 3 8 9 -4 21 -20 21 -29 21 -48 0z m40
-13 c0 -5 -7 -10 -15 -10 -8 0 -15 5 -15 10 0 6 7 10 15 10 8 0 15 -4 15 -10z"/>
<path d="M1348 1853 c89 -2 235 -2 325 0 89 1 16 3 -163 3 -179 0 -252 -2
-162 -3z"/>
<path d="M1790 1760 c-6 -11 -8 -20 -6 -20 3 0 10 9 16 20 6 11 8 20 6 20 -3
0 -10 -9 -16 -20z"/>
<path d="M1337 1688 c-17 -18 -17 -19 1 -38 18 -19 18 -19 35 1 16 18 16 21 0
38 -17 17 -19 17 -36 -1z m33 -18 c0 -5 -4 -10 -10 -10 -5 0 -10 5 -10 10 0 6
5 10 10 10 6 0 10 -4 10 -10z"/>
<path d="M1637 1689 c-16 -18 -16 -21 1 -39 18 -19 18 -19 35 1 16 18 16 21
-1 39 -18 19 -18 19 -35 -1z m33 -19 c0 -5 -7 -10 -15 -10 -8 0 -15 5 -15 10
0 6 7 10 15 10 8 0 15 -4 15 -10z"/>
<path d="M209 1638 c-20 -40 -20 -42 -3 -55 10 -7 32 -13 49 -13 17 0 39 6 49
13 17 13 17 15 -3 55 -16 32 -27 42 -46 42 -19 0 -30 -10 -46 -42z"/>
<path d="M2717 1638 c-12 -31 -14 -45 -6 -55 14 -17 80 -17 102 0 16 11 16 15
-3 55 -17 35 -25 42 -49 42 -24 0 -31 -6 -44 -42z"/>
<path d="M1487 1648 c-10 -11 -17 -21 -15 -22 2 -1 11 -8 20 -15 15 -11 20
-10 35 5 13 12 14 19 5 22 -6 2 -12 10 -12 18 0 19 -11 16 -33 -8z m33 -18 c0
-5 -4 -10 -10 -10 -5 0 -10 5 -10 10 0 6 5 10 10 10 6 0 10 -4 10 -10z"/>
<path d="M441 1621 c-25 -48 -14 -61 49 -61 63 0 72 12 47 60 -16 33 -24 40
-48 40 -23 0 -32 -7 -48 -39z"/>
<path d="M2481 1621 c-25 -48 -14 -61 51 -61 57 0 65 11 43 63 -13 31 -20 37
-45 37 -24 0 -33 -7 -49 -39z"/>
<path d="M650 1611 c-18 -36 -18 -40 -3 -52 19 -17 88 -18 104 -2 10 10 8 21
-6 53 -15 33 -23 40 -46 40 -23 0 -32 -8 -49 -39z"/>
<path d="M870 1642 c-18 -2 -30 -14 -41 -42 -21 -47 -11 -60 46 -60 64 0 72
11 50 60 -21 47 -21 47 -55 42z"/>
<path d="M2272 1610 c-17 -35 -18 -41 -4 -52 19 -16 85 -16 105 0 13 11 13 17
-4 52 -16 33 -25 40 -48 40 -24 0 -32 -7 -49 -40z"/>
<path d="M2095 1604 c-8 -20 -15 -40 -15 -44 0 -21 98 -28 117 -9 9 9 7 21 -8
50 -16 32 -25 39 -49 39 -25 0 -32 -6 -45 -36z"/>
<path d="M547 1044 c-9 -9 4 -35 14 -28 5 3 9 12 9 20 0 14 -12 19 -23 8z"/>
<path d="M1115 1040 c-4 -6 -3 -16 3 -22 6 -6 12 -6 17 2 4 6 3 16 -3 22 -6 6
-12 6 -17 -2z"/>
<path d="M1253 1039 c9 -5 17 -21 17 -34 0 -21 -5 -25 -28 -25 -37 0 -62 -28
-62 -68 0 -45 22 -61 81 -60 37 0 48 3 40 11 -6 6 -11 48 -11 99 l0 88 -27 0
c-24 -1 -25 -2 -10 -11z m12 -124 c0 -47 -2 -50 -25 -50 -18 0 -27 7 -34 27
-14 39 7 80 37 76 19 -3 22 -9 22 -53z"/>
<path d="M1543 1039 c9 -5 17 -21 17 -34 0 -21 -5 -25 -28 -25 -36 0 -65 -31
-65 -70 0 -38 19 -60 52 -60 l26 0 -25 13 c-47 24 -35 112 14 105 18 -3 21
-10 22 -58 1 -50 3 -55 25 -58 19 -3 22 -1 12 9 -9 8 -13 44 -13 101 l0 88
-27 0 c-24 -1 -25 -2 -10 -11z"/>
<path d="M1763 1039 c9 -5 17 -21 17 -34 0 -20 -5 -25 -26 -25 -39 0 -62 -17
-69 -50 -9 -42 16 -80 53 -80 l27 0 -25 13 c-47 24 -35 112 14 105 18 -3 21
-10 22 -58 1 -50 3 -55 25 -58 19 -3 22 -1 12 9 -9 8 -13 44 -13 101 l0 88
-27 0 c-24 -1 -25 -2 -10 -11z"/>
<path d="M2380 1035 c0 -9 5 -15 11 -13 6 2 11 8 11 13 0 5 -5 11 -11 13 -6 2
-11 -4 -11 -13z"/>
<path d="M2654 1034 c9 -8 16 -24 16 -35 0 -14 -7 -19 -30 -19 -58 0 -88 -60
-55 -107 12 -18 25 -21 71 -21 39 0 52 4 45 11 -6 6 -11 50 -11 99 0 88 0 88
-26 88 -23 0 -24 -1 -10 -16z m4 -76 c17 -17 15 -73 -4 -89 -33 -27 -64 21
-50 77 7 26 34 32 54 12z"/>
<path d="M2067 1020 c-45 -36 -47 -110 -4 -150 45 -43 122 -16 142 48 10 35
-13 90 -45 107 -39 20 -62 19 -93 -5z m89 -11 c22 -25 25 -108 5 -133 -20 -24
-67 -20 -85 6 -27 38 -17 117 18 140 20 13 42 8 62 -13z"/>
<path d="M188 1018 c7 -7 12 -40 12 -78 0 -76 9 -90 60 -90 54 0 70 23 70 102
0 44 4 68 13 71 6 3 -4 6 -23 6 -28 0 -32 -2 -17 -10 23 -14 24 -120 1 -143
-18 -19 -55 -21 -72 -4 -16 16 -16 145 1 151 6 3 -4 6 -22 6 -27 1 -32 -2 -23
-11z"/>
<path d="M379 967 c15 -15 14 -104 -1 -110 -7 -3 3 -6 22 -6 26 -1 31 2 22 11
-20 20 -15 86 8 98 11 6 25 8 30 5 15 -9 12 -102 -2 -108 -7 -3 2 -6 21 -6 26
-1 31 2 23 12 -6 7 -12 35 -14 62 l-3 50 -59 2 c-43 1 -55 -2 -47 -10z"/>
<path d="M538 968 c16 -16 16 -105 0 -111 -7 -3 3 -6 22 -6 26 -1 31 2 22 11
-7 7 -12 36 -12 65 0 48 -2 53 -22 53 -17 0 -19 -3 -10 -12z"/>
<path d="M608 968 c6 -7 21 -38 35 -68 l25 -55 10 27 c6 15 20 46 31 68 18 38
18 40 1 40 -13 0 -17 -5 -13 -19 3 -10 -2 -32 -10 -47 l-16 -29 -16 38 c-8 21
-13 42 -10 47 4 6 -6 10 -21 10 -20 0 -24 -3 -16 -12z"/>
<path d="M768 970 c-25 -15 -33 -66 -14 -95 19 -30 66 -34 87 -8 13 15 12 15
-9 2 -27 -17 -55 -3 -60 30 -3 18 1 21 37 21 33 0 41 4 41 18 0 37 -44 54 -82
32z m52 -4 c0 -2 3 -11 6 -20 5 -13 -1 -16 -25 -16 -29 0 -41 16 -24 33 7 8
43 10 43 3z"/>
<path d="M878 968 c16 -16 15 -105 0 -111 -7 -3 5 -6 27 -6 32 0 36 2 23 10
-23 13 -24 81 -3 99 10 9 15 9 15 1 0 -6 7 -11 16 -11 9 0 14 6 12 13 -3 7
-25 13 -53 14 -36 2 -45 -1 -37 -9z"/>
<path d="M992 963 c-14 -26 -4 -42 35 -58 20 -8 33 -20 31 -27 -7 -20 -38 -21
-59 -2 -18 16 -19 16 -19 -2 0 -30 74 -33 90 -4 14 26 6 39 -37 56 -19 8 -33
20 -30 27 6 20 40 21 54 1 12 -17 13 -16 13 4 0 18 -6 22 -35 22 -23 0 -37 -6
-43 -17z"/>
<path d="M1108 968 c16 -16 16 -90 0 -106 -9 -9 -4 -12 22 -11 19 0 29 3 23 6
-9 3 -13 26 -13 64 0 54 -2 59 -22 59 -17 0 -19 -3 -10 -12z"/>
<path d="M1353 973 c-15 -6 -17 -33 -3 -33 6 0 10 7 10 15 0 20 36 19 44 -2 4
-9 1 -20 -6 -25 -11 -6 -10 -8 0 -8 19 0 11 -41 -10 -54 -29 -18 -46 8 -23 34
20 22 8 27 -19 7 -10 -7 -17 -22 -14 -33 3 -16 12 -19 63 -20 33 -1 54 1 48 3
-8 3 -13 23 -13 52 0 26 -5 52 -12 59 -12 12 -43 15 -65 5z"/>
<path d="M1857 962 c-36 -40 -12 -112 37 -112 23 0 71 29 49 30 -6 0 -15 -4
-18 -10 -10 -17 -44 -11 -55 9 -17 33 -11 41 30 41 32 0 40 4 40 18 0 41 -54
57 -83 24z m61 -14 c3 -14 -3 -18 -27 -18 -34 0 -34 0 -25 25 8 21 48 16 52
-7z"/>
<path d="M2254 915 c17 -35 32 -62 34 -60 2 2 17 31 32 64 27 56 28 61 11 61
-14 0 -18 -5 -14 -19 3 -10 -2 -32 -10 -47 l-16 -29 -16 38 c-8 21 -13 42 -10
47 4 6 -4 10 -17 10 l-24 0 30 -65z"/>
<path d="M2368 968 c16 -16 16 -105 0 -111 -7 -3 3 -6 22 -6 26 -1 31 2 22 11
-7 7 -12 36 -12 65 0 48 -2 53 -22 53 -17 0 -19 -3 -10 -12z"/>
<path d="M2456 958 c-32 -46 -7 -108 43 -108 16 0 35 8 42 18 11 14 11 15 -1
5 -21 -19 -47 -16 -64 9 -20 29 -12 38 35 38 41 0 46 8 29 41 -15 27 -64 25
-84 -3z m67 -8 c4 -17 0 -20 -29 -20 -32 0 -34 2 -24 20 6 11 19 20 29 20 10
0 21 -9 24 -20z"/>
<path d="M2746 965 c-23 -23 -28 -52 -15 -77 16 -30 28 -38 60 -38 31 0 47 16
55 57 11 56 -61 97 -100 58z m68 -11 c17 -45 2 -94 -29 -94 -25 0 -35 17 -35
59 0 45 50 72 64 35z"/>
<path d="M1498 647 c6 -7 9 -23 5 -35 -4 -16 -13 -22 -34 -22 -52 0 -93 -65
-69 -109 11 -22 44 -28 55 -11 5 8 11 7 21 -1 7 -6 22 -8 31 -5 15 6 15 9 3
16 -12 8 -12 18 -1 72 8 35 16 73 19 86 3 18 0 22 -18 22 -17 0 -20 -3 -12
-13z m-16 -107 c-2 -32 -26 -70 -43 -70 -5 0 -13 9 -19 20 -17 31 13 92 42 88
20 -3 23 -8 20 -38z"/>
<path d="M1623 648 c-25 -33 -25 -40 1 -23 14 9 23 21 20 26 -7 12 -10 11 -21
-3z"/>
<path d="M1857 649 c5 -5 8 -21 5 -35 -3 -18 -11 -24 -31 -24 -56 0 -97 -62
-71 -109 11 -22 44 -28 55 -11 4 6 13 5 25 -2 15 -10 22 -10 32 0 9 9 8 12 -6
12 -12 0 -16 5 -12 18 8 24 36 146 36 155 0 4 -10 7 -22 7 -15 0 -19 -3 -11
-11z m-15 -109 c-3 -43 -37 -77 -59 -58 -10 8 -13 22 -9 41 8 40 25 59 50 55
17 -2 21 -9 18 -38z"/>
<path d="M1938 654 c-5 -4 -8 -21 -7 -38 0 -30 0 -30 10 -7 11 27 8 57 -3 45z"/>
<path d="M2435 634 c-16 -25 -16 -25 4 -15 25 14 34 28 22 35 -5 3 -16 -6 -26
-20z"/>
<path d="M790 634 c0 -17 22 -14 28 4 2 7 -3 12 -12 12 -9 0 -16 -7 -16 -16z"/>
<path d="M1357 644 c-8 -8 1 -24 14 -24 5 0 9 7 9 15 0 15 -12 20 -23 9z"/>
<path d="M2332 639 c2 -6 8 -10 13 -10 5 0 11 4 13 10 2 6 -4 11 -13 11 -9 0
-15 -5 -13 -11z"/>
<path d="M437 625 c3 -9 0 -43 -7 -75 -15 -71 -6 -90 44 -90 45 0 72 30 86 95
6 30 18 62 26 70 14 13 12 15 -18 15 -23 0 -29 -3 -19 -9 21 -13 -4 -127 -33
-146 -27 -20 -53 -19 -64 2 -11 20 13 134 31 145 7 5 -1 8 -20 8 -25 0 -31 -3
-26 -15z"/>
<path d="M1988 632 c12 -8 7 -55 -14 -123 -7 -24 22 -49 57 -49 43 0 76 37 85
95 3 26 15 56 25 66 19 19 18 19 -13 19 -23 0 -29 -3 -21 -11 21 -21 -17 -145
-48 -154 -29 -10 -59 4 -59 26 0 39 23 114 38 127 13 10 10 12 -24 12 -24 0
-34 -3 -26 -8z"/>
<path d="M606 581 c-3 -5 -1 -11 6 -13 9 -3 10 -15 1 -51 -12 -57 2 -74 16
-20 18 65 17 87 -1 91 -9 2 -19 -1 -22 -7z"/>
<path d="M665 581 c-3 -6 0 -8 8 -5 23 9 29 -12 16 -56 -15 -48 -3 -69 28 -51
17 10 17 10 0 11 -14 0 -16 5 -10 28 14 52 10 77 -14 80 -11 2 -24 -2 -28 -7z"/>
<path d="M769 577 c7 -9 8 -24 1 -48 -15 -53 -13 -69 11 -69 17 0 19 3 10 14
-9 11 -9 25 -1 55 12 45 7 61 -17 61 -12 0 -13 -3 -4 -13z"/>
<path d="M844 572 c3 -9 1 -33 -4 -52 -8 -27 -7 -38 4 -49 21 -20 63 -6 81 29
17 33 20 90 5 90 -7 0 -8 -13 -4 -34 5 -29 2 -39 -20 -61 -37 -37 -49 -24 -41
41 5 46 4 54 -10 54 -11 0 -15 -6 -11 -18z"/>
<path d="M1002 583 c-21 -8 -44 -63 -38 -89 8 -28 45 -40 76 -24 12 6 19 14
16 17 -3 3 -12 0 -21 -7 -23 -19 -45 -5 -45 30 0 42 16 70 41 70 28 0 21 -31
-11 -47 -17 -8 -19 -13 -9 -13 27 0 63 35 56 53 -6 16 -38 21 -65 10z"/>
<path d="M1096 581 c-3 -5 -1 -11 6 -13 9 -3 10 -15 1 -51 -12 -57 2 -74 16
-20 18 65 17 87 -1 91 -9 2 -19 -1 -22 -7z"/>
<path d="M1154 579 c-4 -8 -3 -9 4 -5 7 4 12 1 12 -9 0 -9 6 -15 13 -12 18 6
15 31 -5 35 -9 2 -20 -2 -24 -9z"/>
<path d="M1226 574 c-23 -22 -20 -33 14 -52 33 -19 39 -39 14 -49 -10 -4 -22
1 -29 11 -9 12 -15 14 -20 5 -15 -23 32 -37 66 -19 29 16 23 47 -11 65 -16 9
-30 20 -30 26 0 16 29 22 45 9 17 -14 31 -8 20 9 -9 16 -51 13 -69 -5z"/>
<path d="M1334 558 c0 -18 -2 -46 -5 -63 -3 -21 0 -30 11 -32 12 -3 16 5 16
34 0 21 2 49 4 63 3 16 0 25 -10 28 -11 2 -15 -7 -16 -30z"/>
<path d="M1570 570 c-26 -26 -34 -63 -20 -89 11 -22 44 -28 55 -11 4 6 13 5
25 -2 15 -10 22 -10 32 0 9 9 8 12 -6 12 -12 0 -16 5 -12 18 17 57 18 75 5 83
-23 15 -58 10 -79 -11z m62 -30 c-3 -42 -37 -77 -58 -59 -18 15 -18 33 2 70
11 22 21 29 37 27 18 -3 22 -9 19 -38z"/>
<path d="M2155 580 c-3 -6 -1 -9 7 -8 13 3 13 -6 2 -69 -6 -29 -4 -33 21 -39
38 -9 75 29 82 86 5 34 3 42 -8 38 -8 -3 -12 -12 -10 -19 9 -31 2 -64 -19 -81
-31 -25 -54 -13 -45 26 12 53 11 70 -7 74 -9 2 -19 -2 -23 -8z"/>
<path d="M2308 577 c8 -10 8 -24 1 -51 -12 -44 -6 -66 17 -66 13 0 14 3 5 14
-9 11 -9 25 -1 55 12 45 7 61 -17 61 -12 0 -13 -3 -5 -13z"/>
<path d="M2392 567 c-53 -57 -6 -139 54 -91 18 14 18 15 -4 4 -30 -15 -52 2
-52 40 0 27 26 60 48 60 24 0 12 -38 -15 -48 -16 -6 -23 -11 -16 -11 6 -1 24
4 38 9 20 7 26 16 23 33 -4 32 -47 35 -76 4z"/>
<path d="M2495 580 c-3 -5 -1 -10 5 -10 7 0 9 -16 4 -50 -7 -55 7 -71 44 -51
13 7 22 7 30 -1 5 -5 16 -7 22 -3 8 5 9 10 2 14 -7 4 -8 20 -2 46 12 51 12 65
1 65 -5 0 -12 -18 -16 -41 -7 -43 -39 -84 -55 -74 -6 4 -7 29 -4 61 6 45 4 54
-9 54 -9 0 -19 -4 -22 -10z"/>
<path d="M1852 289 c2 -7 10 -15 17 -17 8 -3 12 1 9 9 -2 7 -10 15 -17 17 -8
3 -12 -1 -9 -9z"/>
<path d="M2568 288 c6 -7 8 -25 5 -40 -4 -23 -9 -26 -32 -22 -41 7 -81 -37
-81 -90 0 -27 32 -52 52 -40 7 4 28 7 48 6 25 -2 31 0 20 7 -12 9 -12 18 -1
73 26 117 26 118 1 118 -17 0 -20 -3 -12 -12z m-15 -112 c-3 -44 -17 -66 -44
-66 -24 0 -32 15 -24 50 8 37 32 62 54 58 12 -3 15 -13 14 -42z"/>
<path d="M682 279 c2 -6 8 -10 13 -10 5 0 11 4 13 10 2 6 -4 11 -13 11 -9 0
-15 -5 -13 -11z"/>
<path d="M1270 274 c0 -17 22 -14 28 4 2 7 -3 12 -12 12 -9 0 -16 -7 -16 -16z"/>
<path d="M1818 273 c-8 -10 -18 -26 -21 -35 -4 -10 -12 -18 -19 -18 -10 0 -10
-2 0 -9 11 -6 10 -21 -3 -79 -18 -77 -27 -91 -50 -72 -12 10 -15 9 -15 -4 0
-9 8 -16 18 -16 32 0 60 42 72 108 11 52 16 62 34 63 17 1 17 2 4 6 -20 5 -23
25 -8 54 13 24 8 25 -12 2z"/>
<path d="M2003 282 c-27 -4 -72 -48 -79 -77 -10 -41 0 -78 28 -98 33 -25 69
-17 109 23 23 23 29 37 29 73 0 58 -33 88 -87 79z m61 -44 c7 -19 5 -39 -8
-72 -21 -55 -47 -73 -83 -57 -24 11 -25 16 -21 66 6 67 29 97 72 93 23 -2 33
-10 40 -30z"/>
<path d="M2292 278 c6 -18 28 -21 28 -4 0 9 -7 16 -16 16 -9 0 -14 -5 -12 -12z"/>
<path d="M317 269 c7 -7 6 -27 -4 -67 -17 -71 -11 -98 23 -106 60 -15 90 15
114 114 6 25 19 51 28 58 13 10 10 12 -23 12 -33 0 -36 -2 -22 -12 15 -12 15
-19 3 -72 -8 -32 -21 -65 -29 -73 -15 -16 -62 -21 -74 -9 -13 12 15 140 33
153 16 11 13 13 -21 13 -27 0 -36 -3 -28 -11z"/>
<path d="M1350 245 c0 -9 -7 -18 -16 -22 -9 -3 -11 -8 -6 -12 7 -4 7 -22 -1
-54 -12 -55 -2 -76 30 -58 17 10 17 10 1 11 -21 0 -21 -1 -7 56 9 34 16 44 33
45 17 1 17 2 4 6 -10 2 -18 13 -18 24 0 10 -4 19 -10 19 -5 0 -10 -7 -10 -15z"/>
<path d="M500 220 c-12 -8 -12 -10 -1 -10 10 0 12 -10 7 -39 -3 -22 -9 -47
-13 -56 -4 -12 -2 -16 8 -13 7 2 18 22 24 44 13 52 22 64 47 64 17 0 19 -4 14
-26 -21 -82 -21 -84 10 -84 23 1 26 3 13 10 -14 8 -15 16 -6 55 13 57 1 75
-39 56 -17 -7 -30 -8 -38 -2 -7 6 -17 6 -26 1z"/>
<path d="M656 221 c-3 -5 -1 -11 5 -13 7 -2 7 -18 -2 -51 -13 -55 -4 -76 28
-58 17 10 17 10 0 11 -14 0 -16 5 -10 28 11 41 9 85 -4 89 -6 2 -14 0 -17 -6z"/>
<path d="M735 220 c-18 -8 -18 -9 -1 -9 11 -1 16 -6 13 -15 -3 -8 -9 -30 -12
-49 -6 -30 -3 -37 15 -47 19 -10 27 -9 49 7 41 31 63 123 29 123 -6 0 -8 -14
-4 -36 8 -42 -14 -84 -44 -84 -27 0 -30 11 -18 59 12 47 4 63 -27 51z"/>
<path d="M895 205 c-32 -31 -35 -89 -6 -105 22 -11 64 1 76 22 6 10 5 11 -6 1
-7 -7 -23 -13 -36 -13 -27 0 -43 28 -23 40 10 6 9 9 -1 12 -18 6 15 58 36 58
21 0 19 -37 -2 -50 -17 -10 -17 -11 1 -8 42 7 47 68 6 68 -12 0 -32 -11 -45
-25z"/>
<path d="M1010 220 c-12 -8 -12 -10 -1 -10 13 0 13 -15 -5 -84 -4 -16 -2 -26
5 -26 6 0 16 20 22 45 12 47 39 81 46 58 7 -20 23 -15 23 7 0 23 -4 24 -31 9
-14 -7 -24 -7 -32 0 -8 6 -18 6 -27 1z"/>
<path d="M1148 219 c-26 -14 -22 -46 7 -65 14 -9 25 -23 25 -30 0 -22 -31 -30
-42 -11 -11 21 -28 22 -28 3 0 -19 46 -29 70 -16 29 15 26 58 -4 70 -32 12
-39 25 -21 40 12 10 18 10 30 0 9 -7 19 -10 22 -6 8 8 -15 26 -32 26 -5 -1
-18 -5 -27 -11z"/>
<path d="M1240 220 c-13 -8 -12 -10 3 -10 13 0 17 -5 13 -17 -12 -43 -17 -91
-9 -96 4 -2 17 -1 28 4 18 7 18 8 2 8 -16 1 -17 6 -11 34 17 71 7 99 -26 77z"/>
<path d="M1421 221 c-10 -7 -10 -10 -1 -13 9 -3 9 -13 1 -46 -14 -51 -9 -62
27 -61 19 1 21 3 8 6 -16 4 -17 11 -11 58 6 54 -1 70 -24 56z"/>
<path d="M1512 213 c-8 -16 -26 -94 -23 -101 1 -1 -6 -16 -14 -32 -15 -28 -55
-43 -55 -20 0 6 -4 10 -10 10 -5 0 -10 -7 -10 -15 0 -22 56 -19 79 4 20 20 33
59 47 134 7 39 1 48 -14 20z"/>
<path d="M1645 205 c-29 -28 -33 -76 -9 -99 18 -19 25 -20 57 -5 43 20 61 84
31 113 -22 23 -51 20 -79 -9z m65 0 c17 -20 -2 -90 -26 -99 -28 -11 -47 14
-40 52 9 57 40 79 66 47z"/>
<path d="M2120 220 c-11 -7 -12 -10 -2 -10 11 0 12 -11 7 -49 -6 -44 -4 -51
14 -61 27 -14 56 1 76 40 16 32 20 76 6 84 -15 10 -20 -5 -9 -29 15 -32 -15
-87 -45 -83 -19 3 -21 8 -18 38 6 64 6 73 -4 76 -5 2 -17 -1 -25 -6z"/>
<path d="M2266 221 c-4 -5 -1 -11 6 -13 9 -3 8 -16 -1 -53 -14 -54 -5 -74 26
-56 10 6 12 11 5 11 -10 0 -11 14 -6 60 6 51 4 60 -9 60 -9 0 -18 -4 -21 -9z"/>
<path d="M2372 214 c-66 -46 -38 -144 32 -112 14 6 26 16 26 22 0 6 -5 5 -12
-2 -17 -17 -48 -15 -55 4 -3 9 0 20 8 25 10 6 10 9 2 9 -7 0 -13 6 -13 13 0
16 32 47 48 47 19 0 14 -38 -5 -49 -24 -14 -7 -14 18 -1 23 13 25 46 3 54 -23
9 -27 8 -52 -10z"/>
<path d="M2646 208 c-36 -33 -43 -71 -17 -97 12 -12 27 -21 34 -21 6 0 4 5 -5
11 -42 24 -7 132 37 116 20 -8 20 -66 -1 -95 -19 -27 -4 -29 20 -3 24 26 24
80 1 97 -26 19 -40 17 -69 -8z"/>
</g>
</svg>
